<?xml version="1.0" encoding="utf-8"?>
<!-- Generator: Adobe Illustrator 23.0.1, SVG Export Plug-In . SVG Version: 6.00 Build 0)  -->
<svg version="1.1" id="Icons" xmlns="http://www.w3.org/2000/svg" xmlns:xlink="http://www.w3.org/1999/xlink" x="0px" y="0px"
	 width="5.1px" height="10.9px" viewBox="0 0 5.1 10.9" style="enable-background:new 0 0 5.1 10.9;" xml:space="preserve">
<style type="text/css">
	.st0{fill:#2B52ED;}
	.st1{fill:#20368C;}
	.st2{fill:#13193E;}
	.st3{fill:#FFFFFF;}
</style>
<path id="Facebook_3_" class="st3" d="M1.1,2.1c0,0.3,0,1.5,0,1.5H0v1.8h1.1v5.5h2.3V5.5h1.5c0,0,0.1-0.9,0.2-1.8
	c-0.2,0-1.7,0-1.7,0s0-1.1,0-1.3c0-0.2,0.2-0.4,0.5-0.4c0.2,0,0.8,0,1.2,0c0-0.3,0-1.1,0-1.9C4.5,0,3.7,0,3.4,0C1,0,1.1,1.8,1.1,2.1
	z"/>
</svg>
