<?xml version="1.0" encoding="utf-8"?>
<!-- Generator: Adobe Illustrator 23.0.1, SVG Export Plug-In . SVG Version: 6.00 Build 0)  -->
<svg version="1.1" id="Layer_9" xmlns="http://www.w3.org/2000/svg" xmlns:xlink="http://www.w3.org/1999/xlink" x="0px" y="0px"
	 width="194.8px" height="78.6px" viewBox="0 0 194.8 78.6" style="enable-background:new 0 0 194.8 78.6;" xml:space="preserve">
<style type="text/css">
	.st0{fill:#FCB526;}
	.st1{fill:#001F1F;}
	.st2{fill:#FFFFFF;}
	.st3{fill:url(#Path_16_1_);}
	.st4{fill:#182D26;}
	.st5{fill-rule:evenodd;clip-rule:evenodd;fill:#153329;}
	.st6{fill:#1B312A;}
</style>
<g>
	<g>
		<polygon class="st6" points="59.9,69.5 59.9,69.5 59.9,69.5 		"/>
		<path class="st6" d="M119.8,74.6c-1.3,0.5-2.7,0.2-4.1,0.4c-1.7,0.2-3.4,0.2-5.1,0.2c0.4,0.6,0.9,0.4,1.5,0.5c0.6,0,1.4-0.4,1.9,0
			c0.7,0.6,1.6,0.7,2.7,0.9c-1.8,0.2-3.4,0.4-4.9,0.5c-1.6,0.1-3.1-0.3-4.7,0.4c3.7,0,7.4,0.5,11.1-0.4c0.4-0.1,0.9-0.1,1.1-0.8
			c-0.9-0.3-1.8-0.3-2.9-0.5c0.4-0.1,0.6-0.1,0.8-0.2c0.9-0.2,1.8-0.2,2.7-0.2c0.2,0,0.4,0,0.4-0.4C120.2,74.5,120,74.5,119.8,74.6z
			"/>
		<path class="st6" d="M110.5,75.2C110.6,75.2,110.6,75.2,110.5,75.2C110.6,75.2,110.6,75.2,110.5,75.2L110.5,75.2z"/>
		<path class="st6" d="M70.8,73.4c-1.4,0.1-2.7,0.3-4.1,0.2c-1.1-0.1-2.3-0.2-3.4-0.3c-1.6-0.1-3.3-0.1-4.9-0.6
			c-0.2,0-0.4,0-0.4,0.3c0.4,0.4,1-0.1,1.4,0.5c-1.1,0.2-2.2,0.3-3.2,0.5c-1.1,0.2-2.3,0-3.5,0.7c0.9,0.1,1.5,0,2.1-0.1
			c2.9-0.6,5.9-0.7,8.9-0.5c2.4,0.2,4.8-0.1,7.2-0.3c0.5,0,1-0.2,1.6-0.3C71.9,73.2,71.3,73.3,70.8,73.4z"/>
		<path class="st6" d="M145.5,76.2c0.3,0.3,0.6,0.2,0.8,0.3c2.1,0.2,4.2,0.1,6.2,0.6c1,0.2,2.2,0.1,3.3,0.1c0.3,0,0.7,0,0.9-0.4
			C155.8,76.2,147.6,75.8,145.5,76.2z"/>
		<path class="st6" d="M126.6,77.2c-0.3,0-0.7-0.2-0.8,0.2c-0.1,0.5,0.4,0.4,0.7,0.5c0.2,0,0.4,0,0.5,0c2.6,0.1,5.3,0.2,7.9,0.3
			c1.7,0.1,3.3,0.1,5,0.2c-2.2-0.3-4.4-0.6-6.5-0.7C131.2,77.5,128.9,77.5,126.6,77.2z"/>
		<path class="st6" d="M56.6,78.1c-2.6-0.2-5.2-0.7-8-0.5c1.4,0.6,13.9,1.2,16.1,0.7C61.8,77.6,59.2,78.3,56.6,78.1z"/>
		<path class="st6" d="M31.9,77.2c4.1-0.8,8.3-0.4,12.4-1.3C41.5,75.6,33.4,76.4,31.9,77.2z"/>
		<path class="st6" d="M86.6,76.6c-1,0-2.1,0-3.1-0.5c-0.6-0.3-1.4-0.3-2,0c0.1,0.5,0.4,0.5,0.7,0.5c2.6,0.1,5.2,0.1,7.7,0.4
			c0-0.1,0-0.3,0-0.4C88.8,76.6,87.7,76.6,86.6,76.6z"/>
		<path class="st6" d="M0,74.5c-0.1,0.2,0.2,0.1,0,0.1C1,75.1,5,75,6.5,74.4c-2.1,0.1-4.3,0-6.4,0C0.1,74.4,0,74.4,0,74.5z"/>
		<path class="st6" d="M96.5,77.2c1.1-0.2,2.1-0.4,3.2,0.1c0.3,0.1,0.7,0.1,1-0.4c-2.1-0.1-4.1-0.1-6.2-0.2
			C95.1,77.3,95.8,77.3,96.5,77.2z"/>
		<path class="st6" d="M14.1,75c-1.2,0.1-2.4,0.3-3.6,0.4c0,0.1,0,0.2,0,0.3c0.3,0,0.6,0,0.9,0c1.5-0.1,3-0.2,4.5-0.3
			C15.3,75.3,14.7,75,14.1,75z"/>
		<path class="st6" d="M47.1,75.4c1.5-0.2,2.9-0.3,4.4-0.5c-1.5-0.3-3-0.1-4.4,0.2C47.1,75.2,47.1,75.3,47.1,75.4z"/>
		<path class="st6" d="M102.5,76.9c0.9,0.4,3,0.5,3.5,0.2C104.8,76.7,103.7,76.9,102.5,76.9z"/>
		<path class="st6" d="M121.4,74.9c1.2,0.4,2.2-0.1,3.3-0.1C123.6,74.3,122.6,74.5,121.4,74.9z"/>
		<path class="st6" d="M31.5,74.1c-1.4,0-2.8-0.1-4.1-0.1C28.7,74.4,30.1,74.3,31.5,74.1z"/>
		<path class="st6" d="M49.4,76.5c-1.3-0.6-2-0.6-2.7,0.1C47.6,76.9,48.5,76.4,49.4,76.5z"/>
		<path class="st6" d="M20.7,72.8c-0.2-0.8,0.4-1.6-0.4-2.6c-0.3,1-0.2,1.7-0.3,2.4c0,0.2,0.2,0.3,0.4,0.4
			C20.5,73,20.7,72.9,20.7,72.8z"/>
		<path class="st6" d="M36.2,73.6c-0.2,0-0.4,0.1-0.7,0.1c0,0,0,0,0,0c-1-0.3-2-0.6-3.1-0.6c1,0.5,2.1,0.9,3.2,0.8
			c0.4,0,0.9-0.1,1.3-0.2c0,0,0.1,0,0-0.1c1.3-0.2,2.6-0.1,3.9-0.5c-1.5,0-3,0-4.4,0.4C36.4,73.4,36.3,73.5,36.2,73.6z"/>
		<path class="st6" d="M20.3,77.8c0.4-0.6,0.8-1.3,1.3-1.9C20.6,76.1,20.4,76.9,20.3,77.8z"/>
		<path class="st6" d="M87.7,74.9c0.9-0.3,1.8,0,2.7-0.2c-0.9,0-1.8-0.1-2.7-0.1C87.7,74.7,87.7,74.8,87.7,74.9z"/>
		<path class="st6" d="M109.1,75.6c-0.9-0.1-1.8-0.3-2.7,0C107.2,75.9,108.2,75.8,109.1,75.6z"/>
		<path class="st6" d="M24.1,73.4c-0.1,0.1-0.2,0.2-0.4,0.2c-0.1,0-0.1,0.1-0.2,0.1c-0.7,0.2-1.4,0.5-2.2,0.8
			c1.5,0.3,2.1,0.2,2.5-0.8c0.1,0,0.1-0.1,0.2-0.1c0,0,0.1-0.1,0.1-0.1c0.7-0.1,1.3-0.6,1.9-1C25.2,72.6,24.7,73,24.1,73.4
			C24.2,73.4,24.2,73.4,24.1,73.4z"/>
		<path class="st6" d="M62,76.3c-0.7,0-1.4-0.1-2.1-0.1c-0.2,0-0.4,0-0.5,0.4c0.9-0.2,1.7-0.2,2.5-0.2C61.9,76.5,61.9,76.4,62,76.3z
			"/>
		<path class="st6" d="M46,77.5c0.5,0.3,0.9,0.3,1.4,0C46.9,77.2,46.5,77.2,46,77.5z"/>
		<path class="st6" d="M70.7,71.2c0.2-0.4,0.6-0.7,0.6-1.4C70.4,70.6,70.4,70.6,70.7,71.2z"/>
		<path class="st6" d="M110.4,74.7c-0.4-0.6-0.6-0.9-1.1-0.8C109.5,74.3,109.8,74.5,110.4,74.7z"/>
		<path class="st6" d="M59.5,71.5c0.1,0.1,0.1,0.1,0.2,0.1c0.3,0,0.5,0.1,0.8,0c0.1,0,0.1-0.2,0-0.2c-0.2-0.1-0.5-0.1-0.8-0.1
			C59.7,71.4,59.6,71.5,59.5,71.5z"/>
		<path class="st6" d="M48.3,72.7c0.3,0.3,0.6,0.2,0.9,0C48.9,72.4,48.7,72.5,48.3,72.7z"/>
		<path class="st6" d="M140.2,76c0,0,0-0.1,0-0.1c-0.2,0-0.4,0-0.7,0.1C139.7,75.9,140,76,140.2,76z"/>
		<path class="st6" d="M40.4,69.4c-0.3-0.3-0.5-0.2-0.8,0C39.9,69.6,40.1,69.6,40.4,69.4z"/>
		<path class="st6" d="M110.5,75.2C110.5,75.2,110.6,75.2,110.5,75.2C110.6,75.2,110.5,75.2,110.5,75.2
			C110.5,75.2,110.5,75.2,110.5,75.2z"/>
		<path class="st6" d="M109.1,75.2c0.6,0.1,1,0.2,1.4-0.1C110.1,75,109.7,74.8,109.1,75.2z"/>
		<path class="st6" d="M6.5,69.5c0,0,0-0.3-0.1-0.4C6.3,69.1,6.1,69.1,6,69c0.1,0.1,0.1,0.2,0.2,0.3C6.2,69.4,6.2,69.7,6.5,69.5z"/>
		<path class="st6" d="M17.8,75c-0.1,0-0.2,0-0.3,0c-0.1,0-0.1,0.1,0,0.2c0.1,0,0.2,0,0.4,0C18,75.1,18,75,17.8,75z"/>
		<path class="st6" d="M57.7,76.4c-0.1,0-0.2,0.1-0.2,0.1c0.1,0,0.1,0.1,0.2,0.1c0.1,0,0.2,0,0.2-0.1C57.9,76.5,57.8,76.5,57.7,76.4
			z"/>
		<path class="st6" d="M84.9,73.8c-0.7-0.3-1.1-0.4-1.8,0C83.8,74.2,84.2,74.1,84.9,73.8z"/>
		<path class="st6" d="M82.1,72.6c-0.2-1.4-1.1-1.9-2.3-1.7c-0.4,0.1-0.5,0.3-0.3,0.7c0.7,1,1.4,2,2.9,2.1
			C82.4,73.3,82.2,73,82.1,72.6z"/>
		<path class="st6" d="M28.9,62.8c-0.1,0-0.2-0.1-0.3-0.1c-1.1,0.4-2.2,0.9-3.5,0.4c-0.2-0.1-0.4,0-0.7,0.1
			c-0.3,0.1-0.3,0.5-0.4,0.7c-0.2,0.3-0.3-0.5-0.7-0.2c-0.3,0.2-0.3,0.5-0.1,0.8c0.4,0.5,0.8,1,1.2,1.4c1.1,1.4,1.2,1.5,2.3,0.7
			c0.1-0.1,0.2-0.3,0.3-0.4c0.3-1,1.3-1.5,1.9-2.6c-1.2,0.6-1.9,1.5-2.9,1.9C26.8,64.2,28.2,64,28.9,62.8z"/>
		<path class="st6" d="M142.1,72c-0.5-0.4-1-0.1-1.6,0.3c0.6,0.5,1,0.5,1.5,0.3c0.1,0,0.3-0.1,0.3-0.3
			C142.3,72.2,142.2,72.1,142.1,72z"/>
		<path class="st6" d="M29.8,63.2c0.1,0,0.1-0.1,0.2-0.2c0-0.1-0.1-0.2-0.2-0.1c-0.1,0-0.1,0.1-0.2,0.2
			C29.6,63.2,29.7,63.2,29.8,63.2z"/>
		<path class="st6" d="M39.7,67.3c0.1,0.3,0.2,0.7,0.5,0.4c0.6-0.6,1.3-1.2,1.5-2.2c0.1-0.3,0-0.6-0.3-0.6c-0.4,0.5-0.8,1-1.4,1.1
			C39.9,66.4,39.6,66.8,39.7,67.3z"/>
		<path class="st6" d="M95,72.1c-0.7-0.1-1.1-0.5-1.5-0.8c-0.5-0.4-0.9-0.6-1.5-0.2c-0.6,0.4-1.4,0.6-1.1,1.9c-1-1.1-1.7-0.2-2.5,0
			c-0.1-1.1-0.1-1.1-1-1.1c0,0,0,0,0,0c-0.5,0.3-1,0.3-1.6,0.2c0.3-0.7,0.8-1.2,0.9-1.9c0-0.4,0.1-0.8-0.3-1c-0.3-0.2-1,0.3-0.9,0.8
			c0.1,0.7-0.1,0.7-0.6,0.7c-0.6-0.1-0.7,0.3-0.4,0.8c0.1,0.2,0.2,0.3,0.1,0.5c-0.1,0.1-0.2,0.1-0.4,0c-0.3-0.2-0.7-0.4-0.8,0.2
			c-0.1,0.5,0.2,0.8,0.7,0.9c0.2,0,0.4,0,0.5,0c3.8,0.6,7.7,0.5,11.6,0.7c1.3,0.1,2.5,0.1,3.8,0.1c0.5,0,1.1,0.1,1.5-0.6
			c-2.5-1.3-5-2.1-7.7-3C93.8,71.2,94.7,71.3,95,72.1z"/>
		<path class="st6" d="M29.7,70.2c0.5-0.7,1.1-1.1,2-1.1c0.4,0,0.7-0.3,0.7-0.8c0-0.4,0.3-0.6,0.6-0.6c0.9,0,1.5-0.6,2.1-1.2
			c0.7-0.7,0.7-0.9,0.2-2.1c-1,0.5-2,0.9-2,2.3c0,0.3-0.2,0.4-0.5,0.1c-0.1-0.2-0.3-0.2-0.5,0c-1.3,0.9-2.4,2.1-3.4,3.4
			C29.4,70.4,29.6,70.4,29.7,70.2z"/>
		<path class="st6" d="M28.1,67.3c0.4-0.3,0.5-0.7,0.2-1.1c-0.4-0.5-0.6,0-0.9,0.2c-0.1,0-0.1,0.1-0.2,0.1c0,0,0,0,0,0
			c0,0,0,0.1,0,0.1c-0.1,0.4-0.7,0.9-0.2,1.3C27.4,68.2,27.7,67.6,28.1,67.3z"/>
		<path class="st6" d="M131.5,73c-0.1,0.1-0.2,0.1-0.2,0.2c0,0.1,0.1,0.2,0.2,0.1c0.1,0,0.2-0.1,0.2-0.2C131.7,73,131.6,73,131.5,73
			z"/>
		<path class="st6" d="M14.8,68.1c-0.1,0.2-0.2,0.4-0.2,0.6c0.2-0.1,0.4-0.1,0.6-0.2c0.2-0.1,0.3-0.3,0.2-0.4
			C15.1,67.7,14.9,67.9,14.8,68.1z"/>
		<path class="st6" d="M15.3,70.3c0.1,0.1,0.2,0.2,0.3,0.2c0.4,0,1.6-1.4,1.6-1.9c0-0.3-0.1-0.5-0.4-0.5c-0.7-0.1-1.1,0.4-1.5,0.8
			C14.9,69.3,15.1,69.8,15.3,70.3z"/>
		<path class="st6" d="M79.8,70.6c0.9-0.2,1.9-0.1,2.6-1c0.7-0.8,0.8-1.7,0.8-2.8c-0.6,0.1-1,0.3-1.1,1c0,0.4,0,0.7-0.5,0.3
			C81.6,68,81.4,68,81.3,68c-0.6,0.5-1.3,1-1.9,1.7C79.1,70,79.4,70.7,79.8,70.6z"/>
		<path class="st6" d="M139,71.8c0-0.2-0.2-0.3-0.4-0.3c-0.4,0.1-0.9,0-1,0.5c0,0.2,0.2,0.3,0.5,0.3C138.4,72.3,138.9,72.4,139,71.8
			z"/>
		<path class="st6" d="M134.5,71.1c0.4,0,1-0.1,1.1-0.7c0-0.3-0.1-0.6-0.5-0.6c-0.4,0.1-0.9,0.1-1.1,0.7
			C133.9,70.8,134.2,71.1,134.5,71.1z"/>
		<path class="st6" d="M17,70.1c-0.8,0.4-1.3,1.1-1.3,2.1c0.6,0.2,1.4,0.4,1.7-0.1c0.3-0.5,0-1.3-0.3-1.9
			C17.1,70.2,17.1,70.2,17,70.1z"/>
		<path class="st6" d="M132.1,71.8c0.7,0.2,0.7,0.2,1.6-0.1C133,71.6,132.6,71.3,132.1,71.8z"/>
		<path class="st6" d="M133.8,72.6c-0.1,0-0.3,0.1-0.3,0.2c0,0,0.1,0.1,0.2,0.2c0.1-0.1,0.3-0.1,0.3-0.2
			C134.1,72.7,133.9,72.6,133.8,72.6z"/>
		<path class="st6" d="M141,70.9c-0.2-0.4-0.3-0.7-0.8-0.6c-0.3,0.1-0.7,0.1-0.7,0.6c0,0.5,0.4,0.7,0.8,0.5
			C140.6,71.4,141,71.4,141,70.9z"/>
		<path class="st6" d="M41.5,64.8c0.4-0.6,0.8-1.3,1.6-1.4c0.3-0.4,0.7-0.7,0.9-1.2c-0.4-0.4-0.7-0.7-1.1-1
			c-0.3-0.2-0.6-0.2-0.9-0.1c-1.7,0.9-2.4,2.7-1.9,4.7C40.4,65.3,40.8,65,41.5,64.8z"/>
		<path class="st6" d="M69.8,66.2c-0.1,0.4,0.2,0.9,0.7,0.9c0.5,0.1,0.8-0.4,1-0.8c0-0.4-0.1-0.6-0.5-0.6
			C70.5,65.7,70,65.6,69.8,66.2z"/>
		<path class="st6" d="M90.4,71.1c0.5,0,1.6-0.9,1.6-1.2c-0.1-0.6-0.8-1.3-1.3-1.2c-0.5,0-1,0.5-1,1C89.7,70.5,90.1,71.2,90.4,71.1z
			"/>
		<path class="st6" d="M87.3,68.4c-0.3,0.2-0.3,0.6-0.1,0.9c0.2,0.3,0.4,0.5,0.8,0.3c0.3-0.2,0.7-0.3,0.9-0.7
			c0.1-0.5,0.6-0.3,0.8-0.6C88.8,67.6,88,67.8,87.3,68.4z"/>
		<path class="st6" d="M102.9,72.6c0,0.1-0.1,0.2-0.1,0.4c-0.1,0.2,0,0.4,0.2,0.5c0.1,0,0.2,0,0.2,0c0.1-0.2,0.1-0.4,0-0.5
			C103.1,72.8,103,72.7,102.9,72.6z"/>
		<path class="st6" d="M87.2,71c-0.2,0.1-0.3,0.3-0.1,0.6c0.1,0.1,0.2,0.2,0.3,0.3c0.1-0.2,0.3-0.3,0.3-0.6
			C87.6,71.1,87.4,70.9,87.2,71z"/>
		<path class="st6" d="M62.6,67.2c-0.2-0.3-0.4-0.1-0.6,0c-0.3,0.3-0.7,0.6-0.8,1.3c0.5-0.2,0.9-0.3,1.2-0.5
			C62.8,67.8,62.8,67.5,62.6,67.2z"/>
		<path class="st6" d="M64.1,68.3c0.1,0.2,0.3,0.3,0.5,0.2c0.4-0.3,1-0.5,1.4-1.3c-0.8,0.2-1.3,0.3-1.8,0.6
			C64,68,63.9,68.1,64.1,68.3z"/>
		<path class="st6" d="M88.5,70.2c-0.3,0.1-0.5,0.2-0.5,0.6c0,0.3,0.8,1,1.1,0.9c0.2,0,0.3-0.2,0.3-0.4C89.4,70.6,89,70.1,88.5,70.2
			z"/>
		<path class="st6" d="M44.9,63.4c0.2-0.1,0.3-0.2,0.3-0.4c0-0.2-0.1-0.3-0.2-0.2c-0.1,0.1-0.2,0.2-0.2,0.3
			C44.7,63.2,44.8,63.3,44.9,63.4z"/>
		<path class="st6" d="M65.7,14.7C65.7,14.7,65.8,14.7,65.7,14.7C65.8,14.7,65.8,14.7,65.7,14.7C65.8,14.7,65.7,14.7,65.7,14.7z"/>
		<path class="st6" d="M44.1,68.5c2.1,0.5,2.1,0.5,2.3-1.5C45.5,67.1,44.7,67.5,44.1,68.5z"/>
		<path class="st6" d="M83.7,69.9c0.2,0.2,0.3,0.1,0.5,0c0.7-0.7,1.7-1.2,2.4-1.8c-1.3-0.5-2,0.7-2.9,1.3
			C83.6,69.4,83.6,69.7,83.7,69.9z"/>
		<path class="st6" d="M65.6,65.4c0.3,0,0.4-0.2,0.4-0.5c0-0.3,0-0.6-0.4-0.6c-0.2,0-0.4,0.2-0.4,0.5C65.3,65.1,65.4,65.3,65.6,65.4
			z"/>
		<path class="st6" d="M68.3,65.5c0.4-0.1,0.6-0.5,0.4-0.9c-0.2-0.4-0.5-0.1-0.7,0.1c-0.4,0.3-0.9,0.4-0.9,1.2
			C67.5,65.5,67.9,65.6,68.3,65.5z"/>
		<path class="st6" d="M64.2,70.5c0.4,0.1,0.7,0,0.9-0.1c0.3-0.5,0.7-0.6,1.3-0.4c1.1,0.2,1.6-0.2,1.7-1.4c0-0.5,0.1-0.4,0.4-0.3
			c0.8,0.1,1.2-0.3,1.1-1c-0.1-0.4-0.2-0.9-0.7-1c-0.5-0.1-1,0.2-1.1,0.7c-0.1,0.4-0.3,0.5-0.7,0.6C65.7,68,64.8,69.1,64.2,70.5z
			 M66.9,68.3c0.1,0,0.1,0.1,0.1,0.2c0,0.2-0.1,0.3-0.3,0.2c-0.1,0-0.1-0.1-0.1-0.2C66.6,68.4,66.7,68.3,66.9,68.3z"/>
		<path class="st6" d="M64.5,65.2c-0.5,0.1-1.2,0.9-1.2,1.4c0,0.2,0,0.5,0.3,0.6c0.4,0.1,1.6-0.9,1.5-1.4
			C65,65.5,64.9,65.1,64.5,65.2z"/>
		<path class="st6" d="M65.8,14.8C65.8,14.8,65.7,14.8,65.8,14.8L65.8,14.8z"/>
		<path class="st6" d="M85.8,66.9c0.1-0.6-0.6-0.5-0.9-0.6c-0.3-0.2-0.7,0-0.6,0.4c0,0.4,0.1,0.8,0.6,1
			C85.1,67.4,85.7,67.4,85.8,66.9z"/>
		<path class="st6" d="M102.9,72.6c0.3-0.4,0.6-0.8,1-0.9c0.7-0.2,0.5-0.9,0.6-1.4c1.1,0.3,1.7,0.2,1.8-0.4c0-0.1-0.3-0.2-0.6-0.5
			c1,0,1.7,0,2.5,0.1c0.5,0,1.1-0.3,1.6,0c1,0.6,1.9,0.3,2.8-0.2c0.2-0.1,0.4-0.4,0.9-0.1c-0.9,0.3-1.4,1.1-2.2,1.4
			c-0.4,0.2-0.7,0.5-0.6,1c0.1,0.5,1.1,1.2,1.5,1.1c0.8-0.2,1-0.6,0.8-1.4c-0.1-0.2-0.2-0.5-0.1-0.7c0-0.1,0.1-0.3,0.3-0.3
			c0.1-0.1,0.3,0,0.3,0.2c0,0.2,0.1,0.4,0.1,0.6c0.3,0.9,0.4,0.9,0.9,0.1c0.3-0.4,0.4-0.1,0.7-0.1c0.7,0.1,1.3-0.4,1.1-1
			c-0.2-1-1.5-2.1-2.4-2c-2.5,0.4-5,0.5-7.4,0.9c-1.5,0.2-3,0.8-4.2,1.9c-0.4,0.3-0.6,0.8-0.4,1.3C102.1,72.8,102.5,72.5,102.9,72.6
			z"/>
		<path class="st6" d="M12.5,71c-0.1,0.1-0.1,0.2,0,0.2c0.1,0,0.1-0.1,0.2-0.2c0.1-0.1,0.1-0.2,0-0.2C12.6,70.9,12.5,71,12.5,71z"/>
		<path class="st6" d="M13.3,70.1c0.6-0.2,1-0.7,1.2-1.3C13.7,68.8,13.6,69.5,13.3,70.1z"/>
		<path class="st6" d="M11.3,69.2c0.4-0.5,0.7-0.9,1.3-0.3c0.3,0.3,1.2-0.4,1.2-0.9c0-0.3-0.2-0.4-0.4-0.3c-0.7,0.4-1.5,0.3-2.3,0.5
			c-0.2,0.5-0.5,1.1-0.7,1.7C11,69.9,11.1,69.5,11.3,69.2z"/>
		<path class="st6" d="M73,66c-0.2,0-0.2-0.2-0.1-0.3c0.2-0.2,0.3-0.4-0.1-0.4c-0.4,0.1-0.7,0.2-0.7,0.7c0,0.6,0.2,1.3,0.4,1.8
			c0.1,0.3,0.4,0.4,0.7,0.4c0.3-0.1,0.7-0.3,0.6-0.6C73.6,67,74.2,66,73,66z"/>
		<path class="st6" d="M75.9,67.2c-0.5,0.1-0.9,0.3-1.1,0.8c-0.1,0.3,0.2,0.5,0.5,0.5c0.5,0,0.8-0.3,0.9-0.8
			C76.3,67.4,76.2,67.2,75.9,67.2z"/>
		<path class="st6" d="M130.3,71.7c0.2-0.1,0.3-0.2,0.2-0.5c-0.1-0.2-0.3-0.2-0.5-0.2c-0.5,0.1-0.9,0.3-1.4,0.8
			C129.4,72.1,129.8,71.9,130.3,71.7z"/>
		<path class="st6" d="M128.1,71.4c0-0.2-0.2-0.2-0.3-0.2c-0.2,0.1-0.3,0.2-0.4,0.4c0,0.2,0.1,0.2,0.2,0.2
			C127.9,71.8,128.1,71.7,128.1,71.4z"/>
		<path class="st6" d="M132.5,70.1c-0.6,0-1.1,0.1-1.9,0.5C132,70.7,132,70.7,132.5,70.1z"/>
		<path class="st6" d="M126.4,71.6c0-0.4-0.3-0.4-0.6-0.4c-0.9,0-1.9-0.2-2.9,0.4c0.9,0.8,1.9,0.8,2.9,0.7
			C126.2,72.1,126.4,71.9,126.4,71.6z"/>
		<path class="st6" d="M111.5,73.2c-0.5-0.5-0.8-1-1.1-1.6c-0.1-0.2-0.3,0-0.5,0.1c-0.2,0.1-0.3,0.4-0.1,0.5
			c0.5,0.4,0.6,1.1,1.2,1.4c0.2,0.1,0.4,0.1,0.6-0.1C111.5,73.4,111.5,73.3,111.5,73.2z"/>
		<path class="st6" d="M71.4,64.6c0-0.1-0.1-0.2-0.1-0.2c-0.4-0.1-0.7,0.2-1.2,0.8C70.7,65.2,71.2,65.2,71.4,64.6z"/>
		<path class="st6" d="M112.2,38.4l0.2,0.2c-0.2,0.2-0.4,0.4-0.6,0.6c2.2-1.1,4.4-2.1,6.4-3.7c0,0,0,0,0.1-0.1
			c0.3-0.4,0.7-0.6,0.4-1.2c-0.3-0.6,0.3-0.8,0.7-1.1c0.5-0.3,0.8-0.6,0.4-1.3c-0.2-0.3,0-0.6,0.2-0.8c1-0.8,1.9-1.5,1.9-1.5
			c0.1-0.1,0.1-0.1,0.2-0.2c0-0.2-0.1-0.4-0.2-0.6c0,0-0.1-0.1-0.1-0.1c-0.5-0.5-0.9-1.5-1.7-1.4c-0.7,0.1-1,1.1-1.5,1.6
			c-1.7,1.9-3.5,3.8-5.3,5.8c-1.1,1.2-2.1,2.3-2.8,3.8c-0.5,1-1.5,1.7-2.3,2.5c0,0,0,0,0,0c0.5-0.3,1.1-0.6,1.7-0.9
			C110.5,39.6,111.3,39,112.2,38.4z"/>
		<path class="st6" d="M149.7,68.1c0.8,0.4,1.7,0.9,2.5,1.4c0.5,0.1,1.1,0,1.6-0.2l0,0c0.1-0.1,0.1-0.1,0.2-0.1
			c-0.8-0.5-1.7-1-2.5-1.6c-0.5-0.4-0.9-0.6-1.3-1.1c-0.1-0.1-0.1-0.3-0.2-0.4c-0.1-0.2-0.3-0.4-0.5-0.5c-0.6-0.1-0.3-0.5-0.3-0.9
			c0-0.2-0.1-0.4-0.2-0.5c-0.9-1.2-1.5-2.7-2.7-3.7c-0.4-0.3-0.8-0.7-1.1-1.1c-0.4-0.6-0.8-1.2-1.6-1.2c-0.3,0-0.6-0.3-0.8-0.6
			c-1.5-1.8-3.1-3.5-3.9-5.9c-0.7-2-1.6-3.9-2.8-5.5c-0.8-1.1-3.7-5.8-4-6.6c-0.7-1.4-2.8-4.4-4.9-6.2c-0.8-0.7-1.4-1.7-2.2-2.4
			c-0.9-0.7-1.8-0.9-2.8-0.4c-0.3,0.2-0.5,0.3-0.7,0.6c-1.3,2.3-2.4,4.7-3.2,7.3c0,0.1,0,0.3,0,0.5c1.5,0.3,2.9,0.9,4.2,1.8
			c0.8,0.5,1.1,1.2,1.2,2.2c0.1,2-0.2,3.9-0.5,5.9c-0.4,2.7-0.9,5.4-1.4,8.1c0,0.2-0.1,0.3-0.4,0.3c0,0,0-0.1,0-0.1l-12.9,5l0.1,0.1
			l-0.1-0.1l-0.4,0.2l0.4-0.2l-5.3-4.9c-0.1,0.2-0.2,0.5-0.2,0.7c-0.1-1.3,0.1-1.8,1.2-3.3c0,0.1,0,0.1,0,0.2
			c0.2-0.4,0.4-0.8,0.6-1.2c-0.1,0.1-0.1,0.2-0.2,0.3c-0.2-0.5,0.1-0.9,0.3-1.3c0.8-1.8,1.8-3.4,2.6-5.2c0.9-2.2,0-2.8-2-3.2
			c-0.2,0-0.4,0.2-0.7,0c0.3-0.9,0.7-1.8,1.6-2.2c0.6-0.3,1.1-0.7,1.5-1.2c0.3-0.4,0.7-0.7,0.9-1.1c2.1-3,4.6-5.7,7-8.5
			c0.1-0.1,0.2-0.3,0.4-0.5c0.5-0.5,0.4-1-0.2-1.3c-1.3-0.8-2.1-2.1-3.2-3.2c-0.5-0.5-0.9-1.1-1.2-1.8c-0.7-1.3-1.7-2-3.1-2.1
			c-1.4-0.1-2.7,0-4.1,0c-1.1,0-2,0.5-3,1.2c0,0,0-0.1,0-0.1l-0.7,0.5c-0.4,0.5-0.7,0.7-1.2,0.9c0,0,0-0.1,0-0.1l-0.9,0.6
			c0,0,0,0.1,0,0.1c0,0.2-0.2,0.3-0.4,0.3c0,0-0.1-0.1-0.1-0.1l-0.6,0.4l0.1,0.1l-0.1-0.1l0,0l0,0l-0.1,0l-4.9,0
			c-0.1,0.1-0.3,0.2-0.5,0.1c-0.1-0.3,0.1-0.5,0.3-0.6c1.8-1.4,3.6-2.8,5.4-4.3c0.6-0.5,1.4-0.6,2.1-1c0.3-0.2,1.4,0.5,1.7,1
			l1.8,0.5c0.3-0.1,0.6-0.1,0.9-0.1c1.5,0.1,2.9-0.3,4.4-0.1c-1.3-1-2.4-2.2-3.5-3.4c-0.4-0.4-0.9-0.9-1.1-1.5
			c-0.5-1.3-1.5-1.7-2.7-1.5c-0.9,0.2-1.4-0.1-2-0.8c-1.5-1.8-3.4-3.1-5.1-4.7c-0.5-0.5-1-0.7-1.5-0.6c0,0.1-0.1,0.1-0.2,0.1
			c-0.3,0.1-0.6,0.1-0.9,0.4c-0.2,0.1-0.4,0.3-0.6,0.3c-0.2,0-0.3-0.1-0.4-0.2c-0.1-0.2-0.3-0.4-0.5-0.6c-0.1,0-0.2,0-0.3-0.1
			c-0.2-0.1-0.3-0.2-0.5-0.3c-0.4-0.3-0.7-1-1.2-0.9c-0.6,0.1-1.1,0.6-1.6,1c-2.4,1.9-4.4,4.1-6.5,6.3c-0.1,0.1-0.1,0.1-0.2,0.2
			l7.6-2.6c0.7-1.1,1.6-2.1,2.8-2.5c-1,1-1.8,2.2-3.1,2.9c0-0.1,0.1-0.2,0.1-0.2l-4.3,2.3c0,0,0,0.1,0,0.2c0,0.2-0.2,0.3-0.4,0.3
			l-2.7,14.3c0.1,0.1,0.1,0.2,0,0.3c-0.1,0.1-0.2,0.2-0.2,0.3c0,0,0,0,0,0L76,38.2l0.1-0.1L76,38.2l0,0l0,0l-0.1,0.1
			c0.1,0.1,0.1,0.1,0.2,0.2c-0.6,0.7-1.2,1.4-1.8,2.2c-0.7,0.9-1.6,1.8-2,2.9c-0.1,0.2-0.3,0.3-0.4,0.2c-0.2-0.1-0.2-0.3-0.1-0.5
			c0,0,0-0.1,0-0.1c0.1-0.1,0.1-0.2,0.2-0.3l-1-2.6l4.6-15.3l-0.2-0.5l-2.6-1.8c-0.1,0.1-0.2,0.2-0.3,0.3c-0.1-0.9,0.4-1.4,0.9-1.8
			c1.8-1.7,3.6-3.4,5.2-5.2c0.7-0.8,1.5-1.5,2.1-2.3c1.4-1.8,3-3.1,4.7-4.6c0.1-0.1,0.3-0.3,0.4-0.4c0.6-0.7,0.6-0.8-0.1-1.4
			c-0.8-0.6-1.6-1.2-2.4-1.7c-0.2-0.1-0.4-0.3-0.6-0.4c0,0,0,0-0.1-0.1c-0.1-0.1-0.2-0.2-0.3-0.2c-0.2-0.1-0.3-0.2-0.5-0.4
			c-0.1,0-0.2,0-0.3-0.1c-1-1-2.5-1.2-3.4-2.4c-0.4-0.5-0.8-0.7-0.9,0.2c0,0.3-0.1,0.5-0.4,0.5c-1-0.2-1.4,0.7-2,1.2
			c-0.3,0.2-0.4,0.7-0.9,0.7c0.2-0.9,0.8-1.4,1.4-1.9c0.6-0.5,0.6-1.1,0.2-1.7c-0.8-1.3-1-1.4-1.8-0.2c-1.7,2.3-3.9,4-6,5.8
			c-0.7,0.7-1.5,1.3-2.3,1.9c-0.5,0.4-1,0.8-1.2,1.4c-0.7,1.3-1.5,2.2-2.9,2.3c-0.2,0-0.4,0.3-0.5,0.4c-0.7,0.8-1.4,1.6-1.9,2.5
			c-0.3,0.5-0.5,1.1-0.9,1.5c-1.8,1.8-2.4,4.4-3.3,6.7c-1.3,3.1-2.1,6.3-3.4,9.3c0,0-0.1,0-0.1,0l-5.3,12.8l0.3,4.9
			c0.2-0.3,0.3-0.5,0.5-0.6c-0.5,1.6-0.9,3.1-1.4,4.8c-0.2-0.8,0-2.2,0.5-3.4l-2.1,2.1c0,0,0,0,0,0c-1.5,2.1-3.4,3.8-5.2,5.6
			c0.4-0.9,0.9-1.6,1.6-2.3l-0.9-2.7c0,0-0.1,0.1-0.1,0.1c0-0.1,0-0.2,0.1-0.3l0-0.1l0.6-3.6c-0.1,0.1-0.2,0.2-0.2,0.1
			c0-0.3,0.2-0.6,0.3-0.9l0.2-1.9c-0.3-0.2-0.1-0.5,0.1-0.8c0.2-0.3,0.4-0.6,0.6-0.9l1.3-2.8c0,0-0.1,0-0.1,0
			c0.1-0.2,0.2-0.4,0.3-0.6l2.4-7c-0.1,0-0.1-0.1-0.1-0.2c-0.2-0.9,3.9-4.3,4.1-4.4c0.3-0.2,0.7-0.4,1-0.6c-0.2,0.3-0.5,0.6-0.7,0.8
			l3.9-3.1c0.8-2.8,2-5.3,2.9-8c0.1-0.2,0.2-0.3,0.2-0.5c0.3-1.1,0.3-1.3-0.6-1.7c-0.9-0.5-1.6-0.8-2.5-0.1
			c-0.3,0.3-0.8,0.3-1.2,0.1c-0.6-0.4-1-0.1-1.4,0.5c-0.8,1.3-1.6,2.5-2.3,3.8c-1.6,2.9-3.3,5.6-4.7,8.7c-0.6,1.3-1.4,2.1-2.9,1.7
			c-1.3-0.3-2.3,0.2-3.2,1.4c-1.5,1.9-3,3.7-4.5,5.5c-0.4,0.4-0.8,0.9-0.8,1.6c0.9,0.3,1.8,0.8,3.1,0.8c-1.4,3.2-3.3,5.7-4.8,8.6
			c0-0.9,0.4-1.7,0.8-2.4c0.9-1.5,1.9-3,2.6-4.7c0.4-0.8,0.3-0.9-0.4-1.1c-0.7-0.2-1.5-0.3-2.3-0.2C29,42,27.4,42,25.9,41.6
			c-1.4-0.3-2.4-0.1-3.4,1.1c-1.9,2.4-3.8,4.7-5.4,7.2c-3.4,5.4-6.8,10.8-10.4,16c0,0,0,0.1-0.1,0.1c-0.1,0.2-0.3,0.4-0.4,0.5
			c-0.1,0.1-0.1,0.2-0.1,0.3c0,0.1,0,0.2,0,0.2c0,0,0.1,0,0.1,0.1c0.5,0.3,0.9,0.6,1.5,0.6c1.3,0,2.2-0.7,2.9-1.9
			c1.1-2.1,2.8-2.7,4.9-3.1c1.9-0.3,3.4-0.1,4.6,1.8c0.7,1,1.6,1.9,2,3.1c0.5,1.6,2,1.9,3.1,1.9c0.7,0,1-0.6,0.6-1.2
			c-0.3-0.4-0.7-0.8-1.1-1.1c-0.8-0.7-1.3-1.5-1.9-2.3c-0.4-0.5-0.5-1.2,0-1.6c0.7-0.4,0.7-1,0.7-1.6c0-0.1,0.1-0.2,0.2-0.4
			c1.4,1.6,3.8,1.8,5.4,0.5c0.1-0.1,0.1-0.1,0.2-0.2c2.2-1.5,1.6-2,4.4-0.9c0.4,0.2,0.9,0.3,1.3,0.3c1.7-0.1,2.4,1.2,2.9,2.6
			c0.1,0.3,0.1,0.6,0.2,0.9c0.2,0.5,0.5,0.5,0.8,0c0.2-0.3,0.3-0.6,0.4-0.9c0.6-1.4,1.6-2.3,2.8-3c0.5-0.3,0.9-0.3,1.2,0.2
			c0.5,0.8,1.3,0.9,2.1,0.9c0.5,0,1,0.1,1.5,0.1c0.9,0,1.6,0.2,2.3,0.8c0.7,0.6,1.5,0.9,2.4,1.1c0.9,0.2,1.1,0,1.2-1
			c0.1-0.8,0.1-1.6,0.3-2.5c0.2,0.7,0,1.4,0,2.1c0,0.9,0.1,1.6,1.1,1.9c0.9,0.2,1.1,1,1.4,1.8c0.5,1.3,0.6,1.3,1.8,0.8
			c0.3-0.1,0.4-0.2,0.7,0.1c0.6,0.6,1.4,0.5,2.1,0.4c0.7-0.1,0.9-0.5,0.8-1.2c-0.2-0.6-0.3-1.2-0.4-1.9c-0.1-1.2,0.2-1.6,1.2-2.1
			c0.8-0.3,1.5-0.6,2.3-1c0.7-0.3,1.3-0.7,1.9-1.2c1-0.9,1.7-0.9,2.6,0.2c0.5,0.6,1,1.1,1.8,1.1c-0.9,0.3-1.6,0.4-2.2-0.6
			C67.7,60,67,60,66.4,60.4c-1.4,0.8-2.9,1.7-4.4,2.4c-0.6,0.2-0.8,0.8-0.8,1.4c0,0.5,0.1,0.9,0.2,1.3c0.4,1.3,0.4,1.3,1.2,0.3
			c0.2-0.3,0.6-0.3,0.8-0.5c0.4-0.3,1.1-0.4,0.7-1.3c-0.1-0.1,0.1-0.3,0.2-0.2c1.1,0.7,1.2-0.4,1.6-1.1c0.3,0.3,1,0.2,0.6,1.1
			c-0.1,0.3-0.1,0.6,0.2,0.8c0.3,0.2,0.5,0,0.7-0.2c0.7-0.7,1.6-1.3,2.5-1.9c0.5-0.3,0.9-0.6,1.6-0.5c-0.2,0.7-0.7,0.8-1.1,1
			c-0.4,0.2-0.8,0.3-1,0.7c-0.2,0.2-0.2,0.4,0,0.7c0.2,0.3,0.4,0.2,0.6,0.1c0.4-0.3,0.9-0.6,1.3-0.8c0.4-0.2,0.9-0.5,1.4-0.5
			c0.1,0.4-0.2,0.4-0.3,0.5c-0.3,0.3-0.3,0.6-0.2,0.9c0.1,0.3,0.5,0.3,0.7,0.2c1-0.1,1.9-0.2,2.9-0.3c0.1-0.4-0.3-0.5-0.5-0.6
			c-0.7-0.4-1.4-0.9-1.6-1.9c-0.2-1-1.1-0.6-1.7-0.9c1-0.7,2.2-0.5,2.4,0.6c0.2,1.2,1,1.6,1.8,2.2c0.9,0.7,1.7,0.7,2.7,0.1
			c1.9-1.1,4-2,6.1-2.5c0.4-0.1,0.7-0.1,1.1,0c1.5,0.7,3.1,0.8,4.5,1.7c0.2,0.1,0.4,0.3,0.6,0.3c1.6,0.2,2.3,1.3,3,2.7
			c0.4,0.9,1,1.8,1.5,2.7c-0.5,0.2-0.7-0.1-0.9-0.3c-0.4-0.6-0.9-1.1-1.1-1.9c-0.5-1.5-1.4-2.5-3-2.9c-1.3-0.4-2.6-0.9-3.9-1.4
			c-1-0.4-1.9-0.3-2.9,0.1c-1.3,0.6-2.5,1.2-3.8,1.7c-0.7,0.3-0.3,0.6,0,0.9c-0.5,0.3-1-0.2-1.5,0.1c0.1,0.6,0.5,1.1,0.2,1.7
			c-0.1-0.1-0.2-0.1-0.2-0.2c-0.2-0.3-0.3-0.8-0.7-0.8c-0.5,0.1-0.6,0.5-0.7,1c-0.1,0.7-0.4,1.3,0.1,2c0.6-0.1,1-0.8,1.7-0.7
			c-0.2,0.6-0.7,0.7-1,1.1c-0.2,0.2-0.3,0.4-0.2,0.6c0.1,0.3,0.3,0.3,0.6,0.4c0.2,0,0.4,0,0.5-0.1c0.6-1.1,1.4-2.1,2.4-2.7
			c0.4-0.2-0.3-0.8,0.3-1.1c0.4-0.2,0.8-0.2,1.1-0.6c-0.1-0.6-0.8-0.1-0.9-0.6c0.8-0.2,1.6,0.2,2.4-0.1c0.3-0.1,0.8,0.4,1.2,0.6
			c0.4,0.2,0.7,0.5,1-0.1c0.2-0.3,0.4-0.1,0.5,0.2c0.1,0.7,0.4,0.7,0.8,0.4c0.4-0.3,0.8-0.5,1.3-0.5c0,0,0,0,0,0l0,0c0,0,0,0,0,0
			c0,0,0,0,0,0c0.2-0.3,0.4-0.4,0.8-0.3c-0.2,0.5-0.5,0.4-0.8,0.3c0,0,0,0,0,0c0,0,0,0-0.1,0c-0.4,0.7-1.2,0.9-1.7,1.5
			c-0.3,0.3-0.5,0.5-0.4,0.9c0.9-0.2,1.5-1.1,2.4-1.2c0.4-0.1,0.9-0.3,1.3-0.2c-0.1,0.5-0.7,0.3-0.7,0.8c1,0.7,1,0.7,1.8-0.2
			c0.2-0.3,0.4-0.2,0.5,0c0.1,0.1,0.2,0.3,0.2,0.4c0,1.5,0.9,1.9,2,2.3c1,0.4,2,0.9,3,1.3c0-1.1,0-1.1-0.7-1.9
			c1.3,0,2.5,0.1,3.5,1.1c-0.5,0.2-1-0.2-1.5-0.1c0.3,1,1.8,0.7,1.9,1.9c0.8-0.5,1.1-1.6,1.9-2c0.1-0.1,0.1-0.2,0.1-0.4
			c0-0.1-0.5-0.2-0.1-0.2c1.1-0.1,2.1-0.4,3.2-0.8c0.6-0.3,1.3-0.4,2-0.4c2-0.1,4-0.3,6-0.7c1.4-0.3,2.5-0.1,3.3,1.4
			c0.6,1.1,1.5,1.6,2.7,1.7c2.4,0.1,4.8,0.3,7.2,0c0.4-0.1,0.7,0,1.1-0.2c2.1-1.4,4.4-2.3,6.8-3.1c0.1,0,0.2-0.2,0.4-0.4
			c-3.4-0.5-6.7,0.1-10.2,0.1c0.4-0.4,0.7-0.3,1-0.4c3.7-0.3,7.4-0.3,11.1-0.4c1.6-0.1,3.2,0.2,4.8-0.3c0,0,0,0,0.1-0.1
			c0,0,0.1,0,0.1,0l0,0l0,0c0,0,0,0,0,0l0,0l0,0c0.1,0,0.1,0,0.2,0c0.1,0,0.2,0,0.4,0c0,0,0,0,0,0c0.2,0,0.3,0,0.5,0.1
			c-0.2,0.1-0.4,0.1-0.7,0.1c-0.1,0-0.1,0-0.2,0c-0.1,0-0.2,0-0.3,0c-0.1,0.3-0.6,0.3-0.7,0.6c0.1,0.4,0.5,0.3,0.7,0.2
			c1.9-0.5,3.5,1,5.7,0.9c-0.9,0.4-2.4,0.4-3.2,0c-0.7-0.4-1.4-0.6-2.2-0.4c-0.5,0.1-1,0-1.5-0.2c-1.7-0.7-3.3-0.4-4.9,0.3
			c-1,0.5-1.9,1-3.1,1c-0.7,0.1-1.4,0.6-2.2,0.9c-0.3,0.1-0.6,0.4-1,0.4c0.2,0.1,0.4,0.2,0.5,0.1c2.3-0.9,4.9,0,7-1.9
			c0.3-0.2,0.7-0.3,1-0.5c0.1,0,0.2,0,0.4,0c-0.3,0.7-0.9,0.8-1.4,1c-0.5,0.3-0.7,1.3-0.3,1.8c0.2,0.3,0.5,0.2,0.8,0.1
			c0.3-0.1,0.6-0.3,0.6-0.7c0-0.4-0.4-0.3-0.7-0.5c0.4-0.1,0.7-0.1,1-0.3c0.2-0.1,0.4,0,0.6,0.3c0.2,0.3,0.1,1,0.7,0.9
			c0.5-0.1,1-0.3,1.1-1c0-0.1,0.1-0.3,0.3-0.3c0.3,0.2,0.6,0.5,0.7,1c0.1,0.6,0.4,0.9,0.9,1c0.5,0.1,0.9-0.1,1-0.7
			c0-0.3,0.2-0.4,0.5-0.3c1.2,0.5,2.2-0.2,3.4-0.2c0.7,0,1.3-0.3,2.2-0.2c-0.7,0.8-1.6,0.6-2.3,0.8c-0.7,0.3-1.5,0.4-2.3,0.7
			c0.3,0.9,0.8,1.2,1.4,1.6c0.4,0.2,0.9,0.5,1.3,0.1c0.4-0.5-0.2-0.7-0.3-1.1c0-0.1-0.1-0.3,0-0.5c0.5-0.1,0.7,0.4,1,0.7
			c0.3,0.3,0.6,0.6,1.1,0.5c1.1-0.3,2.3-0.7,3.7-1.1c-1.6-1.4-3.3-2.1-4.8-3.2C148.7,67.6,149.2,67.8,149.7,68.1z M107.3,32.3
			c0.1,0,0.2,0.1,0.2,0.3c0,0.1-0.1,0.3-0.3,0.3c-0.1,0-0.2-0.1-0.2-0.3C107,32.4,107.1,32.3,107.3,32.3z M86.1,12.3
			c0.3-0.5,0.5-0.7,1.1-0.8C86.8,12.1,86.5,12.2,86.1,12.3z M82.1,9.4c0.1,0,0.2,0.1,0.3,0.3c0,0.2-0.1,0.3-0.2,0.3
			C82,10,81.9,9.9,81.9,9.7C81.9,9.5,82,9.4,82.1,9.4z M79,8c0.1-0.2,0.3-0.2,0.4-0.1c0.1,0.1,0.3,0.2,0.2,0.4
			c-0.1,0.2-0.3,0.2-0.4,0.1C79.1,8.4,79,8.2,79,8z M76.8,14.4c0.1-0.1,0.2-0.1,0.4-0.1c0.1,0,0.2,0.1,0.1,0.2
			c-0.1,0-0.3,0.1-0.5,0.1C76.7,14.6,76.7,14.5,76.8,14.4z M74.4,15.3c0.3-0.5,0.8-0.2,1.2-0.3c-0.3,0.7-0.7,0.7-1.1,0.5
			C74.4,15.5,74.4,15.4,74.4,15.3z M49.8,25.9c0.2-0.7,0.6-1,1.2-1.4C50.7,25.3,50.4,25.6,49.8,25.9z M51.2,21.9
			c0.2-0.1,0.3-0.1,0.5-0.1c-0.2,0.5-2.5,2.6-3.1,2.8C49,23.9,50.8,22.1,51.2,21.9z M47.1,30.7c0.1-0.1,0.2-0.3,0.4-0.4
			c0.1-0.1,0.2,0,0.2,0.1c-0.1,0.2-0.2,0.4-0.5,0.4C47.1,30.9,47,30.8,47.1,30.7z M41.9,33.4c0,1.2-0.5,2.1-1.2,3
			C40.8,35.2,41.4,34.4,41.9,33.4z M40.3,37.3c-0.2,0.4-0.2,0.8-0.7,0.8C39.7,37.7,39.8,37.4,40.3,37.3z M27.2,46.5
			c-1.3,1-1.3,1-0.4,2.3c0.1,0.2,0.2,0.3,0.3,0.5c0,0,0,0.1,0,0.2c-0.2,0-0.3,0-0.4,0L26,54.5c0.1-0.1,0.2-0.2,0.4-0.3
			c-1.7,2.7-4.1,4.9-5.8,7.7c-0.1-0.3,0-0.6,0.1-0.8l-0.6-2c-0.1,0-0.3-0.1-0.4-0.2c0.1-0.1,0.2-0.3,0.3-0.4l-0.3-6.1l2.6-3.1
			c0.4-1,1.2-1.9,2.2-1.9c1,0,1.7-0.5,2.4-1.2c0.5-0.5,0.9-1.1,1.8-1C28.2,45.9,27.7,46.2,27.2,46.5z M31.7,56.4
			c-0.5-1-0.2-1.9-0.5-2.8C31.9,54.3,31.9,54.3,31.7,56.4z M36.3,59.3c-0.2,0-0.3-0.1-0.3-0.4c0-0.1,0.2-0.2,0.3-0.2
			c0.2,0,0.3,0.1,0.3,0.4C36.5,59.3,36.4,59.3,36.3,59.3z M37.4,57.7c-0.1,0.3-0.3,0.5-0.6,0.4c-0.2,0-0.3-0.1-0.3-0.4
			c0-0.4,0.2-0.5,0.5-0.5C37.2,57.3,37.5,57.4,37.4,57.7z M38,47.7c-0.6,1-0.8,2.2-1.6,3.2c-0.3-0.3-0.5-0.5-0.9-0.9
			c1.4-0.3,1.5-1.5,1.7-2.6c0.1-0.4,0.1-0.8,0.5-0.9c0.1-0.1,0.3,0,0.3,0.2C38.4,47.1,38.2,47.4,38,47.7z M43.3,59.7
			c-0.3,0-0.4-0.1-0.5-0.4c0-0.2,0.1-0.3,0.3-0.4c0.3,0,0.5,0.1,0.6,0.3C43.7,59.6,43.5,59.7,43.3,59.7z M46.6,55.7
			c-0.1,0-0.2-0.1-0.3-0.3c0-0.2,0.1-0.3,0.2-0.4c0.4-0.2,0.8-0.2,1.3,0C47.5,55.7,47,55.7,46.6,55.7z M48.5,58.3
			c-0.5-0.2-0.6-0.5-0.6-0.9c0-0.2-0.1-0.5,0.2-0.6c0.3,0,0.4,0.2,0.5,0.4C48.7,57.6,48.8,57.9,48.5,58.3z M48.9,55.8
			c0,0.1-0.1,0.3-0.3,0.2c0-0.1-0.1-0.2,0-0.4c0-0.1,0.1-0.3,0.3-0.2C49,55.5,49,55.7,48.9,55.8z M47.6,42.9c-0.1-1.2,0.8-3,2-4
			C48.9,40.2,48.3,41.5,47.6,42.9z M62.6,16c0.1-0.1,0.1-0.1,0.2-0.1c0.2,0.1,0,0.2,0,0.4c-0.1,0.2-0.1,0.5-0.3,0.5
			c-0.1,0-0.2-0.1-0.2-0.2C62.3,16.3,62.5,16.2,62.6,16z M53.5,51.4c0-0.1,0.1-0.2,0.3-0.2c0.2,0.1,0.3,0.2,0.2,0.5
			c0,0.1-0.1,0.3-0.3,0.2C53.5,51.8,53.5,51.6,53.5,51.4z M58.3,58.8c0-0.1,0.1-0.2,0.1-0.3c1.1-1.4,2.4-2.6,3.8-3.7
			c-0.7,1.3-1.8,2.1-2.7,3.2c-0.1,0.2-0.4,0.3-0.2,0.6c0.2,0.6,0,0.8-0.5,0.9C58.3,59.6,58.1,59.3,58.3,58.8z M59.5,55.5
			c0.1-0.1,0.2-0.1,0.3,0c0.1,0.1,0,0.3-0.1,0.4c-0.2,0.2-0.1,0.7-0.6,0.7c-0.1,0-0.1-0.1-0.2-0.2C59,55.9,59.2,55.7,59.5,55.5z
			 M60.7,52.4c0-0.4,0.3-0.5,0.5-0.7C61.3,52.3,60.9,52.3,60.7,52.4z M61.3,54c0,0.2-0.1,0.3-0.3,0.4c-0.1,0-0.2,0-0.1-0.1
			c0.1-0.1,0.1-0.2,0.2-0.3C61.2,53.9,61.3,53.9,61.3,54z M61.7,57.3c-0.1,0.1-0.2,0.1-0.3,0.2c-0.1,0-0.2-0.1-0.1-0.1
			c0.1-0.1,0.2-0.2,0.3-0.2C61.7,57.1,61.7,57.2,61.7,57.3z M63.4,56.5c-1,1.4-2.1,2.8-3.1,4.3c-0.3,0.3-0.7,0.7-0.4,1.3
			c0.1,0.2-0.1,0.4-0.2,0.5c-0.2,0.1-0.4,0.1-0.6-0.1c-0.1-0.1-0.2-0.4-0.1-0.5c0.1-0.2,0.2-0.4,0.4-0.6c1.4-1.8,2.9-3.6,4.1-5.5
			c0.1-0.2,0.3-0.3,0.6-0.2C64,56,63.6,56.2,63.4,56.5z M62.2,53.2c0.1-0.4,0.2-0.6,0.6-0.7C62.8,52.9,62.4,53,62.2,53.2z
			 M64.1,51.6c0.1-0.6,0.4-0.7,0.7-0.9C64.9,51.3,64.4,51.3,64.1,51.6z M66,47.4c-0.1,0.2-0.2,0.3-0.4,0.3c0,0-0.1-0.2,0-0.2
			c0.1-0.1,0.2-0.2,0.3-0.2C66,47.2,66,47.3,66,47.4z M66.8,46.6c0.2-0.6,0.6-0.6,1.3-0.8C67.7,46.5,67.3,46.6,66.8,46.6z M69.5,13
			c-1,1.8-1.9,3.6-2.8,5.4c-0.9,1.7-1.3,3.7-2.2,5.4c0,0,0,0.1,0,0.1c-0.5,1.5-1.2,2.8-1.9,4.1c-0.6,1.2-0.8,2.2-0.3,3.5
			c0.2,0.4,0.3,0.9,0.4,1.4c0.4,1,0.4,1.1,1.4,0.9c0.6-0.2,1.3-0.2,1.9-0.2c1.2,0,1.7,0.7,1.3,1.9c-0.6,1.8-1.5,3.5-2.6,5
			c-2.5,3.4-5.1,6.7-7.1,10.5c-1,1.9-1.9,3.8-2.9,5.7c-0.2,0.4-0.4,1.3-0.9,1c-0.5-0.3-0.1-0.7,0.2-1.1L56.6,38c0,0,0,0,0,0
			c0-0.1,0-0.1,0-0.2l-1-3.4c0,0.1-0.1,0.1-0.1,0.2c-0.1-0.1-0.1-0.3-0.1-0.4l0,0.1l0-0.1c0-0.2,0-0.3,0-0.5l0,0l0,0
			c0-0.1,0.1-0.2,0.1-0.2l0.3-1.6c0,0.1-0.1,0.1-0.1,0.2c-0.1-0.7,0.2-1.5,0.9-2.4l1-2.5c0-0.1,0-0.3,0-0.4c0.1-0.1,0.2-0.2,0.2-0.3
			l1-2.7c0,0,0,0,0,0c-0.1,0-0.2,0-0.2-0.1c-0.1-0.1,0-0.2,0.1-0.3l5.5-9.3c0,0-0.1,0-0.1,0c0.1-0.4,0.2-0.6,0.5-0.7l1-1.8L65.7,12
			l0.1-0.2l0.1-0.2l-0.1,0.2l0.2-0.2l0,0l0,0l0.1-0.1L66,11.6l2.3-1.3c0.3-0.5,0.5-1,1.2-1c-0.3,0.3-0.7,0.6-1,0.9l3.5-2l-0.3,0.1
			l0.3-0.1l0.1-0.1l-0.1,0.1l0.2-0.1c0,0,0-0.1,0.1-0.1c0.1-0.1,0.1,0,0.2,0c0,0,0.1-0.1,0.1-0.1c-0.2,0.7-1.5,2.3-1.6,2.4
			c-0.1,0.2-0.3,0.4-0.4,0.7C70.2,11.7,69.8,12.4,69.5,13z M70.9,57.1c0,0-0.1-0.2-0.1-0.2c0-0.1,0.1-0.1,0.2-0.1
			c0,0.1,0.1,0.1,0.1,0.2C71.1,57.1,71,57.2,70.9,57.1z M73,56.4c0-3.2,0.6-6.2,1.6-9.3C75,48.3,73.1,56.3,73,56.4z M86.1,60.5
			c-0.2,0-0.3-0.2-0.3-0.4c0-0.2,0.2-0.3,0.4-0.3c0.2,0,0.4,0.1,0.4,0.4C86.6,60.6,86.3,60.6,86.1,60.5z M94.1,29.5
			c-0.2,1.3,0,2.6-0.2,3.8c-0.4,2-0.3,4.1-1,6.1c-0.1,0.2-0.1,0.6-0.6,0.7c-0.2,0.5-0.4,1.1-0.6,1.6c0.2-0.3,0.3-0.6,0.5-0.8
			c-0.3,1.4-0.9,2.8-1.6,4.1c-0.4,1.3-0.8,2.7-1.2,4c-0.2,1.4-0.4,2.9-0.8,4.3c0-0.3,0-0.5,0-0.8L86,57.6c0.1-0.1,0.2-0.1,0.3-0.2
			c-0.4,0.8-0.9,1.7-1.7,2.1c0.1-0.6,0.4-1.1,0.7-1.4l-2-4.7l1.2-6.6l-0.7-7.6l-0.1,0.7l0.1-0.7l0-0.2l0,0.2l0.1-0.7L83.5,39
			l0.3-0.5l0-0.3l0,0.3l3.6-6c-1.1,0.1-1.1-0.7-0.9-1.6c-0.2-0.4,0.1-0.6,0.2-0.8c1-1.1,2.1-2.1,3.3-2.7c0.3-0.1,0.5-0.3,0.8,0.2
			c0.4,0.5,1.2,0.1,1.8,0C94.5,27.4,94.5,27.4,94.1,29.5z M101.1,41.7c0.4-0.6,0.7-1.1,1.4-1.4C102.3,41.5,102.2,41.6,101.1,41.7z
			 M102.4,65.9c0.5-0.1,1-0.1,1.8-0.2C103.5,66.3,102.9,66.1,102.4,65.9z M107.7,64.4c1.8-0.2,3.4,1,4.7,0.9l0,0.1
			C109.7,65.3,108.3,64.8,107.7,64.4z M114,61.9c-0.4,0.2-0.7,0.1-1-0.2c-0.1-0.1-0.1-0.3,0-0.4c0.3-0.4,0.6-0.1,1,0
			c0.1,0.1,0.2,0.2,0.3,0.3C114.2,61.8,114.1,61.9,114,61.9z M115.5,65.9c0.4-0.2,0.6,0,1,0.2C116,66.3,115.8,66.2,115.5,65.9z
			 M122.2,63.3c0-0.2,0.1-0.2,0.3-0.2c0.2,0,0.2,0.1,0.2,0.3c0,0.2-0.1,0.2-0.3,0.2C122.2,63.6,122.1,63.4,122.2,63.3z M120.6,58.4
			c0-0.2,0.1-0.2,0.3-0.2c0.2,0.1,0.3,0.2,0.3,0.4c0,0.2-0.2,0.3-0.3,0.3C120.7,58.8,120.6,58.6,120.6,58.4z M118.3,61.1
			c0-0.2,0.1-0.2,0.3-0.2c0.1,0,0.2,0.1,0.3,0.3c0,0.2-0.1,0.3-0.2,0.3C118.4,61.5,118.2,61.3,118.3,61.1z M118.5,66.3
			c1.6,0.2,3.2,0.2,4.8,0.4C121.7,67,120.1,66.8,118.5,66.3z M128.4,55.1c0.2-1,0.6-1.5,1.3-1.8C129.5,53.9,129.2,54.5,128.4,55.1z
			 M129.6,55.7c-0.1,0.1-0.2,0-0.2-0.1c0-0.1,0.1-0.3,0.2-0.4c0.1-0.1,0.2-0.1,0.2,0C129.9,55.4,129.8,55.5,129.6,55.7z M130.2,58.6
			c-0.2-1-0.2-1,0.4-1.8C130.5,57.4,130.3,57.9,130.2,58.6z M131.1,60.7c0.1-0.8,0.4-1.5,1.1-2C132,59.5,131.5,60,131.1,60.7z
			 M133.2,45.9c-0.1,0.5-0.1,1-0.2,1.5c-0.2,1,0.1,1.9-0.1,2.9c-0.7-1.5-0.6-3-0.3-4.5c0-0.2,0.2-0.2,0.3-0.2
			C133.1,45.5,133.2,45.7,133.2,45.9z M135.1,53.6c0.3,1.5,0.7,2.9,0.6,4.7C135.3,57.4,135,55,135.1,53.6z M138.8,59.9
			c-0.2,0-0.3-0.1-0.3-0.4c0-0.2,0.1-0.2,0.3-0.2c0.1,0,0.3,0.1,0.3,0.2C139.1,59.8,139,59.9,138.8,59.9z M139.7,61.9
			c0,0.1-0.2,0.2-0.3,0.2c-0.1,0-0.2-0.2-0.2-0.3c0-0.2,0.2-0.2,0.3-0.2C139.7,61.6,139.8,61.7,139.7,61.9z"/>
		<path class="st6" d="M152.9,71.8c-0.9,0.1-1.7,0.3-2.6,0.6c0.9,0.7,1.8,0.5,2.7,0.4c0.3,0,0.6-0.1,0.6-0.5
			C153.6,71.9,153.3,71.8,152.9,71.8z"/>
		<path class="st6" d="M153.8,70.9c0.2,0.3,0.4,0.6,0.5,0.9c0.4,1,0.6,1.4,1,1.5c0.3,0,0.5-0.1,0.8-0.1c0-0.2,0-0.4,0-0.4
			c-0.3-0.4-0.7-0.7-1-1.1c-0.2-0.3-0.2-0.6-0.1-0.9c0.2-0.6-0.1-0.8-0.4-1.2c-0.5,0.3-1.1,0.5-1.6,0.5
			C153.2,70.3,153.5,70.6,153.8,70.9z"/>
		<path class="st6" d="M108.9,71c0.7,0.5,1-0.2,1.6-0.7c-0.5-0.1-0.8-0.1-1-0.1c-0.6,0-1.2,0.1-1.6,0.5c-0.2,0.2-0.4,0.4-0.2,0.8
			c0.1,0.2,0.2,0.4,0.5,0.4c0.4,0,0.4-0.3,0.4-0.6C108.5,71,108.6,70.8,108.9,71z"/>
		<path class="st6" d="M72.2,68.6c0-0.4-0.5-1.3-0.8-1.3c-0.3,0-0.5,0.1-0.6,0.4c-0.1,0.3,0.7,1.2,1,1.2
			C72.1,69,72.2,68.8,72.2,68.6z"/>
		<path class="st6" d="M9.6,68.5c-0.7,0.8-1.1,1.8-1.3,2.8c0,0.3-0.2,0.6,0.2,0.7c0.4-0.3,0.6-0.8,0.8-1.3c0.4-1.1,1.1-1.8,1.9-2.4
			C10.6,67.6,10,67.9,9.6,68.5z"/>
		<path class="st6" d="M128.8,70.8c0.7-0.2,0.9-0.4,0.5-1C129.4,70.3,128.7,70.4,128.8,70.8z"/>
		<path class="st6" d="M106.6,71.4c-0.2,0.1-0.4,0.1-0.5,0.4c0,0.3,0.6,1,0.9,1c0.2,0,0.3-0.2,0.4-0.4
			C107.4,72.1,107,71.4,106.6,71.4z"/>
		<path class="st6" d="M126.9,73.4c0,0.3,0.2,0.6,0.5,0.7c0.3,0.1,0.7,0.1,0.9-0.2c-0.1-0.4-0.6-0.3-0.6-0.7
			c0.2-0.5,0.7-0.2,1.1-0.5c-0.6-0.2-1.1-0.1-1.5,0.2C127,73,126.8,73.1,126.9,73.4z"/>
		<path class="st6" d="M130.5,72.9c0.1,0,0.2-0.1,0.3-0.2c0-0.1,0-0.2-0.1-0.2c-0.1,0-0.3,0-0.4,0.1
			C130.2,72.9,130.4,72.9,130.5,72.9z"/>
		<path class="st6" d="M77,65.2c-0.1-0.4-0.5-0.2-0.8-0.3c-0.5,0-1,0.1-1.4,0.4c-0.4,0.3-0.5,0.7-0.3,1.2c0.1,0.4,0.5,0.6,0.9,0.5
			c0.5-0.2,1.1-0.3,1.4-0.8C76.8,65.8,77.1,65.5,77,65.2z"/>
		<path class="st6" d="M105.4,72.8c-0.3-0.1-0.7-0.4-1,0c-0.2,0.3,0.2,0.7,0.1,1.1c-0.1,0.3,0.3,0.4,0.6,0.5
			c0.7,0.2,1.4,0.3,2.4,0.1C106.7,73.7,106.3,72.9,105.4,72.8z"/>
		<path class="st6" d="M14.4,70.1c-0.3,0-0.6,0.3-0.6,0.7c0,0.4,0.2,0.8,0.6,0.8c0.4,0,0.3-0.5,0.4-0.8
			C14.7,70.6,14.9,70.1,14.4,70.1z"/>
	</g>
	<g>
		<polygon class="st6" points="128.6,72.6 128.6,72.6 128.6,72.6 		"/>
		<path class="st6" d="M169.6,76c-0.9,0.3-1.8,0.2-2.8,0.3c-1.2,0.1-2.3,0.2-3.5,0.1c0.3,0.4,0.6,0.3,1,0.3c0.4,0,0.9-0.2,1.3,0
			c0.5,0.4,1.1,0.4,1.8,0.6c-1.2,0.1-2.3,0.2-3.3,0.3c-1.1,0.1-2.1-0.2-3.2,0.3c2.5,0,5.1,0.3,7.6-0.3c0.3-0.1,0.6-0.1,0.7-0.5
			c-0.6-0.2-1.2-0.2-2-0.4c0.3-0.1,0.4-0.1,0.5-0.1c0.6-0.1,1.2-0.1,1.9-0.1c0.2,0,0.3,0,0.3-0.3C169.9,75.9,169.7,75.9,169.6,76z"
			/>
		<path class="st6" d="M163.3,76.3C163.3,76.3,163.3,76.3,163.3,76.3C163.3,76.3,163.3,76.3,163.3,76.3L163.3,76.3z"/>
		<path class="st6" d="M136.1,75.1c-0.9,0-1.8,0.2-2.8,0.1c-0.8-0.1-1.5-0.1-2.3-0.2c-1.1-0.1-2.2-0.1-3.3-0.4c-0.1,0-0.2,0-0.3,0.2
			c0.3,0.2,0.7-0.1,1,0.4c-0.8,0.1-1.5,0.2-2.2,0.3c-0.8,0.1-1.5,0-2.4,0.4c0.6,0.1,1,0,1.4,0c2-0.4,4-0.5,6-0.3
			c1.7,0.1,3.3-0.1,4.9-0.2c0.4,0,0.7-0.1,1.1-0.2C136.8,75,136.4,75.1,136.1,75.1z"/>
		<path class="st6" d="M187.2,77c0.2,0.2,0.4,0.1,0.5,0.2c1.4,0.2,2.8,0.1,4.3,0.4c0.7,0.2,1.5,0.1,2.2,0.1c0.2,0,0.5,0,0.6-0.3
			C194.2,77,188.6,76.7,187.2,77z"/>
		<path class="st6" d="M174.3,77.6c-0.2,0-0.5-0.1-0.5,0.2c0,0.3,0.3,0.3,0.5,0.3c0.1,0,0.2,0,0.4,0c1.8,0.1,3.6,0.1,5.4,0.2
			c1.1,0,2.3,0.1,3.4,0.1c-1.5-0.2-3-0.4-4.5-0.5C177.4,77.8,175.8,77.9,174.3,77.6z"/>
		<path class="st6" d="M126.3,78.3c-1.8-0.1-3.6-0.4-5.4-0.3c1,0.4,9.5,0.8,11,0.5C129.9,77.9,128.1,78.4,126.3,78.3z"/>
		<path class="st6" d="M109.5,77.6c2.8-0.5,5.7-0.2,8.5-0.8C116.1,76.6,110.5,77.1,109.5,77.6z"/>
		<path class="st6" d="M146.9,77.2c-0.7,0-1.4,0-2.1-0.3c-0.4-0.2-0.9-0.2-1.4,0c0.1,0.3,0.3,0.4,0.5,0.4c1.8,0,3.5,0,5.3,0.3
			c0-0.1,0-0.2,0-0.2C148.4,77.3,147.7,77.3,146.9,77.2z"/>
		<path class="st6" d="M87.7,75.9C87.6,76,87.8,75.9,87.7,75.9c0.7,0.4,3.4,0.4,4.5,0C90.7,75.9,89.2,75.8,87.7,75.9
			C87.8,75.8,87.7,75.8,87.7,75.9z"/>
		<path class="st6" d="M153.7,77.6c0.7-0.1,1.5-0.3,2.2,0c0.2,0.1,0.5,0.1,0.7-0.3c-1.4,0-2.8-0.1-4.2-0.1
			C152.7,77.7,153.2,77.7,153.7,77.6z"/>
		<path class="st6" d="M97.3,76.2c-0.8,0.1-1.7,0.2-2.5,0.3c0,0.1,0,0.1,0,0.2c0.2,0,0.4,0,0.6,0c1-0.1,2.1-0.1,3.1-0.2
			C98.1,76.4,97.7,76.2,97.3,76.2z"/>
		<path class="st6" d="M119.9,76.5c1-0.1,2-0.2,3-0.3c-1-0.2-2-0.1-3,0.1C119.9,76.3,119.9,76.4,119.9,76.5z"/>
		<path class="st6" d="M157.8,77.5c0.6,0.3,2,0.3,2.4,0.1C159.3,77.3,158.5,77.5,157.8,77.5z"/>
		<path class="st6" d="M170.7,76.1c0.9,0.3,1.5-0.1,2.2-0.1C172.2,75.7,171.5,75.9,170.7,76.1z"/>
		<path class="st6" d="M109.2,75.6c-0.9,0-1.9-0.1-2.8-0.1C107.3,75.8,108.3,75.8,109.2,75.6z"/>
		<path class="st6" d="M121.5,77.2c-0.9-0.4-1.4-0.4-1.9,0.1C120.2,77.4,120.8,77.1,121.5,77.2z"/>
		<path class="st6" d="M101.8,74.8c-0.1-0.5,0.2-1.1-0.3-1.7c-0.2,0.6-0.2,1.1-0.2,1.6c0,0.1,0.1,0.2,0.2,0.2
			C101.7,74.9,101.9,74.8,101.8,74.8z"/>
		<path class="st6" d="M112.4,75.3c-0.1,0-0.3,0-0.4,0c0,0,0,0,0,0c-0.7-0.2-1.4-0.4-2.1-0.4c0.7,0.3,1.4,0.6,2.2,0.5
			c0.3,0,0.6-0.1,0.9-0.2c0,0,0,0,0-0.1c0.9-0.1,1.8,0,2.7-0.3c-1,0-2,0-3,0.3C112.6,75.1,112.5,75.2,112.4,75.3z"/>
		<path class="st6" d="M101.5,78c0.3-0.4,0.6-0.8,0.9-1.2C101.8,76.9,101.7,77.5,101.5,78z"/>
		<path class="st6" d="M147.6,76.1c0.6-0.2,1.2,0,1.9-0.1c-0.6,0-1.2,0-1.9-0.1C147.6,76,147.6,76.1,147.6,76.1z"/>
		<path class="st6" d="M162.2,76.6c-0.6-0.1-1.2-0.2-1.9,0C161,76.8,161.6,76.7,162.2,76.6z"/>
		<path class="st6" d="M104.2,75.2c-0.1,0-0.2,0.1-0.3,0.2c0,0-0.1,0.1-0.1,0.1c-0.5,0.2-0.9,0.3-1.5,0.5c1,0.2,1.4,0.1,1.7-0.5
			c0,0,0.1,0,0.1-0.1c0,0,0.1,0,0.1-0.1c0.5-0.1,0.9-0.4,1.3-0.7C104.9,74.6,104.5,74.9,104.2,75.2
			C104.2,75.2,104.2,75.2,104.2,75.2z"/>
		<path class="st6" d="M130.1,77.1c-0.5,0-1,0-1.4,0c-0.1,0-0.2,0-0.4,0.3c0.6-0.1,1.1-0.1,1.7-0.1C130,77.2,130,77.1,130.1,77.1z"
			/>
		<path class="st6" d="M119.1,77.8c0.4,0.2,0.6,0.2,1,0C119.7,77.7,119.5,77.7,119.1,77.8z"/>
		<path class="st6" d="M136,73.7c0.1-0.3,0.4-0.5,0.4-0.9C135.8,73.3,135.8,73.3,136,73.7z"/>
		<path class="st6" d="M163.2,76c-0.3-0.4-0.4-0.6-0.8-0.5C162.5,75.8,162.7,75.9,163.2,76z"/>
		<path class="st6" d="M128.4,73.9c0.1,0.1,0.1,0.1,0.1,0.1c0.2,0,0.4,0,0.5,0c0.1,0,0.1-0.1,0-0.1c-0.2,0-0.3,0-0.5-0.1
			C128.5,73.9,128.4,73.9,128.4,73.9z"/>
		<path class="st6" d="M120.7,74.7c0.2,0.2,0.4,0.2,0.6,0C121.1,74.5,120.9,74.5,120.7,74.7z"/>
		<path class="st6" d="M183.5,76.9C183.5,76.8,183.5,76.8,183.5,76.9c-0.1-0.1-0.3-0.1-0.4-0.1C183.2,76.8,183.4,76.8,183.5,76.9z"
			/>
		<path class="st6" d="M115.3,72.5c-0.2-0.2-0.3-0.1-0.6,0C115,72.6,115.1,72.6,115.3,72.5z"/>
		<path class="st6" d="M163.2,76.3C163.3,76.3,163.3,76.3,163.2,76.3C163.3,76.3,163.2,76.3,163.2,76.3
			C163.2,76.3,163.2,76.3,163.2,76.3z"/>
		<path class="st6" d="M162.3,76.4c0.4,0.1,0.7,0.1,0.9,0C163,76.2,162.7,76.1,162.3,76.4z"/>
		<path class="st6" d="M92.1,72.6c0,0,0-0.2-0.1-0.2c-0.1-0.1-0.2-0.1-0.3-0.1c0,0.1,0.1,0.1,0.1,0.2C91.9,72.5,92,72.7,92.1,72.6z"
			/>
		<path class="st6" d="M99.9,76.2c-0.1,0-0.1,0-0.2,0c-0.1,0-0.1,0.1,0,0.1c0.1,0,0.2,0,0.2,0C100,76.3,100,76.2,99.9,76.2z"/>
		<path class="st6" d="M127.2,77.2c-0.1,0-0.1,0-0.2,0.1c0,0,0.1,0.1,0.1,0.1c0.1,0,0.1,0,0.2,0C127.2,77.2,127.2,77.2,127.2,77.2z"
			/>
		<path class="st6" d="M145.7,75.4c-0.5-0.2-0.8-0.3-1.2,0C145,75.7,145.3,75.6,145.7,75.4z"/>
		<path class="st6" d="M143.8,74.6c-0.2-0.9-0.7-1.3-1.6-1.1c-0.3,0.1-0.4,0.2-0.2,0.5c0.5,0.7,1,1.3,2,1.4
			C144,75.1,143.9,74.9,143.8,74.6z"/>
		<path class="st6" d="M107.5,68.2c-0.1,0-0.1-0.1-0.2-0.1c-0.8,0.3-1.5,0.6-2.4,0.2c-0.1-0.1-0.3,0-0.4,0.1
			c-0.2,0.1-0.2,0.3-0.3,0.5c-0.2,0.2-0.2-0.3-0.5-0.1c-0.2,0.1-0.2,0.3-0.1,0.5c0.3,0.3,0.5,0.6,0.8,1c0.8,0.9,0.8,1,1.6,0.5
			c0.1-0.1,0.1-0.2,0.2-0.3c0.2-0.7,0.9-1,1.3-1.7c-0.8,0.4-1.3,1-2,1.2C106,69,107,68.9,107.5,68.2z"/>
		<path class="st6" d="M184.8,74.2c-0.4-0.2-0.7,0-1.1,0.2c0.4,0.4,0.7,0.3,1,0.2c0.1,0,0.2-0.1,0.2-0.2
			C185,74.4,184.9,74.3,184.8,74.2z"/>
		<path class="st6" d="M108.1,68.4c0,0,0.1-0.1,0.1-0.1c0-0.1,0-0.1-0.1-0.1c0,0-0.1,0.1-0.1,0.1C107.9,68.4,108,68.4,108.1,68.4z"
			/>
		<path class="st6" d="M114.8,71.1c0,0.2,0.2,0.4,0.4,0.2c0.4-0.4,0.9-0.8,1-1.4c0.1-0.2,0-0.4-0.2-0.4c-0.3,0.3-0.5,0.7-0.9,0.7
			C114.9,70.5,114.8,70.8,114.8,71.1z"/>
		<path class="st6" d="M152.6,74.3c-0.5-0.1-0.8-0.3-1.1-0.5c-0.3-0.3-0.6-0.4-1-0.1c-0.4,0.3-0.9,0.4-0.7,1.3
			c-0.7-0.7-1.2-0.2-1.7,0c-0.1-0.7-0.1-0.7-0.7-0.7c0,0,0,0,0,0c-0.3,0.2-0.7,0.2-1.1,0.1c0.2-0.5,0.5-0.8,0.6-1.3
			c0-0.3,0.1-0.5-0.2-0.7c-0.2-0.1-0.7,0.2-0.6,0.5c0.1,0.5-0.1,0.5-0.4,0.4c-0.4-0.1-0.5,0.2-0.3,0.5c0.1,0.1,0.1,0.2,0,0.4
			c-0.1,0.1-0.2,0.1-0.3,0c-0.2-0.1-0.5-0.3-0.6,0.1c-0.1,0.4,0.1,0.5,0.4,0.6c0.1,0,0.2,0,0.4,0c2.6,0.4,5.3,0.3,7.9,0.5
			c0.9,0,1.7,0.1,2.6,0.1c0.3,0,0.7,0.1,1-0.4c-1.7-0.8-3.4-1.4-5.3-2C151.8,73.7,152.4,73.8,152.6,74.3z"/>
		<path class="st6" d="M108,73.1c0.3-0.4,0.8-0.7,1.3-0.7c0.3,0,0.5-0.2,0.5-0.5c0-0.3,0.2-0.4,0.4-0.4c0.6,0,1-0.4,1.4-0.8
			c0.5-0.4,0.5-0.6,0.2-1.4c-0.7,0.3-1.3,0.6-1.4,1.5c0,0.2-0.2,0.3-0.3,0.1c-0.1-0.1-0.2-0.1-0.3,0c-0.9,0.6-1.6,1.4-2.3,2.3
			C107.8,73.2,107.9,73.2,108,73.1z"/>
		<path class="st6" d="M106.9,71.1c0.3-0.2,0.4-0.5,0.1-0.7c-0.2-0.3-0.4,0-0.6,0.1c0,0-0.1,0-0.1,0.1c0,0,0,0,0,0c0,0,0,0,0,0.1
			c-0.1,0.3-0.5,0.6-0.1,0.9C106.4,71.7,106.6,71.3,106.9,71.1z"/>
		<path class="st6" d="M177.6,74.9c0,0-0.1,0.1-0.1,0.1c0,0.1,0,0.1,0.1,0.1c0,0,0.1-0.1,0.1-0.1C177.7,74.9,177.7,74.9,177.6,74.9z
			"/>
		<path class="st6" d="M97.8,71.6c-0.1,0.1-0.1,0.2-0.2,0.4c0.1,0,0.3-0.1,0.4-0.1c0.1-0.1,0.2-0.2,0.1-0.3
			C98,71.4,97.9,71.5,97.8,71.6z"/>
		<path class="st6" d="M98.1,73.1c0,0.1,0.1,0.1,0.2,0.1c0.3,0,1.1-0.9,1.1-1.2c0-0.2-0.1-0.3-0.3-0.3c-0.5-0.1-0.7,0.3-1,0.6
			C97.9,72.5,98,72.8,98.1,73.1z"/>
		<path class="st6" d="M142.3,73.3c0.6-0.1,1.3-0.1,1.8-0.7c0.5-0.5,0.6-1.1,0.6-1.8c-0.4,0.1-0.7,0.2-0.7,0.6c0,0.3,0,0.5-0.3,0.2
			c-0.1-0.1-0.2-0.1-0.3,0c-0.4,0.4-0.9,0.7-1.3,1.1C141.7,72.9,141.9,73.4,142.3,73.3z"/>
		<path class="st6" d="M182.7,74.1c0-0.1-0.1-0.2-0.3-0.2c-0.3,0-0.6,0-0.7,0.4c0,0.1,0.1,0.2,0.3,0.2
			C182.3,74.4,182.6,74.5,182.7,74.1z"/>
		<path class="st6" d="M179.6,73.6c0.3,0,0.7-0.1,0.7-0.5c0-0.2-0.1-0.4-0.4-0.4c-0.3,0-0.6,0.1-0.7,0.4
			C179.2,73.4,179.4,73.6,179.6,73.6z"/>
		<path class="st6" d="M99.3,73c-0.5,0.3-0.9,0.7-0.9,1.4c0.4,0.1,0.9,0.3,1.2-0.1c0.2-0.3,0-0.9-0.2-1.3C99.4,73,99.4,73,99.3,73z"
			/>
		<path class="st6" d="M178,74.1c0.5,0.1,0.5,0.1,1.1-0.1C178.6,74,178.3,73.8,178,74.1z"/>
		<path class="st6" d="M179.1,74.7c-0.1,0-0.2,0.1-0.2,0.2c0,0,0.1,0.1,0.1,0.1c0.1,0,0.2-0.1,0.2-0.1
			C179.3,74.7,179.2,74.7,179.1,74.7z"/>
		<path class="st6" d="M184.1,73.5c-0.1-0.2-0.2-0.5-0.6-0.4c-0.2,0.1-0.5,0.1-0.4,0.4c0,0.3,0.3,0.4,0.5,0.4
			C183.8,73.8,184.1,73.9,184.1,73.5z"/>
		<path class="st6" d="M116,69.5c0.3-0.4,0.5-0.8,1.1-0.9c0.2-0.2,0.5-0.4,0.6-0.8c-0.3-0.2-0.5-0.4-0.7-0.6c-0.2-0.2-0.4-0.2-0.6,0
			c-1.1,0.6-1.7,1.8-1.3,3.1C115.3,69.8,115.6,69.6,116,69.5z"/>
		<path class="st6" d="M135.4,70.4c-0.1,0.3,0.2,0.6,0.4,0.6c0.3,0,0.5-0.2,0.7-0.5c0-0.2-0.1-0.4-0.3-0.4
			C135.9,70.1,135.5,70,135.4,70.4z"/>
		<path class="st6" d="M149.5,73.7c0.3,0,1.1-0.6,1.1-0.8c0-0.4-0.5-0.8-0.9-0.8c-0.4,0-0.7,0.3-0.7,0.7
			C149,73.2,149.3,73.7,149.5,73.7z"/>
		<path class="st6" d="M147.4,71.8c-0.2,0.2-0.2,0.4-0.1,0.6c0.1,0.2,0.3,0.3,0.5,0.2c0.2-0.1,0.5-0.2,0.6-0.4
			c0.1-0.3,0.4-0.2,0.6-0.4C148.4,71.3,147.9,71.4,147.4,71.8z"/>
		<path class="st6" d="M158,74.6c0,0.1-0.1,0.2-0.1,0.2c-0.1,0.1,0,0.3,0.1,0.3c0,0,0.1,0,0.2,0c0.1-0.1,0.1-0.2,0-0.3
			C158.2,74.7,158.1,74.7,158,74.6z"/>
		<path class="st6" d="M147.3,73.6c-0.2,0.1-0.2,0.2,0,0.4c0.1,0.1,0.1,0.1,0.2,0.2c0.1-0.1,0.2-0.2,0.2-0.4
			C147.6,73.6,147.5,73.5,147.3,73.6z"/>
		<path class="st6" d="M130.5,71c-0.1-0.2-0.3-0.1-0.4,0c-0.2,0.2-0.5,0.4-0.6,0.8c0.3-0.1,0.6-0.2,0.8-0.3
			C130.6,71.4,130.6,71.2,130.5,71z"/>
		<path class="st6" d="M131.5,71.8c0.1,0.1,0.2,0.2,0.3,0.1c0.3-0.2,0.7-0.3,1-0.8c-0.6,0.1-0.9,0.2-1.2,0.4
			C131.5,71.6,131.4,71.7,131.5,71.8z"/>
		<path class="st6" d="M148.2,73c-0.2,0-0.4,0.1-0.4,0.4c0,0.2,0.6,0.6,0.8,0.6c0.2,0,0.2-0.1,0.2-0.3C148.8,73.3,148.5,73,148.2,73
			z"/>
		<path class="st6" d="M118.4,68.5c0.1,0,0.2-0.2,0.2-0.3c0-0.1-0.1-0.2-0.2-0.1c-0.1,0-0.1,0.1-0.2,0.2
			C118.2,68.4,118.3,68.5,118.4,68.5z"/>
		<polygon class="st6" points="132.6,36.4 132.6,36.4 132.6,36.4 		"/>
		<path class="st6" d="M117.9,71.9c1.4,0.3,1.4,0.3,1.6-1C118.8,71,118.3,71.3,117.9,71.9z"/>
		<path class="st6" d="M144.9,72.8c0.1,0.1,0.2,0.1,0.3,0c0.5-0.5,1.1-0.8,1.7-1.2c-0.9-0.3-1.4,0.5-2,0.9
			C144.8,72.5,144.8,72.7,144.9,72.8z"/>
		<path class="st6" d="M132.6,69.9c0.2,0,0.3-0.1,0.3-0.3c0-0.2,0-0.4-0.3-0.4c-0.2,0-0.3,0.2-0.3,0.3
			C132.3,69.7,132.4,69.8,132.6,69.9z"/>
		<path class="st6" d="M134.4,69.9c0.3,0,0.4-0.3,0.3-0.6c-0.1-0.2-0.3-0.1-0.5,0c-0.2,0.2-0.6,0.3-0.6,0.8
			C133.8,69.9,134.1,70,134.4,69.9z"/>
		<path class="st6" d="M131.5,73.2c0.3,0.1,0.5,0,0.6-0.1c0.2-0.4,0.5-0.4,0.9-0.3c0.7,0.2,1.1-0.1,1.2-0.9c0-0.3,0.1-0.2,0.3-0.2
			c0.5,0.1,0.8-0.2,0.7-0.7c-0.1-0.3-0.1-0.6-0.5-0.7c-0.3,0-0.7,0.1-0.8,0.4c-0.1,0.3-0.2,0.3-0.5,0.4
			C132.6,71.6,132,72.3,131.5,73.2z M133.4,71.8c0,0,0.1,0.1,0.1,0.1c0,0.1-0.1,0.2-0.2,0.1c0,0-0.1-0.1-0.1-0.1
			C133.2,71.8,133.3,71.8,133.4,71.8z"/>
		<path class="st6" d="M131.8,69.7c-0.3,0-0.8,0.6-0.8,0.9c0,0.2,0,0.3,0.2,0.4c0.3,0.1,1.1-0.6,1.1-0.9
			C132.1,69.9,132.1,69.7,131.8,69.7z"/>
		<path class="st6" d="M132.6,36.4C132.6,36.4,132.6,36.4,132.6,36.4L132.6,36.4z"/>
		<path class="st6" d="M146.3,70.8c0-0.4-0.4-0.3-0.6-0.4c-0.2-0.1-0.5,0-0.4,0.3c0,0.2,0.1,0.5,0.4,0.6
			C145.9,71.2,146.3,71.2,146.3,70.8z"/>
		<path class="st6" d="M158,74.6c0.2-0.3,0.4-0.5,0.7-0.6c0.5-0.1,0.4-0.6,0.4-0.9c0.7,0.2,1.1,0.1,1.3-0.2c0,0-0.2-0.2-0.4-0.3
			c0.7,0,1.2,0,1.7,0.1c0.4,0,0.8-0.2,1.1,0c0.7,0.4,1.3,0.2,1.9-0.1c0.2-0.1,0.3-0.2,0.6-0.1c-0.6,0.2-1,0.7-1.5,0.9
			c-0.3,0.1-0.5,0.3-0.4,0.7c0.1,0.3,0.8,0.8,1,0.8c0.5-0.1,0.7-0.4,0.5-0.9c0-0.2-0.1-0.3-0.1-0.5c0-0.1,0.1-0.2,0.2-0.2
			c0.1,0,0.2,0,0.2,0.1c0,0.1,0,0.3,0.1,0.4c0.2,0.6,0.2,0.6,0.6,0.1c0.2-0.3,0.3-0.1,0.5-0.1c0.5,0.1,0.9-0.3,0.8-0.7
			c-0.1-0.6-1-1.4-1.7-1.3c-1.7,0.3-3.4,0.3-5.1,0.6c-1,0.2-2.1,0.5-2.9,1.2c-0.3,0.2-0.4,0.5-0.3,0.9
			C157.5,74.7,157.8,74.6,158,74.6z"/>
		<path class="st6" d="M96.2,73.6c-0.1,0.1-0.1,0.1,0,0.1c0,0,0.1-0.1,0.1-0.1c0.1-0.1,0-0.1,0-0.1C96.3,73.5,96.2,73.5,96.2,73.6z"
			/>
		<path class="st6" d="M96.8,73c0.4-0.2,0.7-0.5,0.8-0.9C97,72.1,97,72.6,96.8,73z"/>
		<path class="st6" d="M95.4,72.4c0.3-0.3,0.5-0.6,0.9-0.2c0.2,0.2,0.8-0.3,0.8-0.6c0-0.2-0.2-0.2-0.3-0.2c-0.5,0.2-1.1,0.2-1.6,0.4
			c-0.2,0.4-0.3,0.7-0.5,1.1C95.2,72.9,95.3,72.6,95.4,72.4z"/>
		<path class="st6" d="M137.6,70.3c-0.1,0-0.1-0.1-0.1-0.2c0.1-0.2,0.2-0.3-0.1-0.2c-0.3,0-0.5,0.1-0.5,0.5c0,0.4,0.1,0.8,0.3,1.2
			c0.1,0.2,0.3,0.3,0.5,0.2c0.2-0.1,0.5-0.2,0.4-0.4C138,70.9,138.4,70.3,137.6,70.3z"/>
		<path class="st6" d="M139.6,71.1c-0.3,0-0.6,0.2-0.7,0.5c-0.1,0.2,0.1,0.3,0.3,0.4c0.4,0,0.6-0.2,0.6-0.5
			C139.8,71.2,139.8,71,139.6,71.1z"/>
		<path class="st6" d="M176.7,74c0.1-0.1,0.2-0.2,0.2-0.3c-0.1-0.1-0.2-0.1-0.3-0.1c-0.3,0.1-0.6,0.2-1,0.5
			C176.1,74.3,176.4,74.2,176.7,74z"/>
		<path class="st6" d="M175.2,73.8c0-0.1-0.1-0.1-0.2-0.1c-0.1,0-0.2,0.1-0.2,0.2c0,0.1,0.1,0.2,0.2,0.2
			C175.1,74.1,175.2,74,175.2,73.8z"/>
		<path class="st6" d="M178.2,72.9c-0.4,0-0.7,0-1.3,0.3C177.9,73.4,177.9,73.4,178.2,72.9z"/>
		<path class="st6" d="M174.1,73.9c0-0.3-0.2-0.3-0.4-0.3c-0.6,0-1.3-0.1-2,0.2c0.6,0.5,1.3,0.5,2,0.4
			C174,74.3,174.1,74.2,174.1,73.9z"/>
		<path class="st6" d="M163.9,75c-0.3-0.3-0.5-0.7-0.8-1c-0.1-0.1-0.2,0-0.3,0c-0.1,0.1-0.2,0.3-0.1,0.3c0.4,0.2,0.4,0.8,0.8,1
			c0.2,0.1,0.3,0.1,0.4-0.1C163.9,75.1,163.9,75.1,163.9,75z"/>
		<path class="st6" d="M136.5,69.4c0,0,0-0.1-0.1-0.1c-0.3,0-0.5,0.1-0.8,0.5C136,69.7,136.3,69.7,136.5,69.4z"/>
		<path class="st6" d="M164.4,52l0.1,0.2c-0.1,0.1-0.3,0.3-0.4,0.4c1.5-0.7,3-1.4,4.4-2.4c0,0,0,0,0,0c0.2-0.2,0.5-0.4,0.3-0.8
			c-0.2-0.4,0.2-0.5,0.5-0.7c0.3-0.2,0.6-0.4,0.3-0.8c-0.1-0.2,0-0.4,0.1-0.5c0.7-0.6,1.3-1,1.3-1c0-0.1,0.1-0.1,0.1-0.2
			c0-0.1,0-0.3-0.1-0.4c0,0,0,0-0.1-0.1c-0.3-0.4-0.6-1-1.1-0.9c-0.5,0.1-0.7,0.7-1,1.1c-1.2,1.3-2.4,2.5-3.6,3.8
			c-0.7,0.8-1.4,1.5-1.9,2.5c-0.4,0.6-1.1,1.1-1.6,1.6c0,0,0,0,0,0c0.4-0.2,0.8-0.4,1.1-0.6C163.2,52.8,163.8,52.4,164.4,52z"/>
		<path class="st6" d="M190,71.6c0.6,0.3,1.1,0.6,1.7,0.9c0.3,0,0.8,0,1.1-0.1l0,0c0,0,0.1-0.1,0.1-0.1c-0.6-0.3-1.2-0.7-1.7-1.1
			c-0.3-0.2-0.6-0.4-0.9-0.7c-0.1-0.1-0.1-0.2-0.1-0.3c-0.1-0.1-0.2-0.3-0.3-0.3c-0.4-0.1-0.2-0.3-0.2-0.6c0-0.1,0-0.3-0.1-0.4
			c-0.6-0.8-1-1.8-1.9-2.4c-0.3-0.2-0.5-0.5-0.7-0.7c-0.3-0.4-0.6-0.8-1.1-0.8c-0.2,0-0.4-0.2-0.5-0.4c-1.1-1.2-2.1-2.3-2.7-3.9
			c-0.5-1.3-1.1-2.6-1.9-3.7c-0.6-0.7-2.5-3.8-2.8-4.3c-0.5-0.9-1.9-2.9-3.3-4.1c-0.5-0.5-1-1.1-1.5-1.6c-0.6-0.5-1.2-0.6-1.9-0.3
			c-0.2,0.1-0.4,0.2-0.5,0.4c-0.9,1.5-1.6,3.1-2.2,4.8c0,0.1,0,0.2,0,0.3c1,0.2,2,0.6,2.9,1.2c0.5,0.4,0.8,0.8,0.8,1.4
			c0.1,1.3-0.1,2.6-0.3,3.9c-0.3,1.8-0.6,3.6-1,5.4c0,0.1-0.1,0.2-0.3,0.2c0,0,0-0.1,0-0.1l-8.8,3.3l0,0l0,0l-0.3,0.1l0.3-0.1
			l-3.7-3.2c-0.1,0.2-0.1,0.3-0.2,0.5c-0.1-0.8,0.1-1.2,0.8-2.2c0,0,0,0.1,0,0.1c0.1-0.3,0.3-0.5,0.4-0.8c0,0.1-0.1,0.1-0.1,0.2
			c-0.1-0.4,0.1-0.6,0.2-0.9c0.5-1.2,1.3-2.2,1.8-3.4c0.6-1.4,0-1.9-1.3-2.1c-0.1,0-0.3,0.1-0.5,0c0.2-0.6,0.5-1.2,1.1-1.4
			c0.4-0.2,0.7-0.5,1-0.8c0.2-0.2,0.4-0.5,0.6-0.7c1.4-2,3.1-3.8,4.8-5.6c0.1-0.1,0.2-0.2,0.2-0.3c0.3-0.3,0.2-0.6-0.1-0.9
			c-0.9-0.6-1.5-1.4-2.2-2.1c-0.3-0.3-0.6-0.8-0.8-1.2c-0.5-0.8-1.2-1.3-2.1-1.4c-0.9-0.1-1.9,0-2.8,0c-0.7,0-1.4,0.3-2.1,0.8
			c0,0,0,0,0-0.1l-0.5,0.3c-0.2,0.3-0.5,0.5-0.8,0.6c0,0,0,0,0-0.1l-0.6,0.4c0,0,0,0,0,0.1c0,0.1-0.1,0.2-0.3,0.2c0,0-0.1,0-0.1-0.1
			l-0.4,0.3l0.1,0l-0.1,0l0,0l0,0l0,0l-3.4,0c-0.1,0.1-0.2,0.1-0.3,0.1c-0.1-0.2,0.1-0.3,0.2-0.4c1.2-0.9,2.5-1.9,3.7-2.8
			c0.4-0.3,1-0.4,1.4-0.7c0.2-0.1,1,0.3,1.1,0.6l1.2,0.3c0.2-0.1,0.4-0.1,0.6-0.1c1,0.1,2-0.2,3-0.1c-0.9-0.7-1.6-1.5-2.4-2.2
			c-0.3-0.3-0.6-0.6-0.8-1c-0.4-0.9-1-1.1-1.8-1c-0.6,0.1-1,0-1.4-0.5c-1-1.2-2.3-2.1-3.5-3.1c-0.3-0.3-0.7-0.5-1.1-0.4
			c0,0-0.1,0.1-0.1,0.1c-0.2,0-0.4,0.1-0.6,0.2c-0.1,0.1-0.2,0.2-0.4,0.2c-0.1,0-0.2,0-0.3-0.1c-0.1-0.1-0.2-0.3-0.3-0.4
			c-0.1,0-0.1,0-0.2-0.1c-0.1-0.1-0.2-0.1-0.3-0.2c-0.3-0.2-0.5-0.7-0.8-0.6c-0.4,0.1-0.8,0.4-1.1,0.6c-1.6,1.2-3,2.7-4.4,4.2
			c0,0-0.1,0.1-0.1,0.1l5.2-1.7c0.5-0.8,1.1-1.4,1.9-1.7c-0.7,0.6-1.2,1.5-2.1,1.9c0-0.1,0.1-0.1,0.1-0.2l-2.9,1.5c0,0,0,0.1,0,0.1
			c0,0.1-0.1,0.2-0.2,0.2l-1.9,9.5c0.1,0,0,0.1,0,0.2c0,0.1-0.1,0.1-0.2,0.2c0,0,0,0,0,0l-2.3,4.9l0.1-0.1l-0.1,0.1l0,0l0,0l-0.1,0
			c0,0,0.1,0.1,0.1,0.1c-0.4,0.5-0.8,0.9-1.2,1.4c-0.5,0.6-1.1,1.2-1.4,1.9c-0.1,0.1-0.2,0.2-0.3,0.1c-0.1-0.1-0.1-0.2-0.1-0.3
			c0,0,0-0.1,0-0.1c0-0.1,0.1-0.1,0.1-0.2l-0.7-1.7l3.1-10.1l-0.1-0.3l-1.8-1.2c-0.1,0.1-0.1,0.1-0.2,0.2c-0.1-0.6,0.3-0.9,0.6-1.2
			c1.2-1.1,2.4-2.2,3.6-3.4c0.5-0.5,1-1,1.4-1.5c0.9-1.2,2.1-2.1,3.2-3c0.1-0.1,0.2-0.2,0.3-0.3c0.4-0.4,0.4-0.6,0-0.9
			c-0.5-0.4-1.1-0.8-1.6-1.1c-0.1-0.1-0.3-0.2-0.4-0.3c0,0,0,0,0,0c-0.1,0-0.1-0.1-0.2-0.2c-0.1-0.1-0.2-0.1-0.3-0.2
			c-0.1,0-0.1,0-0.2-0.1c-0.7-0.7-1.7-0.8-2.3-1.6c-0.2-0.3-0.5-0.5-0.6,0.1c0,0.2-0.1,0.4-0.3,0.3c-0.7-0.1-1,0.5-1.4,0.8
			c-0.2,0.2-0.3,0.5-0.6,0.4c0.1-0.6,0.6-0.9,0.9-1.2c0.4-0.3,0.4-0.7,0.2-1.1c-0.5-0.9-0.7-0.9-1.2-0.1c-1.2,1.5-2.7,2.6-4.1,3.8
			c-0.5,0.4-1,0.8-1.5,1.3c-0.3,0.3-0.7,0.5-0.8,0.9c-0.4,0.9-1,1.5-2,1.5c-0.1,0-0.3,0.2-0.4,0.3c-0.5,0.5-0.9,1-1.3,1.7
			c-0.2,0.3-0.3,0.7-0.6,1c-1.2,1.2-1.6,2.9-2.3,4.4c-0.9,2-1.4,4.2-2.3,6.2c0,0-0.1,0-0.1,0l-3.6,8.5l0.2,3.2
			c0.1-0.2,0.2-0.3,0.4-0.4c-0.3,1-0.6,2.1-1,3.2c-0.2-0.5,0-1.5,0.3-2.2l-1.4,1.4c0,0,0,0,0,0c-1,1.4-2.3,2.5-3.6,3.7
			c0.3-0.6,0.6-1.1,1.1-1.5l-0.6-1.8c0,0-0.1,0.1-0.1,0.1c0-0.1,0-0.1,0.1-0.2l0,0l0.4-2.4c-0.1,0.1-0.2,0.1-0.2,0.1
			c0-0.2,0.1-0.4,0.2-0.6l0.1-1.2c-0.2-0.1,0-0.3,0-0.5c0.1-0.2,0.3-0.4,0.4-0.6l0.9-1.9c0,0-0.1,0-0.1,0c0.1-0.1,0.1-0.3,0.2-0.4
			l1.7-4.6c-0.1,0-0.1-0.1-0.1-0.1c-0.1-0.6,2.7-2.8,2.8-2.9c0.2-0.1,0.5-0.3,0.7-0.4c-0.1,0.2-0.3,0.4-0.5,0.5l2.6-2.1
			c0.5-1.8,1.4-3.5,2-5.3c0-0.1,0.1-0.2,0.2-0.3c0.2-0.7,0.2-0.8-0.4-1.2c-0.6-0.3-1.1-0.6-1.7,0c-0.2,0.2-0.5,0.2-0.8,0.1
			c-0.4-0.3-0.7-0.1-0.9,0.3c-0.5,0.8-1.1,1.7-1.6,2.5c-1.1,1.9-2.3,3.7-3.2,5.7c-0.4,0.9-1,1.4-2,1.1c-0.9-0.2-1.6,0.1-2.2,0.9
			c-1,1.3-2.1,2.4-3.1,3.7c-0.2,0.3-0.5,0.6-0.5,1c0.6,0.2,1.2,0.5,2.1,0.5c-1,2.1-2.3,3.8-3.3,5.7c0-0.6,0.3-1.1,0.6-1.6
			c0.6-1,1.3-2,1.8-3.1c0.3-0.5,0.2-0.6-0.3-0.8c-0.5-0.1-1-0.2-1.6-0.2c-1.1,0.1-2.1,0.1-3.2-0.2c-0.9-0.2-1.6-0.1-2.3,0.8
			c-1.3,1.6-2.6,3.1-3.7,4.8c-2.3,3.5-4.6,7.1-7.1,10.5c0,0,0,0.1,0,0.1c-0.1,0.1-0.2,0.3-0.3,0.3c0,0.1-0.1,0.1-0.1,0.2
			c0,0.1,0,0.1,0,0.2c0,0,0.1,0,0.1,0c0.3,0.2,0.6,0.4,1,0.4c0.9,0,1.5-0.5,2-1.3c0.7-1.4,1.9-1.8,3.3-2c1.3-0.2,2.3-0.1,3.1,1.2
			c0.4,0.7,1.1,1.2,1.4,2.1c0.4,1,1.4,1.3,2.1,1.2c0.5,0,0.7-0.4,0.4-0.8c-0.2-0.3-0.5-0.5-0.7-0.8c-0.5-0.4-0.9-1-1.3-1.5
			c-0.3-0.3-0.4-0.8,0-1c0.5-0.3,0.5-0.6,0.5-1.1c0-0.1,0.1-0.2,0.1-0.2c1,1.1,2.6,1.2,3.7,0.3c0,0,0.1-0.1,0.1-0.1
			c1.5-1,1.1-1.3,3-0.6c0.3,0.1,0.6,0.2,0.9,0.2c1.2-0.1,1.6,0.8,2,1.7c0.1,0.2,0.1,0.4,0.2,0.6c0.1,0.3,0.4,0.3,0.5,0
			c0.1-0.2,0.2-0.4,0.3-0.6c0.4-0.9,1.1-1.5,1.9-2c0.3-0.2,0.6-0.2,0.8,0.1c0.4,0.5,0.9,0.6,1.4,0.6c0.3,0,0.7,0.1,1,0.1
			c0.6,0,1.1,0.1,1.6,0.5c0.5,0.4,1,0.6,1.6,0.7c0.6,0.2,0.8,0,0.8-0.6c0-0.5,0.1-1.1,0.2-1.6c0.2,0.5,0,0.9,0,1.4
			c0,0.6,0.1,1.1,0.8,1.2c0.6,0.1,0.8,0.7,1,1.2c0.3,0.8,0.4,0.9,1.2,0.5c0.2-0.1,0.3-0.1,0.5,0.1c0.4,0.4,0.9,0.3,1.4,0.3
			c0.5-0.1,0.6-0.3,0.5-0.8c-0.1-0.4-0.2-0.8-0.3-1.2c0-0.8,0.1-1.1,0.8-1.4c0.5-0.2,1.1-0.4,1.6-0.6c0.5-0.2,0.9-0.5,1.3-0.8
			c0.7-0.6,1.2-0.6,1.8,0.1c0.3,0.4,0.7,0.7,1.2,0.7c-0.6,0.2-1.1,0.3-1.5-0.4c-0.3-0.4-0.8-0.4-1.2-0.2c-1,0.6-2,1.1-3,1.6
			c-0.4,0.2-0.5,0.5-0.6,0.9c0,0.3,0.1,0.6,0.2,0.9c0.3,0.8,0.3,0.8,0.8,0.2c0.2-0.2,0.4-0.2,0.6-0.3c0.3-0.2,0.8-0.3,0.5-0.8
			c0-0.1,0-0.2,0.1-0.2c0.7,0.5,0.8-0.3,1.1-0.7c0.2,0.2,0.7,0.2,0.4,0.7c-0.1,0.2,0,0.4,0.1,0.5c0.2,0.1,0.4,0,0.5-0.1
			c0.5-0.5,1.1-0.8,1.7-1.2c0.3-0.2,0.6-0.4,1.1-0.4c-0.1,0.4-0.5,0.5-0.8,0.7c-0.2,0.1-0.5,0.2-0.7,0.5c-0.1,0.1-0.1,0.3,0,0.5
			c0.1,0.2,0.3,0.1,0.4,0.1c0.3-0.2,0.6-0.4,0.9-0.5c0.3-0.2,0.6-0.3,1-0.3c0.1,0.2-0.1,0.2-0.2,0.3c-0.2,0.2-0.2,0.4-0.1,0.6
			c0.1,0.2,0.3,0.2,0.5,0.2c0.6-0.1,1.3-0.1,1.9-0.2c0.1-0.3-0.2-0.3-0.3-0.4c-0.5-0.3-1-0.6-1.1-1.2c-0.1-0.6-0.8-0.4-1.2-0.6
			c0.7-0.5,1.5-0.3,1.6,0.4c0.2,0.8,0.7,1.1,1.2,1.5c0.6,0.4,1.1,0.5,1.8,0c1.3-0.7,2.7-1.3,4.2-1.7c0.3-0.1,0.5-0.1,0.7,0
			c1,0.4,2.1,0.5,3.1,1.1c0.1,0.1,0.3,0.2,0.4,0.2c1.1,0.1,1.6,0.9,2,1.8c0.3,0.6,0.7,1.2,1,1.8c-0.4,0.2-0.5,0-0.6-0.2
			c-0.3-0.4-0.6-0.8-0.8-1.2c-0.4-1-1-1.6-2-1.9c-0.9-0.2-1.8-0.6-2.7-0.9c-0.7-0.2-1.3-0.2-2,0.1c-0.9,0.4-1.7,0.8-2.6,1.2
			c-0.5,0.2-0.2,0.4,0,0.6c-0.3,0.2-0.7-0.1-1,0.1c0,0.4,0.3,0.7,0.2,1.1c-0.1,0-0.1-0.1-0.2-0.1c-0.2-0.2-0.2-0.6-0.5-0.5
			c-0.3,0.1-0.4,0.4-0.5,0.6c-0.1,0.4-0.3,0.9,0,1.3c0.4,0,0.7-0.5,1.2-0.5c-0.1,0.4-0.5,0.5-0.7,0.7c-0.1,0.1-0.2,0.2-0.2,0.4
			c0.1,0.2,0.2,0.2,0.4,0.2c0.1,0,0.3,0,0.3-0.1c0.4-0.7,0.9-1.4,1.7-1.8c0.3-0.1-0.2-0.6,0.2-0.7c0.2-0.1,0.6-0.1,0.7-0.4
			c-0.1-0.4-0.5-0.1-0.6-0.4c0.5-0.1,1.1,0.2,1.7-0.1c0.2-0.1,0.5,0.2,0.8,0.4c0.3,0.1,0.5,0.3,0.7-0.1c0.1-0.2,0.3-0.1,0.3,0.1
			c0.1,0.4,0.2,0.5,0.6,0.3c0.3-0.2,0.6-0.3,0.9-0.4c0,0,0,0,0,0l0,0c0,0,0,0,0,0c0,0,0,0,0,0c0.1-0.2,0.3-0.3,0.5-0.2
			c-0.1,0.3-0.3,0.3-0.5,0.2c0,0,0,0,0,0c0,0,0,0,0,0c-0.3,0.5-0.8,0.6-1.1,1c-0.2,0.2-0.3,0.3-0.3,0.6c0.6-0.1,1-0.7,1.6-0.8
			c0.3,0,0.6-0.2,0.9-0.2c-0.1,0.3-0.5,0.2-0.5,0.5c0.7,0.5,0.7,0.5,1.2-0.1c0.1-0.2,0.2-0.1,0.4,0c0.1,0.1,0.1,0.2,0.1,0.3
			c0,1,0.6,1.3,1.4,1.5c0.7,0.3,1.4,0.6,2.1,0.9c0-0.7,0-0.7-0.5-1.2c0.9,0,1.7,0,2.4,0.7c-0.3,0.1-0.7-0.1-1-0.1
			c0.2,0.7,1.2,0.4,1.3,1.3c0.6-0.3,0.7-1,1.3-1.4c0.1,0,0.1-0.1,0.1-0.3c0-0.1-0.4-0.1-0.1-0.2c0.8-0.1,1.5-0.3,2.2-0.5
			c0.4-0.2,0.9-0.2,1.4-0.3c1.4-0.1,2.7-0.2,4.1-0.5c1-0.2,1.7,0,2.2,0.9c0.4,0.7,1,1.1,1.8,1.1c1.6,0,3.3,0.2,4.9,0
			c0.2,0,0.5,0,0.7-0.1c1.4-0.9,3-1.5,4.6-2c0.1,0,0.1-0.1,0.3-0.3c-2.3-0.4-4.6,0.1-7,0c0.3-0.3,0.5-0.2,0.7-0.2
			c2.5-0.2,5-0.2,7.6-0.2c1.1,0,2.2,0.2,3.3-0.2c0,0,0,0,0,0c0,0,0.1,0,0.1,0l0,0l0,0c0,0,0,0,0,0l0,0l0,0c0,0,0.1,0,0.1,0
			c0.1,0,0.2,0,0.3,0c0,0,0,0,0,0c0.1,0,0.2,0,0.3,0.1c-0.2,0.1-0.3,0.1-0.4,0c0,0-0.1,0-0.1,0c-0.1,0-0.1,0-0.2,0
			c-0.1,0.2-0.4,0.2-0.5,0.4c0.1,0.2,0.3,0.2,0.5,0.2c1.3-0.3,2.4,0.6,3.9,0.6c-0.6,0.3-1.7,0.3-2.2,0c-0.5-0.3-1-0.4-1.5-0.2
			c-0.3,0.1-0.7,0-1-0.1c-1.2-0.5-2.3-0.3-3.4,0.2c-0.7,0.3-1.3,0.6-2.1,0.7c-0.5,0-1,0.4-1.5,0.6c-0.2,0.1-0.4,0.3-0.7,0.2
			c0.1,0,0.2,0.1,0.3,0.1c1.5-0.6,3.4,0,4.8-1.3c0.2-0.2,0.4-0.2,0.7-0.3c0,0,0.1,0,0.3,0c-0.2,0.5-0.6,0.5-0.9,0.7
			c-0.4,0.2-0.5,0.9-0.2,1.2c0.2,0.2,0.3,0.1,0.5,0.1c0.2-0.1,0.4-0.2,0.4-0.5c0-0.3-0.3-0.2-0.5-0.3c0.3-0.1,0.5-0.1,0.7-0.2
			c0.2-0.1,0.3,0,0.4,0.2c0.1,0.2,0.1,0.7,0.5,0.6c0.3-0.1,0.7-0.2,0.8-0.6c0-0.1,0.1-0.2,0.2-0.2c0.2,0.1,0.4,0.3,0.5,0.6
			c0,0.4,0.3,0.6,0.6,0.7c0.3,0.1,0.6-0.1,0.7-0.5c0-0.2,0.2-0.3,0.3-0.2c0.8,0.3,1.5-0.1,2.3-0.2c0.5,0,0.9-0.2,1.5-0.1
			c-0.5,0.6-1.1,0.4-1.6,0.6c-0.5,0.2-1,0.3-1.6,0.4c0.2,0.6,0.6,0.8,1,1c0.3,0.2,0.6,0.3,0.9,0c0.3-0.3-0.1-0.5-0.2-0.7
			c0-0.1-0.1-0.2,0-0.3c0.3-0.1,0.5,0.3,0.7,0.5c0.2,0.2,0.4,0.4,0.7,0.3c0.8-0.2,1.6-0.4,2.5-0.7c-1.1-1-2.2-1.4-3.3-2.1
			C189.3,71.3,189.7,71.5,190,71.6z M161,48c0.1,0,0.2,0.1,0.1,0.2c0,0.1-0.1,0.2-0.2,0.2c-0.1,0-0.2-0.1-0.2-0.2
			C160.8,48.1,160.9,48,161,48z M146.5,34.8c0.2-0.3,0.4-0.5,0.7-0.5C147,34.6,146.8,34.7,146.5,34.8z M143.8,32.9
			c0.1,0,0.2,0.1,0.2,0.2c0,0.1,0,0.2-0.1,0.2c-0.1,0-0.2,0-0.2-0.2C143.7,32.9,143.7,32.9,143.8,32.9z M141.7,31.9
			c0.1-0.1,0.2-0.2,0.3-0.1c0.1,0.1,0.2,0.2,0.2,0.3c-0.1,0.1-0.2,0.2-0.3,0.1C141.7,32.2,141.7,32.1,141.7,31.9z M140.2,36.2
			c0.1,0,0.2-0.1,0.2-0.1c0.1,0,0.1,0,0.1,0.1c-0.1,0-0.2,0.1-0.3,0.1C140.1,36.3,140.1,36.2,140.2,36.2z M138.5,36.8
			c0.2-0.3,0.5-0.1,0.8-0.2c-0.2,0.4-0.5,0.5-0.8,0.3C138.6,36.9,138.5,36.8,138.5,36.8z M121.8,43.8c0.1-0.5,0.4-0.6,0.8-0.9
			C122.4,43.4,122.1,43.5,121.8,43.8z M122.7,41.1c0.1,0,0.2-0.1,0.4-0.1c-0.2,0.3-1.7,1.7-2.1,1.9
			C121.2,42.5,122.4,41.2,122.7,41.1z M119.9,46.9c0.1-0.1,0.2-0.2,0.3-0.2c0.1,0,0.1,0,0.1,0.1c-0.1,0.1-0.2,0.3-0.3,0.3
			C119.9,47.1,119.8,47,119.9,46.9z M116.3,48.7c0,0.8-0.3,1.4-0.8,2C115.5,49.9,116,49.4,116.3,48.7z M115.2,51.3
			c-0.1,0.3-0.1,0.5-0.5,0.5C114.8,51.5,114.9,51.4,115.2,51.3z M106.3,57.4c-0.9,0.7-0.9,0.7-0.3,1.6c0.1,0.1,0.1,0.2,0.2,0.3
			c0,0,0,0.1,0,0.2c-0.1,0-0.2,0-0.3,0l-0.5,3.3c0.1-0.1,0.2-0.1,0.3-0.2c-1.2,1.8-2.8,3.2-3.9,5.1c0-0.2,0-0.4,0-0.5l-0.4-1.3
			c-0.1,0-0.2-0.1-0.3-0.1c0.1-0.1,0.1-0.2,0.2-0.3l-0.2-4l1.7-2c0.3-0.7,0.8-1.2,1.5-1.3c0.7,0,1.2-0.4,1.6-0.8
			c0.3-0.3,0.6-0.7,1.2-0.7C107,57,106.6,57.2,106.3,57.4z M109.3,63.9c-0.4-0.7-0.2-1.2-0.3-1.8C109.5,62.6,109.5,62.6,109.3,63.9z
			 M112.5,65.8c-0.1,0-0.2-0.1-0.2-0.2c0-0.1,0.1-0.1,0.2-0.1c0.1,0,0.2,0.1,0.2,0.2C112.7,65.8,112.6,65.8,112.5,65.8z M113.3,64.8
			c0,0.2-0.2,0.3-0.4,0.3c-0.1,0-0.2-0.1-0.2-0.2c0-0.3,0.2-0.3,0.3-0.3C113.1,64.5,113.3,64.6,113.3,64.8z M113.7,58.2
			c-0.4,0.7-0.5,1.4-1.1,2.1c-0.2-0.2-0.4-0.4-0.6-0.6c1-0.2,1-1,1.2-1.7c0.1-0.2,0.1-0.5,0.4-0.6c0.1,0,0.2,0,0.2,0.1
			C113.9,57.7,113.8,57.9,113.7,58.2z M117.3,66.1c-0.2,0-0.3-0.1-0.3-0.3c0-0.1,0.1-0.2,0.2-0.2c0.2,0,0.3,0,0.4,0.2
			C117.6,66,117.4,66.1,117.3,66.1z M119.5,63.5c-0.1,0-0.2-0.1-0.2-0.2c0-0.1,0-0.2,0.1-0.2c0.3-0.1,0.5-0.1,0.9,0
			C120.2,63.4,119.8,63.4,119.5,63.5z M120.9,65.2c-0.3-0.1-0.4-0.4-0.4-0.6c0-0.2-0.1-0.4,0.2-0.4c0.2,0,0.3,0.1,0.3,0.3
			C121,64.7,121,64.9,120.9,65.2z M121.1,63.5c0,0.1-0.1,0.2-0.2,0.2c0-0.1,0-0.2,0-0.2c0-0.1,0.1-0.2,0.2-0.2
			C121.2,63.3,121.2,63.5,121.1,63.5z M120.2,55c-0.1-0.8,0.5-2,1.4-2.6C121.1,53.2,120.7,54.1,120.2,55z M130.5,37.2
			c0,0,0.1-0.1,0.2-0.1c0.1,0.1,0,0.2,0,0.2c0,0.1,0,0.3-0.2,0.4c0,0-0.1-0.1-0.1-0.1C130.3,37.4,130.4,37.3,130.5,37.2z
			 M124.3,60.6c0-0.1,0.1-0.1,0.2-0.1c0.1,0.1,0.2,0.2,0.1,0.3c0,0.1-0.1,0.2-0.2,0.1C124.3,60.9,124.2,60.8,124.3,60.6z
			 M127.6,65.5c0-0.1,0.1-0.1,0.1-0.2c0.8-0.9,1.7-1.7,2.6-2.4c-0.5,0.8-1.2,1.4-1.8,2.1c-0.1,0.1-0.2,0.2-0.2,0.4
			c0.1,0.4,0,0.5-0.4,0.6C127.6,66,127.4,65.8,127.6,65.5z M128.3,63.3c0.1-0.1,0.2-0.1,0.2,0c0.1,0.1,0,0.2,0,0.2
			c-0.2,0.1-0.1,0.5-0.4,0.4c0,0-0.1-0.1-0.1-0.1C128,63.6,128.2,63.5,128.3,63.3z M129.2,61.3c0-0.3,0.2-0.3,0.3-0.5
			C129.6,61.2,129.3,61.2,129.2,61.3z M129.6,62.3c0,0.1-0.1,0.2-0.2,0.3c-0.1,0-0.1,0-0.1-0.1c0-0.1,0.1-0.1,0.2-0.2
			C129.5,62.2,129.6,62.3,129.6,62.3z M129.9,64.5c0,0-0.1,0.1-0.2,0.1c-0.1,0-0.1,0-0.1-0.1c0-0.1,0.1-0.1,0.2-0.2
			C129.9,64.4,129.9,64.4,129.9,64.5z M131,64c-0.7,0.9-1.4,1.9-2.2,2.8c-0.2,0.2-0.5,0.4-0.3,0.8c0.1,0.1,0,0.2-0.2,0.3
			c-0.1,0.1-0.3,0.1-0.4-0.1c-0.1-0.1-0.1-0.2-0.1-0.4c0.1-0.1,0.2-0.3,0.2-0.4c0.9-1.2,2-2.4,2.8-3.7c0.1-0.1,0.2-0.2,0.4-0.2
			C131.4,63.7,131.2,63.8,131,64z M130.2,61.8c0-0.2,0.2-0.4,0.4-0.5C130.6,61.6,130.4,61.7,130.2,61.8z M131.5,60.8
			c0.1-0.4,0.3-0.4,0.5-0.6C132,60.5,131.7,60.5,131.5,60.8z M132.8,58c-0.1,0.1-0.1,0.2-0.3,0.2c0,0,0-0.1,0-0.2
			c0.1-0.1,0.1-0.1,0.2-0.2C132.8,57.8,132.8,57.9,132.8,58z M133.4,57.4c0.2-0.4,0.4-0.4,0.9-0.5C134,57.4,133.7,57.4,133.4,57.4z
			 M135.2,35.2c-0.7,1.2-1.3,2.4-1.9,3.6c-0.6,1.2-0.9,2.4-1.5,3.6c0,0,0,0,0,0.1c-0.3,1-0.8,1.8-1.3,2.7c-0.4,0.8-0.5,1.5-0.2,2.3
			c0.1,0.3,0.2,0.6,0.3,0.9c0.2,0.7,0.3,0.7,1,0.6c0.4-0.1,0.9-0.1,1.3-0.1c0.8,0,1.1,0.5,0.9,1.3c-0.4,1.2-1,2.3-1.8,3.3
			c-1.7,2.2-3.5,4.4-4.8,6.9c-0.7,1.2-1.3,2.5-2,3.8c-0.2,0.3-0.3,0.9-0.6,0.7c-0.3-0.2-0.1-0.5,0.1-0.7l1.9-12.3c0,0,0,0,0,0
			c0,0,0-0.1,0-0.1l-0.7-2.2c0,0-0.1,0.1-0.1,0.1c0-0.1-0.1-0.2-0.1-0.3l0,0.1l0-0.1c0-0.1,0-0.2,0-0.3l0,0l0,0c0-0.1,0-0.1,0.1-0.2
			l0.2-1c0,0-0.1,0.1-0.1,0.1c-0.1-0.4,0.2-1,0.6-1.6l0.7-1.7c0-0.1,0-0.2,0-0.2c0.1-0.1,0.1-0.1,0.2-0.2l0.7-1.8c0,0,0,0,0,0
			c0,0-0.1,0-0.1-0.1c-0.1-0.1,0-0.2,0.1-0.2l3.8-6.1c0,0,0,0-0.1,0c0.1-0.2,0.2-0.4,0.3-0.5l0.7-1.2l-0.1,0.1l0.1-0.1l0.1-0.1
			l-0.1,0.1l0.1-0.2l0,0l0,0l0.1-0.1l-0.1,0.1l1.5-0.8c0.2-0.3,0.4-0.6,0.8-0.6c-0.2,0.2-0.4,0.4-0.7,0.6l2.4-1.3l-0.2,0.1l0.2-0.1
			l0.1,0l-0.1,0l0.1,0c0,0,0,0,0,0c0,0,0.1,0,0.1,0c0,0,0.1,0,0.1-0.1c-0.1,0.5-1,1.5-1.1,1.6c-0.1,0.1-0.2,0.3-0.3,0.4
			C135.7,34.4,135.4,34.8,135.2,35.2z M136.1,64.4c0,0-0.1-0.1,0-0.2c0,0,0.1,0,0.1-0.1c0,0,0.1,0.1,0.1,0.1
			C136.3,64.4,136.2,64.4,136.1,64.4z M137.6,63.9c0-2.1,0.4-4.1,1.1-6.2C138.9,58.6,137.6,63.8,137.6,63.9z M146.5,66.7
			c-0.1,0-0.2-0.1-0.2-0.3c0-0.1,0.1-0.2,0.3-0.2c0.2,0,0.3,0.1,0.3,0.3C146.9,66.7,146.7,66.7,146.5,66.7z M152,46.1
			c-0.1,0.8,0,1.7-0.1,2.5c-0.3,1.3-0.2,2.7-0.7,4c-0.1,0.2-0.1,0.4-0.4,0.5c-0.1,0.4-0.3,0.7-0.4,1.1c0.1-0.2,0.2-0.4,0.3-0.5
			c-0.2,1-0.6,1.8-1.1,2.7c-0.3,0.9-0.6,1.8-0.8,2.7c-0.2,1-0.3,1.9-0.5,2.8c0-0.2,0-0.3,0-0.5l-1.9,3.3c0.1,0,0.1-0.1,0.2-0.1
			c-0.3,0.6-0.6,1.1-1.2,1.4c0.1-0.4,0.3-0.7,0.5-0.9l-1.4-3.1l0.8-4.4l-0.5-5l-0.1,0.5l0.1-0.5l0-0.1l0,0.1l0.1-0.4l-0.2,0.3
			l0.2-0.3l0-0.2l0,0.2l2.5-4c-0.8,0.1-0.7-0.5-0.6-1.1c-0.2-0.3,0-0.4,0.2-0.5c0.7-0.7,1.4-1.4,2.3-1.8c0.2-0.1,0.3-0.2,0.6,0.1
			c0.3,0.3,0.8,0.1,1.3,0C152.3,44.8,152.3,44.8,152,46.1z M156.8,54.2c0.3-0.4,0.5-0.7,0.9-0.9C157.6,54.1,157.5,54.1,156.8,54.2z
			 M157.7,70.2c0.4,0,0.7-0.1,1.2-0.1C158.4,70.5,158.1,70.3,157.7,70.2z M161.3,69.2c1.3-0.1,2.3,0.7,3.2,0.6l0,0.1
			C162.7,69.8,161.7,69.5,161.3,69.2z M165.6,67.6c-0.2,0.1-0.5,0.1-0.7-0.1c0-0.1-0.1-0.2,0-0.3c0.2-0.3,0.4-0.1,0.7,0
			c0.1,0,0.1,0.1,0.2,0.2C165.7,67.5,165.7,67.6,165.6,67.6z M166.6,70.2c0.3-0.1,0.4,0,0.7,0.1C167,70.5,166.8,70.4,166.6,70.2z
			 M171.2,68.5c0-0.1,0.1-0.2,0.2-0.2c0.1,0,0.2,0.1,0.1,0.2c0,0.1-0.1,0.2-0.2,0.2C171.2,68.6,171.2,68.6,171.2,68.5z M170.1,65.2
			c0-0.1,0.1-0.1,0.2-0.1c0.1,0,0.2,0.1,0.2,0.3c0,0.2-0.1,0.2-0.2,0.2C170.2,65.5,170.1,65.4,170.1,65.2z M168.5,67
			c0-0.1,0.1-0.2,0.2-0.2c0.1,0,0.2,0.1,0.2,0.2c0,0.1-0.1,0.2-0.2,0.2C168.6,67.3,168.5,67.2,168.5,67z M168.7,70.4
			c1.1,0.1,2.2,0.1,3.3,0.3C170.9,70.9,169.8,70.8,168.7,70.4z M175.5,63c0.2-0.6,0.4-1,0.9-1.2C176.2,62.3,176,62.7,175.5,63z
			 M176.3,63.4c-0.1,0-0.1,0-0.1-0.1c0-0.1,0.1-0.2,0.1-0.2c0-0.1,0.1-0.1,0.1,0C176.5,63.3,176.4,63.3,176.3,63.4z M176.7,65.4
			c-0.1-0.6-0.1-0.6,0.3-1.2C176.9,64.6,176.8,64.9,176.7,65.4z M177.3,66.7c0.1-0.5,0.3-1,0.7-1.3
			C177.9,65.9,177.6,66.3,177.3,66.7z M178.7,57c0,0.3-0.1,0.6-0.2,1c-0.1,0.6,0.1,1.3,0,1.9c-0.5-1-0.4-2-0.2-3
			c0-0.1,0.1-0.2,0.2-0.1C178.7,56.7,178.7,56.9,178.7,57z M180,62c0.2,1,0.5,1.9,0.4,3.1C180.2,64.6,179.9,63,180,62z M182.5,66.2
			c-0.1,0-0.2-0.1-0.2-0.2c0-0.1,0.1-0.2,0.2-0.2c0.1,0,0.2,0,0.2,0.1C182.8,66.1,182.7,66.2,182.5,66.2z M183.2,67.5
			c0,0.1-0.1,0.2-0.2,0.1c-0.1,0-0.2-0.1-0.1-0.2c0-0.1,0.1-0.1,0.2-0.1C183.2,67.3,183.3,67.4,183.2,67.5z"/>
		<path class="st6" d="M192.2,74.1c-0.6,0-1.1,0.2-1.8,0.4c0.6,0.5,1.2,0.3,1.8,0.3c0.2,0,0.4,0,0.4-0.3
			C192.7,74.2,192.5,74.1,192.2,74.1z"/>
		<path class="st6" d="M192.8,73.5c0.2,0.2,0.2,0.4,0.3,0.6c0.3,0.7,0.4,0.9,0.7,1c0.2,0,0.4,0,0.5-0.1c0-0.1,0-0.2,0-0.3
			c-0.2-0.3-0.5-0.4-0.7-0.7c-0.1-0.2-0.1-0.4-0.1-0.6c0.1-0.4-0.1-0.5-0.3-0.8c-0.3,0.2-0.7,0.3-1.1,0.3
			C192.4,73.1,192.6,73.3,192.8,73.5z"/>
		<path class="st6" d="M162.1,73.5c0.5,0.3,0.7-0.2,1.1-0.5c-0.3,0-0.5-0.1-0.7-0.1c-0.4,0-0.8,0.1-1.1,0.4
			c-0.2,0.1-0.2,0.3-0.1,0.5c0.1,0.1,0.2,0.3,0.3,0.3c0.3,0,0.3-0.2,0.3-0.4C161.8,73.6,161.9,73.4,162.1,73.5z"/>
		<path class="st6" d="M137.1,72c0-0.2-0.3-0.8-0.5-0.8c-0.2,0-0.4,0.1-0.4,0.3c-0.1,0.2,0.5,0.8,0.7,0.8
			C136.9,72.2,137,72.1,137.1,72z"/>
		<path class="st6" d="M94.2,71.9c-0.5,0.5-0.8,1.2-0.9,1.9c0,0.2-0.1,0.4,0.1,0.5c0.3-0.2,0.4-0.6,0.5-0.9c0.3-0.7,0.8-1.2,1.3-1.6
			C94.9,71.3,94.6,71.5,94.2,71.9z"/>
		<path class="st6" d="M175.7,73.5c0.5-0.1,0.6-0.3,0.3-0.6C176.1,73.1,175.7,73.1,175.7,73.5z"/>
		<path class="st6" d="M160.6,73.8c-0.1,0-0.3,0.1-0.3,0.3c0,0.2,0.4,0.7,0.6,0.7c0.1,0,0.2-0.1,0.2-0.2
			C161.1,74.3,160.8,73.8,160.6,73.8z"/>
		<path class="st6" d="M174.4,75.1c0,0.2,0.1,0.4,0.3,0.4c0.2,0,0.5,0.1,0.6-0.1c-0.1-0.3-0.4-0.2-0.4-0.4c0.1-0.3,0.5-0.1,0.8-0.3
			c-0.4-0.1-0.7-0.1-1,0.1C174.5,74.9,174.4,75,174.4,75.1z"/>
		<path class="st6" d="M176.9,74.8c0.1,0,0.2-0.1,0.2-0.1c0-0.1,0-0.1-0.1-0.1c-0.1,0-0.2,0-0.2,0.1
			C176.7,74.8,176.8,74.9,176.9,74.8z"/>
		<path class="st6" d="M140.3,69.7c-0.1-0.3-0.4-0.1-0.6-0.2c-0.4,0-0.7,0.1-1,0.3c-0.3,0.2-0.3,0.5-0.2,0.8
			c0.1,0.2,0.3,0.4,0.6,0.3c0.3-0.1,0.7-0.2,1-0.5C140.2,70.2,140.4,69.9,140.3,69.7z"/>
		<path class="st6" d="M159.8,74.7c-0.2,0-0.5-0.3-0.7,0c-0.2,0.2,0.1,0.5,0.1,0.7c0,0.2,0.2,0.3,0.4,0.3c0.5,0.1,1,0.2,1.6,0.1
			C160.6,75.4,160.4,74.8,159.8,74.7z"/>
		<path class="st6" d="M97.5,73c-0.2,0-0.4,0.2-0.4,0.5c0,0.3,0.1,0.5,0.4,0.5c0.3,0,0.2-0.3,0.2-0.5C97.7,73.3,97.9,73,97.5,73z"/>
	</g>
</g>
</svg>
