<?xml version="1.0" encoding="utf-8"?>
<!-- Generator: Adobe Illustrator 23.0.1, SVG Export Plug-In . SVG Version: 6.00 Build 0)  -->
<svg version="1.1" id="Layer_9" xmlns="http://www.w3.org/2000/svg" xmlns:xlink="http://www.w3.org/1999/xlink" x="0px" y="0px"
	 width="229.5px" height="8.1px" viewBox="0 0 229.5 8.1" style="enable-background:new 0 0 229.5 8.1;" xml:space="preserve">
<style type="text/css">
	.st0{fill:#1B312A;}
	.st1{fill-rule:evenodd;clip-rule:evenodd;fill:#143329;}
	.st2{fill:#FCB526;}
	.st3{fill:#FFFFFF;}
	.st4{fill:url(#Path_16_1_);}
	.st5{fill:#182D26;}
	.st6{fill:#FFB729;}
</style>
<path class="st2" d="M224.1,2.7c-1.7-1.3-3.7-2.7-7.4-2.7c-3.8,0-5.7,1.4-7.4,2.7c-1.5,1.1-2.8,2.1-5.4,2.1c-2.7,0-3.9-0.9-5.4-2.1
	c-1.7-1.3-3.7-2.7-7.4-2.7c-3.8,0-5.7,1.4-7.4,2.7c-1.5,1.1-2.8,2.1-5.4,2.1c-2.7,0-3.9-0.9-5.4-2.1c-1.7-1.3-3.7-2.7-7.4-2.7
	c-3.8,0-5.7,1.4-7.4,2.7c-1.4,1-2.5,1.9-4.7,2c-2.2-0.1-3.3-1-4.7-2c-1.7-1.3-3.7-2.7-7.4-2.7c-3.8,0-5.7,1.4-7.4,2.7
	c-1.5,1.1-2.8,2.1-5.4,2.1c-2.7,0-3.9-0.9-5.4-2.1c-1.7-1.3-3.7-2.7-7.4-2.7c-3.8,0-5.7,1.4-7.4,2.7c-1.5,1.1-2.8,2.1-5.4,2.1
	c-2.7,0-3.9-0.9-5.4-2.1C95.1,1.4,93.1,0,89.4,0c-3.8,0-5.7,1.4-7.4,2.7c-1.5,1.1-2.8,2.1-5.4,2.1c-2.7,0-3.9-0.9-5.4-2.1
	C69.3,1.4,67.4,0,63.6,0c-3.8,0-5.7,1.4-7.4,2.7c-1.5,1.1-2.8,2.1-5.4,2.1c-2.7,0-3.9-0.9-5.4-2.1C43.6,1.4,41.7,0,37.9,0
	c-3.8,0-5.7,1.4-7.4,2.7c-1.5,1.1-2.8,2.1-5.4,2.1c-2.7,0-3.9-0.9-5.4-2.1C17.9,1.4,15.9,0,12.2,0C8.4,0,6.4,1.4,4.7,2.7
	c-1.4,1-2.5,1.9-4.7,2v3.4c3.3-0.2,5.1-1.5,6.7-2.7c1.6-1.1,2.8-2.1,5.4-2.1s3.9,0.9,5.4,2.1c1.7,1.3,3.7,2.7,7.4,2.7
	c3.8,0,5.7-1.4,7.4-2.7c1.6-1.1,2.8-2.1,5.4-2.1s3.9,0.9,5.4,2.1C45,6.7,47,8.1,50.8,8.1c3.8,0,5.7-1.4,7.4-2.7
	c1.6-1.1,2.8-2.1,5.4-2.1c2.7,0,3.9,0.9,5.4,2.1c1.7,1.3,3.7,2.7,7.4,2.7c3.8,0,5.7-1.4,7.4-2.7c1.6-1.1,2.8-2.1,5.4-2.1
	c2.7,0,3.9,0.9,5.4,2.1c1.7,1.3,3.7,2.7,7.4,2.7c3.8,0,5.7-1.4,7.4-2.7c1.5-1.1,2.8-2.1,5.4-2.1c2.7,0,3.9,0.9,5.4,2.1
	c1.7,1.3,3.7,2.7,7.4,2.7c3.8,0,5.7-1.4,7.4-2.7c1.5-1.1,2.8-2.1,5.4-2.1c2.7,0,3.9,0.9,5.4,2.1c1.6,1.2,3.4,2.5,6.7,2.7
	c3.3-0.2,5.1-1.5,6.7-2.7c1.6-1.1,2.8-2.1,5.4-2.1s3.9,0.9,5.4,2.1c1.7,1.3,3.7,2.7,7.4,2.7c3.8,0,5.7-1.4,7.4-2.7
	c1.6-1.1,2.8-2.1,5.4-2.1c2.7,0,3.9,0.9,5.4,2.1c1.7,1.3,3.7,2.7,7.4,2.7c3.8,0,5.7-1.4,7.4-2.7c1.6-1.1,2.8-2.1,5.4-2.1
	c2.7,0,3.9,0.9,5.4,2.1c1.7,1.3,3.7,2.7,7.4,2.7V4.8C226.8,4.8,225.6,3.9,224.1,2.7z"/>
</svg>
