<?xml version="1.0" encoding="utf-8"?>
<!-- Generator: Adobe Illustrator 23.0.1, SVG Export Plug-In . SVG Version: 6.00 Build 0)  -->
<svg version="1.1" id="Layer_9" xmlns="http://www.w3.org/2000/svg" xmlns:xlink="http://www.w3.org/1999/xlink" x="0px" y="0px"
	 width="316.2px" height="42px" viewBox="0 0 316.2 42" style="enable-background:new 0 0 316.2 42;" xml:space="preserve">
<style type="text/css">
	.st0{fill:#1B312A;}
	.st1{fill-rule:evenodd;clip-rule:evenodd;fill:#143329;}
	.st2{fill:#182D26;}
	.st3{fill:#FCB526;}
	.st4{fill:#FFFFFF;}
	.st5{fill:url(#Path_16_1_);}
</style>
<g id="Group_10" transform="translate(-320 -17.478)">
	<g id="Group_1" transform="translate(382.787 21.948)">
		<path id="Path_1" class="st4" d="M10.2,7.8H3.8v16.6h-3V7.8h-6.4V4.9h15.9V7.8z"/>
		<path id="Path_2" class="st4" d="M28,4.9v19.4h-3v-8.5h-9.8v8.5h-3V4.9h3V13H25V4.9H28z"/>
		<path id="Path_3" class="st4" d="M45,21.7v2.7H31.8V4.9h13.1v2.7H34.8v5.5h8.7v2.6h-8.7v6L45,21.7z"/>
		<path id="Path_4" class="st4" d="M53.5,24.4V4.9h12.9v2.7h-9.8v5.9h8.3v2.6h-8.3v8.3L53.5,24.4z"/>
		<path id="Path_5" class="st4" d="M72.3,4.9H75l7.6,19.4h-3.3l-2.1-5.3h-7.3l-2,5.3h-3.3L72.3,4.9z M76.8,16.9l-3.2-8.3l-3.3,8.3
			H76.8z"/>
		<path id="Path_6" class="st4" d="M87.5,10.8v13.6h-3V4.9h2.5L98,19V5.1h3v19.3h-2.6L87.5,10.8z"/>
		<path id="Path_7" class="st4" d="M118.3,22c-2.3,2.6-6.1,3.3-9.2,1.8c-1.1-0.6-2.1-1.3-2.9-2.2c-0.8-0.9-1.4-2-1.9-3.2
			c-0.9-2.4-0.9-5.1,0-7.5c0.4-1.2,1.1-2.2,1.9-3.2c0.8-0.9,1.8-1.7,2.9-2.1c1.2-0.5,2.5-0.8,3.7-0.8c1.6-0.1,3.3,0.3,4.7,1.2
			c1.2,0.7,2.2,1.8,2.8,3l-2.3,1.6c-0.5-1-1.3-1.8-2.2-2.3c-0.9-0.6-2-0.8-3-0.8c-0.9,0-1.7,0.2-2.5,0.6c-0.7,0.4-1.4,0.9-1.9,1.5
			c-0.5,0.6-0.9,1.4-1.2,2.2c-0.3,0.9-0.4,1.8-0.5,2.7c0,1,0.1,1.9,0.5,2.8c0.3,0.8,0.7,1.6,1.3,2.2c0.6,0.6,1.2,1.1,2,1.5
			c1.7,0.8,3.6,0.8,5.3-0.1c1-0.5,1.9-1.2,2.6-2.1v-2.1h-4.1v-2.2h6.7v9.8h-2.6L118.3,22L118.3,22z"/>
		<path id="Path_8" class="st4" d="M129.7,24.4V4.9h3v16.7h10.4v2.7L129.7,24.4z"/>
		<path id="Path_9" class="st4" d="M152.3,4.9h2.7l7.6,19.4h-3.3l-2.1-5.3h-7.5l-2,5.3h-3.3L152.3,4.9z M156.8,16.9l-3.2-8.3
			l-3.3,8.3H156.8z"/>
		<path id="Path_10" class="st4" d="M168.5,5.1h2.9l2.3,6.6l2.5-6.6h2.9l-3.3,8.7l2.9,7.1l5.9-15.9h3.4l-8,19.4h-2.6l-3.6-8.7
			l-3.6,8.7h-2.6l-8-19.4h3.3l6.1,15.8l2.9-7.1L168.5,5.1z"/>
		<path id="Path_11" class="st4" d="M194.8,24.4V4.9h12.9v2.7h-9.8v5.9h8.3v2.6h-8.3v8.3L194.8,24.4z"/>
		<path id="Path_12" class="st4" d="M209.9,24.4V4.9h3v19.4H209.9z"/>
		<path id="Path_13" class="st4" d="M216.7,24.4V4.9h8.4c0.9,0,1.7,0.2,2.5,0.6c0.7,0.3,1.4,0.8,1.9,1.4c0.5,0.6,1,1.3,1.3,2
			c0.3,0.7,0.5,1.5,0.5,2.3c0,0.6-0.1,1.3-0.2,1.9c-0.2,0.6-0.5,1.1-0.8,1.6c-0.3,0.5-0.7,0.9-1.2,1.3c-0.4,0.4-1,0.7-1.5,0.8
			l4.6,7.4h-3.5l-4.2-6.8h-4.6v6.9L216.7,24.4z M219.8,14.9h5.4c0.4,0,0.8-0.1,1.2-0.2c0.4-0.2,0.7-0.5,0.9-0.8
			c0.3-0.4,0.5-0.7,0.6-1.2c0.1-0.5,0.2-0.9,0.2-1.4c0-0.5-0.1-0.9-0.2-1.4c-0.1-0.5-0.4-0.9-0.7-1.2c-0.3-0.3-0.6-0.6-0.9-0.8
			c-0.4-0.2-0.8-0.3-1.2-0.2h-5.3V14.9z"/>
		<path id="Path_14" class="st4" d="M250.4,24.4V10.4L244.7,21H243l-5.9-10.5v13.9h-3V4.9h3.3l6.4,11.8l6.3-11.8h3.3v19.4H250.4z"/>
	</g>
	<g id="Group_2" transform="translate(0 3)">
		
			<linearGradient id="Path_16_1_" gradientUnits="userSpaceOnUse" x1="3039.9067" y1="3086.6841" x2="3040.7627" y2="3086.957" gradientTransform="matrix(20.886 0 0 -11.546 -63147.6367 35673.0977)">
			<stop  offset="0" style="stop-color:#FFFFFF;stop-opacity:0"/>
			<stop  offset="0.1413" style="stop-color:#FFFFFF;stop-opacity:0.1413"/>
			<stop  offset="1" style="stop-color:#FFFFFF"/>
		</linearGradient>
		<path id="Path_16" class="st5" d="M346.7,39.1h7.2l6.2-10.8h-19.6L346.7,39.1z"/>
		<path id="Path_17" class="st4" d="M350.5,45.3l-11.6-20H362l6.1-10.8H320l24.1,42L350.5,45.3z"/>
	</g>
</g>
</svg>
