<?xml version="1.0" encoding="utf-8"?>
<!-- Generator: Adobe Illustrator 23.0.1, SVG Export Plug-In . SVG Version: 6.00 Build 0)  -->
<svg version="1.1" id="Layer_9" xmlns="http://www.w3.org/2000/svg" xmlns:xlink="http://www.w3.org/1999/xlink" x="0px" y="0px"
	 width="94.8px" height="115.1px" viewBox="0 0 94.8 115.1" style="enable-background:new 0 0 94.8 115.1;" xml:space="preserve">
<style type="text/css">
	.st0{fill:#FFBB34;}
	.st1{fill:#001F1F;}
	.st2{fill:url(#SVGID_1_);}
	.st3{fill:#FFFFFF;}
</style>
<g>
	<polygon class="st0" points="47.4,91.3 64.7,91.3 47.4,115.1 30.1,91.3 	"/>
	<g>
		<circle class="st1" cx="47.4" cy="47.4" r="45.9"/>
		<path class="st0" d="M47.4,94.8C21.3,94.8,0,73.5,0,47.4S21.3,0,47.4,0s47.4,21.3,47.4,47.4S73.5,94.8,47.4,94.8z M47.4,3.1
			C23,3.1,3.1,23,3.1,47.4S23,91.7,47.4,91.7s44.3-19.9,44.3-44.3S71.8,3.1,47.4,3.1z"/>
	</g>
	<g>
		<g>
			<linearGradient id="SVGID_1_" gradientUnits="userSpaceOnUse" x1="42.4211" y1="50.806" x2="68.3113" y2="50.806">
				<stop  offset="0" style="stop-color:#001F1F"/>
				<stop  offset="1" style="stop-color:#FFFFFF"/>
			</linearGradient>
			<polygon class="st2" points="59.9,58.5 68.3,43.2 42.4,43.2 51,58.4 			"/>
		</g>
		<polygon class="st3" points="40.2,39.2 71.5,39.2 79.3,25 15.5,24.8 47.8,82.3 56,67.3 		"/>
	</g>
</g>
</svg>
