<?xml version="1.0" encoding="utf-8"?>
<!-- Generator: Adobe Illustrator 23.0.1, SVG Export Plug-In . SVG Version: 6.00 Build 0)  -->
<svg version="1.1" id="Layer_9" xmlns="http://www.w3.org/2000/svg" xmlns:xlink="http://www.w3.org/1999/xlink" x="0px" y="0px"
	 width="784px" height="904.4px" viewBox="0 0 784 904.4" style="enable-background:new 0 0 784 904.4;" xml:space="preserve">
<style type="text/css">
	.st0{fill:#192D26;}
</style>
<g>
	<g>
		<path class="st0" d="M432,488.5c8-3.6,2.3-16.9-5.9-18c-5.2-0.6-9.1,3.9-7.6,9c1.3,4.5,5.1,8.8,9.8,9.3c0.2,0.3,0.6,0.4,1.1,0.4
			c0.6-0.1,1.1-0.3,1.6-0.4c0.1-0.1,0.2,0,0.2-0.1C431.7,488.8,431.8,488.7,432,488.5z M430.5,486.3c-4.5,0.7-8.9-3.5-9.6-7.9
			c-0.7-4,2.9-6.5,6.6-4.8C432.1,475.8,436.4,484.1,430.5,486.3z"/>
		<path class="st0" d="M423.9,496.6c5.2,1.5,11.4,0.2,15.1-3.9c3.4-3.7,3.3-7.8,1.8-12.4c-1.3-3.8-2.6-6.7-2.7-10.8
			c0-2.8-0.4-4.9-1.8-7.3c-4.5-7.9-19.3-0.4-22,5.7c-3.6,7.7-2.5,17.2,2.7,23.7c0,0.2,0.1,0.3,0.2,0.4c1.3,1.8,2.9,3.1,4.8,4
			c0.3,0.2,0.6,0.4,0.9,0.5C423.3,496.6,423.6,496.7,423.9,496.6z M423.5,493.8c-7.3-4.5-11.4-15.1-7.6-23.3c2.5-5.1,6.6-7.4,12-8.5
			c7.7-1.7,7.5,6.1,7.7,10.8c0.2,6,8,13.6,1,18.7C432.7,494.2,427.7,495.5,423.5,493.8z"/>
		<path class="st0" d="M424.6,502.1c12.4,0.4,25.1-5.5,21.6-19.8c-0.9-3.8-2.5-8.2-1.2-12.1c1.2-3.5,2.1-6.9,2.1-10.7
			c-0.1-6.2-4.5-10.8-10.2-12.5c-15.6-4.7-26.8,16.1-29.2,28.2c-1.5,7.4-1.1,15,4.3,20.9C414.8,499.4,419.9,502.5,424.6,502.1z
			 M425.6,499.7c-0.2-0.1-0.4-0.1-0.6,0c-0.2,0-0.3,0-0.4,0.1c-0.9-0.1-1.8-0.1-2.7-0.2c-0.2,0-0.2,0.1-0.4,0.1
			c-5.8-1.4-10.8-8.1-11.9-13.2c-1.2-5.9,0.3-12.1,2.6-17.6c2.2-5.6,5.3-11.6,10.2-15.2c5.6-4.2,16.9-7.5,20.7,1.2
			c2.9,6.8-0.8,11.1-1,17.5c-0.1,3.2,0.6,6.3,1.4,9.4c1,4.3,2.3,9.7-1.7,13C436.8,498.6,431.4,499.8,425.6,499.7z"/>
		<path class="st0" d="M421.9,507.6c9.5-0.4,22-1.5,28.4-9.1c5.3-6.3,3.8-14.1,2.5-21.5c-0.5-2.8-1.4-6-0.8-8.8
			c0.7-3.2,2-6.1,2.7-9.3c1.1-4.2,1.2-8.4,0.1-12.7c-1.9-7.9-9.9-12.5-17.6-11.1c-18.3,3.3-33.5,22.1-37.5,39.5
			c-1.9,8-0.1,21.6,5.9,27.8c3.6,3.7,9,5.2,14.2,5.4c0.2,0,0.4,0.1,0.6,0.1c0.4-0.1,0.7,0,1.1-0.1
			C421.7,507.7,421.8,507.6,421.9,507.6z M427.6,504.6c-0.2-0.1-0.5-0.2-0.7-0.1c-1.1,0.2-2,0.3-3.2,0.4c-0.7,0-1.3,0.1-2,0.1
			c-6.9,0-14-2.2-16.7-9.1c-3.4-9.1-4.6-18.5-0.6-27.7c5.7-13,18.2-29.2,33.4-30.7c12.8-1.4,17.7,11.4,14.1,22.1
			c-2.2,6.4-2.8,11.1-1.5,17.8c1.3,6.7,3.2,15.5-3,20.4C441.9,502.2,434.7,504,427.6,504.6z"/>
		<path class="st0" d="M438.6,511.4c5-1,11.5-2.2,15-6.3c7.4-8.7,6.2-20.5,5.3-31.2c-1-12,7.6-22.4,3.8-34.4
			c-2.6-8.4-11.9-15-20.7-13.5c-12.1,2.1-24.9,10.9-33.4,19.5c-7.4,7.4-12.4,18.9-14.3,29.1c-1.8,9.1-1.9,22.8,3.9,30.8
			c4.1,5.6,10.4,7.9,16.9,8.3c0.2,0.3,0.6,0.4,1,0.3c1-0.1,2-0.2,2.9-0.3c1.1,0,2.1-0.2,3.3-0.3
			C427.7,512.9,433.1,512.3,438.6,511.4z M443.9,507.5c-6.7,1.8-13.7,2.6-20.6,3.3c-0.2,0-0.3,0-0.5,0c-0.6,0.1-1.1,0.2-1.6,0.2
			c-0.7,0.1-1.3,0.1-2,0.2c-10.8,0.8-19.6-3.9-22-15.7c-2.1-10.2-1.2-19.7,2.5-29.4c3.6-9.3,7.6-16.3,15.3-22.6
			c7.2-5.9,19.2-15.6,29.3-15c14.6,0.8,19.4,15.4,15,27.6c-2.5,6.9-3.7,12.9-2.7,20.3C458,487.9,457.4,503.9,443.9,507.5z"/>
		<path class="st0" d="M426.4,519c7.2-2.9,15.5-0.4,22.4-4c5.2-2.7,9.2-6.3,11.9-11.6c6.3-12.3,3-27.4,7.2-40.4
			c2-6.4,6.5-12.3,6.7-19.2c0.3-5.8-0.9-12.1-3.6-17.4c-5.1-9.6-15.1-15.9-26.2-12.3c-14.2,4.6-29.7,12.6-39.4,24.3
			c-5.4,6.6-8.3,14.1-12.1,21.6c-3.4,6.9-6.9,13.7-8.3,21.4c-2,10.6-1,26.1,8.1,33.5c9.6,7.9,21.9,8.4,32.9,4.1
			C426.1,519.1,426.3,519.1,426.4,519z M438.1,514.6c-3.8,0.2-7.6,0.4-11.3,1.6c-0.2,0-0.4,0.1-0.7,0.1c-12,5.3-30.3,4-36.2-9.9
			c-5.4-12.8-3.2-27,2.7-39.1c5.9-11.9,10.3-24.4,20.8-33.1c5.7-4.6,11.8-8.6,18.3-11.8c6-2.9,13.2-7,20.1-6.6
			c12.6,0.8,21.1,14.2,20.4,26.3c-0.4,6.2-3.4,10.8-5.5,16.3c-1.9,5.2-3,10.5-3.5,16.1c-0.9,10.1-0.4,23.1-7,31.4
			C451.5,511.7,445.3,514.2,438.1,514.6z"/>
		<path class="st0" d="M435.1,524.2c15.8-2.3,31-4.9,34.6-22.9c1.9-9.2,2.4-18.7,5-27.8c2.3-8.4,6.1-16.3,8.2-24.7
			c3.5-13.7,2-27.8-8.5-38.3c-4.5-4.5-10.6-8.6-17.3-8.4c-7.4,0.2-14.7,2.5-21.6,5c-15.9,5.6-29.7,18.9-39.6,32.1
			c-5.1,6.9-11.6,13.4-15.3,21.3c-3.1,6.8-5.2,14.4-5.7,21.8c-1.2,14.6,0.9,30.4,12.4,40.4c5.1,4.5,12.1,6.8,18.7,7.8
			c7.3,1.1,12.4-0.8,18.6-3.8C428.1,525.6,431.5,524.7,435.1,524.2z M425.6,524c-0.2-0.1-0.6-0.1-0.9,0c-0.4,0.2-0.8,0.4-1.4,0.7
			c-1.2,0.4-2.3,0.9-3.3,1.4c-0.3,0.1-0.4,0.4-0.5,0.6c-1.8,0.9-3.6,1.6-5.4,1.7c-4.6,0.3-8.9-0.5-13.4-1.8
			c-7.5-2.2-14.6-6.7-18.3-13.8c-6.8-12.8-6.4-30.2-2-43.8c2.4-7.6,6.3-13.8,11.2-19.9c4.9-6.1,9.2-13.2,14.9-18.5
			c11.9-11.2,23.8-19.7,39.7-24.1c7.7-2,15.6-3.2,22.5,2.2c6.2,4.8,11.4,11.8,12.9,19.5c2.9,15.2-4.7,28.1-8.6,42.2
			c-1.8,6.7-3.4,13.5-4.4,20.4c-0.9,6.8-1,14.8-5.6,20.4C454.1,522.2,438.3,520.1,425.6,524z"/>
		<path class="st0" d="M421.5,535.4c12.9-7.5,29.2-0.8,42.8-6.2c5.6-2.3,10.2-6.6,11.9-12.6c1.4-4.6,1.5-9.2,1.8-13.9
			c0.3-5.8,1.6-11.6,3.1-17.3c4.2-15,13-29.3,14.6-45c1.1-12.4-2.2-27.9-10.9-37.3c-8.7-9.6-22.9-11.6-34.8-7.9
			c-14.3,4.4-28.7,12.4-40.9,21.1c-12.7,9-24.1,20.2-30.6,34.5c-6.1,13.7-11,29.6-11.1,44.8c0,13.4,3.8,27.5,15.7,35.3
			c6.8,4.5,14,6,22,6.5c3.1,0.2,6.4,0.9,9.4,0.5c2.4-0.4,4.4-1.3,6.4-2.3C421.1,535.6,421.3,535.6,421.5,535.4z M455,528.6
			c-9.4,0.9-20.1-0.6-29.4,2.2c-0.2,0-0.3,0-0.6,0.1c-4.9,1.7-8.4,5.2-14.1,4.5c-5.2-0.6-10.5-0.4-15.6-1.6
			c-20.1-5-27.1-24.8-25.2-43.7c1.7-16.5,6.8-35,16.5-48.6c10.5-14.7,25.3-25.3,41-33.6c14.5-7.7,32.7-17.5,48.9-8
			c14.1,8.3,19,30.6,15.4,45.7c-3.9,16.6-12.2,31.5-15.7,48.4c-1.6,8.3,0.3,18.6-4.5,25.9C468.1,525.7,461.9,528,455,528.6z"/>
		<path class="st0" d="M450.7,542.5c8.9-0.6,18.1-2.6,24.6-9.1c5.8-5.7,9.1-12.3,10-20.5c1.3-11,3.7-22.1,6.1-32.9
			c3.9-16.6,14.5-30.3,14.4-47.9c0-16.4-5.8-30.2-18.9-40.4c-5.2-4.1-11.4-8.9-18.5-8.4c-6.8,0.5-13.4,3-19.5,5.9
			c-16.4,7.6-34.5,14-48.9,25.2c-7.3,5.8-12.6,13.4-18.7,20.3c-5,5.6-10.5,11.3-14,18c-6.7,13.1-8.9,31.1-7.6,45.7
			c1.4,16.9,7.9,34,23,43.5c6,3.7,12.9,6.6,19.9,6.5c4.3,0,8.1-1.4,12-2.5c0.2,0.1,0.6,0.3,0.9,0.1c1.5-0.4,3.1-0.8,4.7-1.1
			c0.2-0.1,0.4-0.1,0.7,0c0.2-0.1,0.5-0.1,0.7-0.3c4.3-1,8.8-1.9,13.3-2C440.1,542.3,445.5,542.9,450.7,542.5z M439.8,539.9
			c-6.8,0-13.3,0.9-19.9,2.4c-6.4,0.7-12,4.2-19,3.4c-22-2.4-36.1-22.6-38.2-43.5c-1.9-17.8,0.2-40.4,11.3-55
			c11.4-14.9,24-29.9,40.7-38.9c8.9-4.8,17.9-9,27.2-13.1c8.1-3.6,17.4-9.5,26.5-9.4c9.6,0.1,18.9,8.4,24.9,15.3
			c6.8,8,10.1,18.2,10.1,28.6c0,9.9-2,19.1-6.1,28.1c-3.6,7.7-6.9,14.9-8.7,23.4c-1.8,8.9-4,17.8-5.3,26.8
			c-1.3,9.7-3.1,18.8-11.5,25C462.1,540.2,451.3,540,439.8,539.9z"/>
		<path class="st0" d="M460.2,551.5c14.6-1.9,23.6-10.2,29.2-23.8c6.1-15.1,6-31.6,11.1-47c4.8-14.5,13.7-26.8,14.6-42.6
			c0.7-14.4-3.9-31.8-12.8-43.3c-9.1-11.7-23.4-18.1-38.1-17.4c-8.6,0.4-16.1,4.5-23.6,8.2c-4.1,2-8.3,3.6-12.3,5.7
			c-4.1,2.1-7.4,5-11.3,7.3c-8.7,5.2-18.3,8.4-26.9,13.9c-6.3,4.1-11.6,10.2-16.2,16c-10.2,13-18.8,27.4-21.7,43.9
			c-2.9,16.1-1.9,35,3.3,50.6c7.1,21.8,33.2,40,56.1,33c0.2,0,0.4-0.1,0.7-0.1c0.1-0.1,0.3-0.1,0.4-0.2c1.4-0.5,2.7-1.1,4.1-1.7
			C430.3,549.2,446.1,553.3,460.2,551.5z M455.7,549.2c-12.6,0.6-26.3-1.9-38.5,1.7c-0.2-0.1-0.5,0-0.8,0.1
			c-0.3,0.1-0.6,0.2-0.8,0.4c-1.2,0.4-2.4,0.9-3.6,1.5c-13.4,4.5-28.7-0.6-39.5-9.3c-14.1-11.4-17.2-27.8-18.9-45
			c-1.9-19.2,1.8-37.8,12.1-54.3c5.4-8.7,11.4-17.2,18.8-24.2c7.5-7.1,16.1-10.7,25.2-15.1c8.9-4.3,16.6-10.5,25.7-14.5
			c8.7-3.8,17.3-9.7,27-10.6c20-1.9,37.4,10.4,44.5,28.9c7.2,18.8,7.3,37.2-2.1,55.2c-7.8,15.1-10.3,30.8-13.2,47.3
			c-1.6,8.8-4.7,18.1-10.1,25.2C475,545.5,466.5,548.8,455.7,549.2z"/>
		<path class="st0" d="M476.1,556.6c17.3-7.8,24.3-27.3,26.5-45c0.7-5.4,0.5-10.7,1.3-16.1c0.9-5.7,3.3-10.5,5.5-15.8
			c4.4-10.3,8-20.8,11.7-31.5c6.3-18.1,7.1-35.2-4.3-51.7c-9.5-13.6-20.6-22.2-37.1-25.6c-15.5-3.2-28.5-2-42.2,6.5
			c-7.8,4.9-15.2,10.3-23.2,14.9c-8.5,4.9-17.3,9.3-25.7,14.5c-7.4,4.6-15.3,9.5-21.2,16.2c-4.9,5.5-8.4,13.6-11.9,20.1
			c-7.3,13.6-12.1,28.6-13.2,44.1c-0.5,7.8-0.3,15.7,0.6,23.6c1.2,8.8,4,15.8,7.8,23.8c3.1,6.7,4.9,14.8,10.8,19.8
			c5.4,4.7,12.5,7.4,19.3,9.3c7.3,1.9,15,3.5,22.5,2.7c3.2-0.4,6.4-0.8,9.4-2c1.3-0.6,2.6-1.2,3.9-1.8c0.1-0.1,0.2-0.1,0.3-0.1
			C435.5,552.8,457.4,564.9,476.1,556.6z M461.7,556.9c-12.7,0.3-26.6-2.7-39,0.6l-0.2,0c-5,1-9,4.6-14.1,5.6
			c-6.3,1.4-12.8,1.2-19.2,0.1c-13.2-2.6-27.7-7.2-32.7-21.1c-2.3-6.7-6.1-12.6-8.4-19.2c-2.4-6.9-3.2-14.7-3.5-22
			c-0.4-12.1,0.8-24.3,4.4-35.8c2.9-9.2,7-17.7,11.8-26c4.5-7.9,8.5-15.5,16.2-21c16.4-11.7,34.8-20,51.5-31.3
			c7.6-5.2,15.6-11.3,24.6-13.7c8.4-2.3,17.5-1.4,25.9,0.5c18.7,4.3,33.4,15.8,40.8,33.9c8,19.3,0,38.3-6.8,56.5
			c-3.4,8.9-9,18.1-10.9,27.4c-1.5,7.4-1.2,14.9-2.4,22.3C496.4,534.5,485.7,556.3,461.7,556.9z"/>
		<path class="st0" d="M487.5,565.1c9-5.5,15.2-17.5,18.7-27.1c3.8-10.5,5.9-21.6,6.1-32.9c0.1-7.6,0.4-15.8,3.1-23
			c2.4-6.4,6.4-11.7,9.3-17.8c5.1-9.9,7.7-22.8,9-33.9c1.3-11,1.2-23.9-3.6-34.2c-5-10.7-13.8-19.1-23.6-25.4
			c-12.1-7.6-24.7-12.7-39.1-10.6c-7.8,1.1-15.2,3.3-22.4,6.3c-8,3.2-16.7,6.3-23.4,11.7c-15,11.9-33.6,19.2-47.7,32.4
			c-7.1,6.7-15.6,12.1-22,19.4c-4.1,4.7-5.6,11.4-7.2,17.3c-8.3,30.3-15.9,64.2-0.4,93.9c6.9,13.1,17,24.5,31.2,29.2
			c6.5,2.1,14.4,4.3,21.3,3.6c4.3-0.5,8.5-1.5,12.5-2.8c0,0,0,0,0.1-0.1c0.2,0,0.2-0.1,0.5-0.1c3.5-1.1,6.9-2.2,10.3-3.3
			c0.1-0.1,0.1-0.1,0.2-0.2c3-0.7,6.1-1.2,9.4-1c7.2,0.5,14.1,1.8,21.2,2.8C463.5,571.3,476.4,571.7,487.5,565.1z M459.9,568
			c-9.9-0.9-19.7-3.5-29.7-3.9c-3.6-0.2-6.8,0.3-9.9,1.1c-0.2,0-0.2,0-0.3,0c-0.2,0.1-0.5,0.1-0.7,0.2c-3.3,0.8-6.5,2-10,3.2
			c-0.2,0.1-0.4,0.2-0.6,0.4c-5.2,1.8-10.5,3-15.7,2.4c-9.2-1-18.9-3.3-26.7-8.4c-15.2-10.2-24.7-28.8-27.1-46.7
			c-2.4-18.2-0.7-37.2,4.1-54.9c2.2-7.8,3.9-16.5,7.2-23.9c4-9,12.9-14.1,20-20.3c8.2-7.3,16.4-13.7,25.9-19.3
			c7.4-4.3,15.2-8.2,21.8-13.6c13.7-11.3,33.4-20.1,51.3-21.6c18.1-1.6,36.6,8.1,49,21.2c13.9,14.7,15.4,34.9,11.5,53.9
			c-1.8,8.9-3.9,18.9-8.4,26.9c-3.7,6.7-8.3,13-10,20.5c-3.8,16.7-1.5,33.7-7.4,50.1c-3,8.6-7.8,19-14.9,25
			C481.1,567.3,470.4,568.8,459.9,568z"/>
		<path class="st0" d="M524.6,482.2c7-26.4,25.3-54.1,16-82.5c-7.8-24.1-31.7-44.7-57.3-46.1c-30.4-1.7-58.7,12.7-82.6,30.1
			c-8.7,6.3-17,13-26.1,18.7c-6.9,4.3-14,8.5-20,13.9c-5.9,5.4-10.3,11.1-12.8,18.9c-2.5,7.6-5.7,15-8.4,22.6
			c-10.6,29.7-9.1,71.2,8.9,98.2c8.8,13.2,21.3,19.5,36.7,22.6c8.4,1.7,16.1,1.5,24.5-0.3c6-1.4,11.9-1.8,18-2.6c0,0,0,0,0.2,0
			c27.8-4.3,62.5,13.8,80.6-16.6C516.1,535.5,517.9,508.1,524.6,482.2z M519.6,492.4c-3.1,15.1-5.5,30.7-10.6,45.3
			c-6.3,18-15.7,35.4-36.8,37c-15.4,1.2-30.5-3.3-45.8-2.3c-0.2-0.1-0.5-0.2-0.9-0.1c-5.5,0.9-11.1,0.7-16.5,1.9
			c-6.1,1.3-12.5,3.2-18.8,3.1c-11.2-0.3-25.9-3.6-35.1-10.7c-18.5-14.6-24.9-42.4-25.4-64.7c-0.3-12.3,0.2-25.1,3.9-37.1
			c1.7-5.5,4.1-10.6,6.3-16c1.9-4.8,3.1-9.9,5-14.6c4.9-12.7,16.2-20.1,27.3-27.2c9.8-6.2,19-13.3,28.4-20.1
			c25.3-18.3,59.5-37.4,92.1-29.4c16.8,4.1,32.9,17.5,41.2,32.7c9.8,18,6.9,38.6,0.6,57.2C529.1,462.4,522.9,476.6,519.6,492.4z"/>
		<path class="st0" d="M536.7,476c5.8-15.7,13.5-31.4,15.4-48.2s-0.9-34.3-8.7-49.5c-7.6-14.9-17.8-26.3-32.8-33.9
			c-12.2-6.2-27.3-9.6-40.8-5.9c-15.7,4.4-28.7,14.1-42.9,21.6c-9,4.7-16.8,9.2-24.3,16.1c-7.7,7.1-15.4,13.5-24.9,18.1
			c-14.1,7.1-32.8,13.7-40.8,28.4c-3.2,6-5.7,12.7-6.7,19.4c-1.3,8.8-3.3,16.7-6,25.1c-4.8,15.1-8.8,31.8-6.8,47.8
			c1.2,9,4,17.5,7.4,25.8c3.2,8,5.9,16.6,10.5,24c7.2,11.6,22.2,20.2,35,23.8c6.8,1.9,13.9,2.9,20.8,2.4c8.6-0.7,15.7-3.8,23.7-6.5
			c0.2,0,0.3-0.1,0.4-0.2c9-2.7,18.4-3.3,27.7-2.4c8.1,0.8,16.1,2.7,24.4,3.1c14,0.6,30.4-1.3,39.6-13.1
			c9.5-12.3,13.4-28.4,14.7-43.7C523.3,509.7,530.2,493.3,536.7,476z M521.2,513.3c-3.6,17.2-2.6,35.3-11.8,51
			c-10.6,17.8-30.5,20.3-49.6,17.6c-16.9-2.5-32.9-4.5-49.2,1.6c-0.2,0.1-0.3,0.1-0.5,0.3c-5,1.9-10,3.9-15.5,4.5
			c-7.2,0.8-14.5,0.5-21.5-1.4c-12-3.4-25.6-10.2-33.4-20.3c-4.7-6.1-6.9-13.1-9.7-20c-2.9-7.2-6-14.3-7.9-21.8
			c-3.6-14-2.6-28.6,0.7-42.4c2.9-12.2,7.8-23.5,9.5-35.8c1.7-13,6.3-25.1,17-33.2c12.6-9.5,27.8-13.9,40.6-22.8
			c6.6-4.5,12.1-10.1,18-15.4c6.1-5.5,13.2-8.6,20.3-12.6c14.7-8,29.3-19.5,46-22.2c17.8-3,38.5,5.1,51.4,17.4
			c13.4,12.8,22.1,32.1,24,50.6c1.9,19.5-3.7,37.2-10.7,55.1C532.6,479.5,524.6,496.2,521.2,513.3z"/>
		<path class="st0" d="M538.1,488.8c4.3-6.8,9.2-13.4,12.4-20.7c6.8-15.7,10.6-32.8,11.6-49.9c0.9-15.9,0.4-33.8-6.1-48.5
			c-6.6-15-18.2-27.4-32.3-35.6c-11.8-6.9-23.7-11.8-37.5-8.7c-17.8,3.9-35.2,9.4-50.7,18.9c-16.6,10.2-31.1,22.6-45.4,35.5
			c-14.4,12.9-34.2,15.4-49.4,27.2c-12.3,9.7-19.3,21.8-19.9,37.7c-0.4,9.1-0.8,17.6-3.9,26.3c-2.7,7.5-5.4,14.9-6.9,22.7
			c-3.7,17.3-2.7,34.1,3.3,51c3,8.4,7,16.2,11.6,23.7c3.6,6,7.5,12.5,12.7,17.2c10.6,9.4,23.6,12.5,37.5,13.2
			c7.9,0.4,16,0.8,23.7-0.9c7.5-1.6,14.6-4.3,21.8-6.6c30.6-8.4,65.8,14.8,94.1-3.5c22.8-14.7,21.1-45.3,18-69.1
			C531.4,507.8,532.3,498.2,538.1,488.8z M538.3,483.7c-4.3,6.7-8.1,13.4-8.6,21.5c-0.4,6.9,0.7,13.4,1.5,20.1
			c1.8,14.4,1.8,30.7-4.2,44.2c-6.4,14.4-20.6,21.7-36,22.1c-22.1,0.6-44.7-8.2-66.6-4.2c-0.2-0.1-0.5-0.2-0.9-0.1
			c-1.2,0.3-2.6,0.8-3.7,1.2c-0.2,0.1-0.3,0.1-0.6,0.2c-11.6,3.7-22.7,7.8-35.2,7.6c-15.9-0.3-34.1-1.4-45.7-14
			c-12.6-13.5-22-32.6-25.7-50.4c-4-18.8-1.5-36.9,5-54.8c2.7-7.5,5.5-15.1,5.7-23.1c0.2-7.7-0.1-15.8,2.5-23.2
			c7-20,26.2-28.5,44.2-36c9-3.7,16.6-8.2,23.7-15.1c6.9-6.5,14-12.6,21.5-18.5c17.4-13.4,35.1-23.8,56.3-29.8
			c7.7-2.2,16.1-5.2,24.2-5.1c8.3,0.1,15.9,3.4,23.1,7.4c16.6,9.2,31.7,23.6,37.2,42.4c5,17.5,5.1,36.6,2.4,54.6
			C555.3,450.5,549,467.3,538.3,483.7z"/>
		<path class="st0" d="M551.1,480.4c21.4-25.5,25.3-62.5,20-94.5c-4.5-27.2-18.7-53.9-44.2-66.9c-12.6-6.5-23.3-6-36.7-2.6
			c-18.6,4.5-36.2,11.1-53.1,20.2c-8,4.3-16.2,9-22.9,15.3c-6.5,6-11.6,13.4-18.6,18.9c-16.1,12.8-35.3,21.3-54,29.4
			c-12.8,5.6-24.6,16.5-26.3,31.1c-0.9,7.9,0.4,16-1.2,23.8c-1.6,8.5-5.8,16-8.9,24c-5.8,15.1-8.6,34.5-6.4,50.6
			c2.2,16.1,10.8,30.6,20.3,43.4c9.2,12.5,19.3,23.6,33.8,29.9c15,6.5,31.6,8.4,47.4,3.9c0.2,0,0.3-0.1,0.4-0.2
			c13.3-3.2,26.8-7.4,40.4-7c13.6,0.4,26.7,4.5,40.2,5.7c14.1,1.1,25.7-1.9,37.7-9.3c9.5-6,20.4-11.3,24.3-22.6
			c4.9-14.4,2.5-28.7-1.4-43.1c-2.2-8.5-4.6-17.4-3.3-26.2C540.3,494.5,545,487.6,551.1,480.4z M558.2,465.9
			c-4,7-9.5,12.5-14.2,18.9c-9.3,12.8-9.3,27.3-5.3,42.1c4,15.5,9.5,34.7,0.5,49.6c-4.8,8-13.4,12.3-21.1,17
			c-8.3,5-16.8,9.2-26.8,9.4c-16.3,0.4-31.8-5.4-48-5.9c-17.9-0.5-35,5.7-52.4,9c-24.2,3.4-48.3-7.8-63.6-27
			c-11-13.8-23.1-30.3-25.6-48.2c-2.6-18.8,0.9-39.6,8.5-56.9c3.2-7.2,6.5-14.6,7.1-22.7c0.6-7.7-0.9-16.1,1.2-23.4
			c6.2-21,26.4-26.1,43.9-34.7c17-8.3,32.9-17.7,45.7-31.8c13.2-14.5,30.8-24.5,48.8-32.1c10.2-4.3,20.6-7.7,31.4-10.3
			c7.5-1.8,15.6-4.4,23.4-3.1c14.3,2.5,27.1,12.4,36.3,23.3c22.1,25.9,25.7,64.4,20.1,96.9C566.4,446.6,563.4,456.9,558.2,465.9z"/>
		<path class="st0" d="M571.7,467.7c8.3-12,8.1-26.9,8.9-41c1.1-17.9,0.1-35.4-4.4-52.7c-7.5-29-25.3-60.8-56.2-69.5
			c-23.1-6.5-46.3,2.3-66.4,13.3c-11.3,6.2-22.1,13.2-33.1,20.2c-6.6,4.1-12.7,8.2-17.7,14.1c-5.5,6.5-10.6,13-17.5,18.2
			c-15.6,11.9-33.6,19.2-50.7,28.6c-11,6.1-29.1,14.2-30.9,28.4c-1,7.7,1.5,15.4,1.1,23.1c-0.3,8.7-2.9,16.8-5.7,25
			c-5,14.8-10.6,30.1-10.8,45.9c-0.2,16.4,4.1,33.6,12.8,47.6c8.6,13.8,20.6,24.1,34.4,32.4c12.3,7.5,26.1,14.6,40.6,16.2
			c8,0.8,16,0.1,23.6-2c3.2-0.9,6.6-1.7,9.6-3.3c1.5-0.7,3-1.6,4.6-2.4l0.2,0c2.6-1.2,5.1-2,7.7-2.5c0.2,0,0.2-0.1,0.3,0
			c0.2,0,0.4-0.1,0.6-0.2c19.5-3.8,39.5,7.2,58.9,8.3c19.4,1,42.2-2.6,56.1-17.3c7.7-8.2,14.1-18.2,16.7-29.3
			c2.8-11.6,0.5-21.8-2.2-33.2c-2.8-11.6-5.9-26.1-2.7-37.8C553.4,484.6,564.4,478.2,571.7,467.7z M565.4,470.8
			c-5.5,5.9-11.4,11.4-15.3,18.6c-6.7,12.4-4,29.5-1.1,42.6c2,9.1,5.5,18.6,4.5,28.1c-1,9.5-4.4,18.7-9.8,26.5
			c-10.1,14.8-24,22.6-41.6,25.1c-8.3,1.2-17,1.6-25.5,0.5c-7.3-0.9-14.3-3.4-21.4-5c-10.6-2.5-22.1-4.6-32.8-2.6
			c-7.6,0.5-13.7,5.8-21,7.8c-8.1,2.3-16.6,3.8-25,2.5c-16.5-2.2-31.8-10.5-45.5-19.7c-32.1-21.6-46.7-59-36.5-96.4
			c4.1-15.1,12.3-30.5,12.9-46.4c0.3-7.8-2.3-15.9-1.3-23.6c1.3-10.1,9.6-15.6,17.6-20.6c16.1-10.2,34-17.1,50.3-27.1
			c7.4-4.6,15.5-9.6,21.3-16.3c5.3-6,10-13,16.4-18c10.6-8.4,23.3-15.3,35-22.2c11.2-6.5,22.9-12.8,35.5-16.6
			c11.9-3.5,25-4.9,37.1-1.2c15.4,4.8,28.4,15.8,37.6,28.9c21.7,30.9,24.6,72.6,19.9,108.9C575.5,454.8,572.5,463.3,565.4,470.8z"/>
		<path class="st0" d="M586.4,382.6c-3-17.8-6.9-36.2-15.8-52.1c-4-7.2-8.4-13.8-15.2-18.6c-3.4-2.4-6.9-4.6-10.2-7
			c-3.6-2.8-6.3-6.2-9.6-9.1c-8.6-7.7-17.6-9.6-28.7-7.2c-18.8,4-37,10-53.8,19.8c-8.1,4.8-15.5,10.5-23.2,16.1
			c-8,6-16.9,10.5-25.2,16.1c-7.3,5-14,10.5-19.7,17.4c-6.3,7.7-12.6,16.3-21.5,21.1c-8.5,4.6-18.2,5.9-26.8,10.3
			c-7.5,3.8-14.4,8.4-21.7,12.5c-6.2,3.6-12.8,7.4-16.1,13.9c-3.2,6.3-5.2,13.2-5.9,20.1c-0.9,8.9-0.5,18-1.6,27
			c-1,8.9-3.3,17.6-5.6,26.3c-4.1,15.7-8.7,31.9-8.7,48.2c-0.1,16.7,4.3,33.7,12.5,48.4c8.2,14.9,23.1,22.4,37.4,30.7
			c14.4,8.3,27.7,11.6,44.2,8.5c9.6-1.8,19.3-3.2,29.1-3.9c6.3-0.5,12.5-1.1,18.6-2.6c0.2,0,0.2-0.1,0.4-0.1c0.2,0,0.3-0.1,0.5-0.1
			c1.4-0.3,2.8-0.8,4.2-1.3c12.1-3,24.4-0.6,36.2,3.1c10.5,3.3,20.7,4.6,31.7,3.2c20.5-2.5,45.6-9.5,59.7-25.7
			c6.6-7.7,12.3-17.7,13.4-28.1c1.1-10.7-1.6-20.9-4.4-31.2c-3.5-12.6-6.8-26.2-3.3-39.1c3.6-13.6,15.4-20.8,23.4-31.8
			C598.6,442.9,591.2,410.8,586.4,382.6z M583.5,458.1c-7.8,14.6-25.2,23.8-28.9,40.5c-3.4,15.2,0.3,29.3,4.3,44
			c4.7,17.3,5.3,34.1-6,49.2c-10.3,13.7-26.8,20.9-42.9,25.2c-16.6,4.5-32.6,5.7-49.2,0.6c-12-3.7-24.1-6-36.1-3.5
			c-0.2-0.1-0.5,0-0.7,0c-0.5,0.1-0.8,0.3-1.3,0.4c-1.2,0.3-2.5,0.7-3.7,1.2c-8.6,2.2-17.6,2.5-26.5,3.2c-9.6,0.8-18.9,3.5-28.5,4.4
			c-19.8,2-35.7-8.5-51.8-18.6c-9.3-5.8-16.7-12.2-21.5-22.2c-4.2-8.6-7.6-17.6-9.4-27.1c-3.5-18.1-0.6-36,3.8-53.7
			c4.2-16.4,8.8-32.3,9.6-49.3c0.5-9.5,0.2-19.1,3.3-28.3c3.4-10,9.1-15.2,18.1-20.2c7.9-4.4,15.4-9.9,23.7-13.5
			c8-3.6,17.1-4.8,24.7-9.3c7.4-4.4,13.1-10.4,18.5-17c6.7-8.2,13.7-15.6,22.7-21.5c7.9-5.3,16.4-9.5,24-15.1c8-6,15.7-12.1,24.4-17
			c17.2-9.8,36.7-17.5,56.4-20.2c7.2-0.9,13.9-0.2,19.7,4.3c6,4.6,10.5,10.4,16.7,14.6c9.1,6.1,16,12.4,21.1,22.2
			c4.6,8.7,8,17.7,10.5,27.2c4.4,16.7,6.9,34,9.2,51C590.1,425.7,591.4,443.4,583.5,458.1z"/>
		<path class="st0" d="M599,406.7L599,406.7c-1.3-8.1-1.3-16.3-2.7-24.2c-1.7-9.4-3.9-18.8-6.5-28c-4.7-16.4-9.8-34.3-18.9-48.9
			c-7.9-12.7-18.9-22.9-33.5-27.1c-14-4-28.5-5.1-42.7-1.4c-16.5,4.4-32.6,12.5-47.6,20.7c-16.3,9-29.6,21.1-44.3,32.5
			c-7.5,5.8-15.3,11.8-21.8,18.7c-5.7,6.1-9.9,13.5-15.6,19.6c-13.4,14.2-34.1,15-51.1,22.8c-14.3,6.5-26.2,17.2-29.7,33.2
			c-1.8,8.2-2,16.6-2.8,24.9c-1,9.2-3.5,18-5.8,26.8c-0.1,0.2,0,0.5,0,0.7c-2.2,8.3-6.1,16.3-7.4,25c-1.9,12.6-4.1,25.5-3.5,38.5
			c1,23.1,6.8,46.7,21.3,65.2c12.2,15.4,27.5,26.1,46.8,29.9c19.9,3.9,42.6,2.7,62.3-2.5c0.2,0,0.2,0,0.3,0
			c8.5-1.8,15.9-6.8,24.7-8.4c9.3-1.6,19.4-1.7,28.7-0.1c8.6,1.5,16.4,4.7,24.5,7.3c13.8,4.5,26.8,4,40.5-0.9
			c14.1-5.2,27.3-12.9,39.4-21.8c10.8-8,19.1-19,22-32.3c2.9-13.1,1.9-27.1-2.5-39.9c-2.7-7.6-7.1-15-8.1-23
			c-1.4-10.6,4.3-17.8,11.2-24.9c5.2-5.3,9.7-10.9,12.5-17.9c3.1-7.6,4.9-15.6,7.4-23.3c2.4-7.1,5-14.6,5.4-22.1
			C601.8,419.1,600.2,413.2,599,406.7z M593.9,385.1c0.9,8.3,1.3,16.7,2.8,24.9c0.1,0.2,0.1,0.5,0.2,0.6c1.5,7.3,2.7,14.2,1.1,21.7
			c-1.7,7.7-4.5,15-6.6,22.6c-2.6,8.9-5.1,18.3-10.9,25.7c-4.5,5.8-10.8,10.4-14.6,16.8c-8.2,14.2,0.2,26.3,4.6,40.2
			c4.7,14.4,6.3,30.5,0.7,44.9c-6.1,15.6-18.6,25.3-32.4,33.7c-13.5,8.2-29.7,16.8-46.1,16.7c-16.5,0-31-9.6-47.4-11.3
			c-8.3-0.8-17.1-1.1-25.4,0.7c-7.4,1.6-14,5.3-21.1,7.5c-0.2,0-0.3,0-0.4,0.1c-20.4,6.1-45,7.8-66,3.1
			c-18.7-4.1-34.3-15.1-45.4-30.7c-14.3-20.2-20.5-45.9-19.2-70.5c0.7-11.5,1.4-24.2,4.6-35.4c2.3-7.9,5.8-15.7,7.2-23.8
			c2.1-8.1,4.1-16.2,4.9-24.6c0.9-10.1,0.8-20.9,5.2-30.3c8.7-18.5,28.7-26.1,47.1-31.2c8.3-2.2,17.2-4.4,24-9.8
			c6.2-4.9,10.5-11.1,15.2-17.4c11.6-15.4,27.9-25.3,42.2-37.7c15.4-13.4,32.3-22.9,50.8-31.5c15.4-7.1,31.3-13.8,48.8-12.4
			c18.1,1.4,35.4,8.2,46.4,23.1c11.7,15.7,17.7,35.8,22.9,54.3C590,364.8,592.9,375,593.9,385.1z"/>
		<path class="st0" d="M608.8,415.1c0-0.2-0.1-0.2-0.1-0.4c0-12.8-1.8-24.7-3.9-37.5c-2.3-14.2-3.9-28.4-7.5-42.3
			c-6-23.2-15.3-47.5-34.7-62.8c-24.4-19.3-56.7-21.7-84.2-8c-16,8-29,19.4-43.2,30c-8,6-16.9,11-24.6,17.4c-7,5.9-14,11.6-21.5,17
			c-11.4,8.3-25.1,18.6-29.4,33c-1.7,5.7-3.8,10.2-10.1,11.1c-3.5,0.5-7,0.8-10.4,1.4c-8,1.7-16.1,4-23.6,7.4
			c-15.8,7.3-28.3,18.3-37.1,33.3c-8,13.8-13.3,28.8-16.8,44.2c-0.2,0.2-0.2,0.3-0.3,0.6c-1.5,4.9-1.4,9.7-0.8,14.8
			c0.8,6.5,0.7,12.3,0.1,18.9c-1.2,13.5-1.1,27.3-1.4,41c-0.6,25.8,2.1,51.7,16.3,74c6.8,10.6,15.4,20.2,25.7,27.5
			c8.2,5.9,16.8,12.5,27,14c12.3,1.9,24.7-2.2,36.9-3.2c11.8-0.9,23.4-3.7,35.3-3.8c0.2,0,0.4-0.1,0.6-0.1
			c7.6-0.7,14.9-2.6,22.4-4.2c9.9-2,19.6-2.5,29.4,0.6c7.2,2.4,14.1,5.8,21.3,8.2c14.1,4.7,30.5,4.4,44.7,1.1
			c15.3-3.6,28.8-12,40.1-22.7c11-10.5,22.1-23.8,27.8-38.2c5.2-13.3,3.8-27-0.1-40.6c-3.9-13.4-13.3-30.8-8.6-44.9
			c4.3-13,14.1-23.3,18.6-36.5c5.1-15,11.5-31.5,12.3-47.6l0,0c0-0.2,0-0.3,0-0.5C608.7,416.8,608.8,415.9,608.8,415.1z
			 M606.2,417.9L606.2,417.9c0,0.8-0.1,1.6-0.1,2.4c-1.1,10.1-4.4,19.4-7.3,29c-2.6,8.6-4.8,17.9-9,25.9
			c-5.4,10.3-14.9,20.2-15.6,32.4c-0.8,14.1,6.7,28.3,10.2,41.8c4.5,17.2,3.8,32.2-5.7,47.5c-9.5,15.4-22.1,30-37.7,39.5
			c-15.2,9.3-32.5,12.8-50.2,11.7c-16.2-1.1-29.3-10.8-45.2-13.1c-16.2-2.4-31,4.9-46.9,5.5c-0.2,0.1-0.5,0-0.7,0
			c-0.9,0-1.8,0.1-2.8,0c-0.3,0-0.4,0.1-0.7,0.1c-8.2,0.6-16.4,2.1-24.5,3c-5.5,0.6-10.8,0.8-16.2,1.7c-6.4,1.1-13.1,2.7-19.6,2.5
			c-12.3-0.5-22.1-7.1-31.7-14.3c-10.9-8.2-20.5-18.3-27.1-30.4c-12.9-23.8-14.5-49-13.6-75.4c0.4-12.2,0.1-24.5,1.5-36.6
			c0.9-8.5-1.5-17.6-0.5-26c0.1-0.1,0.2-0.3,0.2-0.5c3.9-19.6,10.4-39.4,22.2-55.7c12.8-17.6,33-28.8,54.3-32.5
			c5.2-0.9,13.3-0.3,17.4-4.4c4.9-4.9,5-12.2,8.6-17.9c9.7-15.2,26.3-23.3,39.5-34.7c8.1-7,16.6-13.1,25.6-19.2
			c6.8-4.6,12.8-10.2,19.4-15.2c15-11.5,32.1-23,51.3-26.2c35.1-6,67.4,13.2,82.2,44.9c8.3,17.6,13.2,36.8,16.1,56
			C602.7,379.2,606.6,398.3,606.2,417.9z"/>
		<path class="st0" d="M613.8,427.2c7-32.6,0.1-65.8-8.5-97.6c-4.6-16.8-9.7-34-20.9-47.7c-5.6-6.7-11.4-13.1-16.8-20
			c-4.8-6.2-9.9-12.8-16.5-17c-12.6-7.9-30-7.8-44.2-5.6c-17.1,2.6-32.4,10.2-45.9,20.9c-7.9,6.2-14.5,13.5-21.7,20.5
			c-7.6,7.3-16.6,11.9-25.4,17.3c-15.2,9.4-29.9,21.1-42.7,33.8c-6.1,6.1-12.1,12.4-16.7,19.7c-5.2,7.9-9.8,16.2-19.7,18.3
			c-8.1,1.8-16.6,1.9-24.5,4.6c-7.3,2.7-14.3,6.7-20.6,11.2c-13.5,9.6-24,22.6-31.8,37.3c-5.5,10.3-9.9,20.5-12.2,31.4
			c-0.2,0.2-0.3,0.5-0.4,0.8c-0.3,1.8-0.5,3.7-0.6,5.5c-0.4,2.5-0.6,5-0.6,7.7c0,0.2,0.1,0.2,0,0.3c-0.5,10.3-0.1,20.7,0.7,31.1
			c0.9,13.7,1.6,27.5,3.1,41.1c3.2,28.4,10.5,55.2,25.1,79.8c11.9,20.1,28.2,36.1,52.5,37.6c13.1,0.8,25.8-1.3,38.8-2.5
			c11.6-1.2,23.2-2.4,34.7-4.2c0.2,0.1,0.4,0.1,0.6,0c6.9-1.4,13.7-1.9,20.7-2.5c8.5-0.9,17.8-2.3,26.2,0
			c15.2,4,29.5,10.7,45.1,13.3c15.1,2.6,30.1,1.4,44.3-4.3c29-11.9,57.3-34.7,65.1-66.4c1.8-7.5,3.1-15.4,1.2-23.1
			c-2-8-5.6-15.4-8-23.4c-2.8-9.2-5.1-18.8-6.6-28.3c-1.6-10.1,1.1-16.9,6.1-25.5c7.3-12.7,13.4-26.4,16.1-40.7
			C611,442.8,612.5,435,613.8,427.2L613.8,427.2z M612.1,422.3c-0.1,0.1-0.1,0.1-0.1,0.2c-0.6,3.6-1.3,7.3-1.9,10.8
			c-2.3,12.8-4.1,25.4-9.3,37.3c-3.8,8.8-8.7,16.8-13,25.2c-2.5,5.2-4.4,10.7-3.5,16.6c1.4,9.9,3.6,19.5,6.2,29.1
			c2.1,8,5.8,15.3,7.9,23.2c5.2,18.3-2.1,38.7-13.3,53.3c-20.8,27-57,47.5-91.8,41.7c-16.7-2.8-31.8-10.5-48.2-13.8
			c-7.6-1.6-15.7-0.5-23.3,0.2c-5.8,0.6-11.5,0.9-17.2,1.8c-0.2,0-0.2,0-0.3,0c-12.7,2.2-25.6,3.5-38.5,4.8
			c-13.3,1.3-26.9,3.9-40.4,2.7c-26.3-2.3-42.3-20.4-53.9-42.7c-12.8-24.2-19.3-50.1-21.7-77.3c-2.4-25.4-5.5-52.2-2.2-77.8
			c1.5-9.6,4.9-18.3,9.4-27.4c5.6-11.4,12.3-22.6,21.2-31.6c8.6-8.7,19.6-16.9,31.1-21.1c10.8-3.9,23.5-2.5,33.6-8.2
			c6.2-3.6,9.6-10.7,13.6-16.4c5.2-7.6,11.3-14.5,17.9-20.8c14.2-13.4,29.9-25.7,46.9-35.6c8.5-4.9,16-10.1,22.8-17.3
			c6.4-6.7,12.8-13.1,20.3-18.6c16.8-12.5,35-19.5,55.9-19.6c9.1,0,19.3-0.1,27.3,4.8c8,5,13.5,12.1,19.3,19.4
			c5.8,7.4,12.7,14.1,18.1,21.8c6.3,8.8,10.5,18.9,13.7,29.1C609.3,350,618.3,387.1,612.1,422.3z"/>
		<path class="st0" d="M622.3,325.6c-14-36.8-35.1-76.8-71.9-95.3c-26.1-13.3-54.1-1.6-78.1,11.1c-17.1,9.1-33,20.3-47.6,32.9
			c-15.3,13.2-30.9,26.6-45.8,40.2c-7.7,7.1-15.2,14.4-22.2,22.3c-5.6,6.3-11.2,13-18,17.9c-9.5,6.9-19.4,8-30.4,10.7
			c-8.4,2-16.5,5-23.7,9.5c-22.6,14.2-42.6,38.4-49.7,64.7c-3.7,11.3-4.4,24-4.9,35.7c-0.8,16.2,0.1,32.9,3.1,48.8
			c3.4,19,8.1,38.2,12.8,56.9c3.7,14.9,8.2,29.7,15.3,43.5c12.6,24.2,31.9,44.6,60.7,45.1c14.4,0.3,28.4-2.7,42.5-5
			c13.1-2.2,26.3-4.1,39.5-5.7c12.2-1.8,24.5-1.2,36.6,0.8c27.2,4.3,54.4,14.4,82.2,11.6c16.6-1.7,31-8.3,44.7-17.7
			c7.1-4.9,14.4-9.7,21.3-14.8c5.6-4.1,11.4-8.7,14.7-15c7.4-13.6,12-32.3,12.3-47.9c0.3-18-10-32.7-14.8-49.5
			c-2.5-8.6-6-19.3-2.2-28.1c3.4-7.5,8-14.6,11.5-22.1c4.5-9.5,8.6-20.9,10.6-31.7c0.2-0.2,0.2-0.3,0.2-0.5c1-11.2,5.8-21.4,9.2-32
			c3-9.5,4.6-19.2,4.5-29.2C634.2,363.1,629.4,344.1,622.3,325.6z M624.7,339.7c5.3,17.2,8.5,35.6,6.5,53.7
			c-1.7,15.5-9.2,29.4-12.2,44.4c-0.2,0.2-0.2,0.3-0.2,0.6c-0.5,5.9-2.6,11.7-4.1,17.3c-2.5,8.9-5.8,17.1-9.8,25.5
			c-2.9,6-7.7,11.8-9.5,18.2c-2.1,7.1-0.8,14.6,1.1,21.7c2,7.6,4.2,15,7.4,22.3c4.4,9.7,9.3,19.5,9.1,30.4
			c-0.2,9.4-1.8,18.7-4.4,27.7c-2.6,9.1-5.1,19.7-11.8,26.8c-5.3,5.6-11.6,9.8-17.9,14.1c-15.6,10.9-31,22.3-50.3,25.5
			c-14.4,2.3-28.9,1.1-43.1-1.5c-25.7-4.7-51.3-13-77.7-10.5c-0.1-0.1-0.2,0-0.3,0c-14.1,1.6-28.3,3.6-42.4,6
			c-13.7,2.4-27.7,5.5-41.7,5.4c-15.3-0.2-29.2-4.8-40.3-15.6c-9.6-9.4-17-20.7-22.5-32.8c-6.9-15.2-11.3-31.3-14.9-47.5
			c-3.7-16.4-8.3-33-10.9-49.7c-2.4-15.7-3.5-31.7-2.5-47.5c0.6-10.4,1.3-21.5,4.2-31.7l0,0c0.1-0.6,0.3-1.2,0.5-1.7
			c0.5-1.5,1-2.9,1.6-4.4c0.2-0.3,0.1-0.6,0-0.8c2.9-8.6,7.3-17.5,12.3-24.5c10.7-14.8,25.6-30.3,42.6-37.8
			c16.1-7.1,34.3-5.8,48.4-17.6c14.1-11.7,25-26.7,38.6-39c15.1-13.6,30.4-27.1,45.8-40.2c15.7-13.2,32.3-25.1,50.7-34.3
			c13.5-6.8,27.9-13.5,43.1-15c16.9-1.6,31.3,5.4,44.2,15.7C594.7,267.2,613.1,302.8,624.7,339.7z"/>
		<path class="st0" d="M602,266.5c-9.2-14.3-21-28.8-34.2-39.5c-11.7-9.5-29.3-16.9-44.5-17.1c-8.1-0.1-15.6,2-23.1,4.6
			c-8.4,3-17,5.4-25.4,8.4c-18.5,6.5-36.3,15.1-51.3,27.9C408,264,394.1,279,379,292.6c-14.1,12.9-27.8,25.4-39.9,40.1
			c-7.5,9.2-14.6,15.8-26.3,19.2c-8.9,2.6-18,4.4-26.9,7.4c-8.3,2.9-16.9,7.1-24,12.1c-3.3,2.3-6.2,5.1-8.9,8
			c-0.2,0.1-0.5,0.1-0.7,0.3c-10.8,11.8-22.1,22.7-28.6,37.6c-13.6,30.7-12.6,67.1-7.4,99.6c3.1,19.1,7.9,37.8,12,56.7
			c3.8,17.9,8.6,34.9,17,51.2c6.6,12.8,14,26,24.4,36.2c10.5,10.3,22.3,15.7,36.6,18.3c15.6,2.9,31.4,2.7,46.8-0.9
			c9.4-2.2,18.5-5.3,28-7.1c7.3-1.3,14.6-2.6,21.9-4c0,0,0.1,0.1,0.2,0c6.9-1.3,12.7-3.3,19.8-2.5c8.9,1.1,17.4,3.9,26.2,4.8
			c8.5,0.8,16.9,1.7,25.3,3.4c15.6,3.2,31.5,7.3,47.6,7c17.3-0.3,33.8-5.7,48.9-13.7c14.7-7.9,30.9-17.8,41.9-30.7
			c17.9-20.9,20.9-56.6,12-82.2c-5.8-16.8-18.7-32.3-14.3-51c2.2-9.2,6.6-17,11.4-24.9c3-4.9,5.5-10,7.9-15.1
			c0.1-0.1,0.3-0.2,0.3-0.5c0.5-1.1,1-2.3,1.6-3.4c0.2-0.5,0.4-0.8,0.6-1.2c0.1-0.2,0.2-0.5,0.1-0.7c1.8-5.7,2.5-11.8,4.3-17.6
			c2.5-8.1,5.5-16.2,7.1-24.6c3-15.6,3.2-32,1.1-47.8c-2.3-17.3-7.7-33.7-15.5-49.3c-4.3-8.7-9.1-17.2-13.7-25.8
			C611.1,283.3,607.1,274.6,602,266.5z M582.2,245.2c14.4,15.7,23.5,33.6,33.7,52c9.6,17.7,19.5,35.7,23.9,55.4
			c4.1,18,5.1,37,2.6,55.3c-1.4,9.9-4.5,19-7.4,28.4c-2.1,6.9-2.8,14.3-5.4,20.9c-0.8,1.7-1.6,3.4-2.4,5.1
			c-6.5,13.8-17.4,26.3-19.7,41.9c-2.3,16.7,6.2,30,12.5,44.6c12.4,28.7,9,72.3-16.9,92.8c-15.3,12.1-31.8,23.5-50.3,30.1
			c-18,6.4-35.8,7-54.5,3.7c-16.5-3-32.6-6.2-49.2-8.1c-8.9-1.1-17.4-3.9-26.2-4.8c-5.4-0.5-10,0.4-14.8,1.3c-0.2,0-0.2,0-0.3,0
			c-3.7,0.9-7.4,1.6-11.2,2.3c-34.6,6.2-70.5,21.2-105.3,6.8c-15.4-6.3-26.6-19.4-35.1-33.5c-9.2-15-16.9-31-21.3-48.1
			c-4.9-18.7-8.9-37.9-12.8-56.8c-4.1-19.4-6.8-39.3-6.6-59.2c0.1-16.9,1.7-34.3,7.7-50.2c4.8-12.8,12.4-22.8,20.8-32.6l0,0
			c2.6-2.5,4.8-5.3,7.2-7.9c0.9-1,1.8-1.9,2.7-2.9c0.1-0.1,0.1-0.2,0.2-0.3c1.8-1.9,3.6-3.7,5.6-5.2c6.2-4.9,13.2-8.5,20.5-11.8
			c13.5-6,28.9-6.7,42.2-13.2c11.8-5.9,18.9-17.5,27.4-27.2c9.5-10.8,20.3-19.8,30.9-29.6c15-13.8,28.9-28.8,44.5-41.8
			c16.8-13.9,36.6-23.1,57.4-29.7c18.3-5.7,35-14,54.4-8.1c8.9,2.6,18.5,6,26,11.6C570.1,232,576.1,238.6,582.2,245.2z"/>
		<path class="st0" d="M597.4,237.2c-15.3-18-34.1-36.6-57.3-43.7c-10.7-3.3-22.3-4.2-33.3-1.6c-18.2,4.4-36.4,11.6-52.4,21.3
			c-16.7,10.1-31.4,23.5-46.6,35.5c-15.5,12.3-30.5,25.1-43.3,40.1c-12.1,14.3-23.3,30.1-38.6,41.1c-14.6,10.3-31.8,15.6-48.6,21
			c-0.2,0-0.3,0-0.4,0.1c-0.6,0.2-1.1,0.3-1.6,0.6c-2.4,0.8-4.8,1.5-7.1,2.4c-0.2,0.1-0.3,0.1-0.5,0.3c-1.1,0.3-2.2,0.9-3.2,1.5
			c-2.8,1.6-5.4,3.8-7.9,5.7c-6.4,4.7-12.6,9.4-18.7,14.5c-11.1,9.5-21.8,20.1-29.2,32.9c-12.7,21.9-17.1,47.6-15.3,72.8
			c1.1,15.2,4.7,30,8.1,44.7c3.6,15.7,5.7,31.6,9.5,47.1c6.8,28.8,19.4,56.9,36.4,81.2c9.9,14,21.9,27.7,36.1,37.5
			c11,7.6,24.2,10.4,37.3,9.8c14-0.6,27.7-3.7,41.4-6.7c8.4-1.7,16.5-4.1,24.7-6.4c9.2-2.6,17.7-3.6,27.2-3.3
			c10.5,0.4,21.1-0.1,31.6,0.6c9.6,0.6,18.8,2.9,28.3,4.9c15.8,3.2,29,10.7,45.5,8c17.9-2.9,34.2-10.8,50.4-18.6
			c8.9-4.3,18.4-7.5,26.7-13c5.4-3.6,9.9-8.5,14.7-12.8c0.1-0.1,0.3-0.1,0.5-0.3c0.2-0.2,0.4-0.4,0.5-0.6c0.7-0.6,1.4-1.1,2.1-1.8
			c0.3-0.3,0.4-0.5,0.5-0.9c6.4-6.6,12.6-12.6,16.4-21.3c4.3-10.2,7.5-21.2,8.9-32.3c1.4-11.3,1.3-22.9-1-34.1
			c-2.6-12.8-8.2-24.3-12.3-36.7c-2.2-6.8-4-13.7-2.2-20.8c1.3-5.4,3.5-10.3,5.8-15.3c5.4-12.1,8.9-24.8,13.4-37.2
			c4.7-12.9,11.3-25.4,14.3-38.9c2.1-9.8,1.8-19.7,3-29.5c0.1-0.1,0-0.2,0.1-0.2c0-0.3,0-0.5,0-0.8c0.1-0.9,0.2-1.7,0.3-2.6
			c0-0.3,0-0.5-0.1-0.7c0.2-11-3.9-22.3-6.4-32.7c-3.8-16.5-8.7-32.9-15.8-48.3C629.2,276.9,613.4,256,597.4,237.2z M580.7,222.8
			c9.2,9.1,17.6,19,25.5,29.3c8,10.4,16.2,21,22.8,32.3c10,17.1,16.9,35.9,21.8,55.1c2,7.7,3.7,15.5,5.5,23.2
			c1.7,6.6,3.3,13.6,2.7,20.6c-1.4,11.6-0.7,23.3-4.2,34.7c-3.8,12.5-9.7,24.3-14,36.6c-4.3,12.3-8.1,24.9-13.4,36.7
			c-3.8,8.3-7.6,17.6-5.4,26.9c3.1,13,9.4,24.6,12.8,37.4c3,11.6,4.4,23.6,3.4,35.6c-1,11.7-3.6,23.5-7.9,34.3
			c-4.4,11-12,18-19.9,26.4c-4,3.4-7.7,7.3-11.8,10.6c-5.9,4.7-12.5,7.7-19.3,10.7c-11.7,5-22.9,11.2-34.7,15.9
			c-13.1,5.2-29,10.6-43.1,7.2c-11.2-2.7-21.8-6.7-33-9.1c-13.1-2.8-25.7-3.8-39.2-3.9c-12.3-0.2-24.5-1.7-36.5,1.3
			c-20.9,5.3-41.7,11.8-63.3,14c-15.2,1.6-31.7,0.7-44.4-8.8c-15.4-11.5-28.7-25.9-39-42.2c-10.2-16.1-19-33.2-25.4-51.2
			c-6.6-18.8-9.3-38.1-13.5-57.5c-7.7-35.6-17.4-70.9-6-106.7c5.5-17.3,15-32.3,28.1-45c7.4-7.1,15.2-13.7,23.5-19.8
			c3.8-2.8,7.6-5.6,11.4-8.3c3.8-2.6,8-3.7,12.3-5.2c11.9-3.8,23.7-7.4,34.9-12.7c12.7-6.1,23.4-14.2,32.9-24.6
			c10.2-11.1,19-23.5,29.4-34.4c10.5-11,22.2-20.8,34.1-30.3c16.2-12.9,32-27.6,50-37.8c16.3-9.3,35.4-18.1,54.1-20.8
			C538.6,189.6,562.3,204.7,580.7,222.8z"/>
		<path class="st0" d="M539.8,179.1c-15.8-0.3-31.5,1.8-46.5,6.8c-16.4,5.7-32,13.5-47.5,21.4c-15.3,7.8-30.3,16.4-43.3,27.8
			c-14.3,12.5-25.8,28-38.3,42.2c-12.7,14.5-25.8,29.5-40.6,41.7c-13.2,10.8-29.4,20.2-46.1,23.9c-5.7,1.2-12.3,2-18.6,3.7
			c-0.2-0.1-0.5-0.2-0.9-0.1c-3.4,0.9-6.5,2.3-9.7,4l-0.1,0.1c-8.8,4.7-16.6,11.8-24.4,17.7c-11,8.4-20.9,17.6-27.3,30.2
			c-6,11.7-10.4,25.2-12.5,38.1c-2.6,15.9-0.9,32.2-1.6,48.3c-0.8,14.7-1.6,29.2,0.2,43.8c2,15,5.6,29.6,10.5,43.8
			c10,28.9,25.9,54.6,42.6,80.1c5.9,9,11.8,18,17.8,26.9c4.9,7.1,9.4,15.4,15.3,21.8c10.2,11,23.9,14.8,38.2,17.1
			c18,2.9,37.2,5.9,55.2,1.4c18.6-4.6,36.4-11.7,55.8-12.6c19.7-0.9,39.6,2.5,59.3,3.9c18.4,1.3,37.6,3.4,55.5-1.8
			c16.9-5,31.8-13.9,46.9-22.8c12.2-7.3,25.8-12.8,37.2-21.5c0.1-0.1,0.2-0.1,0.3-0.1c18-13.2,33.6-33.4,38.1-55.6
			c4.6-22.6,2.7-44.8-4.2-66.7c-1.7-5.4-3.5-10.7-5.6-15.9c-2.6-6.7-6-14-5.7-21.4c0.5-12.8,7.4-22.5,12.6-33.7
			c10.8-23.1,16.6-47.9,19.6-73.1c3.5-19.7-4.5-39.4-8.9-58.4c-4.5-20-10.8-39.3-18.4-58.2c-4.4-10.7-9.1-21.4-14.5-31.6
			c-4.5-8.6-9-17.6-15.1-25.2c-5.9-7.4-13-13.4-19.7-19.8c-5.6-5.3-10.7-11.3-16.9-15.9C566.9,180.7,553.8,179.3,539.8,179.1z
			 M574.5,189.3c7.3,4.8,12.7,11.4,19.1,17.3c6.3,5.8,13,11.4,18.3,18.1c12.9,16.1,21.8,36.7,29.5,55.6
			c7.9,19.5,14.6,39.4,19.2,59.9c3.9,17.5,11,35.3,9.3,53.4c0,0-0.1,0.1-0.1,0.2c-0.1,1-0.3,2.1-0.3,3.2c0,0.5-0.1,1-0.2,1.4
			c0,0.2,0,0.3,0.1,0.4c-3.1,25.6-8.9,51.8-21,74.6c-4.8,9.1-10.7,18.6-11,29.2c-0.4,11,4.5,20.6,8.1,30.7c8,22.9,12.7,46.8,8.2,71
			c-4.2,22.5-17.6,42.3-35.5,56.3c-0.2,0-0.3,0.1-0.5,0.3c-9.3,7.8-20.5,12.8-31.1,18.5c-10.3,5.6-20.2,12.3-30.6,17.6
			c-12.1,6.1-24.9,11.2-38.4,12.4c-14,1.2-28.4-0.3-42.4-1.2c-26.3-1.9-52.6-6.5-78.7-0.5c-13,3-25.7,8.2-38.9,10.5
			c-13.6,2.2-27.5,0.9-41-1.1c-17.4-2.5-37.1-5.1-48-20.8c-12.2-17.5-24-35.3-35.6-53.2c-20.1-30.9-37.7-63.7-45-100.2
			c-3.8-18.7-3.7-36.7-2.8-55.7c1-19.4-1.5-39.3,3.4-58.2c4.6-17.8,11.3-35.9,25-48.6c6.5-6,13.5-11.1,20.5-16.3
			c6.5-4.8,12.4-10,19.7-13.2c8.1-3.1,18-3.9,25.9-5.8c13.4-3.1,25.9-9.9,37.1-17.6c13.3-8.9,24.5-20.8,35.2-32.5
			c11.6-12.4,22.5-25.4,33.7-38.3c12.4-14.6,26.3-27,42.9-36.8c15.6-9.3,32.3-17.5,49-24.9c15.9-6.9,32.6-12.2,50.1-13.1
			C542.6,181.1,561.1,180.4,574.5,189.3z"/>
		<path class="st0" d="M510.4,166.5c-14.9,3.8-29.3,9.6-42.4,17.6c-17.1,10.3-32.5,22.9-49.2,33.9c-7.7,5.1-16.3,9.1-23.6,14.7
			c-6.6,5-12.4,10.7-17.6,17c-11.4,13.2-20.5,28.2-32.6,40.8c-14.1,14.6-29.1,27.6-48.4,34.4c-11,3.9-22.3,6.7-33.8,9
			c-0.2-0.1-0.4-0.1-0.6,0c-3,0.7-6.2,1.3-9.3,1.8c-3.4,0.5-6.7,0.9-9.9,1.7c-0.7,0.1-1.3,0.3-2,0.3c-0.3,0-0.5,0.1-0.7,0.3
			c-3.7,1-7.2,2.5-10.5,4.9c-7.1,5.1-14.1,10.5-20.6,16.3c-13.2,11.5-26.9,24.4-35.4,40c-7.7,14-12.7,29.5-14.7,45.4
			c-2.2,17.7,0.1,34.8,2.9,52.4c3.1,19.8,6.3,40.3,13,59.3c3.1,8.9,7.4,17.3,11.9,25.6c4.4,8.3,7.5,17.1,11.5,25.6
			c9.1,18.9,21.5,36.2,32.6,53.9c10.1,16.2,19.1,32.8,32,46.9c10.5,11.6,23,24.4,37.8,30.2c13.5,5.4,28.1,6.6,42.5,5.8
			c35.4-2,69-14.6,104.2-18.4c35.6-3.7,71.3,10.4,106.2-2.3c17.9-6.6,31.7-17.5,46.8-28.8c10.5-7.9,22.1-14.6,31.7-23.6
			c0.1-0.1,0.2-0.1,0.4-0.2c8.7-9.1,17.8-17.6,24.5-28.5c5.8-9.5,10.2-19.6,13.2-30.3c6.1-21.7,7-45.6,1.6-67.6
			c-2.8-11.6-8.4-22.3-11.2-33.8c-2.7-11.1-3.1-22.4-0.4-33.5c3-12.2,9-22.9,13.9-34.5c3.6-8.5,4.8-17.1,5.2-26
			c0.1-0.1,0-0.2,0.1-0.2c0.7-11,1.9-21.7,1.2-32.7c-0.7-10.6-2.3-21-4.2-31.5c-4.2-23.3-8.1-46.9-14.5-69.8
			c-6.1-21.9-14.2-43.3-27.5-61.9c-12.8-17.8-28.6-33.4-46.3-46.1C565.3,158.1,535.8,160.1,510.4,166.5z M524.4,166.2
			c14.6-2.2,30.6-3.3,45,1.2c16.3,5.1,30.5,18.4,42.2,30.2c13.6,13.7,25.7,29.4,33.9,47c8.6,18.6,14.2,38.5,18.5,58.5
			c4.3,19.4,8,39,11.1,58.7c2.6,16.2,2.5,31.5,1.6,47.4c-0.2,0.2-0.3,0.4-0.3,0.7c-0.4,12.7-1.7,23.9-7.1,35.5
			c-4.9,10.6-10.2,20.9-12.5,32.5c-1.8,9.1-2.3,18.5-0.4,27.6c2.1,10.2,6.4,19.2,9.6,29.1c7.4,22.9,8.7,49,2.4,72.4
			c-3.2,11.8-7.4,23.3-14.1,33.8c-6.3,9.8-14,17.7-22,26c-8.2,8.6-18.6,15.2-28.4,21.9c-14.5,10-27.1,21.9-43.4,29.1
			c-16.4,7.2-33.6,9.8-51.4,8.6c-15.7-1-31.2-3.7-46.9-3.8c-32.9-0.2-64.3,11.3-96.5,16.5c-26.9,4.4-56.9,5.9-79.5-12.1
			c-16-12.8-29.8-28.1-40.5-45.6c-11-17.8-22.3-35.5-33.2-53.4c-10.5-17.2-18-35.7-27.1-53.7c-9.4-18.6-14.2-38.3-18-58.8
			c-3.5-19.1-7.9-39.4-7.1-58.9c0.8-18.1,4.9-36.6,13.3-52.7c8.8-16.9,22.6-30.7,36.9-43c7.4-6.3,15.3-13.8,23.9-18.3
			c2.1-1.1,4.4-2,6.6-2.6c0,0,0.1,0.1,0.2,0c18.9-2.7,38.2-6.3,56.2-13c19.5-7.2,34.7-19.9,49-34.8c13-13.6,22.6-29.9,35.3-43.9
			c13.7-15.1,31.8-23.5,48.2-35.2c16.7-11.8,33-24.9,51.6-33.6C495.4,173.1,509.6,168.6,524.4,166.2z"/>
		<path class="st0" d="M508.8,156.9c-35.1,10.8-68.4,30.2-97.9,51.9c-15.8,11.7-30.9,24.5-44.1,39.1c-12.6,14-23.9,29.1-37.7,42.1
			c-14.1,13.4-30.4,24.3-49.4,29.4c-6.1,1.6-12.4,2.5-18.6,3.4c-0.2-0.1-0.5-0.2-0.8,0c-1,0.3-2,0.5-3.1,0.6c-5,0.6-10,1.4-14.8,2.7
			c-0.4,0.1-0.7,0.3-0.8,0.6c-1,0.3-1.9,0.5-2.8,0.8c-7.8,2.6-15.4,5.6-22.9,9.1c-18.1,8.6-32.6,21.1-45.6,36.2
			c-10.7,12.4-16.3,26-21,41.6c-4.6,15.4-7.4,31.1-7.3,47.2c-0.1,32.2,7.9,63.9,18.5,94.2c6,17.1,12.1,34.3,19.6,50.9
			c8.2,18.3,20.7,34.2,29.5,52.2c8.4,17.2,16.8,34.7,28.7,49.9c9.6,12.4,20.9,24.1,33.2,34c11.6,9.3,24.7,18.1,39.2,21.8
			c15.9,4,33.2,4,49.4,2.9c17.3-1.1,33.8-5,50.4-10.2c18.1-5.5,36.5-11.5,55.3-12.9c32.3-2.5,65.1,14.8,96.1,0.1
			c16-7.7,29.6-19.3,42.8-31.2c12.9-11.6,23.8-25.9,37.7-36.3c1.1-0.7,2.1-1.4,3.1-2.2c0.2-0.2,0.5-0.3,0.7-0.5
			c0.1-0.1,0.1-0.1,0.2-0.2c14.9-11.5,26.1-29,33-46.1c8.7-21.4,13.5-45.5,11-68.6c-2.7-24.7-18.1-47.4-16.9-72.6
			c0.7-13.7,8-23.6,11.9-36.3c3.4-10.9,4.1-22.8,4.5-34.1l0-0.2c1.2-26.7-0.1-53.3-1.5-79.9c-0.7-12.3-0.8-24.8-3-37
			c-2-11.6-5-23-9-34.1c-14-39.9-35.8-81.1-74.1-102.3C573.4,146.7,539.8,147.4,508.8,156.9z M565.5,153.2
			c32.6,3.6,61.7,26.2,79.5,53.1c18.7,28.1,33.1,62.1,38.1,95.5c2.9,19.1,3,38.9,3.9,58.1c0.8,19.7,1.4,39.4,0.2,59.1
			c0,0.2,0,0.2,0.1,0.2c-0.4,11.5-1.1,23.7-5.7,34.2c-4.1,9.5-9.5,18.4-10.3,28.9c-2.1,23.3,9.9,43,14.6,65.1
			c5.2,24,2.1,49.4-6.1,72.3c-7,19.6-18.7,40.3-35.8,52.9c-0.8,0.6-1.7,1.2-2.5,1.8c-0.7,0.5-1.3,0.9-1.9,1.3
			c-0.3,0.1-0.4,0.4-0.5,0.6c-7.9,6.4-14.7,13.7-21.8,21.1c-8.6,9-17.8,17.3-27.4,25.1c-14.5,12-30.9,23.5-50.2,24.9
			c-16.7,1.3-32.7-3.3-49.1-5.4c-17.6-2.3-34.9-0.3-52.1,4.1c-17.8,4.5-35.1,11.3-53.1,14.9c-18.1,3.5-36.7,4.9-55.1,3.5
			c-17.3-1.4-32.2-6.3-46.6-16.2c-13.4-9.2-25.2-20.3-35.9-32.3c-13.8-15.5-23.6-33.5-32.7-52c-4.6-9.4-9-18.9-14.6-27.7
			c-5.3-8-10.8-16-14.9-24.6c-8-16.6-14.3-34.4-20.6-51.9c-11.5-32.1-21.1-66.1-20.3-100.4c0.4-17.5,3.7-34,9-50.5
			c2.8-8.7,5.8-17.4,10.9-24.9c5.1-7.7,11.5-14.7,18.1-21.1c12.1-12,25.5-20.7,41.3-27.3c6.8-2.9,13.7-5.6,21-7.5
			c5.3-1.4,10.8-1.9,16.2-3c0,0,0,0,0.1-0.1c11.1-1.7,22-3.3,32.6-7.9c19.7-8.7,36-23.2,50.5-39.5c16.1-18,30.9-36.8,49.5-52.5
			c19.3-16.2,40.4-30.1,62.5-42.3C489.6,164.7,526.7,149,565.5,153.2z"/>
		<path class="st0" d="M565,119.6c-17.3-0.1-32.1,7.7-47.6,14.4c-18.3,7.9-37.3,14.1-54.2,25c-16.4,10.6-31.2,23-45.5,36.4
			c-14.8,13.8-33.4,21.6-48.6,34.4c-13.5,11.4-23.1,26-34.8,39c-23.1,26.1-56.8,38-90.5,43.3c-0.2,0-0.4-0.1-0.6-0.1
			c-8.1,1-16.6,3.6-24.5,6c-7.3,2.3-14,6-20.3,10.1c-11.3,7.6-21.9,17.3-31.7,26.7c-10.2,9.8-20.4,20.7-27.1,33.3
			c-6.3,12-10.5,25.3-12.9,38.5c-6.1,34-1.7,70.2,5.5,103.9c8.2,37.9,24.6,73.9,41.8,108.5c8.9,18,18.5,35.7,29.3,52.6
			c9.4,14.7,19,31,32.5,42.3c13.8,11.7,29.8,20.3,43.3,32.5c9.5,8.7,19.8,16.3,31.6,20.8c0.2,0.2,0.3,0.3,0.7,0.4
			c7.6,2.1,15.5,4.7,23.4,4.9c7.7,0.3,15.5-2.1,22.8-4.5c17.1-5.6,33.4-13.3,50.3-19.3c18.7-6.6,36.9-9.7,56.8-8.8
			c17.7,0.8,35.5,0.5,53,3.8c15.2,2.9,31.3,5,46.6,1.6c16.3-3.6,28.3-12.9,39.8-24.7c6.2-6.5,11.9-13.3,17.3-20.4
			c6.3-8,14-14.5,20.9-21.9c5.3-5.9,9.2-12.6,13.9-18.9c3-4,6.8-7.3,10.4-10.8c0,0,0,0,0.1-0.1c8-7,13-17.2,17.1-26.8
			c4.6-10.5,8.7-21.4,12.3-32.3c6.3-19,9.8-41.5,4.1-61c-3.1-10.8-8.3-21.2-10.4-32.2c-2.2-11.1-2.1-22.6,0.9-33.5
			c2.6-9.3,5.9-18.2,7.3-27.8c0.7-4.7,0.9-9.6,1-14.3c0-0.2,0-0.2,0-0.3c0-9.2-1.3-18,0.1-27.2c1.3-8.4,3.4-16.8,4.9-25.2
			c3.2-17.8,4-36.1,2.7-54.2c-2-30.8-9.4-60.3-19.8-89.3c-16-44.4-39.7-97.2-85.9-117.1C589.8,122.3,577.5,119.6,565,119.6z
			 M584.9,124.5c52.9,13,80.5,68.5,97.9,115.4c11.1,30.3,19.7,61.4,21.6,93.7c1.1,18.7,0.5,37.6-3.1,56c-1.7,8.5-3.8,17-4.8,25.6
			c-0.4,3.9-0.5,7.7-0.3,11.5c-0.1,0.2-0.2,0.5-0.2,0.8c0.3,2.7,0.5,5.3,0.6,8c0.1,0.2,0,0.5,0,0.7c0,1.1,0,2.3,0.1,3.3
			c0,0.2,0,0.3,0.1,0.6c0,6.9-0.6,13.7-1.9,20.4c-2,9.4-5.7,18.3-7.5,27.9c-3.7,19,2.3,35,8.2,52.7c7.2,21.5,6.4,44.5-0.8,65.9
			c-3.4,10.1-7,20.3-11.2,30.1c-3.6,8.6-7.8,18-14,25.4c-0.8,1-1.7,2-2.7,2.9c-0.3,0.2-0.5,0.5-0.8,0.8c-4,3.9-8.5,7.5-11.8,12.2
			c-4.9,6.9-9.2,14-15.2,20c-6.1,6.2-12.8,12-18.2,18.9c-5.9,7.5-11.8,14.9-18.5,21.7c-12.6,12.9-25.9,23-44.3,25.2
			c-16.8,1.9-32.2-2.1-48.8-4.2c-16.7-2.1-34-2.2-50.8-2.6c-17.1-0.3-33,2.8-49,8.3c-16.9,5.8-33.1,13.8-50.1,19.4
			c-7.5,2.4-16.2,5.8-24.2,5.1c-5.5-0.4-10.9-1.6-16.1-3c-0.6-0.1-1-0.3-1.6-0.4c-0.6-0.2-1.4-0.4-2.1-0.6
			c-22-6.8-37-25.7-55.9-38.2c-10.9-7.3-22.4-14.4-30.8-24.8c-8.8-11-16.8-22.7-24.1-34.6C183.2,654.4,166.2,618,151,581
			c-14.8-36.1-23.1-75.6-24.3-114.6c-1-34.6,5.9-70.3,29.3-96.8c10.8-12.2,23.1-22.9,35.7-33.1c13.3-10.7,29.2-18,46-21
			c0.2,0,0.2,0.1,0.3,0c30.2-4.1,64.6-13.1,87.6-34.3c11.9-10.9,20.8-24.3,31.5-36.3c12.4-13.9,27.5-22.3,42.8-32.4
			c15-9.8,27-23.1,41.1-34.4c15-12.1,31.1-22.4,48.8-30.1c8.8-3.8,17.8-6.9,26.6-10.8c7.5-3.3,14.9-7,22.6-9.9
			C554.1,121.6,569.4,120.7,584.9,124.5z"/>
		<path class="st0" d="M595.5,101.2c-29.1-9.5-60.6-3.7-89,5.8c-36.4,12.4-65.3,36.5-89.9,65.6c-6.5,7.7-12.4,15.6-19.6,22.6
			c-6.7,6.4-13.8,12.3-20.9,18.2c-13.5,11.4-25.7,23.9-39.1,35.4c-27,23.1-58.1,45.9-94.1,51.2c-0.4,0.1-0.7,0.3-0.8,0.6
			c-16.4,3-33.7,3.8-48.6,11.5c-10.3,5.3-21.2,11.9-30.2,19.2c-8.1,6.7-13.1,15.5-18.7,24.2c-22.5,35.4-34.1,75.7-34.4,117.7
			c-0.3,36.3,7.9,71.7,16.6,106.6c2.4,9.5,3.4,19.5,5.9,28.9c2.3,8.5,6,16.3,10.3,24c9.5,17.6,16.7,36.3,26.1,54.1
			c8.7,16.5,18.4,33.4,31.2,47.1c12.5,13.4,27.3,24.3,42.4,34.6c14.5,10,28.8,21,45.3,27.7c8.8,3.6,17.9,6.5,27.1,8.7
			c3.5,0.8,7.3,1.9,11.1,2.4c0.2,0,0.3,0.2,0.6,0.1c0.8,0,1.5,0.1,2.2,0c0,0,0,0,0.2,0c14.3,0.2,28.6-4.2,41.7-9.4
			c15.8-6.2,31.8-16.7,48.8-18.8c8.9-1.1,18-1,27-1.8c9.1-0.8,18.3-0.9,27.4,0c17.5,1.6,34.6,5.9,51.7,9.7c15,3.3,28.6,3,43-2.7
			c13.9-5.6,27.6-13.6,39.7-22.6c14.5-10.7,26-24.7,36.5-39.2c10.2-14.1,18.5-31.1,32.9-41.4c6.9-5,12.3-12.3,17.2-19.2
			c6-8.5,11.1-17.4,14.5-27.4c7.3-21.3,10.2-45.2,4.7-67.4c-3.3-13.1-8.5-25.5-9.2-39c-0.6-11,0.9-21.9,3.9-32.6
			c4.8-17.4,6.4-35,5-52.9l0-0.2c0-0.2-0.1-0.2-0.1-0.4c-0.1-1.9-0.4-3.8-0.6-5.6c-0.9-13.1,1.6-26.4,3.9-39.1
			c3.1-17.1,5.6-33.8,5.1-51.3c-0.4-18.1-2.7-35.9-5.7-53.7c-5-28.4-10.5-56.8-21.8-83.5C675.9,164.8,643.4,116.8,595.5,101.2z
			 M614.3,112.6c45,26.3,74.5,77.9,88.2,127.1c4.3,15.4,7.2,31.2,10,47c3.4,19,6.4,38.2,6.8,57.5c0.4,17.5-1.6,34.3-4.7,51.5
			c-2.3,12.7-4.7,25.8-4.4,38.9c-0.1,0.2-0.1,0.4-0.1,0.7c0.1,0.7,0.1,1.3,0.2,2c0.1,2,0.4,4.1,0.6,6.4c0.6,8.2,0.7,16.5,0.2,24.6
			c-0.8,10.7-3.7,20.5-6.1,31c-4.6,20-3,38.3,3.1,57.9c7.4,23.5,7.6,47.8,0.5,71.3c-3.2,10.4-7.5,20.8-13.9,29.7
			c-5.9,8.2-11.7,17.3-20.4,22.7c-0.1,0.1-0.3,0.2-0.3,0.3c-12.5,9.7-19.9,24.1-28.9,36.8c-10.7,14.9-22.1,30-37,41
			c-12.9,9.6-27.5,18.8-42.8,24.3c-8.1,2.8-16.8,5-25.4,4.3c-8.2-0.6-16.4-3-24.5-4.8c-15.9-3.6-31.8-7.2-47.9-7.9
			c-8.1-0.4-16,0.1-24.1,0.8c-8.2,0.6-16.6,0.4-24.8,1.5c-16.2,2.5-30.9,11.5-45.9,17.5c-13.3,5.4-27.7,10.3-42.3,10.5
			c-0.2,0-0.2-0.1-0.3,0c-0.4,0.1-0.9,0-1.2,0c-0.8,0-1.5,0-2.3,0l0,0c-7.1-0.4-15.1-3.4-21.5-5.2c-9.6-3-19.2-6.4-28.1-11.3
			c-16.8-9.2-32.8-21.1-48.1-32.6c-17.1-12.8-31.6-27.1-43.3-45.1c-10.9-16.8-19.8-35-28.2-53.1c-4.3-9.4-8.5-18.8-13.5-27.9
			c-4.8-8.9-8.5-17.9-10.4-27.9c-3.7-19.1-9.2-37.9-12.7-57.1c-3.3-18.2-7.1-36.3-8-54.8c-0.8-17-0.1-34.1,2.6-51
			c5.6-34.6,19.1-67.6,40-95.7c6.6-8.9,15.5-14.4,24.6-20.3c7.9-5.1,15.9-10,25.1-12.5c15.2-4.2,31-5.2,46.2-9.3l0.1-0.1
			c3.7-0.9,7.3-1.8,11-3c32.5-11.1,60.4-32.9,85.5-55.7c13.4-12.1,26.6-24.1,40.3-36c14.8-12.7,25.9-28,39.1-42.3
			c27.7-30.3,61.7-52.4,102.2-60.9c15.7-3.4,32.3-6,48.4-3.6C590.8,101.6,603.2,106,614.3,112.6z"/>
		<path class="st0" d="M550.3,70.6c-52.8,2-100.2,31-134.1,70.2c-12.5,14.5-26.1,28.1-38.1,43c-12.8,16-25.2,32.9-39.7,47.3
			c-14.9,14.9-31.6,26.1-49.9,36.4c-16,9.1-31.3,20.2-49.1,25.8c-0.2,0.1-0.3,0.1-0.5,0.3c-4.5,1.6-9.1,3.3-13.7,4.1
			c-7.8,1.2-15.9,1.1-23.7,3.1c-14.2,3.7-27.4,12.1-38.8,21.2c-20.6,16.6-42.2,35.9-53.2,60.6c-25.4,56.4-8.3,120.5-1.5,179.1
			c2.3,20.1,8.2,39.7,13.9,59.1c5.4,18.7,9.1,38.5,17.7,56c9.2,18.7,20.6,36,32.4,53c9.8,14.3,19.4,28.7,31.9,40.9
			c23.4,22.8,53.6,37.2,85.8,41.9c16.9,2.5,34.7,3.4,51.5,0.6c18.9-3.2,37.8-5.1,56.8-7.9c0.2-0.1,0.4-0.1,0.6-0.2
			c1.5-0.2,3-0.4,4.6-0.5c9.9-0.9,19.8-0.1,29.7,0.7c9.2,0.6,18.5,1.6,27.7,1c7.8-0.4,15.7-1.7,23.5-1.6c16.1,0.3,31.3,7.1,47.1,9.5
			c14,2.2,27.2,0.8,40.3-4.5c13.2-5.3,25.6-12.8,36.6-21.8c7.1-5.8,13.8-12,20.7-18c5.5-4.8,12-9.4,16.5-15.2
			c8.9-11.4,11.9-26.1,18.7-38.7c6.4-11.7,13.7-25.5,24.7-33.6c0.7-0.5,1.3-0.9,1.9-1.3c0.3-0.1,0.6-0.4,0.9-0.7
			c0.2-0.2,0.3-0.3,0.4-0.4c13.8-10.6,24-26,30.5-42.2c3.5-8.9,6.9-18.3,7.2-27.9c0.3-8.6-1.1-16.9-2.9-25.3
			c-2.1-9.3-4.9-18.9-5.6-28.5c-1-11.7,1.6-22.4,5-33.4c5.3-16.8,7.3-33.7,5.8-51.1c0-0.2,0.1-0.4,0-0.6c0-0.3-0.1-0.7-0.1-1
			c-0.2-2.3-0.6-4.6-0.9-6.9c-1.3-11.9-1.3-24-1.3-36c-0.1-14.3,0.7-27.6,3.4-41.7c3.4-18.1,3.8-35.1,2.2-53.4
			c-1.6-19.2-1.1-38.9-4.2-57.8c-2.9-18.3-8.4-36.2-12.9-54.1c-4.4-17.6-10.1-33.9-20.8-48.5c-21.8-29.6-43.9-60-74.8-80.8
			C601,76.6,575.8,69.7,550.3,70.6z M597,80.6c32.6,12.5,57.3,39.1,77.7,66.4c12.1,16.2,26.6,31.2,33.8,50.4
			c6.8,18.1,10.9,37.5,15.4,56.2c2.3,9.2,4.3,18.4,5.3,27.7c1,9.9,0.9,19.8,1.5,29.7c1.4,19.1,4.8,38.8,2.3,57.9
			c-2.3,17.5-6.3,34-6.1,51.8c0.2,13.9-0.1,27.8,1.2,41.5l0,0.2c0,0.3,0.1,0.7,0.1,1c0.2,2.1,0.5,4.2,0.8,6.2
			c1,9.1,1.1,18.4,0.1,27.6c-1,10-4,19.2-6.9,28.6c-2.6,8.7-4.8,17.4-4.1,26.5c0.5,7.9,2,15.6,3.8,23.2c2.2,9.3,4.8,18.6,5.1,28.2
			c0.3,9.4-1.5,18.3-4.8,27.1c-6.6,18.1-17,36-32.8,47.5c-0.7,0.5-1.3,0.9-2,1.4c-0.5,0.3-0.9,0.7-1.3,0.9c-0.2,0.2-0.3,0.3-0.4,0.4
			c-8.7,7.1-15,17.4-20.4,26.9c-3.5,6.1-6.7,12.2-9.2,18.6c-2.7,6.7-5,13.9-8.7,20.2c-4.8,7.9-11.7,13.2-18.5,19.3
			c-6.6,5.8-13.2,11.7-19.9,17.4c-11.4,9.7-24.6,18.2-38.6,23.6c-16.4,6.2-31.9,6.3-49,2.2c-14.6-3.6-28.7-8.3-43.9-7.2
			c-9.4,0.7-18.5,1.7-27.9,1.3c-8.7-0.5-17.4-1.1-26.2-1.7c-8.6-0.5-17,0.1-25.3,1c-0.2-0.1-0.5-0.2-0.7-0.1
			c-14.4,2.2-29,3-43.3,5.6c-14,2.4-27.4,4.2-41.6,3.8c-26-0.9-52.2-6.7-75.1-19.5c-22-12.2-39.5-29.8-53.8-50.4
			c-17.2-24.9-37.7-50.7-47.1-79.8c-6.4-19.4-11.5-39.4-16.7-59c-2.7-10.2-5.9-20.2-7.6-30.6c-1.5-9.1-2.1-18.4-3.3-27.7
			c-4.9-38.7-13.4-77.6-8.7-116.8c2-16.9,6.1-34.3,14.1-49.3c7.9-15,19.1-26.6,31.3-38.2c14.4-13.6,29.7-26.8,48.2-34.5
			c9.8-4,19.5-4,29.8-5.6c6.7-1.1,13-3.5,19.3-5.7c0.2-0.1,0.5-0.1,0.7-0.2c0.6-0.2,1.2-0.4,1.8-0.6c0.1-0.1,0.2-0.1,0.3-0.1
			c16.4-6.3,30.7-16.9,46.1-25.1c17-9,33-20.3,46.7-33.9c13.7-13.5,24.9-29.2,37.4-44c13.2-15.8,27.2-30.7,40.6-46.3
			c9-10.4,18.1-20.3,28.7-29C486,82.1,545.2,60.6,597,80.6z"/>
		<path class="st0" d="M478.2,70.3c-17.9,8.5-34.3,18.7-50,30.8c-30.2,23.1-61.3,45.1-83.4,76.7c-20.4,29.3-36.1,64.7-66.9,84.8
			c-14.4,9.5-30.1,16-46.1,22.1c-6.8,2.6-13.6,5.1-20.5,7.2c-2.1,0.6-4.4,1.3-6.7,1.9l-0.2,0c-3.8,1.1-7.6,0.4-11.4,0.1
			c-3.8-0.3-7.4-0.1-11.3,0c-7,0.1-13.7,0.7-20.1,3.7c-14.3,6.5-26,16.5-38.2,26.1c-10.5,8.4-21.4,19.6-27.2,32
			C89.6,370,82,384,78,399.3c-0.1,0.2-0.1,0.4,0,0.6c-1.2,5.4-1.5,10.9-1.9,16.3c-0.7,8.6-1.8,17-1.9,25.6
			c-0.3,18.6-2.6,36.9-3.5,55.4c-0.9,18.7,2.1,36.3,5.6,54.6c3.6,19.1,7.8,38.1,13.2,56.7c5.4,18.7,11.8,37.1,19.9,54.9
			c8.4,18.3,18.8,35.6,29.4,52.8c10.1,16.5,20.7,32.7,32.6,47.9c6.2,7.9,12.5,15.8,20.1,22.5c6.8,6,14.1,11.6,20.9,17.7
			c26.2,23.4,60.1,37.8,93.9,45.8c16.8,4,33.2,5.2,50.3,4.2c15.4-0.8,30.6-1.9,45.4-6.4c0.2,0,0.3,0,0.4-0.1c1.7-0.5,3.4-1,5-1.8
			l0,0l0,0c3.6-1.4,7.1-3.2,10.7-4.5c7.5-2.9,15.9-4.2,24.1-4.2c18.1,0,35.9,3.4,53.9,3.2c34.5-0.5,67.8-5.2,99.4-19.9
			c28.3-13.2,56.7-32.1,69.6-61.7c7.1-16.1,11.9-33.4,22.3-47.7c7.2-9.8,15.5-18.6,22.9-28.2c0,0,0,0,0.1-0.1
			c0.2-0.2,0.3-0.4,0.4-0.5c1.9-2.5,3.8-5,5.6-7.6c0.2-0.2,0.2-0.3,0.3-0.6c6.9-10.3,12.9-21.9,16.7-33.4c2.9-8.4,5-17.6,4.5-26.7
			c-0.8-10.4-3.1-20.6-3.6-31c-0.5-11.1,1-21.7,4-32.4c1.5-5.2,3-10.1,5.3-15c1.8-3.6,3.8-7.3,4.9-11.2c2.6-10.4,1.3-21.8-0.6-32.8
			c0.1-0.2,0.1-0.4,0-0.6c-0.7-3.5-1.4-7.2-2-10.8c-0.1-0.7-0.2-1.4-0.3-2c0,0-0.1-0.1,0-0.2c-1.4-8.3-2.5-16.6-2.6-24.9
			c-0.1-12.6,1.5-25.2,2.4-37.7c2-26.6,4.2-53.1,5.8-79.6c1.1-18.6,2.7-37.5,1.7-56.2c-1-18.5-6.2-36.3-10.9-54.1
			c-9.8-37.7-23.8-73.4-45.4-106c-10.6-15.9-24.9-29-38.5-42.2c-11-10.7-22-20.3-36.3-26.6c-27.1-12.5-59.8-14.9-87.7-3.7
			C515.4,54.8,496.4,61.7,478.2,70.3z M479.4,72.5c18.3-8.4,37.1-15.7,55.9-22.9c31.2-11.9,69-8.2,97.4,9.6
			c15.3,9.6,28.1,23.5,40.6,36.4c14.2,14.6,25.7,30.6,35.3,48.6c19.1,35.7,31,74.9,39.3,114.6c3.8,18.2,2.7,36.3,2.1,54.8
			c-0.6,20.7-2.4,41.4-4,62.1c-1.6,20.7-3.3,41.5-4.7,62.1c-1,13.8,0,27.1,2,40.5c0,0.2-0.1,0.4,0,0.6c2.5,15.9,8,35.3,0.9,50.7
			c-7.6,16.1-13.1,33.3-12.3,51.4c0.4,10,2.3,19.8,3.4,29.6c1.2,10-0.6,20.1-4,29.6c-4.9,14-12.7,28.3-21.6,40.3
			c-7.7,10-16.6,19.1-23.9,29.5c-9.1,13-14.1,27.6-20,42.1c-6.6,15.9-15.2,28.9-28.6,40c-14.2,11.6-29.9,21.1-46.7,28.4
			c-33.1,14.2-69.5,19.6-105.6,17.4c-16.1-1-32.8-4.3-49.1-2.6c-6.4,0.6-12.5,1.7-18.4,4.1c-3.5,1.4-7,3.1-10.6,4.5l-0.2,0
			c-15.9,5.9-32.7,7-49.5,8c-14.8,0.9-29,0.4-43.5-2.7c-28.1-6.1-57.4-16.5-81.4-32.7c-8.2-5.5-15.4-12-23-18.4
			c-7.5-6.2-15.3-12.2-22.1-19.4c-14-14.8-25.9-32.1-36.8-49.2c-22.3-34.8-42.1-70.1-54.5-109.7c-6-19.3-10.9-39-14.8-58.8
			c-3.9-19.4-8.3-39.2-7.6-59c0.6-18.4,3.4-36.8,3.6-55.1c0.2-9.5,1-18.7,1.8-28.3c0.7-8.1,0.8-16.3,3.8-23.9c0.1-0.2,0.1-0.4,0-0.6
			c4-12.1,10-23.6,15.3-35.1c6.5-13.8,17.8-24.5,29.2-34.3c11.1-9.5,23.9-20.1,37.8-25.1c7.6-2.7,16.6-3.3,24.6-2.8
			c1.3,0.1,2.5,0.2,3.9,0.4c0.2,0.2,0.3,0.2,0.6,0.3c11.2,2.5,25.1-4.4,35.3-8.4c17.3-6.5,34.7-13.3,50.2-23.6
			c28.9-19.6,44.3-50.6,63.2-78.9c10.8-16.2,23.3-31,37.8-44c14.6-13,30.4-24.5,46-36.3C443,93,460.1,81.6,479.4,72.5z"/>
		<path class="st0" d="M495.8,42.3c-16.4,8-34.3,14.4-49.3,24.9c-15,10.3-23.9,25.7-36.4,38.4c-13.3,13.6-29.7,23.1-43.9,35.5
			c-28.2,24.5-50.4,54.5-73.7,83.5c-12.2,15.3-27.5,28-45.9,35c-14.5,5.6-29.9,8.2-45.4,9.8c-0.2,0-0.2-0.1-0.5,0
			c-2.8,0.2-5.6,0.4-8.4,0.8c-0.6,0.1-1,0.1-1.5,0.2c-0.2,0.1-0.4,0.1-0.6,0.2c-14.6,2.2-28.6,7.3-42.1,13.4
			c-8.6,3.9-17.7,7.8-25.7,13c-7.5,4.8-13.9,10.9-19.6,17.8c-11.7,13.8-24.8,28.4-32.3,45c-5.8,12.9-9.9,27.4-12.9,41.6
			c-2.2,8.6-3,17.8-4.8,26.5c-2.2,11.4-4.9,22.9-6.6,34.4c-3.3,23.2-2.5,46.6,0.8,69.7c3.4,24.1,8.9,47.8,16.6,71
			c7.5,22.8,17.2,44.9,26.2,67.3c7.6,19,16.1,36.9,27.5,54.1c11.4,17.1,22.2,34.7,33.7,51.9c10.5,15.8,22.6,31.1,36,44.6
			c11.9,12,25.7,22.1,39.7,31.4c12.9,8.7,26.8,16.5,42.1,19.8c16.8,3.6,34.7,3.3,51.7,2c9.9-0.8,19.9-1.9,29.7-3.8
			c9.5-1.8,18.7-4.2,28.4-4.8c8.7-0.4,17.6-0.9,26.4-0.7c6.5,0.3,13.1,0.8,19.7,0.7c0.2,0,0.2,0,0.2-0.1c14.3-0.1,28.5-4.1,42.9-4.7
			c17.7-0.7,35.3-0.6,53.1-2.4c35.5-3.5,72.4-9,103.6-27.3c13.8-8.1,29.4-17.8,39.7-30.3c9.7-11.6,13.9-26.7,20.2-40.1
			c3.5-7.5,5.5-15.4,8.5-23.2c3.3-8.5,8.8-16,14.2-23.4c5.4-7.7,10.8-16,17.2-22.8c3.5-3.6,7.2-7,10.4-10.8c0.1-0.1,0.1-0.1,0.2-0.2
			c0.3-0.3,0.5-0.6,0.7-0.9l0,0c7.4-9.3,11-21.3,13-32.9c2.6-14.4,3.5-29.2,2-43.7c-1.1-10.4-1.4-20.7,4.4-29.8
			c4.2-6.6,7.5-12.7,9.5-20.4c2.8-11.1,4.9-23.6,5-35.3c0.1-0.1,0-0.2,0.1-0.2c0-0.5,0-0.9-0.1-1.3c0-1.2,0-2.5,0-3.8
			c0-0.2-0.1-0.4-0.1-0.5c-1.1-14.4-5.8-28.2-8-42.4c-2.7-17-4-34.3-3.6-51.5c0.9-34.7,6.4-69.1,9.1-103.7
			c1.5-18.9,1.3-36.8-1.8-55.5c-3.2-18.6-4.5-37.5-8.4-55.8c-3.9-18.7-12.1-35.6-20.6-52.6c-8.9-17.7-19.6-33.7-31.1-49.7
			c-10-13.8-17.5-30.1-30.2-41.7c-11.5-10.4-25.3-17.1-38.7-24.6c-13.1-7.4-26.3-14.8-41.4-17.7c-16.4-3.1-33.9,0.2-49.5,5.2
			C528.1,26.6,512,34.4,495.8,42.3z M495,45.5c32-15.6,71.2-36.8,107.8-24.9c15.5,5.1,29.9,14,44.1,22c13.7,7.7,26.8,16.2,36.2,29.2
			c5.6,7.7,10.2,16.2,15.6,24.1c5.9,8.4,12.1,16.5,17.8,25.1c11.3,17.1,20,35.5,28.6,54.1c8.3,18.1,10.5,37.1,13,56.6
			c2.5,19.5,7.9,38.8,7.4,58.6c-0.8,38.6-8,76.7-9.9,115.2c-0.9,18.3-0.5,36.7,1.8,55c2.3,17.6,8.6,35,9.4,52.7
			c0.3,13.9-2,29.8-6.1,42.8c-2.5,7.6-7.3,13.5-10.7,20.6c-3.1,6.2-3,13.6-2.6,20.4c0.7,14.1,1.7,27.7-0.2,41.8
			c-1.8,12.5-4.5,26.4-12,37c-0.2,0.2-0.3,0.1-0.4,0.4c-4.1,6.2-10.5,10.4-14.9,16.3c-5,6.7-10.3,13.4-15.1,20.2
			c-4.5,6.3-9.7,12.9-12.8,20c-3.3,7.4-4.9,15.5-8.2,22.9c-3.6,8-7.3,15.8-10.5,23.9c-2.7,6.6-5.7,13.1-10.2,18.6
			c-10.8,13.1-27.1,23.6-41.8,31.8c-31.6,17.4-67.8,22.9-103.3,26.2c-18.3,1.7-36.6,1.3-55,2.4c-14.5,0.9-28.8,5.3-43.5,4.2
			c-0.3,0-0.7,0.1-0.8,0.3c-14.8,0-29.7-1.3-44.6,0.2c-10.6,1.1-20.7,4-31.2,5.7s-21.1,2.7-31.7,3c-20.4,0.6-40.9,0.1-59.8-8.6
			c-16.5-7.6-30.9-18.6-45.5-29.5c-33.7-25.1-53.4-62.6-76.6-96.6c-11.4-16.7-22.8-33.5-30.6-52.2s-15.5-37.5-22.9-56.4
			c-14.4-36.9-25-76.1-28-115.7c-1.6-20.9-0.6-41.5,3.4-62.2c2-9.9,4.1-19.9,5.8-29.8c0.6-3.8,1.1-7.6,1.7-11.4l0.1-0.1
			c0.6-3.1,1.3-6.3,2.1-9.4c0.3-1,0.5-2.2,1-3.2c0.1-0.2,0.1-0.4,0-0.6c0.9-3.8,2-7.5,3.1-11.3c2.3-8.9,4.7-17.8,9-25.9
			c8.4-16,20.5-30.4,32.3-44c11.9-13.6,27.1-21.4,43.4-28.8c13.8-6.3,28.1-11.4,43-13.5c26.2-2,53.5-6.1,75.5-21.4
			c22.8-15.7,38-40.1,55.3-61.3c12.4-15,25.2-29.6,39.6-42.7c14.1-12.7,30.8-22.4,44.5-35.5c13-12.5,22.4-29.6,37.2-40.3
			C459.8,60.6,478.1,53.8,495,45.5z"/>
		<path class="st0" d="M457.2,34.4c-32.5,19.8-62.2,43.3-86.9,72.3c-11.5,13.6-21.9,27.9-32.6,42.3c-11.9,16.1-25.9,30.4-41.2,43.1
			c-14.9,12.3-30.6,25.3-49,32c-15.3,5.6-31.5,7.8-47.4,11.1c-0.4,0.1-0.8,0.1-1.1,0.3c-1.1,0.3-2.2,0.5-3.3,0.6
			c-0.2,0-0.3,0.1-0.4,0.2c-42.7,10.6-81,35.7-113.1,65.1C49.8,331.2,22.2,365,9.7,408c-17.8,61.2-8.1,125.3,5.4,186.4
			C32,671.1,52,752.1,102.7,814.3c37,45.5,89.8,77.9,147.8,87.1c14.8,2.4,29.9,3.4,44.7,2.8c15.7-0.6,30.7-4,46.3-5.9
			c18.7-2.2,37.5-1.6,56.2-0.5c9.4,0.6,19,1.6,28.4,1.3c2.2-0.1,4.3-0.3,6.4-0.7c0.2,0.1,0.4,0.1,0.8,0c0.7-0.2,1.3-0.4,2.1-0.6
			c4.1-0.9,8.1-2.1,12.1-3.3c0.2-0.1,0.4-0.2,0.5-0.3c6.1-1.8,12.2-3.6,18.3-5c19.4-4.4,39.1-9.6,58.8-12.5
			c18.9-2.8,38.3-4,56.5-9.5c18.4-5.7,33.5-16.2,49.7-26.2c7.9-4.9,16.1-9.3,23.5-15.1c7.2-5.7,13-12.4,19.1-19.3
			c11.5-12.5,24.1-24.3,28.5-41.4c2.1-8.1,3.2-16.6,6.4-24.3c3.2-7.9,6.4-15.8,10-23.6c3.9-8.3,8.3-17.1,15-23.7
			c1.8-1.8,3.5-3.5,5.3-5.1c1-0.9,2-1.9,3-2.8c0.9-0.8,1.9-1.8,2.8-2.7l0.1-0.1c7.7-7.4,14.9-15.1,18.8-25.3
			c5.1-13,4.1-25.9,2.2-39.4c-1.2-8.8-2.4-17.9-1.3-26.7c1.2-9.7,5.9-16.3,10.3-24.8c3.2-6.2,5.7-13,6.9-20
			c1.3-7.5,0.5-14.6,0.9-22.1c0-0.3-0.1-0.6-0.2-0.7c-0.5-19-3.5-38-6-56.8c-3.2-23-5.5-45.4-2.8-68.6c2.5-22.3,7.7-44.4,9.2-66.8
			c1.7-24.8,0.6-50.4-0.9-75.3c-3.8-70.8-31.2-141-82-191.8C660.7,25.2,608-3.4,550.9,0.3C517.2,2.5,485.6,17.1,457.2,34.4z
			 M494.5,17.7C523.7,5,554.7-0.8,586.4,4.5c59.3,10,112.5,52.2,145,101.9c21.3,32.5,37.5,71.2,44.1,109.6
			c3.4,19.5,4.7,39.2,5.2,58.9c0.5,19,1.6,38.2,0.1,57c-2.7,34-13.2,67.7-10.5,102c2.7,32.9,10.8,65.4,10.1,98.5
			c0,0.2,0.1,0.4,0.1,0.6c0.1,5.2,0.1,10.4-1.2,15.6c-1.9,7.8-4.9,15.1-9.1,22c-7.6,12.6-9,25.5-7.4,40.1c1.7,15,5.2,30.2-0.5,44.8
			c-5.2,13.5-15.3,22.6-25.7,32.4c-0.2,0.2-0.3,0.2-0.3,0.4c-8.8,9-15.5,18.6-20.7,30.5c-3.7,8.2-7.8,16.7-10.5,25.3
			c-2.2,7.4-3.4,15.1-5.6,22.5c-3.1,10.4-9.1,18.5-16.2,26.5c-6.3,6.9-12.3,14-18.7,20.7c-13.5,14.4-31.6,23.6-48.1,34.1
			c-17.2,11-35,18.1-55.1,21.5c-18.9,3.2-38.3,4.2-56.8,9c-15.6,4.1-31.5,6.5-47.1,10.9c-6.2,1.7-12.2,3.4-18.3,5.1
			c-7.6,1.8-15.2,2.6-23.5,2.1c-10.3-0.6-20.4-1.3-30.7-1.8c-20-0.8-39.3,0.3-58.9,3.7c-34.2,6-69.6,4.2-102.8-5.7
			c-64.5-19.3-115.3-65-147.6-123.7c-19.8-36.2-33.4-75.3-43.8-115.1c-9.7-36.7-18.7-74-24.3-111.6C-1.7,480.1-0.3,412.8,35,358.6
			c19.2-29.5,46.4-55.3,74.3-76.2c27.5-20.6,58.4-37.4,92.1-44.5c0.4-0.1,0.7-0.2,1.1-0.2c2-0.5,4.2-0.8,6.2-1.1
			c0.2,0,0.2-0.1,0.2-0.1c15.5-3,31.2-5.6,45.4-12.1c19.8-9.1,37.9-24.2,53.9-39c32.6-30.1,53.8-70,86-100.6
			C423.2,57.2,458.1,33.7,494.5,17.7z"/>
	</g>
</g>
</svg>
