<?xml version="1.0" encoding="utf-8"?>
<!-- Generator: Adobe Illustrator 23.0.1, SVG Export Plug-In . SVG Version: 6.00 Build 0)  -->
<svg version="1.1" id="Layer_9" xmlns="http://www.w3.org/2000/svg" xmlns:xlink="http://www.w3.org/1999/xlink" x="0px" y="0px"
	 width="835.3px" height="958.8px" viewBox="0 0 835.3 958.8" style="enable-background:new 0 0 835.3 958.8;" xml:space="preserve"
	>
<style type="text/css">
	.st0{fill:#F4F4F4;}
</style>
<g>
	<g>
		<path class="st0" d="M404.8,480c1-9.3-14.3-11-19.6-4.1c-3.3,4.4-1.2,10.4,4.3,11.7c4.8,1.2,10.8-0.1,13.8-4.1
			c0.4-0.1,0.7-0.4,0.9-0.8c0.3-0.6,0.4-1.2,0.5-1.7c0-0.1,0.1-0.1,0.1-0.3C404.9,480.5,404.9,480.3,404.8,480z M402,480.3
			c-1.8,4.5-7.9,6.3-12.3,4.6c-4-1.5-4.4-6.1-1-8.6C393.2,473.2,403.1,473.7,402,480.3z"/>
		<path class="st0" d="M408,491.8c4.1-4,6.2-10.4,4.4-16c-1.6-5.1-5.4-7.1-10.5-8.2c-4.2-0.8-7.6-1.1-11.4-3.2
			c-2.5-1.4-4.7-2.2-7.7-2.2c-9.7,0-10.5,17.5-6.4,23.2c5.2,7.4,14.5,11.4,23.3,10c0.1,0.1,0.4,0,0.5,0c2.3-0.3,4.4-1.1,6.2-2.3
			c0.3-0.2,0.7-0.4,1-0.6C407.7,492.3,407.9,492,408,491.8z M405.2,490.6c-8,4.3-19.9,2.6-25.5-5.3c-3.4-5-3.3-10-1.5-15.6
			c2.5-8,9.6-3.7,14-1.4c5.6,3,16.7-0.2,17.7,8.9C410.4,482.4,409,487.7,405.2,490.6z"/>
		<path class="st0" d="M413.4,494c6.9-11.2,8.1-26-6.8-30.3c-4-1.1-8.9-2-11.8-5.3c-2.6-2.9-5.2-5.6-8.7-7.5
			c-5.8-3.2-12.4-1.5-16.9,2.8c-12.6,11.9,0.7,33.1,10.6,41.8c6,5.3,13.2,8.9,21.5,7C405.8,501.5,411.3,498.6,413.4,494z
			 M411.7,491.8c-0.2,0.2-0.3,0.3-0.4,0.6c-0.1,0.1-0.2,0.3-0.2,0.4c-0.6,0.7-1,1.6-1.6,2.3c-0.1,0.1-0.1,0.3-0.2,0.4
			c-4.4,4.5-13.2,5.7-18.4,4c-6-2-11-6.7-14.8-11.7c-3.9-5-7.8-11-8.6-17.4c-1-7.4,2-19.5,12-18.4c7.8,0.9,9.7,6.6,15.6,10.1
			c2.9,1.7,6.1,2.8,9.4,3.7c4.5,1.4,10.1,3,11,8.4C416.7,480.9,414.9,486.5,411.7,491.8z"/>
		<path class="st0" d="M417.1,499.3c4.6-9,10.2-21.1,6.6-31c-3-8.2-10.9-10.9-18.5-13.6c-2.8-1-6.2-1.9-8.5-3.9
			c-2.6-2.3-4.6-5.1-7.1-7.4c-3.3-3.3-7.2-5.5-11.7-6.8c-8.2-2.4-16.7,2.5-19.5,10.3c-6.6,18.6,2.6,42.5,16.6,55.4
			c6.4,5.9,19.9,11.5,28.7,9.2c5.3-1.4,9.5-5.5,12.4-10.3c0.1-0.1,0.3-0.3,0.4-0.5c0.2-0.4,0.3-0.7,0.5-1.1
			C417,499.6,417,499.5,417.1,499.3z M417.3,492.6c-0.2,0.2-0.4,0.3-0.5,0.6c-0.4,1.1-0.8,2-1.3,3.1c-0.3,0.7-0.6,1.2-0.9,1.9
			c-3.6,6.4-9.4,11.7-17.2,10.6c-10.2-1.6-19.4-5.5-25.8-14c-9-12.1-17.3-32.1-10.7-47c5.5-12.5,19.9-10.3,27.8-1.3
			c4.8,5.4,8.8,8.4,15.6,10.8c6.8,2.4,15.9,5.2,17.2,13.5C422.7,478.1,420.4,485.7,417.3,492.6z"/>
		<path class="st0" d="M429.3,486c1.7-5.1,4-11.7,2.1-17.1c-4.1-11.4-15.6-16.5-25.9-21.3c-11.6-5.4-16.6-18.7-29.6-21.6
			c-9.1-2-20.1,3-23.4,11.9c-4.4,12.3-3.1,28.6,0.3,41c2.9,10.7,10.8,21.4,19.2,28.5c7.5,6.4,20,13.8,30.4,12.6
			c7.3-0.8,12.7-5.4,16.6-11.2c0.4-0.1,0.7-0.4,0.8-0.8c0.4-1,0.8-1.9,1.2-2.9c0.5-1,0.9-2.1,1.4-3.2
			C425,496.9,427.3,491.5,429.3,486z M428.6,479.1c-1.8,7.1-4.8,14-7.8,20.7c-0.1,0.1-0.2,0.3-0.3,0.4c-0.3,0.6-0.4,1.1-0.6,1.6
			c-0.2,0.7-0.6,1.2-0.8,1.9c-4.9,10.4-13.9,15.9-26.1,12c-10.5-3.4-18.8-9.2-25.7-17.8c-6.6-8.2-11-15.6-12.7-26
			c-1.6-9.7-4.3-25.9,1.6-34.9c8.5-13,24.4-9.8,33.3,0.7c5,6,9.9,10.1,17.3,13.1C417.9,455.8,432.4,464.7,428.6,479.1z"/>
		<path class="st0" d="M429.9,501.3c1.1-8.2,7.8-14.5,8.1-22.7c0.3-6.3-1-11.8-4.4-17c-8-12.3-23.6-17.2-33.4-27.9
			c-4.8-5.2-7.9-12.4-14.1-16.3c-5.2-3.3-11.6-5.5-17.9-5.8c-11.5-0.4-22.6,5.5-25.1,17.6c-3.2,15.5-4.1,33.9,1.6,49.1
			c3.2,8.5,8.6,15.1,13.6,22.5c4.6,6.8,9,13.6,15.3,18.9c8.7,7.4,23.5,14.6,35.1,10.3c12.3-4.6,19.3-15.7,21.1-28.2
			C429.8,501.5,429.9,501.4,429.9,501.3z M432,488.2c-1.8,3.6-3.6,7.2-4.5,11.3c-0.1,0.1-0.2,0.4-0.2,0.7
			c-1.5,13.8-12.2,30-28.2,28.1c-14.7-1.8-26.5-11.3-34.5-23c-7.9-11.7-17-22.4-19.5-36.6c-1.3-7.7-1.7-15.4-1.3-23.1
			c0.5-7.1,0.5-15.9,4.5-22c7.4-11.2,24.2-12,34.9-5c5.5,3.6,8.1,8.8,12.1,13.6c3.8,4.5,8.1,8.3,13,11.7c8.8,6.2,21.1,12.6,25.2,23
			C436.5,474.3,435.5,481.3,432,488.2z"/>
		<path class="st0" d="M439.3,496c6.3-15.8,11.9-31.1-2.8-44c-7.5-6.6-15.9-12.1-22.9-19.2c-6.5-6.5-11.8-14.2-18.4-20.6
			c-10.7-10.5-24.6-16.5-39.7-12.4c-6.6,1.8-13.5,5.2-16.9,11.5c-3.7,6.9-5.5,14.8-6.8,22.5c-3.3,17.6,1.7,37.2,8.7,53.4
			c3.7,8.4,6.2,17.8,11.6,25.3c4.6,6.4,10.5,12.4,17,16.8c12.8,8.8,28.5,15.2,43.7,9.9c6.8-2.3,12.6-7.6,17-13.1
			c4.9-6.1,5.8-11.8,6.3-19.1C436.9,503.1,437.8,499.6,439.3,496z M434.1,504.6c-0.2,0.2-0.4,0.5-0.4,0.8c0,0.5,0,1-0.1,1.6
			c-0.2,1.3-0.4,2.6-0.4,3.8c0,0.4,0.1,0.6,0.3,0.8c-0.2,2.1-0.5,4.2-1.3,5.9c-2.1,4.4-5.1,7.9-8.7,11.3c-6,5.8-13.9,9.8-22.4,9.6
			c-15.4-0.5-31.2-10-41.3-21.2c-5.7-6.2-9.4-13.1-12.4-20.8c-3-7.7-7.3-15.4-9.2-23.5c-4-16.9-5.6-32.3-1.2-49.3
			c2.2-8.2,5.3-16.1,13.9-19.5c7.6-3.1,16.8-4.3,24.7-1.6c15.6,5.3,23.4,19.1,34.4,30.2c5.2,5.2,10.7,10.2,16.5,14.8
			c5.8,4.5,13.1,8.7,15.9,15.9C447.5,477.5,437.2,490.9,434.1,504.6z"/>
		<path class="st0" d="M442.4,514.4c-0.1-15.9,14.7-27.3,16.8-42.6c0.8-6.4-0.7-12.9-5.3-17.6c-3.5-3.7-7.7-6.3-11.9-9
			c-5.2-3.3-9.8-7.6-14.3-11.9c-11.6-11.8-20.1-27.4-33.8-37.1c-10.8-7.6-26.8-12.7-40.1-9.7c-13.4,2.9-22.7,15-25.6,27.9
			c-3.5,15.5-3.7,32.9-2.1,48.7c1.6,16.4,5.9,32.9,15.6,46.4c9.4,12.9,21.5,25.8,35.4,33.8c12.3,7.1,27.3,11,40.8,4.2
			c7.7-3.9,12.9-9.8,17.6-16.8c1.8-2.7,4.2-5.4,5.4-8.4c1-2.4,1.1-4.7,1.2-7.1C442.4,514.8,442.5,514.7,442.4,514.4z M453.8,479.9
			c-4.1,9.1-11.2,18.2-13.5,28.3c-0.1,0.1-0.2,0.3-0.3,0.6c-1.1,5.4,0.3,10.5-3.2,15.4c-3.3,4.4-5.9,9.5-9.7,13.5
			c-15.2,15.8-37.1,11.9-53.5,0.2c-14.3-10.3-28.6-24.7-36-40.8c-8-17.4-9.9-36.6-9.3-55.5c0.6-17.4,1.1-39.4,18.4-49.2
			c15.1-8.6,38.2-1.3,50.2,9.8c13.2,12.3,22.6,27.9,36.2,39.9c6.7,5.9,17.2,9.5,21.5,17.8C458.1,466.4,456.9,473.3,453.8,479.9z"/>
		<path class="st0" d="M464.4,491.3c4.1-8.5,7.1-18.1,4.6-27.4c-2.2-8.3-6.6-14.8-13.7-20c-9.5-7-18.4-15-27.1-22.9
			c-13.2-12.4-20.2-29.3-36.5-38.5c-15-8.7-30.8-10.6-47.2-3.9c-6.5,2.7-14.3,5.8-17.5,12.6c-3.2,6.5-4.3,14-4.9,21
			c-1.7,19.1-5.3,39.1-2.5,58.3c1.5,9.7,5.7,18.6,8.8,27.9c2.5,7.5,4.9,15.6,9.2,22.3c8.5,13,24,24.6,38,31.1
			c16.3,7.6,35.5,10.7,52.1,1.7c6.6-3.5,12.8-8.4,16.5-14.9c2.2-4,2.9-8.2,4-12.4c0.2-0.2,0.5-0.4,0.6-0.7c0.4-1.6,0.9-3.3,1.4-4.9
			c0.1-0.3,0.2-0.4,0.3-0.7c0.1-0.3,0.1-0.5,0.1-0.8c1.4-4.5,2.9-9.1,5.2-13.3C458.6,500.9,462,496.3,464.4,491.3z M456.2,499.9
			c-3.6,6.2-6.2,12.8-8.3,19.6c-2.7,6.3-2.4,13.3-6.9,19.2c-13.8,19-39.8,21.3-60.2,12.3c-17.4-7.6-37.1-21.5-44.7-39.4
			c-7.7-18.3-14.9-37.9-14.3-58c0.3-10.7,1.1-21.2,2.3-31.9c0.9-9.4,0.4-21.1,5.3-29.3c5.2-8.8,17.7-13,27.2-14.8
			c11-2,22,0.3,31.7,5.8c9.1,5.2,16.5,11.9,22.7,20.4c5.2,7.4,10,14.2,16.9,20.3c7.2,6.4,14.3,13,21.9,19
			c8.2,6.3,15.7,12.7,16.9,23.8C468.3,479.5,462.3,489.4,456.2,499.9z"/>
		<path class="st0" d="M477.6,487.2c5.9-14.4,3.1-27.1-6.6-39.4c-10.6-13.6-25.9-22.2-37.4-35c-10.8-12.1-17.5-26.8-31.5-35.9
			c-12.8-8.3-31.3-13.2-46.6-11c-15.5,2.3-28.9,12-36.1,25.8c-4.2,8.1-4.3,17.2-4.9,26c-0.3,4.8-1,9.5-1.2,14.3
			c-0.2,4.9,0.7,9.4,0.7,14.2c0.2,10.8-2,21.3-1.4,32.1c0.5,8,3.2,16.1,6.2,23.4c6.6,16.2,15.3,31.7,29,43.1
			c13.3,11.1,31.2,20.2,48.3,23.7c23.8,4.9,54.3-9.5,60-34.2c0.1-0.1,0.2-0.4,0.2-0.7c0-0.1,0-0.4,0-0.5c0.3-1.6,0.4-3.1,0.6-4.7
			C459.8,513.5,471.9,501.2,477.6,487.2z M473.2,490.1c-6.1,11.9-15.6,23.2-18.7,36.3c-0.2,0.2-0.3,0.4-0.3,0.8c0,0.4-0.1,0.6,0,1
			c-0.2,1.3-0.4,2.7-0.5,4.1c-2.9,14.7-15.7,26.1-29.3,31.4c-18,7-34.6,1.2-51.4-6.4c-18.7-8.4-33.9-21.6-43.6-39.7
			c-5.2-9.6-9.8-19.6-12.4-30.1c-2.6-10.6-1.3-20.4-0.6-31.2c0.7-10.5-0.9-20.8,0.2-31.3c1.1-10,0.2-21,4.5-30.4
			c8.8-19.4,29.3-29,50-25.7c21.1,3.3,38,12.9,49.7,31.1c9.7,15.1,23,25.7,36.6,37.1c7.3,6.1,14.2,13.8,17.9,22.6
			C479.9,470.4,478.4,480.1,473.2,490.1z"/>
		<path class="st0" d="M490.7,475.3c2-20-12.3-36.8-27.4-48.1c-4.6-3.5-9.6-6.1-14.1-9.7c-4.8-3.8-7.9-8.6-11.6-13.4
			c-7.2-9.5-14.9-18.4-22.8-27.3c-13.4-15.3-28.7-25.1-49.9-23.3c-17.5,1.6-31.3,7.3-43.1,20.6c-11.2,12.6-16.9,25.1-16.3,42.3
			c0.4,9.7,1.5,19.4,1.5,29.2c0,10.4-0.6,20.9-0.2,31.3c0.4,9.2,0.7,19.1,3.7,28c2.5,7.4,8.1,14.9,12.2,21.6
			c8.6,13.9,20,26.2,33.6,35.4c7,4.6,14.3,8.6,22.1,11.9c8.7,3.6,16.7,4.7,26,5.4c7.8,0.7,16.2,3.3,23.9,0.5
			c7.1-2.5,13.4-7.6,18.7-12.9c5.6-5.7,11.1-12,14.3-19.2c1.3-3.1,2.6-6.3,3.1-9.7c0.2-1.5,0.2-3,0.4-4.6c0-0.1,0.1-0.3,0-0.4
			C465.8,510.7,488.5,496.9,490.7,475.3z M483.4,488.7c-6.4,11.8-16.5,23.1-20,36.2l-0.1,0.1c-1.7,5.1-0.5,10.7-2.3,15.9
			c-2.1,6.5-5.6,12.4-10.1,17.7c-9.3,10.8-21.2,21.7-36.6,19c-7.4-1.4-14.9-1-22.1-2.4c-7.6-1.4-15.2-4.8-22.1-8.4
			c-11.4-6-21.9-13.5-30.7-22.9c-7-7.5-12.6-15.8-17.7-24.6c-4.9-8.4-9.8-16-10.8-26c-2.1-21.3,0-42.6-1.7-63.9
			c-0.8-9.8-2.2-20.3,0.3-29.9c2.3-8.9,7.9-16.9,14.1-23.5c13.8-14.9,32.1-22.4,52.7-19.7c22,2.8,35.3,20.2,48.4,36.1
			c6.4,7.8,11.9,17.8,19.5,24.5c6,5.3,13.1,8.9,19.3,13.9C481.1,445,495.6,466.3,483.4,488.7z"/>
		<path class="st0" d="M504.5,469.3c-0.3-11.2-8.1-23.2-15.1-31.5c-7.7-9-16.8-16.8-27.1-22.9c-7-4.1-14.3-8.7-19.5-15
			c-4.6-5.6-7.5-12-11.5-18c-6.5-9.9-16.9-19.2-26.4-26.2c-9.5-7-21.4-13.7-33.4-14.7c-12.5-1-24.9,2.7-35.8,8.4
			c-13.4,7.1-24.7,16-30.4,30.4c-3,7.7-4.9,15.7-6,23.9c-1.3,9.1-3,18.7-1.6,27.7c3.1,20.1-0.1,41,4.7,60.9
			c2.4,10,2.9,20.7,6.2,30.4c2.2,6.2,7.5,11.2,12.1,15.7c23.5,23.6,50.7,48.5,86.2,49.8c15.6,0.6,31.4-2.7,43.3-13.4
			c5.4-4.9,11.5-10.9,14.5-17.7c1.8-4.2,3.1-8.6,4-13c0,0,0,0,0-0.1c0.1-0.1,0.1-0.3,0.1-0.5c0.8-3.8,1.6-7.5,2.4-11.2
			c0-0.1,0-0.1-0.1-0.2c0.9-3.2,2.1-6.3,4.1-9.2c4.2-6.4,9.1-12,13.7-18C497.6,494.7,504.8,482.9,504.5,469.3z M492.6,496.2
			c-6.1,8.6-13.6,16.2-19.2,25.3c-2,3.2-3.3,6.4-4.2,9.7c-0.1,0.1-0.1,0.1-0.2,0.3c-0.1,0.3-0.1,0.5-0.2,0.8c-1,3.4-1.6,7-2.3,10.9
			c-0.1,0.3,0,0.5,0,0.7c-1.1,5.7-2.8,11.3-6,15.7c-5.7,7.9-13,15.7-21.8,20.1c-17.4,8.6-39.6,7.6-57.3,0.4
			c-18-7.4-34.6-18.9-48.3-32.7c-6-6.1-13.1-12.3-18.2-19.3c-6.2-8.5-6.2-19.3-8.2-29.1c-2.4-11.4-4-22.4-4.1-34
			c-0.1-9,0.5-18.4-1.1-27.2c-3.2-18.6-0.9-41.3,7.1-58.7c8.1-17.5,26.8-29.4,45.3-33.9c20.9-5,40.3,4.2,55.6,17.9
			c7.2,6.4,15.4,13.6,20.4,21.9c4.2,6.9,7.6,14.5,13.7,20c13.3,12.3,30.2,19.1,42.2,33.2c6.3,7.3,13.4,17.2,15.1,26.9
			C503.2,476.3,498.9,487,492.6,496.2z"/>
		<path class="st0" d="M447.8,391.5c-20.7-20.3-36.4-51.8-67.5-58.2c-26.3-5.5-57.9,5.6-72.7,28.4c-17.6,27-19.2,60.7-15.8,91.8
			c1.2,11.3,3,22.6,3.5,33.9c0.4,8.6,0.4,17.4,2.2,25.7c1.8,8.3,4.8,15.3,10.7,21.8c5.7,6.3,10.8,13.2,16.4,19.7
			c21.8,25.4,60.7,45.9,95.1,43.6c16.8-1.2,29.1-9.3,40.1-21.9c6-6.9,9.9-14.1,12.6-22.7c1.9-6.2,4.6-11.9,7-17.9c0,0,0,0,0.1-0.1
			c10.7-27.9,45.6-50.2,27.2-82.9C492.3,427.4,468.1,411.3,447.8,391.5z M454.6,401.4c12.3,10.9,25.3,21.2,36.1,33.6
			c13.2,15.3,24.3,33.1,14.7,53.3c-7,14.8-19.1,26.4-26.3,41c-0.2,0.2-0.4,0.3-0.6,0.7c-2,5.5-5.2,10.6-6.9,16.2
			c-2,6.3-3.6,13.2-7.1,18.9c-6.2,10.2-17,21.9-28.4,26.6c-23.2,9.4-52.2,0.5-73-10.7c-11.5-6.2-23-13.4-32.1-23.1
			c-4.2-4.4-7.6-9.4-11.4-14.2c-3.4-4.2-7.5-8.1-10.9-12.3c-9.1-11.2-10-25.5-10.7-39.4c-0.6-12.3-2.2-24.5-3.5-36.7
			c-3.5-32.9-3.1-74.4,21.5-100.2c12.6-13.3,33.4-21,51.8-20.7c21.7,0.5,39.2,14,53,29.6C432,376.9,441.8,390.1,454.6,401.4z"/>
		<path class="st0" d="M448.5,377.1c-11.4-13.7-21.8-28.9-36.3-39.6c-14.5-10.6-32-17.3-50.1-18.1c-17.7-0.9-33.6,2.6-48.5,12.4
			c-12.2,8-23.2,20.1-26.9,34.4c-4.2,16.8-2.1,33.8-2.7,50.9c-0.4,10.8-0.4,20.3,2,30.9c2.5,10.9,4.2,21.3,3.6,32.5
			c-0.8,16.7-4.7,37.4,4.7,52.5c3.8,6.1,8.7,11.9,14.4,16.4c7.4,5.9,13.6,11.8,20,18.8c11.4,12.4,24.6,24.8,40.5,31.4
			c8.9,3.7,18.2,5.5,27.7,6.8c9.1,1.3,18.4,3.3,27.6,3c14.4-0.5,30.3-9.8,40.3-19.7c5.3-5.2,10-11.2,13.1-17.9
			c3.9-8.3,4.8-16.4,6.6-25.3c0.1-0.1,0-0.4,0-0.5c2.2-9.7,6.6-18.7,12.4-26.8c5-7.1,11-13.4,15.7-20.8c8-12.5,14.9-28.7,8.8-43.4
			c-6.3-15.3-19.1-27.3-32.5-36.5C472.4,407.1,461,392.1,448.5,377.1z M474.6,411c14,12.4,31.1,20.9,40.7,37.7
			c10.9,19.1,2.6,38.8-9.9,54.9c-11.2,14.2-21.5,27.9-24.5,46.2c-0.1,0.3,0,0.4,0,0.6c-0.9,5.7-1.6,11.3-4,16.6
			c-3.1,7-7.2,13.6-12.6,19c-9.4,9.2-22.9,18.1-36.3,20c-8.1,1.1-15.6-0.6-23.6-1.6c-8.2-1.1-16.3-2-24.2-4.2
			c-14.8-4-27.7-12.6-38.6-23c-9.7-9.1-17.5-19.5-28-27.6c-11-8.4-19.8-19.1-21.6-33.2c-2.1-16.6,1.8-32.9,0.3-49.4
			c-0.7-8.4-3-16.5-4.7-24.7c-1.9-8.5-1-16.7-0.9-25.4c0.4-17.7-2.5-37.2,3.8-54.1c6.7-18,24.9-32.7,43.1-38.2
			c18.9-5.6,41.2-3.5,59.2,4.5c19,8.5,32.3,23,45.1,38.9C449.5,382.7,460.7,398.9,474.6,411z"/>
		<path class="st0" d="M461,382.5c-4-7.6-7.5-15.5-12.5-22.4c-10.8-14.5-24.6-27.1-39.8-36.9c-14.2-9.2-30.9-18.1-47.9-19.9
			c-17.3-1.8-34.8,2.3-49.8,10.9c-12.6,7.2-23.3,15.6-27.8,29.9c-5.8,18.4-9.9,37.4-9.3,56.6c0.6,20.6,4.4,40.5,8.8,60.5
			c4.2,20.1-3.8,39.6-0.9,59.8c2.5,16.5,9.9,29.3,24.2,38.2c8.2,5.2,15.8,10,22.2,17.4c5.5,6.4,10.8,12.8,17.3,18.4
			c14,12.5,30,20.4,48.6,23.8c9.3,1.7,18.6,2.1,27.9,1.8c7.4-0.1,15.4-0.4,22.5-2.6c14.2-4.8,23.9-15.1,31.9-27.5
			c4.5-7.1,9.2-14.3,11.7-22.3c2.4-7.7,3.7-15.7,5.4-23.5c8.4-32.6,48.3-52.8,46.4-88.5c-1.5-28.7-30.6-43.3-54.1-53
			C475,398.8,466.6,392.9,461,382.5z M456.4,379.7c3.9,7.5,8.1,14.5,15.2,19.3c6.1,4,12.7,6.4,19.3,9.2c14.2,6,29.2,14.5,38.4,27.2
			c9.9,13.5,9.1,30.4,1.4,44.8c-11.2,20.7-31.1,36.8-39,59.1c-0.2,0.2-0.4,0.3-0.6,0.7c-0.3,1.3-0.6,2.7-0.9,4
			c-0.1,0.3,0,0.4-0.1,0.6c-2.7,12.6-4.8,25-11.6,36.4c-8.6,14.5-19.3,30.6-36.9,34.7c-19,4.5-41.5,3.1-60-2.9
			c-19.5-6.2-34.7-18-47.8-33.4c-5.5-6.4-11-13-18.3-17.4c-7-4.2-14.6-8.3-20-14.5c-14.7-16.9-12.5-39.1-9.8-59.7
			c1.4-10.2,1.2-19.6-1.4-29.7c-2.4-9.8-4.2-19.6-5.7-29.6c-3.1-23-3.4-44.8,2.2-67.5c2.1-8.3,3.6-17.5,8.1-25
			c4.4-7.5,11.5-12.8,18.9-17.4c17.2-10.4,38.4-16.8,58.6-11.8c18.8,4.6,36.4,14.6,51.6,26.6C434.8,346.5,446.9,361.1,456.4,379.7z"
			/>
		<path class="st0" d="M460.1,366.1c-12.1-33.1-44.2-56.2-76.5-68.2c-27.4-10.2-59.5-11.2-84.9,5.4c-12.6,8.2-17.8,18.3-21.8,32.4
			c-5.7,19.5-8.9,39.2-9.3,59.5c-0.3,9.6-0.2,19.7,2,29.1c2.1,9.1,6.2,17.8,7.6,27c3.3,21.5,1,43.7-1.4,65.2
			c-1.6,14.8,2.2,31.3,14.8,40.6c6.8,5,14.9,8.1,21.3,13.6c7,5.9,11.7,13.7,17.4,20.8c10.8,13.3,27.3,26.1,43.2,32.6
			c15.9,6.5,33.9,6.2,50.7,4.2c16.3-1.9,31.9-5.3,45.3-15.3c13.9-10.3,24.4-24.7,28.6-41.6c0.1-0.1,0-0.4,0-0.5
			c4.1-13.9,7.3-28.5,14.9-40.8c7.5-12.3,18.3-22.2,26.4-34c8.5-12.4,11.8-24.7,11.3-39.6c-0.5-11.9,0.3-24.8-8.1-34.3
			c-10.7-12.1-25.1-17.4-40.4-21.4c-9-2.4-18.5-4.9-25.8-10.8C467.4,383.5,463.5,375.6,460.1,366.1z M450.5,351.9
			c4.3,7.4,6.6,15.3,10,23c6.9,15.3,20.2,22.9,35.9,27.1c16.4,4.5,36.9,9.5,45.9,25.7c4.9,8.6,4.3,18.8,4.6,28.4
			c0.2,10.3-0.4,20.3-5.5,29.6c-8.2,15.2-21.7,26.4-30.7,41c-9.9,16.2-13.2,35.3-19.3,53c-9.7,24.1-32.6,40.3-58.3,44.3
			c-18.5,2.9-40.1,5.3-57.9-1.8c-18.6-7.5-36-21.7-47.9-37.8c-4.9-6.7-10.1-13.7-17.2-18.5c-6.7-4.6-15.3-7.6-20.9-13.5
			c-16-16.8-10.1-38-8.8-58.7c1.4-20,1.1-39.6-5.2-58.8c-6.4-19.8-6.3-41.2-3.9-61.9c1.5-11.6,3.8-23,7.1-34.3
			c2.3-7.8,4.2-16.7,9.5-23.2c9.9-11.8,25.7-18.4,40.6-21.1c35.5-6.7,72.9,10.3,99.8,32.6C437.1,334.2,445,342.4,450.5,351.9z"/>
		<path class="st0" d="M459.2,340.5c-6.6-14-20.5-21.6-33-29.8c-15.9-10.5-32.5-18.8-50.8-23.7c-30.6-8.4-69.3-8.8-93.6,15.1
			c-18.1,17.8-22.3,43.8-22.7,68.1c-0.3,13.7,0.5,27.3,1.1,41.1c0.3,8.3,0.9,16,3.7,23.8c3.1,8.5,6.3,16.6,7.6,25.7
			c2.7,20.6,0,41.1-0.4,61.7c-0.2,13.3-2.3,34.3,9.9,43.4c6.6,5,15,6.7,21.9,11.1c7.9,4.9,13.9,11.5,20,18.4
			c11,12.4,22.1,25.6,36.6,34.2c14.9,8.8,33.1,13.9,50.5,13.2c17.2-0.6,33-6.3,48-14.6c13.4-7.4,27.2-16.3,36.3-28.9
			c5-6.9,8.5-14.6,10.6-22.8c0.9-3.4,2-7,2-10.6c0.1-1.8,0.1-3.6,0.2-5.5l0.1-0.1c0.2-3,0.9-5.8,1.8-8.5c0.1-0.1,0.1-0.3,0.2-0.3
			c0.1-0.1,0.2-0.4,0.1-0.6c6.7-20,27.5-32.5,38.7-49.9c11.1-17.3,19.8-40.2,13.7-60.7c-3.5-11.4-9.4-22.6-18.1-30.8
			c-9.2-8.7-19.8-12-31.7-15.5c-12.2-3.6-27.1-8.3-36.2-17.5C465.2,366.2,465.1,352.7,459.2,340.5z M458.8,347.9
			c2.5,8.1,4.5,16.5,9,23.9c7.8,12.7,25,19.3,38.6,23.4c9.4,2.9,20,4.7,28.3,10.6c8.2,5.9,14.9,13.9,19.3,23
			c8.3,17.1,8.1,34,1.1,51.5c-3.3,8.3-7.5,16.5-13,23.7c-4.7,6.2-10.7,11.4-15.9,17.1c-7.9,8.4-15.8,18-19.7,28.9
			c-3.5,7.2-1.9,15.7-3.9,23.4c-2.2,8.7-5.3,17.3-10.9,24.3c-10.7,14-26.4,23.7-42.1,31.5c-36.8,18.2-78.9,11.9-108-17.2
			c-11.7-11.7-21.6-27.4-35.9-36.3c-7-4.4-15.9-6.2-22.4-11.3c-8.6-6.6-9.3-17.1-9.7-27.1c-0.9-20.2,2.2-40.3,1.5-60.5
			c-0.3-9.3-0.7-19.3-3.8-28.2c-2.7-8.1-6.7-16-7.9-24.6c-2.1-14.2-1.8-29.5-1.9-43.9c-0.1-13.8,0.3-27.9,3.4-41.5
			c3.1-12.8,8.6-25.6,18.4-34.8c12.5-11.6,29.5-17.8,46.4-19.4c39.9-3.7,79.7,15.6,110.8,39C449.4,330.2,455.7,337.4,458.8,347.9z"
			/>
		<path class="st0" d="M388.7,282.1c-18-6.7-37-12.7-56.3-12.9c-8.7-0.1-17.1,0.5-25.2,4.2c-3.9,1.8-7.8,3.9-11.8,5.7
			c-4.4,1.8-9,2.6-13.4,4c-11.6,3.9-18.1,11.1-21.8,22.6c-6.2,19.4-10.3,39.4-10.1,59.9c0.2,10,1.4,19.8,2.6,29.8
			c1.3,10.5,0.7,21.1,1.5,31.7c0.8,9.4,2.2,18.4,5.7,27.3c3.8,9.9,8.3,20.2,8.1,30.9c-0.3,10.2-4.1,19.9-4.7,30.1
			c-0.4,8.9,0.1,17.7,0,26.6c0,7.6,0,15.6,4.3,22.2c4.1,6.3,9.4,11.7,15.4,16c7.8,5.5,16.3,10,24,15.8c7.7,5.7,14.5,12.4,21.2,19
			c12.3,12.1,24.7,24.8,39.8,33.5c15.3,8.8,33.3,13.8,51.1,14c18.1,0.3,32.8-9.5,47.9-18.2c15.2-8.9,25.2-19.4,31.1-36.2
			c3.5-9.8,7.2-19.4,11.7-28.9c2.9-6.1,5.6-12.1,7.4-18.5c0.1-0.1,0.1-0.3,0.2-0.4c0.1-0.1,0-0.4,0.1-0.5c0.4-1.5,0.7-3,1-4.6
			c3.6-12.7,12.3-22.8,21.9-31.7c8.6-7.9,15.1-16.7,19.6-27.5c8.5-20.2,15.3-47,7.9-68.5c-3.6-10.2-9.8-20.6-18.8-27.1
			c-9.3-6.7-20.1-9.6-31-12.4c-13.4-3.4-27.7-7.5-37.7-17.5c-10.6-10.5-11-25.2-16.9-38.3C450.6,302.6,417.2,292.6,388.7,282.1z
			 M456.6,324.5c9.3,14.9,8.6,35.7,22.1,48c12.2,11.1,27.1,15.2,42.8,19.3c18.4,4.8,34.1,13.1,42.1,31.5c7.2,16.7,5.1,35.6,0.6,52.7
			c-4.6,17.6-12,33-25.4,45.6c-9.7,9.1-18.2,19-22.2,31.4c-0.2,0.2-0.3,0.4-0.3,0.7c-0.1,0.5-0.2,0.9-0.3,1.4
			c-0.3,1.3-0.7,2.6-0.9,4c-2.5,9.1-7,17.5-11,26.1c-4.3,9.3-6.8,19.2-10.9,28.6c-8.6,19.2-26.6,28.4-44.4,37.8
			c-10.2,5.4-20,8.9-31.8,8.1c-10.2-0.6-20.2-2.3-29.9-5.6c-18.5-6.3-33.4-18.4-47.4-31.8c-12.9-12.5-25.1-25.1-40.3-34.8
			c-8.5-5.5-17.5-10.2-24.3-18c-7.4-8.4-9.1-16.4-9-27.3c0.2-9.6-1-19.4,0.1-28.9c1-9.3,4.6-18.3,4.4-27.7c-0.1-9.2-2.7-17.5-5.9-26
			c-4-10.5-7.1-20.8-7.9-32.2c-0.7-10-0.1-20.1-1.3-30c-1.3-10.5-2.9-20.8-2.8-31.4c0-21,3.2-43,11.1-62.5
			c2.9-7.1,7.1-12.8,14.3-15.9c7.4-3.1,15.1-4.1,22.3-7.7c10.4-5.1,19.8-8.2,31.6-7.7c10.4,0.4,20.5,2,30.6,4.7
			c17.7,4.7,34.9,11.5,51.8,18.4C430.3,301.4,447.3,309.5,456.6,324.5z"/>
		<path class="st0" d="M417.5,283.2l-0.1,0c-8-3.1-15.5-7.4-23.6-10.3c-9.5-3.4-19.4-6.3-29.2-8.8c-17.6-4.3-36.7-9-54.9-8.3
			c-15.9,0.6-31,5.4-42.6,16.6c-11.1,10.7-19.7,23.5-23.8,38.6c-4.6,17.5-5.7,36.6-6,54.7c-0.3,19.8,3.9,38.4,6.6,57.9
			c1.4,10,2.8,20.3,5.7,29.9c2.6,8.5,7.2,16.2,9.8,24.7c6,19.8-4.1,39.3-5.9,59c-1.5,16.6,2,33.2,14.9,44.8
			c6.6,6,14.2,10.6,21.4,15.7c7.9,5.7,14.7,12.7,21.6,19.5c0.2,0.2,0.4,0.3,0.7,0.3c6.5,6.4,11.8,14.2,19.1,19.9
			c10.6,8.4,21.4,17.2,33.5,23.5c21.8,11.3,46.6,18.3,71.2,14.7c20.6-3.1,38.5-11.6,52.2-27.3c14.1-16.2,24.9-37.8,30.5-58.6
			c0.1-0.1,0.1-0.1,0.2-0.3c2.8-8.8,2.1-18.2,5.3-27.1c3.4-9.4,8.6-18.7,15-26.5c5.9-7.1,12.9-12.6,19.7-18.7
			c11.4-10.3,17.8-22.6,20.5-37.7c2.7-15.7,2.5-32,0.7-47.8c-1.7-14.2-7.5-27.6-18.1-37.3c-10.5-9.6-24-16-38.1-18.7
			c-8.4-1.5-17.6-1.4-25.5-4.7c-10.5-4.3-14.1-13.3-17-23.4c-2.1-7.6-4.9-14.7-9.9-20.9c-5.3-6.9-11.8-12.7-17.6-19.2
			c-5.3-5.9-10.7-12.3-17.5-16.6C430.4,287.1,424.1,285.5,417.5,283.2z M394.9,276.5c8.1,3.6,16,7.6,24.4,10.5
			c0.3,0.1,0.5,0.1,0.6,0.1c7.5,2.5,14.5,4.9,20.5,10.4c6.2,5.6,11.4,12,17.3,18c6.9,7.1,14.2,14.3,17.9,23.6
			c2.9,7.2,3.8,15.4,7.8,22.3c8.7,15,24.3,13.7,39.4,16.9c15.7,3.3,31.4,10.3,41.7,23c11.2,13.8,13.4,30.5,13.9,47.6
			c0.4,16.8-0.2,36.2-8.9,51.2c-8.7,15.2-25.2,23.5-35.4,37.7c-5.1,7.2-10,15.2-12.7,23.7c-2.4,7.6-2.6,15.7-4.2,23.4
			c-0.1,0.1-0.2,0.3-0.2,0.4c-5.2,22-16.6,45.6-31.9,62.4c-13.6,15-32,23.6-52.2,25.6c-26.1,2.6-53-5.3-75-19.5
			c-10.3-6.7-21.5-14.1-30.2-22.9c-6.1-6.3-11.4-13.5-18.2-19.1c-6.3-6.2-12.7-12.3-20.1-17.5c-8.8-6.2-18.8-11.8-25.1-20.7
			c-12.4-17.8-9-40.1-3.9-59.9c2.3-8.8,5-18.1,3.7-27.2c-1.2-8.3-4.7-15.5-8-23.2c-8-18.7-8.6-39-12.5-58.7
			c-4.2-21.2-4.1-41.8-2.2-63.3c1.6-18,3.8-36.1,14.3-51.4c10.8-15.9,26.1-28.3,45.8-30.5c20.6-2.5,42.3,2.5,62.1,7.5
			C374.2,269.4,385.1,272.1,394.9,276.5z"/>
		<path class="st0" d="M430.4,278.6c-0.1-0.1-0.3-0.1-0.4-0.2c-11.8-6.8-23.7-11.4-36.5-16.2c-14.3-5.3-28.2-11.4-42.9-15.4
			c-24.5-6.7-51.8-11-76.1-1.1c-30.6,12.3-49.9,40.7-51.8,73.3c-1.1,19,2.5,36.9,4.8,55.6c1.3,10.5,1.3,21.3,3.1,31.9
			c1.7,9.6,3.3,19,4.4,28.7c1.6,14.9,3.9,32.9,14.9,44.5c4.3,4.5,7.4,8.8,4.9,15.2c-1.3,3.5-3,6.9-4.2,10.3
			c-2.7,8.3-4.8,16.9-5.6,25.7c-1.6,18.3,1.9,35.7,11.1,51.7c8.5,14.7,19.5,27.4,31.9,38.8c0.1,0.2,0.2,0.3,0.4,0.5
			c3.7,3.9,8.2,6.4,13.2,8.6c6.4,2.7,11.7,5.9,17.4,9.9c11.8,8.2,24.6,15.4,37,22.9c23.4,14.2,48.7,25.3,76.7,24
			c13.4-0.7,26.7-3.5,38.9-9.2c9.7-4.5,20.4-8.9,27.1-17.4c8.2-10.3,11-23.9,16.5-35.6c5.4-11.3,8.9-23.5,15.1-34.4
			c0.1-0.1,0.2-0.4,0.3-0.6c3.4-7.3,5.4-15.1,8-22.8c3.4-10.2,8-19.4,16.1-26.7c6-5.4,12.7-10,18.8-15.2
			c11.8-10.5,20.1-25.7,24.6-40.6c4.7-15.9,4.2-32.8,0.2-48.8c-3.9-15.7-10.2-32.9-20.5-45.7c-9.5-11.8-22.8-17.8-37.4-21.3
			c-14.4-3.5-35.4-4-45.9-15.7c-9.7-10.8-14-25.3-23.8-36.3c-11.2-12.6-22.9-27.2-37.3-36.4l0,0c-0.1-0.1-0.3-0.2-0.4-0.3
			C432,279.6,431.1,279,430.4,278.6z M431.6,282.5L431.6,282.5c0.7,0.5,1.4,0.9,2.2,1.4c8.7,6.3,15.5,14.3,22.9,22
			c6.6,6.9,13.9,13.9,19,21.9c6.6,10.4,10.7,24.4,21.6,31.4c12.6,8.2,29.6,8.7,43.8,12.6c18.2,4.9,31.6,13.5,40.7,30.3
			c9.1,16.9,16,36.1,16.5,55.5c0.5,18.9-5.3,36.7-15.7,52.3c-9.5,14.4-25.4,21.3-35.9,34.7c-10.7,13.6-11.9,31.1-19.7,46.1
			c-0.1,0.3-0.3,0.4-0.3,0.7c-0.4,0.8-0.9,1.7-1.4,2.5c-0.2,0.3-0.2,0.4-0.2,0.7c-3.8,7.9-6.7,16.2-10.2,24.2
			c-2.3,5.3-4.9,10.4-7,15.8c-2.3,6.5-4.4,13.5-8,19.4c-6.9,11.1-18.2,16.6-29.8,21.6c-13.3,5.7-27.7,9.2-42.3,8.9
			c-28.7-0.6-52.7-12.4-76.5-27.2c-11-6.8-22.6-13-32.9-20.7c-7.4-5.4-17-7.9-24.2-13.2c0-0.1-0.2-0.3-0.3-0.4
			c-15.9-13.9-30.8-30.3-39.6-49.8c-9.4-21.1-9.1-45.6-1.3-67.1c2-5.3,6.7-12.4,5.1-18.4c-1.9-7-8.6-11-12-17.4
			c-8.9-16.9-7.5-36.5-11.1-54.7c-2.2-11.2-3.3-22.2-4.2-33.7c-0.6-8.7-2.6-17.2-3.8-25.9c-2.7-19.9-4.2-41.7,2.9-61
			c12.9-35.5,47.7-55,84.7-52c20.6,1.6,40.8,7.3,60,14.7C394.1,265.3,413.8,271.7,431.6,282.5z"/>
		<path class="st0" d="M444.2,280.4c-26.3-23.6-60.6-34.8-94.3-43.6c-17.9-4.7-36.3-9-54.9-5.8c-9.1,1.6-18.1,3.6-27.2,4.9
			c-8.2,1.2-17,2.3-24.3,6.3c-13.9,7.5-23,23.5-28.4,37.7c-6.6,17.1-7.6,35.2-5,53.2c1.6,10.6,4.8,20.4,7.4,30.8
			c2.7,10.8,2.2,21.5,2.6,32.5c0.6,19,3.7,38.7,8.7,57.1c2.4,8.8,5.1,17.6,9.3,25.8c4.5,8.9,9.8,17.5,6.5,27.8
			c-2.6,8.4-7,16.3-8.6,25c-1.3,8.1-1.3,16.7-0.6,24.8c1.7,17.5,8.1,34,17.6,49c6.6,10.5,13.6,19.9,22.5,27.8
			c0.1,0.2,0.2,0.6,0.5,0.8c1.5,1.2,3.1,2.4,4.7,3.4c2.1,1.7,4.3,3.2,6.7,4.6c0.1,0.1,0.3,0.1,0.3,0.2c9.2,5.9,19,11,29,15.8
			c13,6.4,26.2,13.1,39.4,18.8c27.8,12,56.4,19.4,86.7,18.9c24.7-0.4,48-6.9,62.2-28.5c7.7-11.6,12.5-24.4,18.2-37.1
			c5-11.3,10-22.6,14.4-34.2c0.2-0.2,0.3-0.3,0.4-0.6c2.3-7.1,5.5-13.6,8.6-20.4c3.7-8.2,7.2-17.6,13.8-24.1
			c11.7-11.8,25.4-21.5,36-34.5c10.3-12.5,17.1-26.9,19.3-43.1c4.3-33-1.7-71-26.8-94.9c-5.9-5.7-12.6-10.9-20.6-13.3
			c-8.5-2.4-17.2-3-25.8-5c-9.9-2.3-20-5.2-29.5-8.9c-10.2-3.9-14.9-9.9-20.3-19.1c-7.9-13.4-17.2-26.2-29-36.3
			C457.1,291.2,450.7,285.7,444.2,280.4L444.2,280.4z M438.8,279.4c0,0.1,0,0.1,0.2,0.2c3,2.4,6.1,5,8.9,7.5
			c10.6,8.9,21.2,17.1,29.5,28.2c6.1,8.1,10.9,16.9,16.4,25.2c3.5,5.1,7.6,9.7,13.4,12c9.8,4,19.9,7,30,9.6
			c8.4,2.3,17.1,2.7,25.5,4.9c19.5,4.8,34.5,22.3,42,40.3c13.9,33.4,13.7,77.5-9.9,106.4c-11.4,13.9-26.4,23.7-38.1,37.1
			c-5.5,6.2-8.7,14.2-12.1,21.6c-2.5,5.6-5.2,11.1-7.4,16.8c-0.1,0.1-0.1,0.1-0.2,0.3c-4.7,12.8-10.2,25.4-15.9,38
			c-5.8,12.9-10.6,26.9-18.8,38.6c-16,23-41.1,28.2-67.7,27.1c-29-1-56.3-8.7-82.6-20.7c-24.6-11.2-50.9-22.5-72.8-39
			c-8-6.5-14.2-14.2-20.3-23c-7.5-11.2-14.3-23.2-17.9-36.2c-3.5-12.5-5.2-26.9-3-39.8c2.1-12,10.1-22.9,10.1-35.2
			c0-7.6-4.8-14.5-7.9-21.1c-4.3-8.8-7.4-18-9.7-27.4c-4.9-20.2-7.9-41.1-8.1-61.9c0-10.4-0.9-20-3.9-30.1
			c-2.8-9.4-5.3-18.7-6.4-28.5c-2.7-22,0.5-42.4,11.4-61.8c4.8-8.4,10-17.8,18.8-22.6c8.8-4.8,18.3-6.1,28-7.6
			c9.9-1.4,19.7-4.3,29.7-5.2c11.4-1.2,22.9,0.2,34,2.7C370.7,243.8,409.7,255.1,438.8,279.4z"/>
		<path class="st0" d="M355.2,219c-41.2-6.4-89.2-8.1-125.7,16c-26,17.1-30,49-30.9,77.7c-0.6,20.5,1.3,41.1,5.2,61.2
			c4.1,21.1,8.2,42.4,12.9,63.4c2.5,10.9,5.3,21.6,8.9,32.2c2.8,8.4,6.1,17.2,7,26c1.3,12.4-2.9,22.1-6.2,33.6
			c-2.6,8.8-4.1,17.8-3.7,26.9c1.2,28.3,12.9,59.4,33.3,79.8c8.5,9.3,19.8,16.7,30.3,23.4c14.4,9.3,30.3,17.3,46.6,22.9
			c19.2,6.9,39.4,12.7,59.1,18.2c15.6,4.4,31.7,8.1,48.1,8.8c28.9,1.2,57.8-5.8,73.5-32.1c7.8-13.1,12.5-27.5,17.8-41.7
			c4.8-13.2,10-26.4,15.5-39.4c4.8-12.2,11.9-23.2,20.1-33.3c18.3-22.7,41.9-42.5,53.9-69.6c7.2-16.2,8.7-32.9,7.3-50.5
			c-0.7-9.1-1.4-18.3-2.3-27.4c-0.8-7.3-2-15.1-6-21.4c-8.6-14-23.5-28.1-37.6-36.5c-16.4-9.7-35.4-8-53.3-12.4
			c-9.2-2.2-21-4.6-27-12.8c-5.1-7.1-9.2-15-14.3-22.2c-6.3-9.2-14.7-18.9-23.6-26.4c-0.1-0.2-0.2-0.3-0.3-0.4
			c-9.8-6.8-16.6-16.6-24.6-25.3c-7.1-7.8-15.3-14.3-24.5-19.5C395.9,227.8,376,222.2,355.2,219z M369.3,224.3
			c18.7,4.1,37.3,10.9,52.9,22.3c13.4,9.8,22.2,24,34.4,34.6c0.1,0.2,0.2,0.3,0.5,0.5c5.1,3.6,9.4,8.5,13.7,12.9
			c6.8,7,12.7,14.4,18.3,22.5c4,5.8,6.9,13.3,11.8,18.3c5.4,5.6,13,8.5,20.5,10.4c8,2.1,16,4.1,24.4,4.9c11.3,1,22.8,1.7,32.8,7.7
			c8.6,5.1,16.3,11.5,23.2,18.7c7,7.2,15.4,15,18.4,24.9c2.3,7.8,2.9,15.9,3.6,23.9c1.8,20.1,4.2,40.3-3.1,59.8
			c-5.4,14.5-14.2,27.2-24.1,38.9c-17.9,21.1-39,40.4-50.6,66c-0.1,0-0.1,0.1-0.2,0.3c-5.9,13.8-11.6,28-16.8,42.1
			c-5.1,13.9-9.5,28.4-17,41.2c-8.3,14-19.8,24.4-35.6,28.8c-13.7,3.8-28,4.7-42.1,3.4c-17.6-1.6-34.7-6.1-51.6-11.3
			c-17-5.2-34.8-9.7-51.4-16.2c-15.7-6-31-13.5-45-22.8c-9.3-6.1-19.1-12.5-26.9-20.6l0,0c-0.5-0.4-0.9-0.9-1.3-1.3
			c-1.1-1.2-2.2-2.5-3.2-3.8c-0.2-0.3-0.5-0.4-0.7-0.5c-6.4-7.2-12.3-16-16.1-24.2c-8-17.6-14.4-39.6-12.3-59.2
			c1.9-18.5,12.7-34.7,9.3-53.8c-3.4-19.1-11.4-37.1-15.5-56.1c-4.6-21.1-8.9-42.3-12.9-63.4c-3.9-21.4-6.1-43-4.9-64.7
			c0.9-16,2.3-32.8,8.9-47.6c7.4-16.4,21.4-26,37.8-32.4C286.8,213.6,329.3,215.5,369.3,224.3z"/>
		<path class="st0" d="M290,206.6c-18,0.9-37.6,4.2-54.4,10.7c-14.9,5.7-31,18-39.1,32c-4.4,7.4-6.3,15.4-7.9,23.7
			c-1.7,9.3-3.9,18.5-5.6,27.8c-3.8,20.4-5.2,41.3-1.4,61.9c4,21.2,10.5,41.9,15,63c4.4,19.8,8.7,39,15.9,57.9
			c4.5,11.8,6.8,21.7,3.8,34.3c-2.3,9.6-5.5,18.9-7.3,28.7c-1.7,9.2-2.4,19.3-1.5,28.5c0.4,4.3,1.4,8.4,2.7,12.4
			c-0.1,0.3-0.1,0.5-0.1,0.8c5.1,16.1,9.2,32.3,19.6,46.2c21.1,28.7,55.1,46.9,87.7,59.3c19.2,7.3,39,12.6,58.5,18.9
			c18.4,5.9,36.6,10.4,56.1,11.3c15.3,0.7,31.3,0.8,46.2-3.4c15-4.2,26.1-12.3,36.1-24c10.9-12.8,19-27.5,23.8-43.5
			c3-9.8,4.9-19.8,8.3-29.5c2.6-7.4,5.4-14.8,7.8-22.3c0,0,0.1,0,0.1-0.1c2.5-7,3.7-13.5,8.2-19.5c5.7-7.6,12.7-13.9,18.2-21.6
			c5.2-7.5,10.5-14.7,16.5-21.4c11.1-12.7,23.3-25.2,31.5-40.1c8.8-16.1,12.6-34.1,13.1-52.3c0.5-17.7-0.1-37.8-6.2-54.8
			c-9.8-27.5-41.1-49.1-69.3-54.4c-18.5-3.6-39.6,0.1-54.5-13.8c-7.3-6.9-12.2-15-16.9-23.6c-2.9-5.3-6.3-10.3-9.8-15.3
			c0-0.1-0.1-0.4-0.2-0.6c-0.7-1.1-1.6-2.1-2.3-3.2c-0.3-0.4-0.5-0.8-0.8-1.2c-0.2-0.2-0.3-0.4-0.6-0.5c-4.2-4.7-9.5-8.5-13.9-13.2
			c-6.2-6.6-12-13.5-18.9-19.5c-12.8-11-27.8-19.8-43.4-26.2c-17.2-7-35.1-10.6-53.6-11.7c-10.3-0.6-20.6-0.7-31-1
			C310.3,207,300.2,206.1,290,206.6z M260,213.6c22-5,43.3-3.9,65.6-3.6c21.3,0.5,43.1,0.8,63.6,7.2C408,223,426,232,441.5,244
			c8.4,6.5,15.1,14.1,22.2,21.7c5.2,5.6,11.6,10.1,16.4,15.9c1.1,1.6,2.3,3.2,3.4,4.8c9.2,13.3,15,29.9,28.2,40.2
			c14.2,11,30.9,10.1,47.7,12c33,3.8,71.3,29.9,76.6,64.5c3.1,20.4,4.8,41.7,1.2,62.2c-3.6,19.9-12.4,36.6-25.3,52
			c-11.4,13.7-22.9,26.8-33.4,41c-5.7,7.6-12.7,13.9-18.2,21.6c-3.3,4.7-4.9,9.4-6.6,14.3c-0.1,0.1-0.1,0.1-0.2,0.3
			c-1.2,3.8-2.4,7.6-3.8,11.5c-12.5,35.1-17.6,76.1-49.2,100.6c-13.9,10.8-31.9,14.2-49.3,14.7c-18.6,0.6-37.4-0.8-55.5-5.7
			c-19.8-5.4-39.6-11.8-59-18.1c-20-6.5-39.8-14.5-58-25.2c-15.5-9.1-30.7-19.7-42.2-33.6c-9.2-11.2-14.5-23.4-19.1-36.3l0,0
			c-0.9-3.6-2.3-7.2-3.5-10.8c-0.4-1.4-0.8-2.7-1.3-4.1c0-0.1-0.2-0.2-0.2-0.3c-0.8-2.7-1.5-5.3-1.8-7.9c-1.2-8.3-0.9-16.7-0.1-25.1
			c1.6-15.6,9.1-30.2,10.1-45.8c0.8-14-6.1-26.6-10.6-39.5c-4.9-14.5-7.6-29.1-10.9-44.1c-4.8-21.1-11.3-41.7-15-63
			c-4-22.9-2-45.9,2.9-68.4c4.4-19.8,5.6-39.6,21.2-54.4c7.1-6.8,15.2-13.9,24.4-17.8C241.5,217.7,250.8,215.7,260,213.6z"/>
		<path class="st0" d="M260.6,195.3c-24.7,4.6-51.6,12.1-70.4,29.7c-8.7,8.1-15.6,18.3-19,29.8c-5.5,19.1-8.5,39.6-8,59.5
			c0.5,20.7,5.1,41.2,8.1,61.6c3.1,20.8,7,41.3,14.1,61c6.8,18.6,15.4,37.3,17.5,57.2c1.9,18.8-2.4,37.5-6.3,55.9
			c-0.1,0.1-0.2,0.3-0.2,0.4c-0.1,0.6-0.2,1.2-0.4,1.8c-0.6,2.6-1.1,5.2-1.5,7.8c-0.1,0.3,0,0.4,0,0.6c-0.2,1.2-0.3,2.4-0.3,3.7
			c0,3.4,0.6,6.9,1.1,10.3c0.9,8.4,2,16.6,3.5,24.8c2.9,15.3,7,30.6,14.9,44.2c13.5,23.3,34.8,40.9,58.9,52.4
			c14.6,7,30.1,11.5,45.5,16.1c16.3,4.9,32,11.4,48.3,16.1c30.1,8.9,62.6,12.1,93.9,9.3c18.1-1.7,37-5.5,53.6-13.5
			c12.8-6.1,22.3-16.8,28.7-29.2c6.8-13.3,11.2-27.5,15.7-41.6c2.8-8.7,4.9-17.3,7.1-26.1c2.5-9.8,6-18.2,11.3-26.8
			c5.9-9.5,11-19.5,17.2-28.8c5.6-8.5,12.6-15.8,19.4-23.4c11.2-12.9,25.1-21.1,31.3-37.7c6.8-18,8.1-37.1,9.4-56.2
			c0.7-10.5,2.8-20.8,2.1-31.4c-0.5-6.8-2.6-13.6-4-20.2c0-0.1,0-0.4,0-0.6c-0.1-0.2-0.1-0.6-0.3-0.8c-0.2-0.9-0.3-1.9-0.5-2.9
			c-0.1-0.5-0.3-0.7-0.6-0.9c-2.7-9.4-5-18.3-10.9-26.3c-7.1-9.4-15.6-18.1-25.1-25.2c-9.6-7.2-20.4-13.2-31.9-17
			c-13.1-4.4-26.7-5.3-40.2-8c-7.4-1.6-14.7-3.5-20.3-9c-4.2-4-7.6-8.7-11-13.4c-8.3-11.4-18.1-21.3-27.2-32
			c-9.4-11.1-17.4-23.8-28.3-33.7c-7.9-7.1-17.1-12-25.6-18.3c0-0.1-0.1-0.1-0.2-0.2c-0.3-0.2-0.4-0.3-0.7-0.5
			c-0.7-0.6-1.5-1-2.2-1.6c-0.3-0.2-0.4-0.3-0.7-0.2c-10-6-22.6-8.1-33.5-11.4c-17.1-5.2-34.9-9.3-52.8-10.9
			C313.9,187,286.4,190.5,260.6,195.3z M238.6,203.2c13.2-3.7,26.7-6.2,40.3-8c13.7-1.9,27.9-3.8,41.7-4c21.1-0.2,41.9,3.3,62.2,9
			c8.2,2.2,16.2,4.8,24.3,7.2c7,2,14.3,4.1,20.3,8.4c9.9,7.4,21.1,12.9,29.7,22.1c9.5,10.1,17.2,21.7,26.3,32.2
			c9.1,10.4,18.6,20.5,26.7,31.7c5.7,7.8,12.2,16.2,21.9,19.1c13.5,4,27.6,4.3,41.2,7.9c12.3,3.3,24,8.3,34.5,15.6
			c10.2,7.1,19.7,15.7,27.3,25.4c7.8,9.8,10.3,20.5,13.8,32.3c1.1,5.5,2.6,11,3.6,16.5c1.2,7.9,0.5,15.5-0.4,23.4
			c-1.6,13.4-1.7,26.9-3.7,40.3c-2.1,14.7-5.5,32.2-16.1,43.5c-8.4,8.9-17.7,16.5-25.7,25.6c-9.5,10.6-17,21.7-24.3,34.1
			c-6.6,11.2-14.4,21.6-18,34.3c-6.1,22.1-11.1,44.6-20.4,65.6c-6.5,14.8-16.1,29.6-31.5,36.3c-18.7,8.2-38.9,12.8-59.4,13.6
			c-20.2,0.9-40.6,0-60.5-3.6c-20.8-3.8-40-11.6-60-17.9c-36.8-11.6-74.4-21.4-101.4-50.8c-13-14.2-21.8-30.9-26.6-49.6
			c-2.7-10.6-4.6-21.2-5.8-32c-0.6-5-1.2-9.9-1.6-14.9c-0.4-4.9,0.8-9.4,1.7-14c2.8-12.9,5.7-25.7,6.7-38.8
			c1.1-14.9-0.7-29-5.3-43.3c-4.8-15.2-11.6-29.9-16.1-45.2c-4.6-15.5-7.4-31.4-9.9-47.4c-3.4-21.7-8.5-44-8.5-65.9
			c0-19.9,2-42.2,9.4-60.8C185.9,224.5,212.3,210.5,238.6,203.2z"/>
		<path class="st0" d="M176.8,217.7c-8.5,14.4-15,29.9-18.2,46.4c-3.4,18.1-4.5,36.6-5.3,55c-0.9,18.2-0.9,36.6,2.8,54.5
			c4,19.7,12.2,38.4,18.7,57.5c6.7,19.3,13.6,39.3,17,59.4c3,17.8,3.1,37.7-2.3,55c-1.8,5.9-4.6,12.4-6.4,19
			c-0.2,0.2-0.4,0.3-0.6,0.7c-1,3.6-1.3,7.2-1.5,11l0,0.1c-0.3,10.6,2.1,21.5,3.4,31.8c1.9,14.6,5.2,28.5,13.4,41
			c7.6,11.6,17.7,22.8,28.4,31.6c13.3,10.8,29.2,17.8,43.6,26.9c13.1,8.4,26,16.8,40.5,22.9c14.9,6.1,30.2,10.5,45.9,13.4
			c31.8,6,63.9,4.9,96.1,3c11.4-0.7,22.8-1.3,34.2-2.2c9.1-0.7,19.1-0.5,28.1-2.6c15.5-3.6,26.2-14.1,35.9-26.2
			c12.1-15,25-31.1,30.4-50c5.6-19.6,8.4-39.7,17.8-58c9.5-18.6,23.2-35.2,34.8-52.5c10.9-16.3,22.9-32.8,27.6-52
			c4.4-18.2,4-36.6,3.7-55.2c-0.3-15.1,1.8-30.4-0.2-45.5c0-0.1,0.1-0.3,0-0.4c-2.6-23.5-13-48.6-31.1-64.4
			C615,322,593.6,312,569.7,306.8c-5.8-1.2-11.7-2.4-17.6-3.3c-7.6-1.1-16-1.9-22.7-6c-11.5-7.2-16.8-18.7-24.4-29.4
			c-15.6-22.1-35.4-40.5-57-56.5c-16.4-13.6-38.6-16.6-58.4-22.6c-20.8-6.4-41.8-10.8-63.3-13.7c-12.1-1.6-24.5-2.9-36.7-3.3
			c-10.3-0.4-21-1-31.2,0.6c-9.9,1.5-19.2,4.9-28.6,7.7c-7.8,2.3-16,3.9-23.5,7.2C192.6,193.7,184.4,205,176.8,217.7z M204.5,191.2
			c8.3-4.2,17.1-5.7,26-8.5c8.7-2.8,17.3-6,26.3-7.3c21.6-3.4,45.3-0.8,66.8,2.2c22.1,3,43.9,7.4,65.2,13.9
			c18.1,5.6,38.3,8.4,54,19.6c0,0,0,0.1,0.2,0.2c0.9,0.7,1.8,1.4,2.8,2c0.4,0.3,0.9,0.7,1.2,1c0.1,0.1,0.3,0.2,0.4,0.2
			c21.9,16.4,43,35.5,57.7,58.6c5.8,9.2,11.5,19.6,21,25.5c9.9,6.2,21.3,6.7,32.6,8.7c25.3,4.7,49.7,12.9,69.7,29.8
			c18.4,15.7,29.7,38.5,33.1,62.3c-0.1,0.1,0,0.4,0,0.6c2.3,12.7,1,25.6,0.6,38.4c-0.3,12.5,0.7,25,0.1,37.5
			c-0.7,14.3-2.8,28.8-8.8,41.9c-6.3,13.5-15.2,26-23.5,38.4c-15.6,23.2-33.7,45-42,72.2c-4.1,13.6-6,28-10.9,41.3
			c-5.1,13.6-13.6,25.8-22.6,37.2C543,721.4,530.2,738.2,510,740c-22.5,2-45.2,3.5-67.7,4.8c-39,2.2-78.5,1.1-115.9-11.4
			c-19.3-6.4-35.7-16-52.7-26.8c-17.3-11.1-37-19.3-51.8-33.8c-14-13.6-27.1-29.4-31.5-48.7c-2.1-9.1-3.1-18.3-4.2-27.5
			c-1-8.5-2.6-16.7-1.7-25.1c1.4-9.1,5.9-18.7,8.3-26.9c4.2-13.9,4.5-29,3.4-43.4c-1.2-16.9-6.3-33.5-11.4-49.6
			c-5.3-17.2-11.5-34.1-17.6-51.2c-6.9-19.1-11-38.5-11.3-58.9c-0.3-19.3,0.9-38.9,2.9-58.2c2-18.3,5.9-36.4,14.3-53
			C180.1,216.3,189.3,198.9,204.5,191.2z"/>
		<path class="st0" d="M149.8,238.3c-4.4,15.7-6.6,32-6.2,48.3c0.5,21.1,3.9,42,5.3,63.2c0.6,9.8-0.2,19.8,1,29.4
			c1.1,8.7,3.3,17,6.3,25.2c6.1,17.4,15.1,33.7,20.3,51.5c6,20.7,10.1,41.3,6.2,62.7c-2.2,12.1-5.6,24.1-9.5,35.8
			c-0.2,0.2-0.3,0.3-0.4,0.6c-0.9,3.2-2.1,6.4-3.3,9.5c-1.4,3.4-2.7,6.7-3.7,10c-0.2,0.7-0.5,1.3-0.8,2c-0.2,0.3-0.1,0.5-0.1,0.8
			c-1,3.9-1.5,7.9-1.1,12.3c1,9.2,2.3,18.5,4.1,27.5c3.7,18.2,8.3,37.6,18.1,53.7c8.8,14.5,20.4,27.2,34.1,37.4
			c15.1,11.4,32.1,18.2,49.7,25c19.9,7.6,40.5,15.4,61.4,19.3c9.8,1.8,19.9,2.3,29.9,2.6c10,0.3,19.7,2.1,29.7,2.9
			c22.2,1.6,44.7-0.7,66.8-1.6c20.2-0.8,40.3-0.3,60.1-4.7c16.2-3.5,34.6-8.4,47.7-18.9c12.1-9.6,20.8-22.4,27.7-36
			c16.8-33.7,22.9-71.3,37.9-105.6c15.3-34.7,47.2-60.1,53.8-98.9c3.4-20,0.6-38.4-1.8-58.2c-1.7-13.8-1.7-28.1-5.1-41.6
			c0-0.1,0.1-0.3,0-0.5c-3.8-12.8-6.8-25.7-13.4-37.6c-5.7-10.3-12.7-19.7-20.9-28.1c-16.7-17.1-38.3-30.4-61.4-37.1
			c-12.2-3.6-25-4-37-7.5c-11.6-3.3-22.3-8.9-31-17.2c-9.7-9.2-16.3-20.4-24.5-30.9c-5.9-7.8-13.2-13.4-21.1-18.5
			c0-0.1-0.1-0.1-0.2-0.2c-9.7-6.5-19-13.1-29.4-18.3c-10.1-5-20.6-8.9-31.2-12.7c-23.7-8.4-47.4-17.3-71.9-23.4
			c-23.4-6-47.3-9.7-71.5-7.3c-23.1,2.4-45.8,8.7-66.8,18.3C171,183.2,157.2,211.4,149.8,238.3z M156.9,225.2
			c5.6-14.6,13.1-29.9,24.8-40.8c13.2-12.3,33-18.3,50-22.9c19.8-5.3,40.6-8.2,61.2-6.4c21.6,1.9,42.9,7.2,63.6,13.8
			c20.1,6.3,40.1,13.2,59.9,20.7c16.2,6.2,30.3,14.3,44.5,23.5c0.1,0.2,0.2,0.4,0.5,0.6c11.5,7.1,21.1,14.2,28.9,25.3
			c7.2,10.1,13.9,20.5,23.3,28.6c7.5,6.4,15.8,11.8,25.2,14.9c10.4,3.4,21,4.3,31.8,6.5c25,5.3,49.7,17.8,67.9,35.9
			c9.2,9.2,17.6,19.2,23.7,30.7c5.7,10.9,8.9,22.3,12.3,33.9c3.6,12.1,4.2,25.2,5.2,37.6c1.6,18.7,5.9,36.5,3.9,55.3
			c-2,18.9-8.7,36-19.2,51.8c-9.2,13.9-19.9,26.8-28.2,41.1c-17.6,30.1-23.5,65.2-35.7,97.5c-10.2,27-24.6,55.5-53.1,66.8
			c-20.2,8-41.6,12.6-63.3,13.2c-22.2,0.7-44.4,1.8-66.6,2.4c-21.3,0.7-42.3-2.2-63.7-3.3c-22.1-1.2-42.8-7.1-63.6-14.4
			c-19.5-6.8-40.4-13.5-58-24.5c-16.3-10.3-31.1-23.8-41.5-40c-10.9-17-16.3-36.9-20.1-56.6c-1.9-10.1-4.6-21.3-4.2-31.6
			c0.1-2.5,0.5-5.1,1.1-7.4c0,0,0.1,0,0.1-0.1c7.5-18.9,14.4-38.5,17.7-58.6c3.6-21.8,0-42.5-6.2-63.5
			c-5.6-19.1-15.6-36.6-21.7-55.6c-6.7-20.5-4.8-41.7-6.9-62.9c-2.1-21.6-5.6-43.5-3.7-65.2C147.9,255.5,151.3,240,156.9,225.2z"/>
		<path class="st0" d="M140,234.7c-8.5,38-8.2,78.9-3.8,117.4c2.4,20.7,6.2,41.4,12.8,61.2c6.2,19,14.2,37.4,18.9,56.9
			c4.8,20.1,6.4,40.8,1.1,61c-1.7,6.5-4.2,12.7-6.7,19c-0.2,0.2-0.4,0.3-0.5,0.7c-0.3,1.1-0.7,2.1-1,3.2c-2,4.9-3.9,9.9-5.3,15.1
			c-0.2,0.4-0.1,0.8,0.1,1.1c-0.3,1.1-0.6,2-0.7,3c-1.7,8.6-3,17.2-3.7,25.9c-1.6,21.2,2.2,41.1,9.3,61.1
			c5.8,16.4,15.4,28.7,27.2,41.3c11.7,12.4,24.8,23.2,39.6,31.6c29.6,17,63,26.4,96.5,32.6c18.9,3.5,38,6.9,57.2,8.8
			c21.2,2.1,42.4-1,63.6,0.4c20.3,1.3,40.8,2.8,61.1-0.1c16.5-2.3,33.2-6.6,48.8-12.7c14.6-5.8,29.7-13.1,40.7-24.6
			c12.1-12.5,21.1-28.4,28.7-44c8.1-16.5,13.2-33.8,17.2-51.8c4.4-19.6,8.7-39.6,17.3-57.7c14.8-31,47.9-52.1,50.7-88.5
			c1.4-18.8-2.2-37.4-6.1-55.8c-3.9-18-11.3-35.5-13.5-53.8c0-1.4-0.2-2.7-0.4-4c-0.1-0.2,0-0.6-0.1-0.9c0-0.1,0-0.1-0.1-0.2
			c-2.7-19.8-13-39.3-25-54.7c-15.1-19.3-34.7-36.4-57.3-46.3c-24.1-10.5-53.2-8.3-75.7-22.7c-12.3-7.9-17.6-19.8-27.1-30.1
			c-8.3-8.9-18.8-15.8-29-22.1l-0.1-0.1c-23.9-15.2-49.1-28-74.4-40.7c-11.7-5.9-23.3-12.3-35.7-16.7c-11.7-4.3-23.8-7.5-36.1-9.7
			c-44.1-8.2-93.5-9.8-133.2,14.2C164.7,169.8,147.7,201.1,140,234.7z M166.5,180.5c20.5-28.1,56.6-42.9,90.7-45.3
			c35.7-2.4,74.6,2.2,108,15.2c19.1,7.4,37.4,17.7,55.5,27.1c18.6,9.6,37,19.5,54.5,31c0.1,0.1,0.1,0.1,0.3,0.1
			c10.3,6.4,21.2,13.5,28.5,23.2c6.6,8.7,11.9,18.4,21.1,24.7c20.3,14.2,44.8,13.5,67.6,20.8c24.8,7.9,46.6,24.2,63.4,43.7
			c14.3,16.8,27.2,38.4,29.8,60.8c0.1,1.1,0.2,2.2,0.3,3.3c0.1,0.9,0.1,1.7,0.2,2.4c0,0.4,0.1,0.6,0.3,0.8c1.7,10.7,4.9,20.8,8,31.2
			c3.7,12.6,6.5,25.5,8.7,38.5c3.4,19.6,5.4,40.8-3.5,59.4c-7.6,16-20.3,28.4-30.8,42.3c-11.4,15-18.6,32-23.7,50.1
			c-5.2,18.8-8.1,38.3-14.3,56.7c-6.3,18.5-14.8,36.4-25.9,52.5c-10.4,15.2-22.7,26.3-39.5,34.4c-15.5,7.5-31.9,12.5-48.7,16
			c-21.5,4.5-43.3,4.1-65.1,2.7c-11.1-0.7-22.1-1.7-33.1-1.1c-10.2,0.6-20.4,1.6-30.5,0.8c-19.5-1.3-39.2-5-58.6-8.4
			c-35.6-6.3-72-15.4-103.1-34.2c-15.9-9.6-29.3-21.3-41.7-34.9c-6.5-7.2-13-14.6-17.2-23.2c-4.4-8.7-7.5-18.4-9.9-27.8
			c-4.7-17.5-5.6-34.4-3.4-52.4c0.9-7.8,2.1-15.6,4.1-23.2c1.5-5.7,4-10.9,5.7-16.5c0,0,0,0,0-0.1c4.3-11.1,8.5-22,10-34.2
			c2.4-22.7-2.4-45.3-9.8-67.3c-8.1-24.3-17.6-47.8-22.2-73.3c-4.7-26.3-6.4-53.1-6-79.8C137.1,256.4,142.3,213.9,166.5,180.5z"/>
		<path class="st0" d="M135.3,163.2c-9.2,15.9-9.9,33.5-11.8,51.4c-2.4,21-6.7,41.8-5.6,63c1.1,20.7,4.8,40.8,9.5,61
			c4.9,20.9,2.3,42.1,6.1,62.9c3.4,18.4,11.8,34.9,17.6,52.5c11.8,35.1,5,72.3-7.9,106.1c-0.1,0.1-0.3,0.3-0.4,0.5
			c-3.4,7.9-5.5,17.2-7.3,25.7c-1.8,8-1.9,16-1.4,24c1,14.4,4.4,29.2,7.9,43.2c3.7,14.6,8.3,29.6,16.4,42.5
			c7.7,12.1,17.8,23,28.7,32.1c28.1,23.6,63.7,38.6,98.5,49.6c39.2,12.4,81,16.3,121.9,18.8c21.3,1.3,42.6,1.8,63.9,0.8
			c18.4-0.9,38.6-1.2,56.1-7.6c18.1-6.5,34.4-16.8,52.7-22.7c13-4.2,25.5-9.6,35.8-18.2c0.2-0.1,0.5-0.1,0.8-0.4
			c5.9-5.9,12.5-11.8,16.9-18.9c4.3-6.9,6.2-15.4,7.9-23.3c3.9-18.7,5.3-37.8,8.7-56.5c3.7-20.7,10.5-39,21.8-56.9
			c10.1-15.8,19.2-32.5,31.4-46.8c10.7-12.5,21.1-26.2,26-42c5.3-16.9,3.1-32.8-1.8-49.6c-2.7-9.1-6-17.9-9.6-26.7
			c-4-10-5.9-20.6-9.2-30.8c-2.6-8-6.7-15-10-22.8c-2.1-4.9-3.2-10.1-4.4-15.3c0,0,0,0,0-0.1c-2.3-11.1-9-21-15.7-29.9
			c-7.2-9.7-15.1-19.3-23.3-28.3c-14.2-15.8-33-30.8-54-36c-11.5-2.8-23.9-3.5-35.1-7.4c-11.4-3.9-21.9-10-30.3-18.5
			c-7.2-7.3-13.7-15-21.8-21.4c-4-3.1-8.4-5.9-12.6-8.4c-0.1-0.1-0.1-0.1-0.3-0.2c-8.5-4.9-17.2-8.3-25-14.4
			c-7.1-5.7-13.6-11.9-20.6-17.8c-14.7-12.3-31.1-22.7-48.5-31.1c-29.4-14.3-60.5-23.1-92.7-28.8c-49.3-8.7-110.4-14.7-153,17.3
			C150.9,141.8,141.9,151.7,135.3,163.2z M150.3,147.5c39.9-41.8,105.5-38,157.8-29.3c33.8,5.7,66.9,14.2,97.6,29.5
			c17.8,8.8,34.9,19.4,49.9,32.4c6.9,6.1,13.6,12.4,21,17.9c3.4,2.5,6.8,4.5,10.4,6.3c0.2,0.2,0.3,0.4,0.6,0.6
			c2.6,1.2,5.1,2.4,7.6,3.7c0.3,0.1,0.4,0.3,0.7,0.3c1,0.5,2.1,1.2,3.1,1.7c0.1,0.1,0.3,0.2,0.6,0.3c6.4,3.6,12.4,7.7,17.7,12.5
			c7.6,6.8,13.9,14.9,21.7,21.6c15.6,13.4,33.5,16.3,52.8,20.2c23.6,4.7,44.3,17.6,60.2,35.5c7.5,8.4,15,17.1,21.8,26.2
			c6.1,7.9,12.4,16.7,16,26.2c0.5,1.3,0.9,2.6,1.2,4c0.1,0.4,0.2,0.7,0.3,1.2c1.5,5.8,2.4,11.8,5,17.3c3.7,8.1,8,15.9,10.4,24.6
			c2.5,8.9,4.3,18.1,7.8,26.7c3.8,9.4,7.5,18.7,10.3,28.4c5.2,18.4,7.6,36-0.2,54c-7.1,16.4-18.9,28.6-29.6,42.7
			c-10.7,14.2-19.9,30.1-29.1,45.4c-9.3,15.5-14.8,31.9-18.2,49.5c-3.5,18.6-4.7,37.8-8.5,56.3c-1.7,8.2-3.2,17.9-8,24.9
			c-3.3,4.8-7.2,9.1-11.3,13.2c-0.4,0.5-0.8,0.8-1.2,1.3c-0.5,0.5-1.1,1.1-1.6,1.6c-17.9,16.7-43.1,20.5-64.6,31.3
			c-12.4,6.2-25.1,13-39,15.3c-14.8,2.3-29.8,3.5-44.6,4c-42.5,1.5-85-1.9-127-7.5c-41-5.4-81.7-18.5-118.2-38
			c-32.3-17.3-61.6-42.5-73.7-78c-5.5-16.4-9-33.3-11.7-50.4c-2.9-17.9-1.2-36.4,4.9-53.5c0.1-0.1,0.2-0.2,0.2-0.3
			c12.1-29.9,22-66.3,14.6-98.8c-3.7-16.7-11.4-31.9-16.8-48.1c-6.3-18.7-6-37-7.3-56.5c-1.1-19-7-37.1-10-55.9
			c-3.3-20.2-4.2-40.4-2-60.8c1.2-10.1,3-20,4.1-30.2c1-8.7,1.4-17.4,2.8-26.1C131.4,174.3,138.7,159.7,150.3,147.5z"/>
		<path class="st0" d="M134.5,125.5c-24.1,21.7-35.4,53.9-41.5,85c-7.8,40.1-0.8,79.4,13,117.3c3.7,10,7.9,19.6,10.5,30
			c2.3,9.6,4,19.2,5.7,28.8c3.4,18.4,8.5,36.3,12,54.6c7,37,11.6,77.7-2.4,113.6c-0.2,0.4-0.1,0.8,0.1,1.1
			c-5.8,16.7-14.2,33-15.1,50.8c-0.6,12.3-0.2,25.8,1.8,37.9c1.9,11,7.4,20.3,12.5,29.9c20.7,39.3,51.7,71.2,90.2,93.7
			c33.2,19.4,70.2,30.5,106.8,40.9c10,2.8,19.7,7.2,29.7,9.8c9.1,2.4,18.2,3,27.5,3.2c21.2,0.5,42.3,3.7,63.5,4.5
			c19.8,0.7,40.4,0.7,59.7-3.9c18.9-4.5,36.8-12.3,54.2-20.8c16.9-8.1,34.5-15.4,49.4-27.1c8-6.2,15.4-13,22.3-20.4
			c2.6-2.8,5.6-5.7,8-8.9c0.1-0.1,0.3-0.2,0.4-0.5c0.5-0.7,0.8-1.3,1.2-2c0,0,0,0,0.1-0.1c7.7-13.1,11.2-28.5,13.3-43.4
			c2.6-17.8,1.4-38.1,8.5-54.8c3.7-8.7,8.6-17.1,12.5-25.8c4-8.8,8.8-17.3,14.4-25.2c10.7-15.2,23.7-28.7,36.2-42.5
			c10.9-12.1,17.9-24.7,20.2-41c2.2-15.7,2-32.6,0-48.4c-2.3-19-9-36.9-16.8-54.2c-7.6-16.8-18.9-33.4-20.7-52.1
			c-1-9-4.9-17.8-8.6-25.9c-4.7-10-10.2-19.4-17.6-27.7c-15.8-17.9-36.3-33.2-59.5-39.8c-13.7-3.8-27.9-5.6-40.7-12.1
			c-10.5-5.3-19.7-12.4-28-20.8c-13.5-13.6-28.9-24.3-46-32.5l-0.1-0.1c-0.1-0.1-0.3-0.1-0.4-0.2c-1.8-0.9-3.7-1.7-5.5-2.4
			c-12.5-6.1-23.5-15.4-33.9-24.2c-14.1-11.8-28.2-22.9-44.5-31.7c-16.9-9.1-34.5-16.5-52.4-23c-28.8-10.4-57.8-20.2-88.4-23.9
			C235.3,85,174,89.6,134.5,125.5z M154.9,114.1c47.9-27.5,111-27.5,163.4-14.2c16.4,4.1,32.5,9.8,48.6,15.5
			c19.2,6.9,38.5,14.3,56.5,24c16.3,8.9,30.7,19.5,44.9,31.5c10.5,8.8,21.3,18,33.5,24.5c0.2,0.2,0.3,0.3,0.6,0.5
			c0.7,0.2,1.2,0.6,1.9,0.8c1.9,0.9,4,1.9,6.2,2.8c7.9,3.8,15.5,8.1,22.8,12.8c9.5,6.4,17,14.2,25.4,21.9c16,14.8,33.7,23,54.9,27.7
			c25.6,5.6,48,18.1,65.9,37.1c7.9,8.5,15.2,17.8,20,28.4c4.5,9.7,9.8,19.9,10.1,30.7c0,0.1,0.1,0.4,0.1,0.5
			c2.4,16.6,11.7,31,18.7,46c8.1,17.7,15.9,36.2,18.3,55.6c2.1,16.9,2.8,35.3-0.2,52.2c-1.7,8.9-4.3,18.1-9.5,25.6
			c-4.9,7.3-11.3,13.5-17.3,20c-11.6,12.7-23.4,25.4-32.6,40c-4.6,7.2-8.4,14.7-12,22.6c-3.8,7.9-8.4,15.5-11.6,23.6
			c-6.3,16.3-5.7,34.5-8.1,51.5c-2.1,15.1-5.1,30.9-12.6,44.4c-0.1,0.1-0.2,0.2-0.2,0.3c-0.2,0.4-0.4,0.8-0.6,1.1
			c-0.5,0.7-0.8,1.4-1.3,2.1l0,0c-4.1,6.3-11,12.1-16.2,17c-7.9,7.3-16,14.3-25.2,19.9c-17.3,10.6-36.7,19.1-55.3,27.1
			c-20.8,9-41.6,14.9-64.3,16.1c-21.2,1.1-42.6-0.2-63.8-2.1c-10.9-1-21.8-2.1-32.8-2.3c-10.7-0.3-21-1.7-31.2-5.2
			c-19.6-6.7-39.7-11.5-59.2-18.4c-18.5-6.5-37.1-12.6-54.7-21.5c-16.1-8.2-31.4-17.9-45.6-29.2c-28.9-23.4-52.1-53.2-67-87.3
			c-4.7-10.8-5.1-21.9-5.8-33.4c-0.5-9.9-0.8-19.9,1.8-29.7c4.2-16.2,11.6-31.3,15.8-47.4l0-0.1c1.2-3.8,2.2-7.7,3-11.7
			c6.9-35.8,1.6-73-6.2-108c-4.1-18.7-8.2-37.2-11.9-56c-3.9-20.3-12.1-38.6-18.3-58.2C90.5,272,88.2,229,101.7,187.2
			c5.2-16.3,11.5-32.9,22.2-46.4C132.4,130,142.9,120.9,154.9,114.1z"/>
		<path class="st0" d="M82.5,150.9c-26,49.7-24.3,108.6-6,160.5c6.8,19.1,12.1,38.8,19.5,57.7c8,20.2,17,40.5,22.7,61.5
			c5.8,21.6,7.3,42.9,7.2,65.1c-0.1,19.5,2.1,39.5-2.1,58.8c-0.1,0.3,0,0.4,0,0.6c-0.9,5-1.8,10.1-3.5,14.8
			c-3,7.9-7.4,15.3-9.6,23.4c-4.1,15-3.3,31.6-0.9,46.9c4.4,27.7,10.8,57.7,27.7,80.9c38.6,53.1,106.5,71.1,164,95.8
			c19.7,8.5,40.9,13.4,61.7,18.4c20,4.8,40.2,11.9,60.8,13.2c22,1.4,44,0,65.9-1.9c18.3-1.5,36.7-2.7,54.4-7.8
			c33.3-9.5,62.5-29.7,83.8-56.9c11.2-14.2,21.4-30.1,27.7-47.1c7-19,15.2-37.4,22.6-56.4c0.1-0.3,0.2-0.4,0.1-0.6
			c0.7-1.5,1.2-3,2-4.5c4.4-9.6,10.3-18.3,16.2-27c5.4-8.1,11.3-16.2,15.6-25c3.7-7.4,6.7-15.4,10.9-22.5
			c8.7-14.7,23-25.1,33.5-38.3c9.4-11.7,15-24.6,17.1-39.5c2.1-15,1.7-30.3-0.7-45.2c-1.6-9.6-3.8-19-5.7-28.6
			c-1.5-7.6-2.4-16-5.3-23.2c-5.8-14.3-17.8-24.7-25.8-37.6c-7.5-12-16.2-26-18-40.4c-0.1-0.9-0.1-1.7-0.2-2.4c0-0.4,0-0.7-0.1-1.2
			c-0.1-0.2-0.1-0.5-0.1-0.6c-2.5-18.3-11.2-35.8-22.7-50.3c-6.3-7.9-13.2-16-21.9-21.3c-7.7-4.8-16.1-7.9-24.8-10.6
			c-9.7-3-19.9-5.5-29.2-9.8c-11.3-5.2-19.8-13.2-28.2-22.2c-12.7-13.8-27.2-24.5-44-32.3c-0.1-0.1-0.3-0.3-0.6-0.4
			c-0.3-0.2-0.7-0.2-1-0.4c-2.2-1-4.5-1.9-6.8-2.9c-11.6-5-22.7-11.5-33.8-17.8c-13.2-7.4-25-15.2-36.6-25.1
			c-14.9-12.7-30.3-22-48-30.2c-18.5-8.6-36.4-19.4-55.4-26.6c-18.4-6.9-37.7-11.3-56.6-16.6c-18.5-5.2-36.5-8.6-55.6-6.4
			c-38.8,4.4-78.3,8.8-113.7,26.3C114.8,107.4,95.1,127,82.5,150.9z M116.3,113.2c28.7-23.4,66.2-32.1,102.1-36.5
			c21.3-2.6,42.7-8,64.2-4.5c20.2,3.3,40.2,9.8,59.8,15.5c9.7,2.7,19.2,5.8,28.3,9.8c9.6,4.2,18.7,9.6,28.2,14.3
			c18.3,8.8,38.2,16,54.5,28.4c14.9,11.3,28,23.7,44.5,32.9c12.8,7.1,25.5,14.7,38.9,20.7l0.1,0.1c0.3,0.2,0.7,0.2,1,0.4
			c2.1,0.9,4.1,1.7,6.1,2.5c8.9,3.9,17.5,8.7,25.5,14.5c8.7,6.2,15.5,13.8,22.6,21.4c6.6,7,13.5,13.6,22.2,17.8
			c7.5,3.7,15.4,6.3,23.4,8.7c9.7,2.9,19.7,5.4,28.6,10.2c8.8,4.7,16.1,11,22.4,18.7c13.2,15.6,24.1,34.6,26.5,55.2
			c0.1,0.9,0.1,1.7,0.2,2.6c0,0.6,0.1,1.2,0.1,1.7c0.1,0.2,0.1,0.5,0.1,0.6c1.9,11.7,8.1,23,14,33c3.7,6.4,7.7,12.6,12.3,18.3
			c4.8,6,10.2,11.9,14,18.7c4.7,8.5,6,17.7,8,27.2c1.9,9.2,3.8,18.3,5.6,27.5c2.9,15.6,3.8,32.2,1.3,48c-3,18.4-11,32.7-23.9,46.3
			c-11,11.6-22.8,22.1-29.8,36.6c-4.3,9-8.2,17.9-13.5,26.4c-5,7.8-10.2,15.5-15.3,23.2c-5,7.7-8.9,15.7-12.5,23.8
			c-0.2,0.2-0.4,0.3-0.5,0.6c-5.6,14.4-12.5,28.3-17.7,42.8c-5.1,14.1-10.5,27.5-18.5,40.3c-14.5,23.5-33.7,44.5-57.5,58.9
			c-22.8,13.8-48.3,20.7-74.7,22.9c-31.9,2.7-66.6,8-98.3,1.3c-21.2-4.3-42.3-10.2-63.1-15.7c-10.8-2.9-21.7-5.2-32.2-9.2
			c-9.2-3.5-18.1-7.8-27.2-11.6c-38.2-15.9-78.4-28.5-112-53.5c-14.5-10.8-28.3-23.6-38-38.9c-9.6-15.2-14.4-31.6-18.7-49
			c-4.9-20.4-9-41.5-6.4-62.6c1.4-11.1,6.6-20,10.6-30.3c2.5-6.8,3.6-13.8,4.9-20.8c0.1-0.3,0.1-0.5,0.2-0.8c0.1-0.6,0.2-1.3,0.4-2
			c0-0.1,0.1-0.3,0-0.4c2.8-18.4,0.6-37.1,1.2-55.6c0.7-20.4-1.3-41.1-6.6-60.9c-5.3-19.7-13.8-38.4-20.8-57.6
			c-7.5-20.5-13.9-41.2-21.2-61.7c-4.8-13.7-9.2-27.3-11.5-41.7C59.2,216.2,70.6,150.4,116.3,113.2z"/>
		<path class="st0" d="M44.3,217.2c-1.7,21-0.8,41.4,2,62.3c5.3,39.9,9.2,80.2,26.6,117.1c16.2,34.2,40.5,67.3,42.8,106.3
			c1.1,18.3-1.1,36.1-3.9,54.1c-1.2,7.6-2.4,15.2-4.2,22.6c-0.5,2.2-1.1,4.7-1.8,7.2l-0.1,0.1c-1,4.1-3.6,7.2-5.9,10.6
			c-2.3,3.3-4,6.8-5.9,10.4c-3.6,6.5-6.6,13-7.2,20.4c-1.6,16.6,1.5,32.6,3.9,48.9c2.2,14.1,6.8,30.1,15.2,41.9
			c9.6,13.6,18.5,27.9,30.5,39.7c0.2,0.2,0.3,0.3,0.6,0.4c4.3,3.9,9.2,7.1,14,10.4c7.6,5.2,14.7,10.6,22.5,15.2
			c17,10.1,32.6,21.9,49.1,32.4c16.7,10.7,34.5,17.2,53.2,23.6c19.5,6.7,39.2,12.9,59.1,17.7c20,4.8,40.4,8.7,61,10.6
			c21.3,2,42.6,1.4,64.1,0.7c20.5-0.6,40.9-1.8,61.3-4.7c10.6-1.6,21.2-3.2,31.3-6.7c9.1-3.1,18.1-6.9,27.3-9.9
			c35.3-11.8,66.4-35.4,91.6-62.3c12.5-13.4,22.3-27.8,30.4-44.1c7.4-14.6,14.4-29.2,18-45.1c0.1-0.1,0.2-0.3,0.2-0.4
			c0.5-1.8,0.8-3.7,1-5.6l0,0l0,0c0.6-4.1,0.8-8.2,1.4-12.2c1.3-8.5,4.5-16.9,8.9-24.4c9.6-16.6,22-31.2,31.3-47.9
			c17.8-32,30.9-65.2,34.1-102c2.8-33,0.3-69.1-20.1-96.6c-11.1-15-24.5-28.6-32.1-45.7c-5.3-11.8-9-24.1-13.9-36c0,0,0,0,0-0.1
			c-0.1-0.2-0.2-0.4-0.3-0.7c-1.3-3.1-2.6-6.1-4.1-9.2c-0.1-0.2-0.2-0.3-0.4-0.5c-5.9-11.8-13.4-23.4-21.9-33
			c-6.3-7.1-13.6-13.9-22.2-18.2c-10-4.8-20.6-7.9-30.4-13c-10.5-5.4-19.5-12.4-27.7-20.8c-4-4.1-7.7-8-11-12.8
			c-2.4-3.6-4.7-7.3-7.7-10.4c-8.2-7.9-19.4-12.7-30.6-16.7c-0.2-0.2-0.3-0.3-0.6-0.4c-3.6-1.2-7.4-2.5-11-3.8
			c-0.7-0.2-1.4-0.6-2-0.8c0,0-0.1,0-0.1-0.1c-8.4-3-16.5-6.5-24.3-10.7c-11.6-6.5-22.4-14.6-33.5-22
			c-23.4-15.9-46.6-31.8-70.2-47.3c-16.5-10.8-33.1-22.2-50.8-31.2c-17.6-8.9-36.7-13.4-55.5-18.5c-39.8-10.8-80.1-16.8-121.5-14
			c-20.2,1.4-39.8,7.6-59.1,13.2c-15.7,4.5-30.2,9.5-43.6,19.4C76.3,93.2,56.9,122,52.6,153.6C49.6,174.7,46,195.8,44.3,217.2z
			 M46.9,217.2c1.8-21.3,5.1-42.4,8.3-63.5c5.5-35,28.7-67.8,60.1-84.5c16.9-9,36.4-13.5,54.9-18.2c20.9-5.4,41.7-7.6,63.3-6.9
			c43,1.2,85.3,10.9,126.2,24.2c18.7,6.1,34.9,16.6,51.5,26.9c18.7,11.5,36.9,24,55.1,36.4c18.2,12.3,36.4,24.9,54.7,37
			c12.2,8.2,25,14.3,38.4,19.5c0.1,0.1,0.3,0.3,0.6,0.4c16,6.1,36.7,11.3,47.1,25.9c10.8,15.4,23.8,29.6,40.9,38.4
			c9.4,4.9,19.4,8.3,29,12.5c9.8,4.2,18.2,11.2,25.2,19.2c10.3,11.9,19.3,26.6,25.7,41.1c5.2,12.4,8.9,25.4,14.6,37.6
			c7.1,15.2,18,27.5,28.2,40.6c11.2,14.5,18.6,29.2,21.7,47.4c3.2,19.2,3.7,38.7,1.5,57.9c-4.4,38-18.6,74.3-39.6,106.3
			c-9.4,14.3-21.3,27.9-28.2,43.9c-2.8,6.2-5,12.4-5.9,19c-0.5,4-0.8,8.1-1.5,12.1l-0.1,0.1c-3,17.8-10.8,33.8-18.8,49.8
			c-7,14.1-14.9,26.9-25.4,38.7c-20.4,22.7-45.4,44.1-73,57.7c-9.4,4.7-19.1,7.9-29,11.5c-9.7,3.6-19.3,7.7-29.5,10.1
			c-21,5.1-43.2,6.9-64.7,7.9c-43.7,2.2-86.8,1.8-129.7-7.6c-21-4.6-41.6-10.5-62-17.3c-19.9-6.6-40.4-13-58.2-24.1
			c-16.6-10.3-32.1-22.5-48.9-32.4c-8.7-5.2-16.7-10.8-25.1-16.5c-7.1-4.9-14.6-9.4-20-16.1c-0.2-0.2-0.3-0.3-0.6-0.4
			c-9-10.1-16.5-21.6-24.2-32.6c-9.3-13.2-13.2-29.3-16.2-44.9c-2.9-15.3-6-32.6-3.2-48c1.5-8.4,5.7-17,10.4-24.1
			c0.7-1.2,1.5-2.2,2.4-3.4c0.2-0.1,0.3-0.2,0.5-0.4c8.2-9,9.1-25.4,10.9-36.9c3.1-19.3,6.1-38.9,4.7-58.6
			c-2.8-36.9-23.2-67.5-39.3-99.7c-9.2-18.5-16.3-37.8-20.5-58c-4.3-20.3-6.5-40.9-9.2-61.4C46.6,261.5,45.1,239.7,46.9,217.2z"/>
		<path class="st0" d="M27.7,186.1c-1.3,19.3-4.8,39.2-3.1,58.5c1.6,19.3,11,35.5,16.1,53.7c5.5,19.4,5.6,39.5,9.6,59.1
			c7.7,38.9,23.6,75.1,38,111.8c7.7,19.3,11.3,40,8.1,60.7c-2.5,16.3-8.2,31.8-14.9,46.9c-0.1,0.1-0.2,0.2-0.3,0.4
			c-1.3,2.6-2.6,5.4-3.7,8.1c-0.3,0.6-0.4,1-0.7,1.5c-0.1,0.3-0.2,0.4-0.1,0.6c-5.6,14.6-8.4,30.1-9.8,45.8
			c-0.9,10-2.1,20.5-1.6,30.5c0.4,9.5,2.8,18.5,6.1,27.4c6.5,18.1,13,37.8,24.4,53.4c8.8,12.1,20,23.6,31.5,33.8
			c6.8,6.6,14.8,12.2,21.9,18.4c9.3,8,18.5,16.6,28.2,24.2c19.6,15.2,41.6,26.9,64.5,36c23.9,9.6,48.7,17,74.1,22.2
			c25,5.1,50.4,7.8,75.7,11.4c21.5,3,42.5,4.6,64.3,3.2c21.8-1.5,43.6-2.1,65.5-3.7c20.1-1.4,40.5-4.4,60-9.7
			c17.2-4.6,33.9-12.1,49.8-20c14.8-7.3,29.3-16,40.4-28.4c12.2-13.6,21.3-30.2,29-46.5c4.5-9.5,8.7-19.3,12.1-29.3
			c3.4-9.7,6-19.4,10.6-28.6c4.2-8.2,8.4-16.7,13.3-24.6c3.7-5.9,7.7-11.6,11-17.8c0.1-0.1,0.1-0.1,0.1-0.3
			c7.4-13.3,11.2-28.4,18.3-42c8.7-16.7,18.1-32.8,25.7-50.2c15.5-34.5,29.8-71.4,29.4-109.8c-0.2-17-0.8-36.4-6.9-52.5
			c-5.6-15-17.2-26.8-26.2-39.7c-5-7.2-11.3-13.2-16.9-20c-6.1-7.5-10-16.6-14.1-25.4c-4.2-9-9.1-18.4-11.9-27.8
			c-1.5-5.1-2.6-10.4-4.4-15.3c0-0.1,0-0.1-0.1-0.2c-0.1-0.5-0.3-0.8-0.5-1.1l0,0c-4.6-11.7-13.8-21.3-23.4-29.3
			c-11.8-10-25-18.7-39.2-24.9c-10.2-4.5-19.8-9.6-25.1-19.7c-3.8-7.4-7.8-13.6-13.8-19.5c-8.8-8.4-19.1-17-29.9-23.2
			c0-0.1-0.1-0.1-0.2-0.2c-0.4-0.3-0.8-0.4-1.2-0.6c-1.1-0.6-2.3-1.4-3.5-2c-0.1-0.1-0.4-0.2-0.5-0.1c-13.8-6.6-29-9.5-43.2-15
			c-17-6.5-33.7-14.4-49.2-23.8c-31.5-19.1-60.2-42.3-90.6-63c-16.6-11.3-33.1-20.6-52-27.6c-18.7-6.9-36.9-15.6-55.8-21.7
			c-19.2-6.3-39.2-7.6-59.3-8.8c-21-1.2-41.3,0.3-62.2,2.4c-18,1.9-37,0.2-54.4,5.8c-15.6,5.1-29.1,14.2-43,22.6
			c-13.7,8.2-27.5,16.4-38.1,28.7c-11.5,13.4-17.7,31.3-21.3,48.3C30.3,148.2,28.9,167.1,27.7,186.1z M30.2,188.6
			c2.5-37.7,3.7-85,33.9-112.4c12.9-11.6,28.7-20.1,43.5-29c14.3-8.6,29-16.1,45.9-17.9c10.1-1.1,20.3-0.8,30.4-1.6
			c10.8-1,21.6-2.4,32.5-3.2c21.7-1.4,43.3,0.3,64.9,2.2c21,1.9,39.6,9.9,59,17.9c19.2,8,39.9,13.2,57.9,24.1
			c35.1,21.1,66.4,47.8,100.8,69.8c16.4,10.5,33.5,19.8,51.6,27.3c17.4,7.1,36.7,10.5,53.4,19.1c12.9,7,26.4,17.5,36.2,28.2
			c5.7,6.3,8.6,13.8,13.3,20.7c4,6.1,11,9.9,17.4,13.1c13.4,6.8,26.4,13,38.3,22.2c10.6,8.3,21.9,18.1,27.7,30.6
			c0.1,0.2,0,0.4,0.1,0.6c3.5,7.1,4,15.1,7.2,22.3c3.5,8.2,6.9,16.5,10.7,24.5c3.5,7.4,6.8,15.7,11.7,22.3
			c5.1,7,11.7,12.7,16.8,19.6c5.5,7.5,10.7,15.1,16.5,22.2c4.6,5.9,9.1,12.2,11.7,19.2c6.4,16.9,7.5,37.4,7.3,55.3
			c-0.6,38.3-14.6,74.4-30.3,108.9c-8.1,17.8-18.1,34.3-26.7,51.9c-6.8,13.8-10.3,29.3-19,42.2c-0.2,0.3-0.2,0.7-0.2,0.9
			c-7.8,13.6-16.8,26.6-23.3,41.2c-4.6,10.3-7.2,21.2-11.2,31.7c-4,10.6-8.6,20.9-13.9,30.8c-10.1,19.1-21.5,37.7-39.4,50.5
			c-15.7,11.2-33.4,18.7-51.1,26.4c-40.8,17.8-85.8,16.1-129.2,19.6c-21.4,1.7-42.9,3.3-64.2,0.6c-21.3-2.7-42.7-5.5-63.9-8.6
			c-41.6-6.1-83.3-17.1-121.2-35.2c-20.1-9.6-38.5-21.3-55.5-35.9c-8.1-7.1-16.1-14.3-24.4-21c-3.2-2.5-6.4-5.1-9.6-7.6l0-0.1
			c-2.6-2.2-5.1-4.5-7.6-6.9c-0.8-0.8-1.7-1.6-2.4-2.6c-0.2-0.2-0.3-0.3-0.6-0.4c-3-2.8-5.9-5.8-8.7-8.8
			c-6.9-6.8-13.9-13.7-19.2-21.9c-10.3-16.1-17.2-34.9-23.5-52.9c-6.3-18.1-5.4-36.2-3.6-55.1c1.5-16,4.3-31.8,10.2-46.7
			c11.9-25.2,22.5-52.4,20.1-80.7c-2.5-29.3-16.9-56.1-27.2-83.2c-7.3-19.3-14-38.8-18.4-59c-4.3-19.7-4.4-40.1-9.2-59.7
			c-4.7-18.6-15.4-36.3-17.5-55.4C25.6,228.9,29,208.6,30.2,188.6z"/>
		<path class="st0" d="M0.2,217.6c1.1,40.4,7.1,80,20.8,118c6.5,17.7,14.2,34.9,21.8,52.3c8.5,19.4,14.4,39.8,18,60.7
			c3.5,20.2,7.1,41.5,3.6,61.9c-2.9,17-9.5,33.1-14.7,49.5c-0.2,0.4-0.3,0.8-0.4,1.2c-0.4,1.2-0.7,2.3-1.1,3.3c-0.1,0.1,0,0.4,0,0.5
			c-12.7,44.8-9.8,93.4,0.3,138.4c10.3,45.6,26.8,88.8,59.8,123c46.9,48.7,111,73.5,174.4,93.3c79.5,24.8,164.6,49.1,248.5,35.2
			c61.4-10.1,119-41.6,158.1-90.2c10-12.3,18.9-25.7,26.2-39.7c7.7-14.8,12.5-30.4,19-45.7c7.8-18.3,18.3-35.4,29.2-52
			c5.5-8.4,11.5-16.7,16.2-25.5c1-2.1,2-4.1,2.7-6.3c0.2-0.2,0.3-0.3,0.5-0.7c0.2-0.8,0.3-1.4,0.5-2.2c1.3-4.3,2.4-8.6,3.3-12.9
			c0.1-0.3,0-0.5,0-0.6c1.6-6.5,3.1-13.1,5.1-19.5c6.2-20.2,11.7-41,19.5-60.7c7.3-18.8,16.5-37.3,21-57.1c4.5-20,2.8-39.3,2.1-59.6
			c-0.3-9.9-0.1-19.7-1.6-29.6c-1.5-9.6-4.6-18.5-7.6-27.8c-5.5-17.2-9.7-35-23.1-48c-6.3-6.2-13.6-11.7-19-18.7
			c-5.5-7.1-11.2-14.2-16.5-21.6c-5.6-8-11.3-16.7-13.9-26.3c-0.7-2.6-1.3-5-1.9-7.5c-0.3-1.4-0.7-2.8-1-4.2c-0.3-1.3-0.7-2.7-1-4
			l0-0.1c-2.7-10.9-6.1-21.7-13.3-30.6c-9.3-11.5-21.7-17.4-35.1-22.8c-8.7-3.6-17.7-7.2-25.3-12.9c-8.3-6.3-11.9-14.1-17.4-22.5
			c-4.1-6.2-9-12.1-14.7-16.9c-6.2-5.1-13.2-8.2-19.8-12.5c-0.3-0.2-0.6-0.3-0.8-0.2c-17.7-9.6-36.8-16.8-55.4-24.4
			c-22.9-9.2-44.7-18.9-64.6-33.5c-19.2-14.1-36.8-30.5-56.7-43.7c-21.9-14.6-46.1-27.1-69.8-38.9C308.7,1.5,229.7-10.2,156.2,9.8
			C98.9,25.4,44.8,58.8,18.1,113.4C2.4,145.6-0.8,182.3,0.2,217.6z M4.5,174.4c3.6-33.6,14.7-65.1,36.3-91.5
			C81.2,33.5,148,6.9,210.9,3.1c41.2-2.5,85.3,3,124.1,17.1c19.7,7.2,38.6,16.3,57,26.3c17.7,9.6,35.9,18.6,52.6,29.9
			c29.9,20.3,55.3,47.8,88.4,63.4c31.7,14.9,65.9,24.6,96,42.6c0.1,0.1,0.4,0.2,0.6,0.3c4.8,2.7,9.6,5.4,13.7,9.3
			c6.1,5.9,11.3,12.5,15.5,20c7.6,13.6,18.7,21.8,33,28c14.7,6.4,30.5,11.1,41,24c9.7,11.9,12.7,26,16.3,40.7
			c0.1,0.2,0.1,0.4,0.2,0.4c3.7,12.9,8.9,24,17.2,35.1c5.6,7.7,11.3,15.9,17.8,23c5.6,6,12.1,11,17.7,17
			c7.9,8.3,12.2,18.1,15.8,28.8c3,9.4,6.4,18.7,9.2,28.2c6.1,20,5,41.5,6.1,62.3c1.1,21.6-1.8,41.7-9.3,62.1
			c-7,19-16.3,37.4-21.6,57.1c-4.5,16.5-10.6,32.5-14.8,49.1c-1.7,6.6-3.3,13-4.9,19.6c-2.4,8-5.6,15.4-10.5,22.8
			c-6,9.1-12,18.1-17.8,27.3c-11.3,18-20.4,36.3-27.7,56.2c-12.5,34.6-32.8,66.2-59.5,91.6c-51.8,49.2-120.6,71.8-191.6,70.6
			c-43.8-0.8-86.9-9-129-20.3c-38.9-10.4-78-21.8-115.5-36.4C168.5,874.8,107.4,838,76,777c-17-33.2-26.5-71.8-31-108.6
			c-4.5-36.1-3.6-73.5,7.6-108.3c0.2-0.4,0.2-0.8,0.4-1.1c0.7-2.1,1.4-4.3,2.2-6.3c0.1-0.1,0.1-0.3,0.1-0.3
			c5.4-15.8,11.3-31.6,12.8-48.2c2.1-23-2.3-47.7-7.5-70.1C50,388.3,24.4,347.7,13.3,302C3.2,260.9,0,216.4,4.5,174.4z"/>
	</g>
</g>
</svg>
