<?xml version="1.0" encoding="utf-8"?>
<!-- Generator: Adobe Illustrator 23.0.1, SVG Export Plug-In . SVG Version: 6.00 Build 0)  -->
<svg version="1.1" id="Layer_9" xmlns="http://www.w3.org/2000/svg" xmlns:xlink="http://www.w3.org/1999/xlink" x="0px" y="0px"
	 width="161.6px" height="50.3px" viewBox="0 0 161.6 50.3" style="enable-background:new 0 0 161.6 50.3;" xml:space="preserve">
<style type="text/css">
	.st0{fill-rule:evenodd;clip-rule:evenodd;fill:#153329;}
</style>
<g>
	<path class="st0" d="M97.1,38.8c-1-0.6-2-1.1-3-1.7c-0.9-0.5-1.9-0.8-2.6-1.5c-1-1-2-1.8-3.4-1.9c-0.4,0.8-0.7,1.5-1.3,2.5
		c1.1,0.2,2.1,0.4,3.1,0.7c0.8,0.2,1.8,0,2.2,1.2c0.3,0,0.6-0.1,0.9,0c0.7,0.1,1.5,0.3,2.2,0.5c0.5,0.2,1,0.6,1.5,0.8
		c0.1,0.1,0.4-0.1,0.5-0.2C97.3,39.2,97.2,38.9,97.1,38.8z"/>
	<path class="st0" d="M108.6,33.9c-0.3-0.3-0.4-0.7-0.7-1c-0.8-0.8-1.9-1.1-3-1.4c-0.9-0.2-1.5,0.1-2.2,0.9c0.8,0.7,1.5,1.3,2.3,1.9
		c0.1,0.1,0.4,0,0.6,0s0.5-0.1,0.6,0c1.1,0.6,2.1,1.3,3.2,1.9c0.2,0.1,0.6,0,0.9,0.1c-0.1-0.4,0-1-0.3-1.3
		C109.7,34.6,109,34.3,108.6,33.9z"/>
	<path class="st0" d="M59.8,35.4c-0.1-0.5-1-1.3-1.4-1c-0.8,0.5-1.5,1.1-2.1,1.6c1.5,1.4,2.9,2.7,4.3,4c0.3-0.5,0.6-0.8,0-1.5
		C60,37.7,60,36.5,59.8,35.4z"/>
	<path class="st0" d="M90,15.7c0.6-0.3,0.7-0.9,0.4-1.6c-0.3-0.7-0.6-1.3-0.8-2c-0.3-1.1-0.3-1.2-1.3-0.5c0.1,0.4,0.2,0.8,0.3,1.1
		C89.1,13.7,89.5,14.7,90,15.7z"/>
	<path class="st0" d="M42.7,25.8c-0.7,0.8-1.4,1.6-2.1,2.4c0,0,0,0.1-0.1,0.2c0,0,0.1,0,0.1,0.1c0.3-0.3,0.5-0.5,0.8-0.8
		s0.5-0.5,0.8-0.8s0.6-0.5,0.9-0.8c0.2-0.3,0.7-0.4,0.8-0.9c-0.2,0-0.3,0-0.4,0.1C43.2,25.4,42.9,25.6,42.7,25.8z"/>
	<path class="st0" d="M160.6,46.6c-1-0.2-1.7-0.8-2.5-1.4c-0.3-0.3-0.6-0.5-1.1-0.5c-0.9,0.1-1.3-1.5-1.9-2.1
		c-0.4-0.4-0.8-0.8-1.1-1.2c-0.4-0.5-0.8-1.3-1.3-1.6c-0.4-0.3-1-0.1-1.4-0.5c-0.1-0.1-0.3-0.2-0.4-0.3c-0.4-0.5-1-0.6-1.6-0.7
		c-0.5,0-0.9-0.1-1.4-0.1c-0.3,0-0.6-0.2-0.8-0.3c-0.5-0.1-0.9-0.1-1.4-0.1c-1.1-0.1-2.5-1.6-2.8-2.5c-0.2-0.6-0.5-1.1-0.8-1.6
		c-0.1-0.2-0.2-0.3-0.2-0.5c-0.2-0.8-0.4-1.8-0.9-2.4c-0.1-0.1-0.6-0.3-0.6-0.3c-0.2-0.5-0.7-0.5-1.1-0.5c-0.5,0-0.6,0-0.7-0.5
		c-0.1-0.4-0.4-0.7-0.8-0.8c-0.7-0.1-1.3-0.2-2-0.4c-0.9-0.2-1.9-0.1-2.7-0.8c-0.1-0.1-0.3-0.1-0.5-0.1c-0.4,0-0.7-0.2-0.7-0.6
		c-0.6,0.2-1.1-0.1-1.4-0.5c-0.6-0.7-1.3-1.4-1.8-2.2c-0.4-0.7-0.8-1.4-1.3-2.1c-0.3-0.5-0.7-0.6-1.1-0.9c-0.3-0.3-0.5-0.7-0.7-1.1
		c-0.2-0.2-0.3-0.4-0.5-0.7c-0.3-0.4-0.9-0.2-1.2-0.5c-0.3-0.3-0.5-0.7-1-0.8c-0.4-0.1-0.8-0.2-1.2-0.4c-0.8-0.2-1.2-1-1.7-1.6
		c-0.6-0.8-1.6-1.4-2.1-2.3c-0.4-0.8,0-2.2-0.8-2.7c-0.6-0.4-1.6,0-2.3-0.3c-0.7-0.3-1.3-1.1-2.1-0.9c-0.9,0.2-1.4,1.3-1.9,2
		c-1.3,2-3.7,3.5-5.9,4.5c-0.4-0.3-0.7-0.7-1-1c-1.1-1.1-0.7-2.9-2.1-3.9c-0.1-0.1-0.1-0.3-0.1-0.4c0.1-0.8-0.4-0.9-1.1-1.1
		c-0.8-0.2-1.8-0.5-2.3-1.1c-1.4-1.6-2.8-3.3-3.9-5.1C93.5,2,92,1,90.4,0.4c-0.9-0.4-2-0.7-3.2-0.1c-0.9,0.4-1.4,1.1-2,1.6
		c-2.1,1.9-4.1,3.9-6.2,5.8c-1.6,1.5-3.2,3.1-4.8,4.6c-1.1,1-2.2,2-3.4,2.9c-0.9,0.7-2,1.2-3,1.7c-1.6,0.8-1.2,0.9-2.8-0.2
		c-0.5-0.4-1.5-0.6-2-0.4c-1,0.7-2,1.5-2.8,2.5c-0.2-0.2-0.3-0.3-0.4-0.5c-0.1-0.2-0.3-0.4-0.4-0.6c-0.3-0.4-0.8-0.2-1-0.5
		c-0.3-0.3-0.5-0.6-0.9-0.7s-1.1-0.2-1.4-0.4c-0.3-0.3-0.2-0.7-0.4-1c-0.3-0.3-0.6-0.1-0.8-0.4c-0.6-0.7-1.2-1.4-1.9-2.1l-0.1-0.1
		c-0.2-0.7-0.7-1.1-1.2-1.7c-0.3-0.3-0.6-0.7-1-0.7c-0.9,0-1.3-0.7-2.1-0.9c-0.4-0.1-1.5-0.3-1.8,0.1c-0.2,0.2-0.1,0.7-0.3,0.8
		c-0.2,0.2-0.6,0-0.8,0.1s-0.4,0.6-0.5,0.8c-0.2,0.5-0.5,1-0.6,1.5s-0.3,1-0.6,1.4c-0.9,1.3-1.6,2.7-2.7,3.8c-1,1-2.3,1.6-3.4,2.4
		c-0.6,0.5-1.3,1-1.9,1.5c-1.6,1.6-3,3.8-5.3,4.6c-1,0.4-2,0.9-3,1.4c-0.4,0.2-0.8,0.3-1.2,0.6c-1,0.7-2.3,1-3.2,1.7
		c-0.4,0.3-0.6,0.5-0.8,1c-0.1,0.3,0,1-0.3,1.2c-0.7,0.4-1.4,0.8-2.1,1.2c-0.9,0.5-1.8,1-2.7,1.5c-0.2,0.1-0.5,0.2-0.7,0.2
		c-0.6,0.2-1.3,0.2-1.9,0.6c-0.1,0.1-0.2,0.1-0.3,0.1c-0.4,0.1-0.8,0.2-1.1,0.5s-0.7,0.6-1,0.5c-0.5,0-1,0.1-1.4,0.4
		c-0.9,0.5-1.7,1.1-2.5,1.7C8,39.2,7.4,40,6.7,40.1c-0.9,0.2-0.9,0.7-1.3,1.3c-0.3,0.4-0.7,0.7-1.1,1c-0.9,0.4-1.7,0.9-2.6,1.3
		c-0.2,0.1-0.5,0.2-0.6,0.4c-0.2,0.3-0.4,0.4-0.7,0.5c-0.1,0.1-0.2,0.2-0.3,0.3c0.3,0.2,0.5,0.1,0.7,0c0.5-0.3,1-0.6,1.5-0.8
		s0.9-0.4,1.3-0.7c0.2-0.2,0.5-0.3,0.7-0.3c0.4,0.1,0.6-0.1,0.8-0.3c0.2-0.2,0.5-0.4,0.7-0.5C6.5,41.9,7.2,41.4,8,41
		c0.5-0.3,1-0.6,1.6-0.7c-0.1,0-0.3-0.1-0.5-0.1c0.7-0.6,1.4-1.1,2.1-1.4c0.8-0.4,1.5-0.7,2.3-1.1c1-0.5,2-1.1,3-1.6
		c0.3-0.2,0.6-0.3,1.1-0.3c-0.5,0.3-0.9,0.4-1.2,0.6c0.4,0,0.6-0.1,0.9-0.2c0.5-0.2,1-0.3,1.4-0.5c0.3-0.1,0.5,0.2,0.7,0.1
		c0.5-0.3,0.9,0,1.2,0.3c0,0.1-0.1,0.2-0.1,0.4c0.3,0,0.5,0,0.7,0.1c-0.5,0.7-1,1.3-1.4,2c-0.1,0.2-0.3,0.5-0.3,0.7
		c-0.1,0.4-0.3,0.8-0.6,1.1c-0.4,0.4-0.8,0.7-1.2,1.1c-0.7,0.8-1.4,1.3-2.3,1.8c-0.4,0.2-0.8,0.5-1.2,0.8c0.3,0.1,0.4,0.1,0.6,0.2
		c-0.3,0.3-0.6,0.6-0.9,0.8c0.2,0.1,0.3,0,0.4,0c0.3-0.2,0.5-0.4,0.8-0.7c0.2-0.2,0.5-0.3,0.8-0.2c0.2,0.1,0.4,0,0.5-0.1
		c0.2-0.1,0.3-0.2,0.5-0.3c0,0.2,0,0.3,0.1,0.5c0.2-0.2,0.4-0.3,0.5-0.5c0.1-0.1,0.2-0.3,0.3-0.3c0.5-0.1,0.9-0.5,1.3-0.8
		c0.3-0.2,0.5-0.4,0.8-0.5c0.4-0.3,0.8-0.5,1.2-0.8c0.2-0.2,0.5-0.4,0.5-0.6c-0.1-0.4,0.2-0.4,0.4-0.6c1.2-1,2.4-1.9,3.6-2.8
		c0.5-0.4,1.1-0.9,1.4-1.5c0.4-0.8,1-1.5,1.6-2.1c0.8-1,1.8-1.8,2.6-2.7c0.1-0.1,0.2-0.2,0.3-0.3c0.3-0.3,0.6-0.6,0.9-1
		c0.3-0.3,0.7-0.5,0.8-0.8c0.3-0.6,0.7-1,1.2-1.4c0.6-0.6,1.3-1.1,1.9-1.7c0.9-1,1.8-2,2.7-3c0.5-0.5,0.5-0.5,1.1,0
		c-0.2,0.4-0.3,0.8-0.5,1.3c0.5,0.3,0.7-0.3,1-0.3c0,0.1,0.1,0.2,0.1,0.2c-0.2,0.4-0.4,0.8-0.5,1.3c0,0.1-0.2,0.2-0.3,0.3
		c-0.1,0.1-0.3,0.2-0.3,0.4c0,0.1,0,0.2,0.1,0.3c-0.2,0.3-0.4,0.6-0.6,0.8c-0.1,0.2-0.3,0.3-0.4,0.5c-0.8,0.7-1.7,1.2-2.2,2.2
		c-0.2,0.5-0.5,0.9-0.7,1.3v0.1c0.2,0.6-0.4,1.1-0.3,1.8c-0.5,0.6-0.4,1.3-0.6,1.9c-0.3,0.8-0.4,1.6-1.3,2.1c0.4,0.3,0.2,0.6,0,0.8
		c-0.3,0.3-0.6,0.5-0.9,0.8c-0.3,0.3-0.6,0.5-0.8,0.8c-0.1,0.1-0.1,0.3-0.1,0.4h0.1c-1.6,1.3-3.1,2.6-5.3,3.1
		c0.3,0.3,0.5,0.4,0.8,0.7c-1.1,0.9-2.2,1.8-3.3,2.6c0.1,0.1,0.1,0.2,0.2,0.4c0.3-0.1,0.7-0.1,0.9-0.3c1.5-0.9,3.1-1.6,4.5-2.7
		c1.8-1.3,3.4-2.8,5-4.3c0.6-0.5,1-0.6,1.5,0c0.5,0.8,1.1,1.6,1.5,2.4c0.6,1,1.2,2,2.7,1.7c0.1,0,0.2,0,0.3,0
		c2.1,0.2,4.3,0.4,6.4,0.6c0.7,0,1.1,0.2,1.6,0.7c1.3,1.2,2.7,2.3,4.6,2c0.9-0.1,1.7-0.1,2.7-0.1c-0.4,0.3-0.7,0.6-1,0.9l0.1,0.1
		c1.8-1.1,3.6-2.2,5.3-3.3c0-0.1,0-0.2-0.1-0.3c-0.7,0.2-1.5,0.4-2.2,0.5c-1.6,0.4-3.2,0.8-4.8,1.1c-0.5,0.1-1.2-0.2-1.7-0.5
		c-0.9-0.6-1.7-1.4-2.7-2.3c0.8,0,1.6,0.1,2.3,0.1c0-0.1,0-0.2,0-0.2c-0.3-0.1-0.5-0.3-0.8-0.3c-1.3-0.1-2.6-0.3-3.8-0.1
		c-1.9,0.4-3.6,0.1-5.4-0.1c-0.8-0.1-1.4-1-1-1.7c0.3-0.7,0.7-1.4,1.1-2.1c-0.2,0-0.4,0-0.6,0.1c-0.1-0.8,1.7-1.1,0.2-2.1
		c0.6-0.5,1.1-0.9,1.7-1.3c0.6-0.4,1.3-0.8,1.9-1.3c1.5-1.3,2.9-2.7,4.4-4.1c1.4-1.3,1.4-1.3,3-0.3c0.1,0,0.1,0.1,0.2,0.2
		c-0.1,0.3-0.1,0.7-0.2,1c0.1,0,0.1,0.1,0.2,0.1c0.3-0.3,0.6-0.6,1-1c0.1,0.4,0.1,0.6,0.2,1.1c0.5-0.4,0.8-0.7,1.2-1.1
		c0,0.7,0.2,1.4,0,2c-0.3,0.9-1,1.7-1.4,2.6c-0.1,0.3-0.2,0.6-0.3,1.1c0.4-0.2,0.6-0.3,0.7-0.4c3-2.2,6-4.5,9.1-6.7
		c0.3-0.2,0.7-0.4,1.3-0.6c-0.1-0.7,0.1-1.7-0.4-2.3c-0.9-1.1-0.3-1.6,0.3-2.3c0.5-0.5,1-0.9,1.5-1.4c0.6-0.5,0.9-1.1,0.3-1.8
		c-0.2-0.2-0.3-0.5-0.5-0.9c1.4,0.2,2.5,0.4,3.5,0.6c0.2,1,0.4,1.8,0.5,2.6c0.1,1.1,0.4,2.2-0.5,3.1c-1,1-2.1,2-3.1,3
		c-0.4,0.4-0.6,0.9-1,1.5c0.8-0.1,1.3-0.2,1.9-0.3c1.2-0.1,2.3-0.2,3.5-0.3c-0.1,1.1,0.6,0.2,0.9,0.1c0.1,0.3,0.1,0.7,0.2,1.1
		c0.5-0.3,0.8-0.5,1.1-0.7c0.1,0,0.1,0.1,0.2,0.1c-0.2,0.4-0.5,0.8-0.9,1.5c0.7,0,1.2,0,2-0.1c-0.4,0.8-0.7,1.4-1.2,2.3
		c0.8-0.2,1.3-0.4,1.8-0.6l0.1,0.1c-0.7,0.5-1.3,1-1.8,1.3c0.2,0.7,0.6,1.6,0.4,1.7c-1,0.8,0.3,1.8-0.6,2.5c0.1,0,0.2,0.1,0.3,0.1
		c0.8-0.7,1.6-1.4,2.5-2.3c-0.6,2.4-3.2,3-3.9,5c2-1.6,3.9-3.2,5.8-4.8c0.3-0.2,0.5-0.4,0.8-0.5c0.9-0.9,1.8-1.7,2.7-2.6
		c-0.4,1.4-1.7,1.9-2.7,2.6c-1,1-1.9,1.9-2.9,2.9c-1.4,1.3-2.7,2.6-4.1,3.9c-0.1,0.1-0.2,0.3-0.2,0.4c-0.2,0.3-0.3,0.7-0.6,1
		c-1,1.1-2.1,2.1-3,3.1c-0.5,0.5-0.8,1.2-1.4,2c-1.3-1.8-2.4-3.3-3.6-5c-0.1,0.4-0.2,0.5-0.1,0.6c0.4,0.8,0.9,1.6,1.4,2.3
		c0.7,1,1.3,1.9,2.1,2.8c0.1,0.2,0.7,0.2,0.9,0.1c1.8-1.3,3.6-2.4,5.9-2.8c0.2,0,0.3-0.1,0.4-0.2c2-1.9,4-3.9,5.9-5.9
		c0.7-0.8,1.6-1.3,2.5-1.1c0.8,0.2,1.6,0.7,1.9,1.7c0.1,0.5,0.5,0.9,0.8,1.3c0.4,0.5,0.8,1.1,1.3,1.6c0.2,0.3,0.4,0.8,0.6,0.8
		c1.3,0.1,1.9,1.1,2.8,1.8c0.4,0.4,0.9,0.8,1.3,1.2c0.1-0.1,0.2-0.2,0.3-0.2c-0.2-0.5-0.4-1-0.7-1.4c-0.4-0.7-0.9-1.3-1.3-2
		c-0.6-0.9-0.9-2.1-1.7-2.8c-1.5-1.4-2.3-3.2-3.2-4.9c-0.1-0.3,0-0.8,0.2-1.1c0.7-1,1.6-2,2.3-3c0.3-0.4,0.5-0.8,0.8-1.3
		c0.2,0.1,0.4,0.1,0.8,0.2c-0.1-1-0.2-1.9-0.4-2.8c-0.2,0.2-0.3,0.3-0.6,0.6c-0.1-0.7-0.1-1.2-0.2-1.8c-0.4-0.1-0.7-0.3-1-0.5
		c-0.6-0.6-1.1-1.3-1.7-1.8c-1-0.9-1-1.1-0.1-2.1c1-1,1.9-2.1,2.8-3.2c0.1-0.2,0.3-0.4,0.5-0.5c0.8-0.2,0.7-0.8,0.6-1.3
		c0-0.3-0.1-0.7-0.2-1c0.1,0.1,0.2,0.1,0.3,0.2c0.1-0.1,0.3-0.2,0.3-0.4c0.1-0.9,0-1.8,0.1-2.7c0.2-1.2,0.6-2.3,0.9-3.4
		c0.5-1.9,1.1-3.7,1.6-5.6c0.1-0.6-0.1-0.9-0.6-1.3c-0.5-0.3-0.5-1.1-0.8-1.7c0.4,0,0.8,0,1.2-0.1c0.1,0,0.3,0,0.4,0
		c0.6-0.5,0.9-0.1,1.4,0.2c0.4,0.4,0.9,0.7,1.3,1.1c0.2,0.2,0.4,0.5,0.4,0.6c-0.6,1.6,1.1,2.9,0.5,4.4c0,0.1,0.2,0.3,0.2,0.4
		c0.2,0.6,0.5,1.1,0.6,1.7c0,0.7-0.2,1.5-0.2,2.2c0,1.5,0.4,3.1-0.2,4.5c-0.1,0.2,0,0.3,0,0.7c0.3-0.2,0.5-0.3,0.8-0.5
		c0.2,0.5,0.4,1,0.6,1.5c0.2-0.1,0.4-0.1,0.7-0.2c0.5,1,1,2,1.5,3c0.2,0.4,0.4,1,1.2,0.6c0.2,1.1,0.3,2.2,1.6,2.7
		c0.1,0.1,0.2,0.3,0.3,0.5c0.3,0.6,0.7,1.3,1,1.9c0.2-0.9,0.3-1.7,0.3-2.5c-0.1-1.3-0.3-2.6-1.1-3.8c-1-1.4-1.9-2.9-2.9-4.4
		C98,17.1,97.7,17,97.6,17c-0.7,0-0.6-0.3-0.4-0.8c0.3-0.8,0.6-1.6,0.7-2.4c0.2-1.2,0.2-2.4,0.4-3.6c1.1-0.2,1.1,1.9,2.4,1.3
		c0.4,0.4,0.8,0.8,1.1,1.3c0.2,0.3,0.4,0.6,0.5,1c0.1,0.9-0.2,2.1,1.3,2.2l0.1,0.1c0.9,1,1.8,2,2.7,3c0.2,0.2,0.3,0.3,0.5,0.4
		c0.6,0.3,1.2,0.6,1.8,1c0.8,0.5,1.4,1.2,2.2,1.6c1.2,0.6,2.4,0.9,3.6,1.4c0.3,0.1,0.7,0.3,0.8,0.5c0.2,0.7,0.3,1.4,0.4,2.1
		c0.1,1,0.2,2,0.4,3c0,0.2,0.2,0.4,0.4,0.6c0.5,0.7,1.3,1.4,1.6,2.2c0.4,1.3,0.4,2.7,0.5,4c0.1,0.7,0.2,1.4,0,2
		c-0.2,0.8-0.7,1.5-1.1,2.2c-0.5,0.8-0.2,1.5,0.2,2.2c-0.4,0.5-0.6,2.1-0.3,2.6c0.3,0.4,2.4,1.5,3,1.4c-0.4-1.2-0.7-2.4-1.2-3.5
		c-0.2-0.6-0.6-1.2,0-1.7c1.5-1.3,3-2.5,4.6-3.9c0.3,0.9,0.6,1.7,0.9,2.6c0.2,0.4-0.3,1.2,0.7,1.2c-0.2,0.5,0.3,0.5,0.4,0.7
		c0.4,0.9,0.5,1.8,0.8,2.7h0.1c0-0.9,0-1.7-0.1-2.5c2.2,0.3,4.3,0.7,6.6,1c-0.4-0.9-3.5-2.3-4.6-2.4c-0.2-0.4-0.3-0.8-0.5-1.1
		c-1.1-1.5-2.2-3.1-3.3-4.6c-0.4-0.6-0.9-1.1-1.4-1.7c-0.4-0.6-0.8-1.2-1.2-1.8c-0.7-1.2-1.3-2.5-1.9-3.8c-0.4,1.4,1.6,2.1,0.7,3.5
		c0.5,0.7,1,1.4,1.4,2.1c-0.1,0.1-0.2,0.1-0.3,0.2c-0.4-0.5-0.8-1.1-1.3-1.5c-1.5-1.1-2-2.5-1.7-4.4c0.2-1,0.2-2.1,0.2-3.5
		c1.1,1.2,2.2,2.1,3,3.2c1.6,1.9,3.2,3.8,4.5,5.9c2.1,3.3,5.2,5.6,8.4,7.7c2.6,1.7,5.7,2.7,8.7,3.4c0.9,0.2,1.9,0.3,2.9,0.4
		c0.1-0.1,0.1-0.1,0.2-0.2c-0.3-0.3-0.6-0.6-1-0.7c-1.3-0.5-2.6-0.9-3.9-1.5c-1.6-0.8-3.5-0.9-4.9-2.3c-0.7-0.8-2-1.1-3-1.6
		c-2.1-1-3.4-2.7-4.7-4.5c-2.7-3.5-5.6-6.8-8.3-10.3c-0.6-0.8-1.4-1.1-2.3-1.3c-0.3-0.1-0.8,0.3-1.2,0.5c-0.2,0.1-0.5,0.2-0.7,0.2
		c-1.3-0.4-2.7-0.5-3.9-1c0.2-0.7,0.3-1.4,0.3-2.1c-0.1-0.6,0.1-1.5,0.1-2.2c0-0.3,0.2-0.8,0.2-1.2c0-0.6-0.8-0.7-0.9-1.1
		c-0.2-0.5,0.6-0.9,0.5-1.5c-0.1-0.5-0.8-1.2-1.2-1.6c0.9-0.4,1.8,0.6,2.5,1.1c0.6,0.5,1.9,1.2,2.3,2c-1.4,0.5-0.3,1,0.1,1.9
		c-1.6,0.1-0.1,0.7,0.2,1.2c0.3,0.4,0.2,1,0.5,1.5c0.6,0.9,1.8,1.8,2.9,1.8c-0.2-0.4-1.6-1.1-0.9-1.7c-0.4,0.3-1.2-0.9-1.2-1.1
		c-0.1-0.3,0-0.5,0-0.7c0-0.4-0.1-0.4-0.3-0.8c0.2-0.6,0.3-1,0.4-1.5c0.2,0.2,0.4,0.4,0.6,0.4c0.7,0.2,1,0.8,1.2,1.3
		c0.3,0.6,0.2,0.7,0.8,0.6c0.6-0.1,1.1,0.1,1.5,0.7c-0.3,0.4-0.3,0.5,0,0.7c0.2,0.1,0.5,0.2,0.7,0.4c1.1,0.5,1.3,0.8,1.2,2
		c0,0.1,0,0.2,0,0.3c0.4,0.1,0.8,0.4,0.8,0.8c0.1,0.6,0.4,1,0.6,1.6c-0.2,0-0.4,0-0.5,0c0,0.3,0.2,0.4,0.4,0.5
		c0.2,0.2,0.5,0.4,0.6,0.7c0.2,0.5,0.2,0.5,0.7,0.4c0.1,0,0.2,0,0.5-0.1c-0.2,0.2-0.4,0.3-0.5,0.4s-0.2,0.2-0.2,0.4
		c0.1,0.1,0.2,0.1,0.3,0.2c0.1,0,0.1-0.1,0.2-0.1c0.1-0.1,0.3-0.2,0.5-0.4c0.2,0.3,0.5,0.6,0.7,1c0.1-0.1,0.2-0.1,0.2-0.2
		c0.2,0.1,0.3,0.2,0.6,0.4c-0.2-0.3-0.3-0.5-0.4-0.7c0.3,0.1,0.5,0.3,0.7,0.5c0.1,0.1,0.3,0.2,0.3,0.2c0.3-0.3,0.4,0,0.6,0.2
		c0.2,0.1,0.3,0.3,0.5,0.6c0-0.3-0.1-0.4-0.1-0.7c0.7,0.2,1.4,0.4,2,1c0.8,0.8,1.5,1.5,2.3,2.3c0.2,0.2,0.5,0.4,0.8,0.5
		c-0.3-0.5-0.7-0.8-1.1-1.2c-0.4-0.4-0.9-0.6-1.1-1.3c0.2,0.1,0.3,0.1,0.4,0.2c1,0.8,2.1,1.3,3.4,1.6c0.3,0.1,0.5,0.2,0.8,0.4
		c0.3,0.2,0.5,0.5,0.7,0.7c0.6,0.4,0.8,1,0.8,1.7c0,1.1,0.1,2.5,0.7,3.4c0.2,0.3,1.6,2.6,1.9,2.1c0.2-0.3-0.5-0.7-0.6-0.9
		c-0.5-0.5-0.9-1.5-1.2-2.2c-0.3-0.5-0.3-1-0.4-1.6c0-0.3-0.3-1.3,0.3-1.2c0.5,0,1.3,2,1.7,2.3c0.8,0.7,1.5,1.6,2.2,2.4
		c0.5,0,0.9,0.1,1.3,0.4c0.6,0.5,1.3,0.8,2,1.2c0.6,0.4,1.3,0.8,1.9,1.1c0.1,0,0.1-0.1,0.2-0.1c0.6,0.3,1.3,0.6,1.9,0.9
		c0.2,0.1,0.3,0.3,0.3,0.6c-0.5-0.3-1.1-0.6-1.6-0.9c-0.1-0.1-0.3-0.1-0.4-0.2c0.2,0.2,0.4,0.4,0.6,0.5c1.2,0.7,2.5,1.3,3.7,2
		c0.8,0.5,1.8,0.9,2.2,1.9c0,0.1,0.2,0.2,0.3,0.2c1.1,0.4,2.1,0.9,2.9,1.6c0,0,0.1,0,0.2,0c0-0.2,0-0.3,0.1-0.5
		c0.5-0.1,1.1,0.7,1.7,0C161.2,47,160.9,46.7,160.6,46.6z M26.9,29.4c-0.6,0.3-1.2,0.7-1.9,1C25.3,29.4,25.7,29.2,26.9,29.4z
		 M31.6,27.6c-0.1,0.2-0.3,0.3-0.2,0.6c0,0.1-0.1,0.3-0.3,0.4c-0.2,0.2-0.4,0.4-0.4,0.8c0,0.1-0.1,0.3-0.2,0.4
		c-0.6,0.7-1.2,1.3-2,1.8c-0.6,0.4-1.2,1-1.7,1.5c-0.3,0.2-0.5,0.5-0.9,0.4c-0.2-0.5-0.2-0.5,0-1c-0.7-0.3-0.7-1-0.6-1.7
		c0.4-0.2,0.9-0.5,1.4-0.8s0.9-0.6,1.4-0.9c0.1,0.1,0.2,0.2,0.3,0.2c1.6-1.4,2.7-2.1,3.5-2.1C31.8,27.4,31.7,27.5,31.6,27.6z
		 M39.1,22.4c-0.6,0.7-1.2,1.5-2,2.1c-0.7,0.6-1.4,1.2-2,1.8c-0.1,0.1-0.2,0.2-0.2,0.2c-0.2-0.1-0.4-0.2-0.6-0.2
		c-0.3,0.1-0.5,0.2-0.7,0.4c-0.2,0.1-0.3,0.2-0.5,0.3c0.2-0.5,0.3-0.9,0.4-1.3c0.1-0.4,0.4-0.6,0.8-0.9c0,0.2,0,0.3,0.1,0.4h0.1
		c0.1-0.1,0.2-0.1,0.2-0.2c0.4-0.6,0.9-1.1,1.6-1.5c0.4-0.2,0.8-0.5,1.2-0.8l0.1-0.1c0.2-0.2,0.6,0.2,0.8-0.2
		c0.1-0.2,0.4-0.4,0.6-0.6C39.3,22,39.3,22.2,39.1,22.4z M51,13.7c0.3,0.1,0.3,0.3,0.2,0.6c-0.1,0.2-0.2,0.4-0.3,0.6
		c0.6,0.5,0.4,1.1,0.3,1.7c0.2,0.1,0.3,0.1,0.5,0.2c-0.1,0.3-0.2,0.5,0.2,0.6c0.2,0,0.2,0.1,0.2,0.3c0,0.3,0,0.6,0.1,0.7
		c0.3,0.2,0.1,0.5,0.2,0.7c0,0.1,0.1,0.1,0.2,0.2c0.2-0.5,0.8-0.8,0.4-1.4c0.2-0.2,0.5-0.5,0.2-0.8c0.2-0.4-0.2-0.6-0.3-0.8
		c0.1-0.5,0.2-0.9,0.4-1.4c0.2,0.1,0.4,0.3,0.5,0.4c0.7,0.2,0.9,0.7,1.1,1.2c0.2,0.6,0.2,0.6,0.7,0.6c0.6,0,1,0.1,1.3,0.6
		c-0.2,0.4-0.2,0.5,0,0.6s0.4,0.2,0.7,0.3c1,0.5,1.2,0.7,1,1.8c0,0.1,0,0.1,0,0.2c-1,1.2-1.9,2.4-2.9,3.6c-0.6-0.9-0.9-1.8-1.3-2.7
		c0-0.1-0.1-0.2-0.2-0.4c-0.2,0.7,0.3,1.1,0.3,1.7c-0.5-0.5-1-1-1.4-1.5c-0.1,0.1-0.2,0.2-0.4,0.3c-0.3-0.1-0.6-0.3-1-0.3
		c-0.4-0.1-0.8-0.2-1.1,0.2c-0.1,0.2-0.5,0.2-0.7,0.3c-0.3,0-0.6,0-1,0c-0.1-0.2-0.2-0.4-0.3-0.6c-0.2,0-0.4,0-0.6,0.1
		c0-0.2,0-0.3,0-0.4c0.3-0.7,0.4-1.5,0.4-2.2c0-0.2,0.1-0.4,0.1-0.6c0.1-0.5,0.2-0.9,0.2-1.4s-0.1-1,0.2-1.4c0-0.1,0-0.1,0-0.2
		c-0.1-0.9,0.1-1.7,0.3-2.5c0.4,0.2,0.7,0.4,1,0.8C50.6,13.4,50.7,13.6,51,13.7z M49.1,10.8c0.1,0.2,0.4,0.2,0.6,0.2
		c0.1,0,0.3,0,0.4,0c0.1,0.4,0.2,0.8,0.3,1.1c0,0-0.1,0-0.1,0.1c-0.2-0.2-0.3-0.4-0.5-0.6c-0.6,0.2-0.8,0.1-1.2-0.5
		c-0.1-0.1-0.2-0.1-0.3-0.2c-0.1-0.1-0.2-0.2-0.4-0.3C48.5,10.6,48.8,10.5,49.1,10.8z M43.1,33.1c-0.1,0.9-0.7,1-1.3,1.1
		c-1.9,0.4-3.4,1.4-4.9,2.5c-0.2,0.2-0.4,0.3-0.7,0.4c-0.1,0.1-0.3,0.2-0.4,0.2v-0.1c-0.2-0.3,0-0.5,0.1-0.7s0.1-0.5,0.2-0.7
		c0-0.2,0-0.4,0.1-0.5c0.5-0.6,0.8-1.3,1.1-2c0.1-0.1,0.2-0.2,0.3-0.3c0.2-0.3,0.4-0.7,0.5-1.2c-0.2,0.2-0.4,0.3-0.5,0.5
		c0-0.2,0.2-0.4,0.2-0.6c0-0.5,0.2-0.8,0.4-1.2c0.6-1.1,1.3-2.2,2-3.2c0.3-0.5,0.8-0.9,1.4-1.1c0.3-0.1,0.5-0.4,0.7-0.6
		c0.1-0.1-0.1-0.3,0-0.4c0.2-0.2,0.4-0.5,0.7-0.7c0.4-0.2,0.7-0.5,0.9-0.9c0-0.1,0-0.2-0.1-0.2c-0.5-1.1-0.6-2.1-0.2-3.2
		c0.2-0.5,0.5-1.1,0.6-1.6c0.2-0.9,0.5-1.7,0.7-2.5c0-0.1,0.1-0.2,0.2-0.3c0.2,0.3,0.3,0.5,0.4,0.7c0.1,0.2,0.2,0.5,0.3,0.8
		c0.1,0.2,0.1,0.5,0.1,0.7s0.1,0.5,0.2,0.7c0.2-0.4-0.1-0.8,0.3-1.2c0.1,0.5-0.1,0.8,0.2,1.1c-0.1,0.3-0.4,0.4-0.1,0.7h0.4
		c0,0.2,0,0.5,0,0.5c0.3,0.2,0.3,0.5,0.3,0.8c0,0.4-0.1,0.8-0.2,1.2c0.1,0,0.2,0.1,0.3,0.2c0.6,0.5,0.5,1.2-0.1,1.7
		c-0.2,0.2-0.4,0.3-0.5,0.5c-0.5,0.9-1.1,1.8-1.6,2.8c-0.1,0.2-0.3,0.6-0.2,0.8c0.2,0.5-0.1,0.7-0.3,1.1c-0.2,0.3-0.4,0.6-0.2,1
		c0,0.1,0,0.2-0.1,0.3c-0.2,0.3-0.4,0.5-0.5,0.8s0,0.6,0,0.9c0,0.1,0,0.3,0.1,0.4C43.6,32.5,43.2,32.8,43.1,33.1z M49.5,27.3
		c-0.9,1.1-1.9,2.2-3,3.1v-0.1c0.4-1.1,0.7-2.3,1.1-3.4c0,0,0-0.1-0.1-0.1c-0.1,0.1-0.2,0.2-0.3,0.3c-0.1-1.1,0.8-1.6,1.2-2.5
		c0.2,0.7,1,0.9,0.9,1.6c0.3,0.1,0.7,0.2,0.8,0.4c0.2,0.2,0.3,0.4,0.5,0.6C50.3,26.8,49.9,26.8,49.5,27.3z M70,45.8
		c-0.1-0.1-0.1-0.2-0.2-0.2c1.1-0.8,2.2-1.6,3.3-2.4c0.1,0.1,0.2,0.3,0.3,0.4C72.3,44.3,71.2,45,70,45.8z M75.7,41.5
		c-0.1-0.1-0.1-0.1-0.2-0.2c0.8-1,1.7-2,2.5-3.1c0.1,0.1,0.2,0.2,0.4,0.3C77.4,39.5,76.5,40.5,75.7,41.5z M73.3,20.5
		c-0.1-0.1-0.1-0.2-0.2-0.2c1.2-0.9,2.5-1.8,3.7-2.7c0.1,0.1,0.1,0.2,0.2,0.2C75.8,18.7,74.6,19.6,73.3,20.5z M78.7,30.3
		c0.4-0.6,0.7-1,1.1-1.5c0,0.6,0,1,0,1.3C79.6,30.2,79.3,30.2,78.7,30.3z M77.1,24.8c1-1,1.9-2,2.9-3c0.1,0.1,0.2,0.2,0.3,0.3
		C79.5,23.3,78.4,24.2,77.1,24.8z M79.3,19.9c-0.1-0.1-0.1-0.1-0.2-0.2c0.5-0.5,1-0.9,1.5-1.4c0.1,0.1,0.2,0.2,0.2,0.3
		C80.4,19.1,79.8,19.5,79.3,19.9z M83.8,30.6c0.2-0.2,0.5-0.3,0.7-0.4c0.1,0.3,0.3,0.5,0.3,0.5c-0.9,0.8-1.7,1.4-2.5,2.1
		c0,0,0-0.1-0.1-0.1C82.7,32.1,83.2,31.3,83.8,30.6z M82.1,11.6c-0.9-0.3-1-0.7-0.4-1.4c1.3-1.5,2.7-2.9,4-4.5
		c0.5-0.5,0.8-1.2,1.2-1.8C87,4,87.2,4,87.3,4.1c-0.2,0.4-0.3,1-0.6,1.3c-1.1,1.2-2.3,2.3-3.4,3.5C82.7,9.6,81.7,10.3,82.1,11.6z
		 M83.4,16.6c0.6-0.4,1.1-0.7,1.5-1c0.1,0.3,0.2,0.6,0.3,0.9C84.5,15.7,84.1,16.8,83.4,16.6z M83.1,14c-0.1-0.1-0.1-0.2-0.2-0.2
		c1-0.9,2-1.8,3.1-2.8c0.1,0.1,0.1,0.1,0.2,0.2C85.1,12.1,84.1,13,83.1,14z M82.8,12.4c-0.1-0.1-0.2-0.2-0.3-0.3
		c1.7-1.6,3.3-3.2,5-4.8c0.1,0.1,0.1,0.2,0.2,0.2C86.1,9.2,84.4,10.8,82.8,12.4z M111.2,21.1l-0.1-0.1h0.1V21.1z M109.2,17.1
		c0.2,0.3,0.4,0.5,0.5,0.7c0.1,0.3,0.2,0.5,0.3,0.8c0.1,0.3,0.1,0.5,0.1,0.8c0.1,0.2,0.1,0.5,0.2,0.8c-0.7-0.2-1.3-0.5-1.9-1
		c0.2-0.6,0.3-1.4,0.5-1.9C108.9,17.3,109.1,17.2,109.2,17.1z M110.4,20.3L110.4,20.3c0.1-0.4-0.2-0.9,0.2-1.3
		c0.1,0.5-0.2,0.9,0.2,1.2c0,0.1-0.1,0.2-0.2,0.3C110.6,20.4,110.5,20.3,110.4,20.3z M116,13.3c-0.4,0-0.7-0.1-1-0.3
		c0,0,0,0-0.1-0.1c-0.4-0.4-0.4-0.5-1-0.6s-0.5-0.4-0.7-0.9c-0.1-0.2-0.2-0.2-0.2-0.4s0.1-0.5,0.1-0.8c0.3,0.6,1.1,1.1,1.8,1.2
		c0.3,0.1,0.9-0.1,1,0.4l-0.2,0.3c0,0.1,0,0.3,0.1,0.4C116,12.8,116.2,13.1,116,13.3z M134.7,29.7c0.9,0.1,1.7,0.3,2.3,1.1
		C136.4,30.8,135.6,30.4,134.7,29.7z M141.5,34.7c-0.3-0.7-0.6-1.4-0.9-2l0.1-0.1c0.5,0.4,0.7,0.9,1,1.4
		C141.8,34.1,141.7,34.4,141.5,34.7z M149.1,39.9c1.6-0.4,2.4,0.5,3.3,1.5C151.2,41.2,150.1,40.7,149.1,39.9z M153.9,43.1v0.4
		c-0.6-0.3-1.2-0.6-1.7-1.3c0.8,0.4,1.7-0.2,2,0.8C154.2,43,154.1,43,153.9,43.1z"/>
</g>
</svg>
