<?xml version="1.0" encoding="utf-8"?>
<!-- Generator: Adobe Illustrator 23.0.1, SVG Export Plug-In . SVG Version: 6.00 Build 0)  -->
<svg version="1.1" id="Layer_9" xmlns="http://www.w3.org/2000/svg" xmlns:xlink="http://www.w3.org/1999/xlink" x="0px" y="0px"
	 width="118.9px" height="23.4px" viewBox="0 0 118.9 23.4" style="enable-background:new 0 0 118.9 23.4;" xml:space="preserve">
<style type="text/css">
	.st0{fill:#FCB526;}
</style>
<g>
	<path class="st0" d="M109.4,0c-2.9,0-4.4,1.1-5.8,2.1c-1.2,0.9-2.2,1.6-4.2,1.6c-2.1,0-3-0.7-4.2-1.6c-1.3-1-2.8-2.1-5.8-2.1
		c-2.9,0-4.4,1.1-5.8,2.1c-1.2,0.9-2.2,1.6-4.2,1.6c-2.1,0-3-0.7-4.2-1.6c-1.3-1-2.8-2.1-5.8-2.1c-2.9,0-4.4,1.1-5.8,2.1
		c-1.2,0.9-2.2,1.6-4.2,1.6c-2.1,0-3-0.7-4.2-1.6c-1.3-1-2.8-2.1-5.8-2.1c-2.9,0-4.4,1.1-5.8,2.1c-1.2,0.9-2.2,1.6-4.2,1.6
		c-2.1,0-3-0.7-4.2-1.6c-1.3-1-2.8-2.1-5.8-2.1c-2.9,0-4.4,1.1-5.8,2.1c-1.2,0.9-2.2,1.6-4.2,1.6c-2.1,0-3-0.7-4.2-1.6
		C13.9,1.1,12.4,0,9.4,0C6.5,0,5,1.1,3.7,2.1C2.6,2.9,1.7,3.6,0,3.7v2.6c2.6-0.1,4-1.2,5.2-2.1s2.2-1.6,4.2-1.6s3,0.7,4.2,1.6
		c1.3,1,2.8,2.1,5.8,2.1c2.9,0,4.4-1.1,5.8-2.1c1.2-0.9,2.2-1.6,4.2-1.6c2.1,0,3,0.7,4.2,1.6c1.3,1,2.8,2.1,5.8,2.1s4.4-1.1,5.8-2.1
		c1.2-0.9,2.2-1.6,4.2-1.6c2.1,0,3,0.7,4.2,1.6c1.3,1,2.8,2.1,5.8,2.1c2.9,0,4.4-1.1,5.8-2.1c1.2-0.9,2.2-1.6,4.2-1.6
		c2.1,0,3,0.7,4.2,1.6c1.3,1,2.8,2.1,5.8,2.1c2.9,0,4.4-1.1,5.8-2.1c1.2-0.9,2.2-1.6,4.2-1.6c2.1,0,3,0.7,4.2,1.6
		c1.3,1,2.8,2.1,5.8,2.1c2.9,0,4.4-1.1,5.8-2.1c1.2-0.9,2.2-1.6,4.2-1.6c2.1,0,3,0.7,4.2,1.6s2.7,2,5.2,2.1V3.7
		c-1.7-0.1-2.6-0.8-3.7-1.6C113.9,1.1,112.4,0,109.4,0z"/>
	<path class="st0" d="M118.9,6.3c-2.6-0.1-4-1.2-5.2-2.1s-2.2-1.6-4.2-1.6c-2.1,0-3,0.7-4.2,1.6c-1.3,1-2.8,2.1-5.8,2.1
		c-2.9,0-4.4-1.1-5.8-2.1c-1.2-0.9-2.2-1.6-4.2-1.6c-2.1,0-3,0.7-4.2,1.6c-1.3,1-2.8,2.1-5.8,2.1c-2.9,0-4.4-1.1-5.8-2.1
		c-1.2-0.9-2.2-1.6-4.2-1.6c-2.1,0-3,0.7-4.2,1.6c-1.3,1-2.8,2.1-5.8,2.1c-2.9,0-4.4-1.1-5.8-2.1c-1.2-0.9-2.2-1.6-4.2-1.6
		c-2.1,0-3,0.7-4.2,1.6c-1.3,1-2.8,2.1-5.8,2.1S35,5.2,33.7,4.2c-1.2-0.9-2.2-1.6-4.2-1.6c-2.1,0-3,0.7-4.2,1.6
		c-1.3,1-2.8,2.1-5.8,2.1c-2.9,0-4.4-1.1-5.8-2.1c-1.2-0.9-2.2-1.6-4.2-1.6s-3,0.7-4.2,1.6C4,5.1,2.6,6.2,0,6.3V3.7
		c1.7-0.1,2.6-0.8,3.7-1.6C5,1.1,6.5,0,9.4,0s4.4,1.1,5.8,2.1c1.2,0.9,2.2,1.6,4.2,1.6c2.1,0,3-0.7,4.2-1.6C25,1.1,26.5,0,29.4,0
		s4.4,1.1,5.8,2.1c1.2,0.9,2.2,1.6,4.2,1.6c2.1,0,3-0.7,4.2-1.6C45,1.1,46.5,0,49.4,0s4.4,1.1,5.8,2.1c1.2,0.9,2.2,1.6,4.2,1.6
		c2.1,0,3-0.7,4.2-1.6C65,1.1,66.5,0,69.4,0s4.4,1.1,5.8,2.1c1.2,0.9,2.2,1.6,4.2,1.6c2.1,0,3-0.7,4.2-1.6C85,1.1,86.5,0,89.4,0
		s4.4,1.1,5.8,2.1c1.2,0.9,2.2,1.6,4.2,1.6c2.1,0,3-0.7,4.2-1.6c1.3-1,2.8-2.1,5.8-2.1c2.9,0,4.4,1.1,5.8,2.1c1.1,0.8,2,1.5,3.7,1.6
		V6.3z"/>
	<path class="st0" d="M109.4,8.5c-2.9,0-4.4,1.1-5.8,2.1c-1.2,0.9-2.2,1.6-4.2,1.6c-2.1,0-3-0.7-4.2-1.6c-1.3-1-2.8-2.1-5.8-2.1
		c-2.9,0-4.4,1.1-5.8,2.1c-1.2,0.9-2.2,1.6-4.2,1.6c-2.1,0-3-0.7-4.2-1.6c-1.3-1-2.8-2.1-5.8-2.1c-2.9,0-4.4,1.1-5.8,2.1
		c-1.2,0.9-2.2,1.6-4.2,1.6c-2.1,0-3-0.7-4.2-1.6c-1.3-1-2.8-2.1-5.8-2.1c-2.9,0-4.4,1.1-5.8,2.1c-1.2,0.9-2.2,1.6-4.2,1.6
		c-2.1,0-3-0.7-4.2-1.6c-1.3-1-2.8-2.1-5.8-2.1c-2.9,0-4.4,1.1-5.8,2.1c-1.2,0.9-2.2,1.6-4.2,1.6c-2.1,0-3-0.7-4.2-1.6
		c-1.3-1-2.8-2.1-5.8-2.1c-2.9,0-4.4,1.1-5.8,2.1c-1.1,0.8-2,1.5-3.7,1.6v2.6c2.6-0.1,4-1.2,5.2-2.1c1.2-0.9,2.2-1.6,4.2-1.6
		s3,0.7,4.2,1.6c1.3,1,2.8,2.1,5.8,2.1c2.9,0,4.4-1.1,5.8-2.1c1.2-0.9,2.2-1.6,4.2-1.6c2.1,0,3,0.7,4.2,1.6c1.3,1,2.8,2.1,5.8,2.1
		s4.4-1.1,5.8-2.1c1.2-0.9,2.2-1.6,4.2-1.6c2.1,0,3,0.7,4.2,1.6c1.3,1,2.8,2.1,5.8,2.1c2.9,0,4.4-1.1,5.8-2.1
		c1.2-0.9,2.2-1.6,4.2-1.6c2.1,0,3,0.7,4.2,1.6c1.3,1,2.8,2.1,5.8,2.1c2.9,0,4.4-1.1,5.8-2.1c1.2-0.9,2.2-1.6,4.2-1.6
		c2.1,0,3,0.7,4.2,1.6c1.3,1,2.8,2.1,5.8,2.1c2.9,0,4.4-1.1,5.8-2.1c1.2-0.9,2.2-1.6,4.2-1.6c2.1,0,3,0.7,4.2,1.6
		c1.2,0.9,2.7,2,5.2,2.1v-2.6c-1.7-0.1-2.6-0.8-3.7-1.6C113.9,9.7,112.4,8.5,109.4,8.5z"/>
	<path class="st0" d="M118.9,14.8c-2.6-0.1-4-1.2-5.2-2.1s-2.2-1.6-4.2-1.6c-2.1,0-3,0.7-4.2,1.6c-1.3,1-2.8,2.1-5.8,2.1
		c-2.9,0-4.4-1.1-5.8-2.1c-1.2-0.9-2.2-1.6-4.2-1.6c-2.1,0-3,0.7-4.2,1.6c-1.3,1-2.8,2.1-5.8,2.1c-2.9,0-4.4-1.1-5.8-2.1
		c-1.2-0.9-2.2-1.6-4.2-1.6c-2.1,0-3,0.7-4.2,1.6c-1.3,1-2.8,2.1-5.8,2.1c-2.9,0-4.4-1.1-5.8-2.1c-1.2-0.9-2.2-1.6-4.2-1.6
		c-2.1,0-3,0.7-4.2,1.6c-1.3,1-2.8,2.1-5.8,2.1s-4.4-1.1-5.8-2.1c-1.2-0.9-2.2-1.6-4.2-1.6c-2.1,0-3,0.7-4.2,1.6
		c-1.3,1-2.8,2.1-5.8,2.1c-2.9,0-4.4-1.1-5.8-2.1c-1.2-0.9-2.2-1.6-4.2-1.6s-3,0.7-4.2,1.6c-1.2,0.9-2.6,2-5.2,2.1v-2.6
		c1.7-0.1,2.6-0.8,3.7-1.6c1.3-1,2.8-2.1,5.8-2.1c2.9,0,4.4,1.1,5.8,2.1c1.2,0.9,2.2,1.6,4.2,1.6c2.1,0,3-0.7,4.2-1.6
		c1.3-1,2.8-2.1,5.8-2.1c2.9,0,4.4,1.1,5.8,2.1c1.2,0.9,2.2,1.6,4.2,1.6c2.1,0,3-0.7,4.2-1.6c1.3-1,2.8-2.1,5.8-2.1
		c2.9,0,4.4,1.1,5.8,2.1c1.2,0.9,2.2,1.6,4.2,1.6c2.1,0,3-0.7,4.2-1.6c1.3-1,2.8-2.1,5.8-2.1c2.9,0,4.4,1.1,5.8,2.1
		c1.2,0.9,2.2,1.6,4.2,1.6c2.1,0,3-0.7,4.2-1.6c1.3-1,2.8-2.1,5.8-2.1c2.9,0,4.4,1.1,5.8,2.1c1.2,0.9,2.2,1.6,4.2,1.6
		c2.1,0,3-0.7,4.2-1.6c1.3-1,2.8-2.1,5.8-2.1c2.9,0,4.4,1.1,5.8,2.1c1.1,0.8,2,1.5,3.7,1.6v2.6H118.9z"/>
	<path class="st0" d="M109.4,17.1c-2.9,0-4.4,1.1-5.8,2.1c-1.2,0.9-2.2,1.6-4.2,1.6c-2.1,0-3-0.7-4.2-1.6c-1.3-1-2.8-2.1-5.8-2.1
		c-2.9,0-4.4,1.1-5.8,2.1c-1.2,0.9-2.2,1.6-4.2,1.6c-2.1,0-3-0.7-4.2-1.6c-1.3-1-2.8-2.1-5.8-2.1c-2.9,0-4.4,1.1-5.8,2.1
		c-1.2,0.9-2.2,1.6-4.2,1.6c-2.1,0-3-0.7-4.2-1.6c-1.3-1-2.8-2.1-5.8-2.1c-2.9,0-4.4,1.1-5.8,2.1c-1.2,0.9-2.2,1.6-4.2,1.6
		c-2.1,0-3-0.7-4.2-1.6c-1.3-1-2.8-2.1-5.8-2.1c-2.9,0-4.4,1.1-5.8,2.1c-1.2,0.9-2.2,1.6-4.2,1.6c-2.1,0-3-0.7-4.2-1.6
		c-1.3-1-2.8-2.1-5.8-2.1c-2.9,0-4.4,1.1-5.8,2.1c-1.1,0.8-2,1.5-3.7,1.6v2.6c2.6-0.1,4-1.2,5.2-2.1s2.2-1.6,4.2-1.6s3,0.7,4.2,1.6
		c1.3,1,2.8,2.1,5.8,2.1c2.9,0,4.4-1.1,5.8-2.1c1.2-0.9,2.2-1.6,4.2-1.6c2.1,0,3,0.7,4.2,1.6c1.3,1,2.8,2.1,5.8,2.1
		c2.9,0,4.4-1.1,5.8-2.1c1.2-0.9,2.2-1.6,4.2-1.6c2.1,0,3,0.7,4.2,1.6c1.3,1,2.8,2.1,5.8,2.1c2.9,0,4.4-1.1,5.8-2.1
		c1.2-0.9,2.2-1.6,4.2-1.6c2.1,0,3,0.7,4.2,1.6c1.3,1,2.8,2.1,5.8,2.1c2.9,0,4.4-1.1,5.8-2.1c1.2-0.9,2.2-1.6,4.2-1.6
		c2.1,0,3,0.7,4.2,1.6c1.3,1,2.8,2.1,5.8,2.1c2.9,0,4.4-1.1,5.8-2.1c1.2-0.9,2.2-1.6,4.2-1.6c2.1,0,3,0.7,4.2,1.6s2.7,2,5.2,2.1
		v-2.6c-1.7-0.1-2.6-0.8-3.7-1.6C113.9,18.2,112.4,17.1,109.4,17.1z"/>
	<path class="st0" d="M118.9,23.4c-2.6-0.1-4-1.2-5.2-2.1s-2.2-1.6-4.2-1.6c-2.1,0-3,0.7-4.2,1.6c-1.3,1-2.8,2.1-5.8,2.1
		c-2.9,0-4.4-1.1-5.8-2.1c-1.2-0.9-2.2-1.6-4.2-1.6c-2.1,0-3,0.7-4.2,1.6c-1.3,1-2.8,2.1-5.8,2.1c-2.9,0-4.4-1.1-5.8-2.1
		c-1.2-0.9-2.2-1.6-4.2-1.6c-2.1,0-3,0.7-4.2,1.6c-1.3,1-2.8,2.1-5.8,2.1c-2.9,0-4.4-1.1-5.8-2.1c-1.2-0.9-2.2-1.6-4.2-1.6
		c-2.1,0-3,0.7-4.2,1.6c-1.3,1-2.8,2.1-5.8,2.1c-2.9,0-4.4-1.1-5.8-2.1c-1.2-0.9-2.2-1.6-4.2-1.6c-2.1,0-3,0.7-4.2,1.6
		c-1.3,1-2.8,2.1-5.8,2.1c-2.9,0-4.4-1.1-5.8-2.1c-1.2-0.9-2.2-1.6-4.2-1.6s-3,0.7-4.2,1.6s-2.6,2-5.2,2.1v-2.6
		c1.7-0.1,2.6-0.8,3.7-1.6c1.3-1,2.8-2.1,5.8-2.1c2.9,0,4.4,1.1,5.8,2.1c1.2,0.9,2.2,1.6,4.2,1.6c2.1,0,3-0.7,4.2-1.6
		c1.3-1,2.8-2.1,5.8-2.1c2.9,0,4.4,1.1,5.8,2.1c1.2,0.9,2.2,1.6,4.2,1.6c2.1,0,3-0.7,4.2-1.6c1.3-1,2.8-2.1,5.8-2.1
		c2.9,0,4.4,1.1,5.8,2.1c1.2,0.9,2.2,1.6,4.2,1.6c2.1,0,3-0.7,4.2-1.6c1.3-1,2.8-2.1,5.8-2.1c2.9,0,4.4,1.1,5.8,2.1
		c1.2,0.9,2.2,1.6,4.2,1.6c2.1,0,3-0.7,4.2-1.6c1.3-1,2.8-2.1,5.8-2.1c2.9,0,4.4,1.1,5.8,2.1c1.2,0.9,2.2,1.6,4.2,1.6
		c2.1,0,3-0.7,4.2-1.6c1.3-1,2.8-2.1,5.8-2.1c2.9,0,4.4,1.1,5.8,2.1c1.1,0.8,2,1.5,3.7,1.6v2.6H118.9z"/>
</g>
</svg>
