<?xml version="1.0" encoding="utf-8"?>
<!-- Generator: Adobe Illustrator 23.0.1, SVG Export Plug-In . SVG Version: 6.00 Build 0)  -->
<svg version="1.1" id="Layer_9" xmlns="http://www.w3.org/2000/svg" xmlns:xlink="http://www.w3.org/1999/xlink" x="0px" y="0px"
	 width="931.2px" height="772.2px" viewBox="0 0 931.2 772.2" style="enable-background:new 0 0 931.2 772.2;" xml:space="preserve"
	>
<style type="text/css">
	.st0{fill:#F4F4F4;}
</style>
<g>
	<g>
		<path class="st0" d="M434.4,417.7c5.3,6.7,16.5-1.9,15.5-9.9c-0.7-5-5.9-7.6-10.3-5c-3.9,2.3-7,7-6.4,11.5
			c-0.2,0.3-0.2,0.7-0.1,1.1c0.2,0.5,0.5,1,0.8,1.4c0.1,0.1,0,0.2,0.1,0.2C434,417.5,434.2,417.6,434.4,417.7z M436.1,415.8
			c-1.7-4.1,1.2-9.2,5.1-10.9c3.6-1.6,6.8,1.2,6.2,5C446.4,414.7,439.6,420.8,436.1,415.8z"/>
		<path class="st0" d="M424.8,412.1c-0.1,5.3,2.6,10.8,7.4,13.3c4.3,2.3,8.1,1.2,12.1-1.3c3.3-2.1,5.7-4.1,9.6-5.2
			c2.6-0.7,4.5-1.6,6.4-3.5c6.4-6.2-4.4-18.2-10.7-19.4c-8.2-1.5-16.8,1.8-21.7,8.4c-0.2,0-0.3,0.2-0.3,0.3
			c-1.4,1.6-2.2,3.5-2.6,5.5c-0.1,0.3-0.2,0.7-0.3,1C424.6,411.5,424.7,411.8,424.8,412.1z M427.3,411.1c2.5-8,11.4-14.5,20.1-12.9
			c5.4,1.1,8.5,4.4,11,9.3c3.5,6.8-4,8.6-8.3,9.9c-5.6,1.6-10.9,10.8-17.4,5.5C429.2,419.8,426.8,415.4,427.3,411.1z"/>
		<path class="st0" d="M419.7,414.1c2.6,11.8,11.3,22.3,23.9,15.5c3.3-1.8,7.1-4.4,11.1-4.1c3.6,0.2,7,0.3,10.6-0.6
			c5.9-1.6,9.1-6.9,9.3-12.7c0.6-15.9-21.7-21.3-33.7-20.7c-7.3,0.4-14.4,2.6-18.6,9.2C420,404.2,418.2,409.7,419.7,414.1z
			 M422.3,414.4c0-0.2,0-0.4-0.1-0.6c0-0.2-0.1-0.3-0.2-0.4c-0.1-0.9-0.3-1.7-0.4-2.6c0-0.2-0.1-0.2-0.2-0.4
			c-0.1-5.8,5-12.2,9.5-14.4c5.3-2.5,11.5-2.7,17.2-1.8c5.8,0.8,12.2,2.2,16.8,5.9c5.4,4.2,11.2,14.1,3.9,19.8
			c-5.7,4.4-10.6,1.9-16.8,3.3c-3,0.7-5.8,2.1-8.5,3.6c-3.9,2-8.6,4.5-12.6,1.5C426,424.8,423.6,419.9,422.3,414.4z"/>
		<path class="st0" d="M414,412.9c2.7,8.9,6.8,20.4,15.5,24.6c7.2,3.4,14.2,0.2,20.9-2.9c2.5-1.2,5.3-2.8,8.1-2.9
			c3.2-0.2,6.3,0.4,9.4,0.3c4.3,0,8.2-1,12-3c7-3.7,9.4-12.4,6.2-19.3c-7.5-16.5-29-26.2-46.4-25.7c-8,0.2-20.4,5.2-24.7,12.4
			c-2.6,4.3-2.7,9.7-1.6,14.7c0,0.2,0,0.4,0,0.6c0.2,0.4,0.2,0.7,0.4,1C413.8,412.7,413.9,412.8,414,412.9z M418.1,417.5
			c0-0.2,0.1-0.5-0.1-0.7c-0.4-1-0.8-1.9-1.2-2.9c-0.2-0.7-0.4-1.2-0.6-1.9c-1.7-6.5-1.3-13.7,4.5-18c7.7-5.4,16.3-8.9,25.9-7.3
			c13.6,2.2,31.9,10,37.1,24c4.4,11.7-6.5,19.5-17.4,18.7c-6.6-0.5-11.2,0.1-17.2,2.9s-13.8,6.8-20,2.1
			C423.9,430.4,420.5,424,418.1,417.5z"/>
		<path class="st0" d="M414.5,429.5c2.1,4.5,4.8,10.3,9.6,12.6c10,4.9,20.8,0.8,30.7-2.6c11.1-3.9,22.9,1.7,33.3-4.8
			c7.3-4.5,11.3-14.8,7.7-22.8c-5-10.9-16.3-20.8-26.5-26.7c-8.8-5.1-20.8-7.1-30.9-6.4c-9,0.6-22,3.8-28.1,11.2
			c-4.2,5.2-4.9,11.7-3.7,18c-0.2,0.3-0.2,0.7,0,1.1c0.3,0.9,0.7,1.8,1,2.7c0.3,1,0.7,1.9,1.1,3
			C410.3,419.6,412.2,424.6,414.5,429.5z M419.4,433.6c-3.4-5.8-5.8-12.2-8.1-18.6c0-0.2-0.1-0.3-0.1-0.5c-0.2-0.5-0.4-1-0.6-1.5
			c-0.3-0.6-0.4-1.2-0.7-1.8c-3.4-10-1.1-19.4,9.5-24.6c9.1-4.5,18.2-6,28.3-4.8c9.6,1.2,17.2,3.2,25.1,9c7.3,5.3,19.4,14.3,21.3,24
			c2.8,14-9.8,22.1-22.3,20.9c-7.1-0.7-13-0.3-19.8,2.4C441.3,442.1,426.1,445.5,419.4,433.6z"/>
		<path class="st0" d="M404.3,419.9c4.5,6.1,4.2,14.5,9.3,20.1c3.8,4.3,8.2,7.2,13.8,8.3c13.1,2.9,26.5-3.8,39.8-3.1
			c6.5,0.3,13.2,3.1,19.7,1.7c5.6-1.1,11.2-3.8,15.5-7.7c7.8-7.1,11.3-18.1,5.2-27.7c-7.8-12.2-19.1-24.9-32.5-31.2
			c-7.6-3.5-15.4-4.4-23.3-6.1c-7.4-1.5-14.6-3.1-22.2-2.6c-10.5,0.7-24.8,5.5-29.7,15.8c-5.1,10.9-2.6,22.7,4.2,32
			C404.2,419.6,404.2,419.8,404.3,419.9z M411.3,429.8c-1.1-3.5-2.3-7.1-4.3-10.3c0-0.2-0.2-0.4-0.3-0.6c-7.9-10-11.2-27.5,0.5-36.5
			c10.8-8.2,24.6-9.6,37.5-7c12.7,2.6,25.5,3.8,36.3,11.6c5.8,4.2,11,9,15.6,14.3c4.2,4.9,9.8,10.8,11.1,17.3
			c2.3,12.1-8.3,23.4-19.8,25.7c-6,1.1-11-0.6-16.7-1.2c-5.4-0.5-10.7-0.2-16,0.6c-9.7,1.6-21.9,5.3-31.3,1.1
			C417.3,441.8,413.4,436.6,411.3,429.8z"/>
		<path class="st0" d="M401.5,429.4c6,14.4,12.2,28.1,30,27.1c9.1-0.5,18.2-2.3,27.4-2.1c8.5,0.1,16.8,1.8,25.3,1.8
			c13.7,0,26.7-4.9,34-17.3c3.2-5.4,5.6-12.1,3.7-18.4c-2-6.9-5.9-13.3-9.9-19.1c-9.1-13.6-25-23.3-39.9-29.5
			c-7.8-3.2-15.5-7.7-23.8-9.2c-7.2-1.3-14.8-1.4-22-0.1c-14,2.5-28.4,8.3-35.1,21.5c-3,5.9-3.4,13.1-2.8,19.5
			c0.7,7.2,3.8,11.4,8.1,16.6C398.5,423.1,400.2,426.1,401.5,429.4z M399.4,420.4c0-0.2,0-0.6-0.3-0.8c-0.3-0.3-0.6-0.7-1-1.2
			c-0.7-1-1.4-2-2.2-2.8c-0.2-0.3-0.5-0.3-0.7-0.3c-1.3-1.5-2.4-3-2.9-4.7c-1.4-4.3-1.7-8.5-1.5-13c0.2-7.6,2.8-15.4,8.6-20.6
			c10.4-9.5,26.9-13.4,40.8-12.6c7.7,0.4,14.6,2.6,21.5,5.7c6.9,3.1,14.7,5.4,21.1,9.5c13.5,8.5,24.4,17.6,32.4,31.6
			c3.8,6.8,6.8,14,3.4,21.7c-3,7-8.3,13.6-15.2,16.9c-13.6,6.5-27.6,2.4-41.9,2.2c-6.8-0.1-13.6,0.1-20.3,0.8
			c-6.7,0.8-14.2,2.6-20.6-0.3C408,446.8,406.2,431.4,399.4,420.4z"/>
		<path class="st0" d="M387.6,419.2c10.2,10.4,7.8,27.3,16.3,38.8c3.5,4.7,8.7,8,14.8,8.2c4.7,0.2,9.1-0.8,13.6-1.7
			c5.6-1.1,11.3-1.3,17-1.3c15.2,0.3,30.8,5.1,46,2.8c12-2,25.8-8.9,32.5-19.3c6.9-10.5,5.3-24.4-1.1-34.7
			c-7.7-12.4-18.7-24-29.9-33.4c-11.6-9.8-24.9-17.8-40-20.5c-14.4-2.4-30.6-3.2-44.9,0.5c-12.7,3.2-25,10.3-29.5,23.4
			c-2.6,7.5-2.2,14.7-0.7,22.3c0.6,2.9,0.7,6.2,1.8,9c0.9,2.2,2.3,3.8,3.8,5.4C387.4,419,387.4,419.1,387.6,419.2z M402.2,449.2
			c-3.1-8.6-4.3-19.1-9.2-27.2c0-0.2-0.1-0.3-0.2-0.5c-2.8-4.3-6.9-6.7-7.7-12.2c-0.7-5-2.2-10-2.3-15.1
			c-0.2-20.1,16.8-31.6,35-34.4c16-2.4,34.6-2.1,49.9,3.7c16.4,6.3,30,17.7,41.7,30.5c10.8,11.8,24.5,26.6,19.4,44.1
			c-4.4,15.4-24.2,25.4-39.3,25.7c-16.6,0.4-32.7-3.9-49.4-3c-8.2,0.5-17.4,4.8-25.5,2.1C408.1,460.9,404.5,455.5,402.2,449.2z"/>
		<path class="st0" d="M388,448.5c2.7,8.2,6.9,16.4,14.6,21c6.8,4.1,13.8,5.5,21.8,4.4c10.7-1.5,21.7-1.9,32.5-2.3
			c16.6-0.3,32.1,6.2,48.7,1.9c15.4-4,27-12.8,33.5-27.6c2.6-5.9,5.6-13,3.4-19.5c-2.1-6.3-6.1-11.9-10.3-16.9
			c-11.1-13.6-21.6-29.1-35.7-39.9c-7.2-5.4-15.7-8.6-23.6-12.7c-6.5-3.3-13.2-7.1-20.4-8.8c-14-3.1-31.5-0.8-44.9,3.9
			c-15.6,5.4-30.1,15.7-35.4,32.3c-2,6.5-3.1,13.7-1.3,20.4c1.1,4,3.3,7.3,5.3,10.7c0,0.2-0.1,0.6,0.1,0.9c0.7,1.3,1.5,2.7,2.2,4.1
			c0.1,0.2,0.2,0.4,0.2,0.7c0.1,0.2,0.2,0.4,0.4,0.6c2,3.9,3.9,7.8,5.1,12.1C385.7,438.5,386.4,443.7,388,448.5z M387.9,437.6
			c-1.6-6.4-4.1-12.3-7.1-18.2c-2.2-5.9-6.9-10.3-7.8-17.1c-3.1-21.3,12.5-39.5,31.6-46.6c16.3-6.1,38.1-9.6,54.6-2.8
			c16.8,7.1,34.1,15.3,46.6,28.9c6.7,7.2,12.9,14.7,19,22.4c5.4,6.8,13.2,14.1,15.3,22.7c2.3,9.1-3.3,19.9-8.4,27.2
			c-5.9,8.4-14.7,13.9-24.5,16.5c-9.3,2.4-18.5,2.7-28,1.1c-8.2-1.5-15.7-2.9-24.1-2.5c-8.8,0.4-17.7,0.6-26.5,1.6
			c-9.4,1.1-18.5,1.7-26.4-4.7C393,458.7,390.6,448.5,387.9,437.6z"/>
		<path class="st0" d="M381.9,459.7c5.4,13.3,15.4,19.8,29.6,21.7c15.7,2.1,31.3-2,47-1c14.8,1,28.6,6.4,43.7,3.4
			c13.7-2.8,29-11.4,37.7-22.6c8.8-11.4,11.3-26.4,7.2-40.1c-2.4-8-8.2-14.1-13.5-20.2c-2.9-3.4-5.4-6.9-8.3-10.2
			c-3-3.3-6.5-5.8-9.6-8.9c-7-6.9-12.4-15.2-19.7-21.9c-5.4-4.9-12.4-8.5-19-11.4c-14.7-6.4-30.4-11-46.7-9.8
			c-15.9,1.2-33.4,6.7-46.9,15.4c-18.8,12-29.6,41.1-17.5,60.9c0,0.2,0.2,0.4,0.3,0.6c0.1,0.1,0.2,0.3,0.3,0.3
			c0.8,1.2,1.7,2.3,2.6,3.5C376.8,430.9,376.7,446.8,381.9,459.7z M383,454.9c-3.6-11.7-4.7-25.2-11-35.9c0-0.2-0.1-0.5-0.3-0.7
			c-0.2-0.3-0.3-0.5-0.6-0.7c-0.7-1-1.5-2-2.3-3c-7.5-11.5-6.4-27.2-0.9-39.4c7.3-16.1,22-23,37.9-28.8c17.6-6.5,36.1-7.5,54.1-1.9
			c9.5,3,19,6.6,27.4,11.8c8.5,5.3,14,12.6,20.3,20.1c6.2,7.3,13.9,13.1,20,20.7c5.7,7.3,13.4,13.9,16.6,22.8
			c6.6,18.4-0.7,37.8-16.4,49c-15.9,11.4-33.2,15.9-52.6,11.4c-16.1-3.7-31.5-2.2-47.9-0.9c-8.7,0.7-18.2,0-26.2-3.3
			C391.2,472.2,386,464.9,383,454.9z"/>
		<path class="st0" d="M381,475.9c11.5,14.4,31.7,16.3,48.8,14c5.2-0.7,10.2-2.2,15.5-2.7c5.6-0.6,10.7,0.5,16.2,1.4
			c10.8,1.7,21.6,2.5,32.5,3.3c18.6,1.5,34.9-1.9,47.7-16.6c10.5-12.3,15.9-24.9,15.1-41.2c-0.7-15.4-5-27.3-16.4-38.2
			c-6.5-6.2-13.4-11.8-19.7-18.2c-6.7-6.8-13-14.1-20-20.7c-6.2-5.8-12.7-12.1-20.4-16c-6.4-3.3-14.8-4.6-21.9-6.3
			c-14.6-3.6-29.9-4.4-44.8-1.7c-7.5,1.4-14.9,3.5-22.1,6.4c-8,3.2-14,7.6-20.6,13.1c-5.6,4.6-12.8,8.2-16.1,15
			c-3.1,6.3-3.9,13.6-4,20.4c0,7.3,0.4,14.9,2.9,21.8c1.2,2.9,2.3,5.8,4.2,8.4c0.9,1.1,1.8,2.1,2.7,3.2c0.1,0.1,0.1,0.2,0.2,0.3
			C374.6,436.7,368.6,460.3,381,475.9z M377.2,462.4c-3.4-11.8-4-25.7-10.1-36.6l0-0.2c-2.1-4.5-6.5-7.4-8.7-11.9
			c-2.8-5.6-4.2-11.8-4.7-18.1c-0.8-13.1,0-27.9,11.9-35.9c5.7-3.8,10.4-8.9,16.1-12.6c5.9-3.9,13-6.6,19.9-8.6
			c11.3-3.3,23.1-5.2,34.8-4.6c9.4,0.5,18.4,2.3,27.4,4.8c8.6,2.3,16.7,4.2,23.8,10.1c15,12.6,27.3,27.9,42.1,40.9
			c6.8,5.9,14.4,11.9,18.9,19.9c4.2,7.3,5.6,16.1,5.8,24.5c0.5,18.6-6.8,35.3-22,46.8c-16.2,12.2-36.1,9.4-54.9,7.3
			c-9.2-1-19.2-4-28.5-3.6c-7.3,0.4-14.4,2.5-21.6,3.2C406.7,489.7,383.6,484.9,377.2,462.4z"/>
		<path class="st0" d="M375.7,488.7c7.4,7.2,20.2,10,30.1,11c10.8,1,21.8,0.3,32.5-2.3c7.2-1.8,15-3.5,22.4-2.6
			c6.6,0.7,12.6,3.1,19.1,4.5c10.6,2.3,23.4,1.7,34.1,0.3c10.7-1.5,22.8-4.7,31.4-11.7c8.9-7.4,14.6-17.7,18.1-28.5
			c4.2-13.2,6-26.4,0.5-39.5c-3-7-6.8-13.5-11.4-19.5c-5-6.8-10-14.2-16.7-19.2c-14.9-11.2-26.2-27-42.1-37.1
			c-8-5-15.2-11.8-23.6-16c-5.4-2.7-12.1-2.5-18-2.6c-30.6-0.4-64.4,0.7-88.6,22.5c-10.7,9.6-18.9,21.9-19.9,36.5
			c-0.4,6.7-0.6,14.6,1.8,20.9c1.5,3.9,3.5,7.6,5.7,11.1c0,0,0,0,0.1,0.1c0,0.2,0.1,0.2,0.2,0.4c1.9,3,3.8,6,5.6,8.9
			c0.1,0.1,0.1,0.1,0.2,0.1c1.4,2.7,2.6,5.5,3.2,8.7c1.3,6.9,1.8,13.7,2.5,20.6C364,467.6,366.9,479.9,375.7,488.7z M366.3,463.4
			c-1.6-9.6-1.5-19.4-3.6-28.9c-0.7-3.4-1.9-6.4-3.5-9.1c0-0.2,0-0.2-0.1-0.3c-0.1-0.2-0.2-0.4-0.4-0.6c-1.6-2.9-3.5-5.6-5.5-8.7
			c-0.1-0.2-0.3-0.3-0.5-0.5c-2.9-4.5-5.4-9.2-6.1-14.2c-1.3-8.9-1.6-18.7,1.4-27.2c5.9-16.8,21.1-30.4,37.4-37
			c16.6-6.7,34.9-9.8,52.7-9.5c7.9,0.2,16.5-0.3,24.3,1c9.5,1.6,16.4,8.7,24.1,13.9c8.9,6,16.9,12.1,24.5,19.7
			c5.9,5.9,11.4,12.4,18.1,17.2c14,10.2,27,26.6,32.9,43.1c5.9,16.7,1.3,36.5-8,51.3c-10.5,16.7-29.1,23.1-48,23.9
			c-8.8,0.4-18.8,0.9-27.4-1.3c-7.2-1.8-14.3-4.6-21.8-4.4c-16.6,0.5-32.1,6.8-49,5.3c-8.8-0.8-19.8-2.7-27.2-8
			C372.1,483.2,368,473.5,366.3,463.4z"/>
		<path class="st0" d="M462.9,503.5c26.6,0.1,57.2,10.7,81.7-5c20.8-13.2,34.4-40.8,29.5-65.3c-5.8-29-26.2-52.2-48.5-70.5
			c-8-6.6-16.5-12.9-24-20c-5.8-5.4-11.4-11.2-17.9-15.5s-13-7-21-7.5c-7.8-0.5-15.5-1.7-23.4-2.4c-30.6-2.8-69.3,8.8-90.4,32.3
			c-10.3,11.5-13.2,24.8-12.3,40c0.5,8.3,2.5,15.6,6.3,23c2.8,5.3,4.6,10.8,6.9,16.3c0,0,0,0,0,0.2c10.8,25.2,2.2,62.2,35.2,71.9
			C410.6,508.4,436.9,503.5,462.9,503.5z M452.1,501.3c-15,0.7-30.2,2.3-45.3,1c-18.5-1.5-37.2-6.2-43.8-25.6
			c-4.9-14.2-4.3-29.6-9-43.7c0-0.2,0.1-0.5-0.1-0.9c-2.2-4.9-3.4-10.2-5.8-15.1c-2.7-5.4-6.1-11-7.5-17
			c-2.4-10.7-2.9-25.3,1.6-35.7c9.2-21,33.9-33.8,54.8-39.7c11.5-3.3,23.7-6,35.9-5.4c5.6,0.2,11,1.3,16.6,2
			c4.9,0.6,10.1,0.5,15,1.1c13.2,1.5,22.9,10.4,32.3,19.1c8.2,7.7,17.1,14.7,25.8,21.9c23.4,19.3,49.8,46.9,50.2,79.6
			c0.2,16.8-8.5,35.2-20.8,46.8c-14.6,13.6-34.7,15.9-53.8,14.5C482.6,502.9,467.8,500.5,452.1,501.3z"/>
		<path class="st0" d="M471.7,513.4c16.3,1.7,32.9,5,49.2,2.7s32.1-9.2,44.5-20.2c12.2-10.8,20.4-23.2,23.9-39.2
			c2.9-13,2.4-28.1-4.4-39.9c-8-13.7-20.3-23.6-30.8-35.2c-6.6-7.3-12.7-13.6-21.1-19c-8.6-5.6-16.4-11.3-23.2-19.1
			c-10.1-11.5-20.9-27.6-36.7-31.5c-6.4-1.6-13.3-2.3-19.9-1.6c-8.6,0.9-16.5,1-25.1,0.5c-15.4-0.9-32.1-0.5-46.7,5.3
			c-8.2,3.3-15.5,8.1-22.5,13.3c-6.8,5-14.2,9.6-20,15.7c-9.1,9.6-13.6,25.8-13.9,38.8c-0.1,6.9,0.6,13.8,2.8,20.2
			c2.7,8,7.4,13.8,11.9,20.8c0,0.2,0.2,0.3,0.3,0.3c4.7,7.8,7.6,16.5,9,25.6c1.2,7.9,1.4,15.9,3,23.7c2.8,13.3,8.6,28.4,22,34.2
			c13.9,6,30,5.7,44.8,3.2C436.7,509,453.8,511.5,471.7,513.4z M432.8,507.8c-17.1,0.8-33.9,6.2-50.9,1.3
			c-19.4-5.6-26.6-23.8-28.7-42.5c-1.8-16.5-3.7-32.1-13.5-46c-0.1-0.2-0.2-0.3-0.4-0.4c-3-4.3-6.1-8.5-8.1-13.5
			c-2.5-6.6-4-13.6-3.9-20.6c0.3-12.1,3.4-26.6,11-36.4c4.6-5.9,10.7-9.6,16.5-14.1c6.1-4.5,12-9.1,18.6-12.8
			c12.3-6.8,26.3-9.5,40.1-9.6c12.2-0.2,24,1.6,36,0.2c12.6-1.5,25.2-0.2,35.5,8c12,9.5,19.9,22.8,31.4,32.7
			c5.9,5.1,12.5,8.9,18.9,13.2c6.7,4.4,11.3,10.3,16.9,16.1c11.1,11.9,25.5,22.9,32.2,38c7.1,16.1,4.6,37.5-3.9,52.7
			c-8.8,15.8-24.8,28.7-41.8,35c-18,6.6-36,5.6-54.5,3.3C467.4,510.3,449.7,506.9,432.8,507.8z"/>
		<path class="st0" d="M459.9,517.8c7.5,2.4,14.8,5.4,22.6,6.6c16.4,2.6,33.5,2,49.8-1.2c15.2-3,31.9-7.9,44.2-17.6
			c12.5-9.9,21.3-23.8,25.7-39.1c3.7-12.8,5.3-25.2-0.9-37.4c-8-15.8-17.5-30.9-30.2-43.2c-13.6-13.1-28.9-23.8-44.6-34.1
			c-15.6-10.5-22.8-28.5-37.7-39.9c-12.2-9.3-25.3-12.8-40.4-9.6c-8.7,1.9-16.8,3.6-25.7,2.8c-7.7-0.7-15.3-1.5-23.1-1
			c-17.2,0.8-32.8,5.8-47.2,15.5c-7.2,4.8-13.5,10.6-19.5,16.8c-4.8,4.8-9.9,10.1-13.1,16.2c-6.3,12.3-6,25.3-3.3,38.5
			c1.5,7.6,3.1,15.3,6.6,22.1c3.4,6.6,7.6,12.7,11.5,19c15.4,26.8,2.1,65.6,26.3,87.9c19.4,17.9,47.8,8.8,69.5,0.1
			C440.4,516.1,449.7,514.6,459.9,517.8z M464.8,516.7c-7.3-2.4-14.6-4.3-22.4-2.9c-6.6,1.3-12.5,3.9-18.6,6.3
			c-13.2,5.2-28.5,9.2-42.7,6.8c-15.1-2.5-25.5-14.2-29.6-28.5c-5.9-20.7-3.1-44.1-12.3-63.8c0-0.2,0.1-0.5-0.1-0.9
			c-0.6-1.1-1.3-2.2-2-3.2c-0.1-0.2-0.2-0.3-0.3-0.5c-6.3-10-12.9-19.5-15.7-31.4c-3.6-15.1-7-32.5,2-46.5
			c9.6-15.1,25.3-28.6,41.3-36.5c16.8-8.4,34.4-10.4,52.9-8.7c7.7,0.7,15.6,1.5,23.2-0.3c7.3-1.7,14.9-3.9,22.5-3.3
			c20.5,1.7,33.3,17.7,44.7,32.9c5.7,7.6,11.8,13.7,20,18.7c7.8,4.9,15.3,10.1,22.7,15.8c16.8,13.1,31,27.3,41.8,45.8
			c3.9,6.7,8.9,13.9,10.7,21.6c1.9,7.8,0.6,15.8-1.3,23.6c-4.6,17.9-14.5,35.7-30.9,45.4c-15.3,9-33.3,13.8-50.9,15.6
			C500.3,524.7,482.9,522.9,464.8,516.7z"/>
		<path class="st0" d="M471.1,528c29.2,14,65.1,8.6,94-4.2c24.5-10.9,46.3-30.8,52.3-57.9c3-13.5,0-23.4-6.5-35.3
			c-8.7-16.5-19.3-31.4-32-45.1c-6-6.5-12.5-13-20-17.9c-7.2-4.6-15.5-7.7-22.3-12.9c-16-12-28.7-28.1-40.9-43.7
			c-8.4-10.7-21.5-19.2-35.7-17.2c-7.7,1.1-15,4.3-22.7,4.7c-8.4,0.6-16.5-1.5-24.8-2.5c-15.6-1.8-34.7,0.3-49.3,6.3
			c-14.6,6-26.2,17.6-36,29.8c-9.5,11.7-17.5,23.9-20,39.1c-2.5,15.7-0.2,31.9,7.9,45.7c0,0.2,0.2,0.3,0.3,0.3
			c6.3,11.7,13.5,23.5,16.4,36.4c3,12.9,2.2,26.3,4.5,39.3c2.4,13.6,8.1,23.8,17.9,33.2c8,7.5,15.7,16.5,27.2,17.3
			c14.8,1.1,27.7-4.7,40.3-11.8c7.4-4.2,15.3-8.6,23.9-9.5C455.1,521.3,462.8,524,471.1,528z M486.5,531.2
			c-7.6-2.1-14.1-5.9-21.3-8.8c-14.3-5.6-28-2.1-41,5.2c-13.7,7.5-30.4,17.4-46.6,12.6c-8.7-2.6-14.9-9.6-21.2-15.8
			c-6.7-6.6-12.7-13.6-15.4-23c-4.3-15.3-2.7-31.3-6.1-46.6c-3.9-17-13.9-31.6-21.3-47.2c-9.1-22-4.4-47.4,9.9-66.5
			c10.3-13.8,22.9-29.2,39.2-35.9c17.1-7,37.6-8.8,55.7-5.9c7.6,1.3,15.4,2.6,23.1,1.1c7.4-1.3,14.9-4.8,22.4-4.6
			c21.3,0.7,31,18.5,43.4,32.9c11.9,14,24.7,26.7,41.1,35.3c16.9,8.9,30.6,23,42.2,38.2c6.5,8.6,12.3,17.6,17.3,27.1
			c3.5,6.6,7.9,13.7,8.6,21.3c1.1,14.1-5.1,28.5-13.2,39.9c-19,27.2-54.5,40-86.5,42.6C506.6,534.3,496.2,533.9,486.5,531.2z"/>
		<path class="st0" d="M488.1,544.3c13.3,4.9,27.3,1.1,40.8-1.6c17.2-3.3,33.4-8.5,48.6-17c25.5-14.1,51.2-38.7,51.8-69.9
			c0.5-23.3-13.4-43.1-28.7-59.3c-8.6-9.2-17.8-17.7-27.1-26.3c-5.5-5.2-10.8-9.9-17.7-13.3c-7.5-3.6-14.8-6.9-21.4-12
			c-15-11.8-26.3-27-39.3-40.8c-8.4-8.9-20.5-24-34.3-22.2c-7.5,0.9-14.1,5.2-21.5,6.7c-8.3,1.9-16.5,1.4-24.9,0.7
			c-15.2-1.1-30.9-2.7-45.9,1c-15.5,3.8-30.7,12-41.7,23.7c-10.9,11.5-17.7,25.3-22.1,40.4c-4.1,13.5-7.4,28.2-5.4,42.2
			c1.2,7.7,3.8,15.1,7.7,21.7c1.6,2.8,3.2,5.9,5.5,8.3c1.1,1.2,2.3,2.4,3.4,3.7l0,0.2c1.8,2.1,3.1,4.3,4.3,6.7
			c0,0.2,0.1,0.2,0.1,0.3c0,0.2,0.2,0.4,0.3,0.5c8.4,17.4,2.8,39,6.5,57.6c3.8,18.5,12.7,39.1,29.9,48.6c9.6,5.3,20.6,8.8,31.7,8.7
			c11.6-0.2,20.7-4.9,30.7-10.1c10.3-5.5,23.1-11.9,35-11.7C467.7,531.2,476.4,540,488.1,544.3z M483.6,539.2
			c-6.9-3.7-13.5-8-21.2-9.9c-13.3-3.3-28.8,3.4-40.4,9.4c-8.1,4.1-16.2,9.7-25.4,11.1c-9.2,1.4-18.7,0.4-27.4-2.8
			c-16.4-5.9-27.1-17.1-33.8-33.1c-3.1-7.6-5.7-15.6-6.6-23.9c-0.9-7.1-0.3-14.3-0.5-21.4c-0.2-10.6-1.1-22-5.6-31.6
			c-2.3-7-8.8-11.5-12.5-17.9c-4.1-7.1-7.6-14.8-8.5-22.9c-1.9-16.1,2.1-32.5,7.5-47.7c12.5-35.5,44.2-58.4,82-58
			c15.2,0.2,31.7,4.1,46.9,0.8c7.5-1.6,14.4-6.1,22-7c9.9-1.2,17.1,5.3,23.7,11.6c13.5,12.7,24.4,27.9,37.8,40.8
			c6.1,5.9,12.9,12.2,20.6,16.1c7,3.6,14.7,6.2,21,11.1c10.5,8,20.1,18.2,29.4,27.6c8.9,9,17.7,18.5,24.3,29.4
			c6.2,10.4,10.7,22.3,10.2,34.6c-0.7,15.7-8,30.6-18.1,42.5c-23.9,28-62.4,40.9-97.8,45.3C501.1,544.8,492.4,544.1,483.6,539.2z"/>
		<path class="st0" d="M571.8,537.4c16.1-7.1,32.5-15.4,45.2-27.6c5.8-5.5,11-11.3,13.8-18.9c1.4-3.7,2.6-7.6,4.1-11.3
			c1.7-4.1,4.3-7.5,6.2-11.2c5.1-10,4.7-18.9-0.2-28.8c-8.3-16.7-18.4-32.5-31.8-45.8c-6.5-6.5-13.6-12.1-20.9-17.9
			c-7.6-6.1-14-13.4-21.3-19.8c-6.5-5.7-13.3-10.6-21.2-14.3c-8.8-4.1-18.4-7.9-25.1-15.1c-6.4-6.9-10-15.7-16.2-22.7
			c-5.4-6.1-11.4-11.6-17.1-17.4c-4.9-5-10-10.2-17-11.8c-6.7-1.5-13.7-1.7-20.4-0.7c-8.6,1.4-17.1,3.9-25.9,5
			c-8.7,1.2-17.4,1.1-26.1,1.1c-15.8-0.1-32.2-0.4-47.6,3.5c-15.7,4-30.7,12.3-42.5,23.5c-12.1,11.4-15.5,27.3-19.8,42.7
			c-4.3,15.6-4.2,28.9,2.7,43.7c4,8.7,7.7,17.4,10.8,26.5c2,5.9,4.1,11.5,7,16.9c0,0.2,0.1,0.2,0.2,0.4c0,0.2,0.2,0.3,0.2,0.4
			c0.7,1.2,1.5,2.4,2.3,3.6c5.8,10.6,6.5,22.9,5.9,34.9c-0.5,10.7,0.8,20.7,4.7,30.6c7.4,18.8,20.1,40.7,38.7,50
			c8.9,4.4,19.6,7.2,29.7,5.8c10.4-1.6,19.3-6.6,28.3-11.7c11-6.3,23-12.8,36-12.6c13.7,0.1,23.4,9.5,35.6,14.4
			C518,563.7,546.4,548.8,571.8,537.4z M500,553.1c-15.6-3.8-28.6-18-45.3-17.4c-15.2,0.5-27.6,7.4-40.5,14.8
			c-15.2,8.6-30.8,13.3-47.8,6.3c-15.4-6.3-26.2-20.1-34.2-34.2c-8.3-14.5-13.3-29.4-12.6-46.2c0.6-12.2-0.2-24.2-5.5-34.9
			c0-0.2-0.1-0.5-0.2-0.7c-0.2-0.4-0.5-0.7-0.7-1.1c-0.6-1.1-1.2-2.2-2-3.2c-4.2-7.6-6.6-16-9.5-24.2c-3.1-8.9-7.9-17-11.1-25.8
			c-6.7-18.2-0.7-35.7,5-53.3c3.2-10.1,7.4-18.7,15.7-25.7c7.1-6.1,14.8-11.5,23.2-15.5c16.2-7.7,33.8-9.3,51.5-9.5
			c16.5-0.1,32.6,0.4,48.8-3c9.1-1.9,18.1-4.5,27.4-3.7c10.3,0.8,16.5,4.9,23.5,12.2c6,6.4,13.1,12.1,18.5,19
			c5.3,6.7,8.7,14.9,14.8,21c6,5.9,13,9.8,20.6,13.3c9.4,4.4,18,9.1,25.8,16.1c6.9,6.2,13,13.1,20.1,18.9c7.6,6.1,15.3,11.8,22,18.8
			c13.4,13.8,25.5,30.3,32.7,48.2c2.6,6.5,3.5,13,0.8,19.6c-2.9,6.8-7.3,12.4-9.7,19.3c-3.6,10.1-7.8,18.1-15.8,25.3
			c-7,6.4-14.8,11.9-23.1,16.5c-14.6,8.2-30.3,14.8-45.9,21.1C532.1,551.4,515.8,557,500,553.1z"/>
		<path class="st0" d="M552.2,555.2L552.2,555.2c7.3-3.2,15-5.2,22.1-8.5c8.4-3.9,16.8-8.2,24.8-12.9c14.3-8.5,29.9-17.6,41.4-29.7
			c10.1-10.6,16.9-23.4,17.4-38.2c0.4-14.1-2.1-28.1-9.1-40.6c-8.2-14.5-19.7-27.7-31.1-39.8c-12.5-13.2-27.1-22.8-41.5-33.8
			c-7.3-5.7-14.8-11.5-22.9-16c-7.2-3.9-15.1-6-22.3-9.9c-16.7-9.1-22.4-28.5-33.9-42.6c-9.7-11.9-22.6-20.5-38.5-19.9
			c-8.2,0.3-16.1,2.2-24.1,3.4c-8.9,1.3-17.8,1.1-26.7,1c-0.2,0-0.5,0.1-0.7,0.2c-8.4-0.1-16.8-1.8-25.3-0.9
			c-12.4,1.3-25.1,2.4-37.1,6c-21.6,6.6-42.3,17.8-56.2,36c-11.5,15.2-17.9,32.3-16.8,51.4c1.1,19.7,7.8,40.8,17.6,58.1
			c0,0.2,0,0.2,0.1,0.3c3.8,7.6,10.3,13.3,13.9,21.2c3.8,8.4,6.4,17.8,7.1,27c0.7,8.5-0.4,16.6-1,24.9c-0.9,14.1,2.8,26.3,10.7,37.9
			c8.3,12,18.8,22.6,30.2,31.9c10.2,8.2,22.6,13.3,35.8,12.9c13.1-0.4,26-4.8,37-12.1c6.5-4.4,12.4-10.3,19.7-13.3
			c9.7-3.9,17.8-0.3,26.1,4.5c6.3,3.6,12.7,6.5,19.9,7.4c7.9,1.1,15.9,0.8,23.8,1.3c7.3,0.5,15,1.2,22.1-0.3
			C541.2,560.9,546.4,557.9,552.2,555.2z M571.4,545.2c-7.6,2.8-15.4,5.3-22.7,8.7c-0.2,0.1-0.4,0.2-0.5,0.3
			c-6.5,3.2-12.7,6-20.2,6.3c-7.7,0.3-15.2-0.6-22.9-0.7c-9.1-0.2-18.5-0.3-26.9-4c-6.5-2.8-12.4-7.7-19.4-9.6
			c-15.3-4.3-24.8,6.6-36.7,14.2c-12.4,7.9-27.3,13.4-42.1,11.7c-16.2-1.9-28.4-11.4-39.7-22.4c-11-10.8-23-23.9-27-39.3
			c-4-15.6,1.5-31.6-0.9-47.5c-1.2-8-3.2-16.4-6.9-23.8c-3.3-6.6-8.4-12-12.2-18.1c0-0.2-0.1-0.3-0.2-0.4
			c-10.7-17.8-18.3-40.5-19-61.5c-0.7-18.6,5.9-36,17.9-50.3c15.5-18.4,38.2-30.5,61.8-35.3c11-2.2,23.2-4.6,34.5-4.3
			c8,0.2,16.2,1.6,24.2,0.9c8.1,0,16.2-0.1,24.4-1.4c9.7-1.6,19.9-4.3,29.8-2.5c19.6,3.7,31.6,20.6,40.9,36.8
			c4.1,7.3,8.3,15.1,15.1,20.2c6.1,4.7,13,7.1,20.1,10.1c17.3,7.2,30.6,20.1,45.9,30.6c16.4,11.2,29.5,24.8,42,40.2
			c10.5,12.8,20.6,26.2,23.5,42.9c3.1,17.4,0.9,35.3-10.5,49.4c-11.9,14.8-29.4,25.4-45.6,34.9C589.5,536.5,580.6,541.7,571.4,545.2
			z"/>
		<path class="st0" d="M546.7,566.5c0.2,0,0.2-0.1,0.4-0.2c12.1-3.1,22.9-7.7,34.4-12.8c12.8-5.7,25.8-10.6,38.1-17.4
			c20.4-11.3,41.1-26,50.7-48c12.2-27.7,6.7-58.7-13-81.3c-11.4-13.2-25.4-22.6-38.8-33.4c-7.6-6.1-14.5-13.2-22.4-19
			c-7.2-5.2-14.3-10.4-21.3-16.1c-10.6-8.8-23.7-19.1-38.3-19.7c-5.7-0.2-10.5-1.1-13-6.8c-1.4-3.2-2.4-6.4-3.9-9.5
			c-3.5-7.2-7.7-14.2-12.8-20.5c-10.7-13.1-24.1-22.2-40.4-26.9c-15-4.2-30.4-5.5-45.8-5c-0.2-0.1-0.3-0.1-0.6-0.1
			c-4.9-0.2-9.5,1.1-14.1,2.8c-6,2.3-11.5,3.6-17.8,4.7c-13.1,2.2-26,5.6-39,8.7c-24.5,5.7-48.2,14.6-65.8,33.4
			c-8.4,9-15.2,19.4-19.7,30.9c-3.5,9.2-7.7,18.9-6.7,28.8c1.3,12,8.1,22.7,12,34c3.7,10.9,9.2,21.2,12.1,32.3
			c0,0.2,0.2,0.4,0.2,0.5c2.5,7,6.1,13.4,9.4,20.1c4.3,8.8,7.2,17.8,6.6,27.8c-0.5,7.4-2,14.7-2.6,22.1c-1,14.4,3.3,29.8,9.9,42.4
			c7.1,13.5,18.3,24.2,31.2,32.2c12.6,7.8,27.8,15.1,42.8,16.9c13.8,1.7,26.4-3,38.2-10c11.7-7,25.8-20.1,40.2-19.1
			c13.3,0.9,25.4,7.6,38.9,8.6c15.4,1.1,32.5,3.2,47.8,0l0,0c0.2,0,0.3-0.1,0.5-0.1C545,566.8,545.9,566.7,546.7,566.5z
			 M543.4,564.7L543.4,564.7c-0.8,0.2-1.5,0.3-2.3,0.5c-9.8,1.4-19.3,0.6-29.1,0.2c-8.7-0.3-18-0.2-26.6-2.2
			c-11-2.6-22.7-9.1-34.3-6.8c-13.5,2.7-25,13.2-36.9,19.8c-15.1,8.5-29.4,11.4-46.2,6.2c-16.8-5.2-33.7-13.5-46.4-25.9
			c-12.4-12.1-20-27.5-23.2-44.5c-2.9-15.6,3.1-30.3,1.3-45.8c-1.7-15.8-12.2-28.1-16.6-42.9c-0.1-0.2-0.1-0.5-0.2-0.7
			c-0.3-0.8-0.5-1.7-0.7-2.6c-0.1-0.3-0.2-0.4-0.3-0.6c-2.6-7.6-6-14.9-8.8-22.4c-1.9-5-3.4-10-5.5-14.9c-2.6-5.7-5.8-11.7-7.2-17.8
			c-2.5-11.7,1.3-22.6,5.7-33.3c5-12.3,12.3-23.8,22.1-32.9c19.2-18,42.6-25.6,67.7-31.2c11.6-2.6,23.1-5.9,34.9-7.5
			c8.3-1.2,16.2-5.7,24.4-6.8c0.1,0.1,0.3,0.1,0.5,0.1c19.4-1.1,39.7,0.2,57.9,7.3c19.7,7.8,35.2,24.1,43.9,43.3
			c2.1,4.7,3.5,12.5,8.4,15.3c5.8,3.4,12.7,1.7,19,3.8c16.7,5.4,28.3,19.1,42.4,28.8c8.6,6,16.4,12.5,24.4,19.5
			c6,5.3,12.7,9.6,19.1,14.6c14.5,11.3,29.5,24.7,37.2,41.9c14.2,31.6,4,66.7-22.3,88.5c-14.6,12.1-31.5,21.4-48.8,28.9
			C579,552,562,560.3,543.4,564.7z"/>
		<path class="st0" d="M536.5,574.1c32.4-1.4,62.1-16,89.9-31.8C641.1,534,656,525,666.2,511c4.9-6.9,9.6-13.9,14.7-20.7
			c4.6-6,9.7-12.4,12-19.7c4.3-13.8,0-30.1-5.5-43c-6.6-15.5-17.5-28-30.8-38.2c-7.8-6-16.3-10.3-24.6-15.5
			c-8.7-5.4-15.2-12.7-22.5-19.7c-12.6-12.1-27.2-23.1-42.3-32c-7.2-4.2-14.6-8.3-22.7-11c-8.7-3-17.6-5.2-22.1-14.1
			c-3.6-7.2-5.8-15.2-10.3-21.9c-4.3-6.2-9.8-11.8-15.5-16.7c-12.3-10.4-27.1-17.1-42.9-20.9c-11.1-2.6-21.7-4.3-32.6-3.8
			c-0.2-0.1-0.5-0.2-0.8-0.2c-1.7,0.2-3.6,0.4-5.3,0.8c-2.4,0.3-4.8,0.7-7.4,1.3c-0.2,0-0.2,0.1-0.3,0.1c-9.9,2-19.6,5-29.2,8.2
			c-12.6,4.2-25.6,8.2-37.9,13c-25.9,10-49.5,23.4-69.1,43.1c-16,16.1-27.1,35.3-22.6,58.6c2.4,12.5,7.5,24,11.8,36
			c3.9,10.6,8,21.3,12.4,31.7c0,0.2,0,0.4,0.1,0.6c3,6.1,5.1,12.5,7.4,18.9c2.9,7.8,6.5,16.2,6.4,24.7c-0.1,15.3-2.9,30.4-1.5,45.7
			c1.3,14.9,6,28.7,14.9,40.7c18.3,24.4,46.7,45.5,78.4,45.2c7.5-0.1,15.3-0.9,22.1-4.5c7.1-3.9,13.2-9,20.1-13.3
			c8-4.8,16.5-9.4,25.1-13.1c9.2-4,16.2-3.1,25.5-0.5c13.8,3.8,28.1,6.2,42.3,5.3C521.1,575.3,528.8,574.8,536.5,574.1L536.5,574.1z
			 M540.7,571.3c-0.1-0.1-0.1-0.1-0.2,0c-3.6,0.3-7.2,0.6-10.7,0.8c-12.7,1-24.9,2.3-37.5,0.3c-9.2-1.4-18-4.1-27-6.1
			c-5.5-1.1-11.2-1.5-16.5,0.7c-9,3.7-17.5,8.2-25.9,12.9c-7,3.9-13,9.2-19.9,13.1c-15.9,9.4-37,7.5-53.4,0.5
			c-30.5-13-58.7-42.1-61.7-76.3c-1.4-16.4,2.1-32.5,1.3-48.8c-0.3-7.6-3.4-14.9-5.9-21.9c-2-5.3-3.7-10.6-5.9-15.8
			c0-0.2,0-0.2-0.1-0.3c-5.1-11.4-9.6-23.3-13.9-35.1c-4.5-12.2-10.3-24.4-12.4-37.4c-4.2-25.3,8.9-44.8,27.1-61.2
			c19.7-17.9,42.5-30.4,67.5-39.3c23.4-8.5,47.9-17.9,72.8-21c9.4-0.9,18.4,0.2,28.1,2.1c12.1,2.5,24.3,6.1,35,12.3
			c10.3,6,20.7,14.3,27.5,24.2c6.3,9.2,8.1,21.5,15.9,29.6c4.9,5,12.4,6.5,18.8,8.8c8.4,3,16.4,7.1,24,11.8
			c16.1,10.1,31.6,21.9,45,35.5c6.7,6.8,13.4,12.6,21.8,17.2c7.9,4.4,15.5,8.9,22.5,14.6c15.9,12.8,26.9,28.2,32.1,47.9
			c2.2,8.5,4.8,18.1,2.1,26.9c-2.7,8.8-8.1,15.7-13.6,22.9c-5.6,7.2-10.2,15.4-16.2,22.4c-6.7,8.1-15.2,14.5-24,20
			C608.2,551.1,575.4,568.6,540.7,571.3z"/>
		<path class="st0" d="M634.3,557.4c31.2-22.2,63.8-51.8,72.3-91c6.1-27.9-11.7-51.4-29.5-70.9c-12.7-13.9-27.2-26.1-42.6-36.9
			c-16.2-11.2-32.6-22.6-49.1-33.4c-8.6-5.6-17.3-10.8-26.5-15.5c-7.3-3.7-15-7.4-21.3-12.6c-8.8-7.3-12.3-16.4-17.5-26.1
			c-3.9-7.4-8.7-14.3-14.8-20.1c-18.9-17.8-46.5-30.8-73-31.1c-11.6-0.7-23.7,1.7-34.9,4.1c-15.4,3.1-31,8.1-45.3,14.8
			c-17.1,7.8-34,16.9-50.5,25.9c-13.1,7.1-26,15-37.2,25c-19.8,17.8-34.3,40.9-27.7,68.2c3.3,13.6,9.4,26.1,15.1,38.8
			c5.3,11.8,10.3,23.8,15,35.8c4.7,11.1,7.1,22.8,8.1,34.7c2.5,26.6-0.3,54.8,9.1,80.3c5.7,15.2,15.4,27.2,27.6,37.9
			c6.4,5.5,12.6,11.2,19.1,16.5c5.2,4.2,11,8.6,17.7,10.2c14.7,3.7,33.4,3.4,48.1-0.1c17-4.1,28.4-17.4,43-26
			c7.5-4.4,16.8-10.4,25.9-8.9c7.9,1.4,15.7,4,23.6,5.5c10,2,21.8,3,32.4,2.2c0.2,0.1,0.3,0.1,0.5,0.1c10.8-1.8,21.6,0.3,32.4,0.9
			c9.7,0.5,19.2-0.4,28.6-2.9C601.9,577.8,618.6,568.6,634.3,557.4z M621.6,563c-14.9,9.2-31.5,16.7-49,19.2
			c-15.1,2.2-30-1.5-44.8-0.7c-0.2-0.1-0.3-0.1-0.6,0c-5.7,0.9-11.6,0.4-17.3,0.3c-9-0.2-17.5-1.3-26.4-3c-6.4-1.3-13-4.3-19.5-4.5
			c-7.2-0.2-14,2.8-20.2,6.3c-6.6,3.8-13.2,7.6-19.2,12.4c-8.1,6.5-16.1,13.5-26.5,16c-8.9,2.1-18.1,2.9-27.2,2.6
			c-9.2-0.2-19.8,0-28.1-4.6c-6.5-3.7-12.1-8.5-17.7-13.4c-14-12.1-28.6-23.8-36.3-41.2c-5.7-13-8.1-27-9.1-41
			c-1.8-25.4-0.2-51.6-9-75.8c0.1-0.1,0-0.2-0.1-0.3c-5-12.9-10.3-25.8-16-38.5c-5.6-12.4-12-24.7-15.2-38
			c-3.5-14.5-2.6-28.7,4.9-41.7c6.5-11.3,15.4-21.1,25.5-29.2c12.6-10.2,26.7-18.2,41.1-25.7c14.6-7.5,29.1-15.9,44.1-22.3
			c14.2-6.1,29-11,44.2-13.9c10-2,20.6-4,30.9-3.7l0,0c0.6,0,1.2,0,1.7,0.1c1.5,0.1,3,0.3,4.5,0.4c0.3,0.1,0.6,0,0.8-0.2
			c8.8,0.6,18.3,2.6,26.1,5.6c16.6,6.4,34.8,16.8,46,31c10.6,13.4,13.9,30.9,28.4,41.3s31.3,17.1,46.2,26.9
			c16.5,10.9,32.9,22.1,49.1,33.4c16.3,11.6,31.6,24.3,44.7,39.4c9.6,11.1,19.5,23,24.7,37c5.6,15.5,2.6,30.8-4.1,45.5
			C682.7,517.1,653.6,543.2,621.6,563z"/>
		<path class="st0" d="M685.1,523.8c11.3-12.2,22-26.8,28.9-41.9c6.1-13.3,8.8-31.7,5.2-46.1c-1.9-7.7-5.7-14.2-10-20.6
			c-4.8-7.2-9.3-14.7-14.1-21.9c-10.6-15.8-23.1-30.5-38.8-41.5c-16.2-11.4-33.7-20.8-50.3-31.8c-15.6-10.2-30.7-20-47.6-27.8
			c-10.6-4.8-18.4-9.9-24.5-20.1c-4.6-7.7-8.6-15.9-13.6-23.5c-4.8-7.1-10.8-14.2-17.3-19.7c-3-2.5-6.3-4.6-9.8-6.4
			c-0.1-0.2-0.2-0.4-0.4-0.6c-13.7-7.3-26.7-15.3-42.4-17.8c-32.3-5.3-66.3,4.5-95.7,17.3c-17.3,7.5-33.7,16.7-50.5,25.1
			c-15.9,7.9-30.8,16.6-44.1,28.5c-10.5,9.4-21.1,19.6-28.1,31.9c-7.1,12.4-9.3,24.8-8.4,38.9c1,15.4,5.1,30.2,12.2,43.9
			c4.4,8.4,9.5,16.1,13.5,24.7c3,6.5,6,13.2,9.2,19.7c0,0-0.1,0.1,0,0.2c2.9,6.2,6.2,11.2,7.1,18.1c1.1,8.6,0.6,17.3,1.9,25.8
			c1.4,8.2,2.5,16.4,2.9,24.6c0.8,15.5,0.8,31.5,5,46.6c4.5,16.2,13.6,30.5,24.9,42.7c11,12,24.3,24.8,39.2,32
			c24.1,11.8,58.4,5.9,80.4-8.7c14.5-9.5,25.9-25.5,44.6-25.9c9.2-0.2,17.6,2,26.3,4.7c5.3,1.6,10.8,2.7,16.2,3.8
			c0.1,0.1,0.3,0.2,0.5,0.2c1.2,0.2,2.4,0.4,3.6,0.6c0.5,0.1,0.8,0.2,1.3,0.3c0.2,0,0.5,0.1,0.7-0.1c5.8,0.3,11.7-0.5,17.6-0.2
			c8.3,0.4,16.6,1.2,24.9,0.7c15.5-1,30.9-4.8,45.3-10.6c15.7-6.4,29.9-15.5,42.7-26.6c7.2-6.2,14-12.7,21-19.2
			C671.5,536.6,678.7,530.7,685.1,523.8z M700.3,500c-11.2,17.4-26,30.4-40.9,44.4c-14.3,13.4-28.9,27.1-46.4,36.1
			c-16,8.2-33.6,13.8-51.5,15.9c-9.7,1.1-19,0.4-28.5,0c-7-0.3-14.1,0.8-21,0c-1.8-0.4-3.6-0.6-5.3-1c-14.6-2.8-29-10-44.3-8.3
			c-16.3,1.9-26.7,13.2-39,22.7c-24.1,18.7-66,26.1-91.6,6.7c-15.1-11.5-29.9-24.3-40.6-40.1c-10.4-15.4-15.3-32-16.7-50.4
			c-1.2-16.3-2.2-32.3-4.3-48.4c-1.1-8.6-0.6-17.3-1.9-25.8c-0.8-5.2-2.8-9.3-4.9-13.6c0-0.2,0-0.2-0.1-0.3c-1.7-3.3-3.3-6.6-4.9-10
			c-14.3-31.1-37.2-61.3-32.1-97.6c2.2-16,11.8-29.8,23-41.3c11.9-12.3,25.1-23.4,40.1-31.8c16.5-9.1,33.5-17.6,50.4-26
			c17.3-8.6,35.4-16,54.2-20.6c16-4,32.8-6.8,49.2-5c13.2,1.4,24.5,6.1,35.8,11.7l0,0c2.9,1.8,6.1,3.3,9.2,4.9
			c1.2,0.6,2.3,1.2,3.4,1.9c0.1,0.1,0.2,0,0.3,0.1c2.3,1.2,4.4,2.5,6.3,4c6.1,4.7,11.3,10.4,16.1,16.4c9,11.3,13.3,25.6,22.7,36.5
			c8.4,9.7,21.1,13.5,32.3,19.2c12.5,6.4,23.7,14.3,35.4,22c16.7,10.7,34.2,20.2,50.3,31.8c17.3,12.5,30.7,28.9,41.9,46.8
			c9.8,15.8,21.7,29.6,20.9,49.3c-0.3,9-1.1,18.9-4.6,27.4C709.8,485.4,705,492.7,700.3,500z"/>
		<path class="st0" d="M711.6,512.4c13.3-18.9,26.2-41,27.2-64.6c0.5-10.9-1.4-22-6.6-31.8c-8.6-16.1-19.8-31.5-32.9-44.2
			c-13.6-13.3-29.8-23.8-44.8-35.2c-15.4-11.6-31.1-22.7-48.4-31c-16.4-7.9-34-14.6-48.1-26.3c-13.3-11.2-22.5-26.2-31.7-40.7
			c0-0.2-0.1-0.3-0.2-0.4c-0.3-0.5-0.6-0.9-0.9-1.4c-1.3-2.1-2.6-4.1-4-6.1c-0.1-0.2-0.2-0.3-0.4-0.4c-0.6-0.9-1.3-1.8-2.1-2.6
			c-2.1-2.2-4.9-4.2-7.3-6.1c-6-4.9-11.9-9.6-18.2-14c-11.7-8.1-24.2-15.6-38.1-19.5c-23.8-6.6-49.1-4.5-72.3,3.3
			c-14.1,4.7-27.1,11.7-40.2,18.6c-13.9,7.2-28.4,13-42.1,20.4c-25.5,13.5-48.9,32.2-67.7,54.1c-10.8,12.7-20.8,27.4-26.6,43.2
			c-4.5,12.2-3.9,25.3-0.1,37.6c4,13.1,10.3,25.2,16.4,37.4c3.7,7.5,7.9,14.5,12.1,21.7c4.7,8,7.7,15.8,9.7,24.9
			c2.2,10,5.3,19.9,7.2,30c1.8,9.2,1.8,18.4,2.3,27.8c0.9,15.7-3,29.9,3.6,44.8c7.1,16.2,18.5,29.6,29.8,42.9
			c6.2,7.3,11.5,15.5,18.7,22c4.7,4.2,10.4,7.3,15.6,10.7c0.1,0.1,0.2,0.3,0.4,0.4s0.5,0.3,0.7,0.3c0.7,0.5,1.4,1.1,2.2,1.6
			c0.4,0.2,0.6,0.3,0.9,0.2c7.7,4.4,15,8.8,24,10.3c10.7,1.6,21.8,1.9,32.7,0.5c11-1.4,21.9-4.4,31.9-9.2
			c11.4-5.5,20.9-13.7,31.6-20.5c5.9-3.7,11.9-7.1,19.1-7.1c5.4-0.1,10.5,0.8,15.8,1.8c12.7,2.1,25.6,2.3,38.3,3.6
			c13.3,1.3,26.7,4.4,40.2,4c9.7-0.4,19-3.1,28.5-4.4c0.1,0.1,0.2,0,0.2,0c0.3-0.1,0.5-0.1,0.8-0.2c0.9-0.1,1.6-0.3,2.5-0.3
			c0.3-0.1,0.5-0.1,0.6-0.3c10.4-2.4,20.1-9.2,29.3-14c14.6-7.6,28.9-16.3,41.7-26.7C681.9,552,697.8,532.1,711.6,512.4z M721,493.1
			c-6.3,10.9-13.6,21.2-21.4,31.1c-7.8,10-15.9,20.4-24.9,29.3c-13.7,13.6-29.7,24.7-46.6,33.9c-6.8,3.8-13.7,7.2-20.5,10.9
			c-5.9,3.2-12,6.5-18.7,7.5c-11.3,1.5-22.1,5-33.7,4.5c-12.7-0.5-25.2-3.2-37.9-4.2c-12.7-1-25.4-1.6-37.9-3.7
			c-8.7-1.5-18.4-2.8-26.6,1.5c-11.5,6-20.9,14.9-32.2,21.2c-10.2,5.7-21.1,9.9-32.7,11.9c-11.3,1.9-23,2.3-34.2,0.9
			c-11.5-1.4-19.9-6.9-29.8-12.3c-4.2-2.9-8.8-5.5-12.9-8.5c-5.9-4.4-10.3-9.9-14.8-15.6c-7.5-9.8-16.1-18.8-23.4-28.8
			c-8-11.1-17-24.7-17.3-38.9c-0.2-11.2,1-22.2,0.5-33.3c-0.6-13.1-2.7-25.2-5.9-37.9c-2.9-11.6-4.4-23.5-10.2-34.1
			c-10.1-18.4-21.3-36.4-28.7-56.2c-5.2-13.9-8.4-29.7-2.5-44c7.1-17.4,17.4-33.4,30.3-47c12.7-13.5,26.7-26,42.1-36.4
			c16.1-10.8,33.7-18,50.9-26.7c31.6-15.9,62.6-33.7,99.2-31.6c17.6,1,34.2,6.3,49.3,15.5c8.5,5.2,16.6,11,24.3,17.3
			c3.6,2.9,7.1,5.8,10.6,8.8c3.4,2.9,5.5,6.7,7.9,10.3c6.4,10.3,12.7,20.6,20.5,29.8c8.8,10.5,19.1,18.6,31.2,25.1
			c12.9,6.9,26.8,12.2,39.5,19.3c13,7.2,25,15.9,36.9,24.8c16.1,12.1,33.8,23.4,47.8,37.9c12.7,13.1,25.7,29,32.8,46
			C742.1,445.3,733.6,471.4,721,493.1z"/>
		<path class="st0" d="M752.3,444c-3.6-14.9-9.3-29.3-17.8-42.2c-9.4-14.1-20.5-26.9-31.8-39.6c-11.1-12.5-22.9-24.6-36.8-34.1
			c-15.3-10.4-32.7-17.5-49.1-25.8c-16.7-8.4-34.1-17.1-49.2-28.1c-13.4-9.8-26.2-22.8-33.7-37.6c-2.6-5-4.9-11.1-8-16.6
			c0-0.2,0.1-0.5-0.1-0.9c-1.6-3-3.8-5.6-6.1-8.2l-0.1-0.1c-6.6-7.2-15.2-12.8-22.6-18.7c-10.6-8.4-21.7-15.4-35.1-18.4
			c-12.5-2.8-26.3-3.6-38.9-2.5c-15.6,1.4-30.6,7-45.9,10.2c-14,2.9-27.9,5.6-41.3,10.9c-13.7,5.5-26.5,12.5-38.7,20.6
			c-24.8,16.5-45.1,37.7-65.1,59.6c-7,7.8-14.1,15.5-21,23.3c-5.5,6.4-12.2,12.6-16.8,19.7c-7.9,12.3-8.2,26.1-6.8,40.2
			c1.7,17.7,3.5,36.5,12.1,52.3c8.9,16.4,19.9,31.5,25.5,49.5c5.7,18.3,7.3,38,10.8,56.8c3.3,17.7,5.9,36.2,15.2,51.9
			c8.8,14.8,20.9,26.6,33,38.6c9.9,9.7,18.3,21.2,29.3,29.8c0.1,0.1,0.1,0.2,0.2,0.3c16.8,13.8,39.7,23.6,61.7,22.4
			c22.4-1.2,42.9-8.3,61.9-20.3c4.6-3,9.2-5.9,13.6-9.1c5.7-4.1,11.7-9.1,18.7-10.6c12.2-2.6,23,1.5,34.8,3.7
			c24.4,4.5,49.2,4,73.7,0.6c19.5-1.6,36-13.9,52.9-22.6c17.8-9.1,34.4-19.7,50.4-31.6c9-6.7,17.9-13.8,26.3-21.4
			c7-6.3,14.4-12.8,20.1-20.3c5.5-7.3,9.5-15.5,13.9-23.4c3.7-6.5,8.1-12.8,10.8-19.8C757.3,469.9,755.5,457.1,752.3,444z
			 M751.1,479.1c-2.8,8-7.6,14.7-11.6,22.2c-4,7.4-7.5,15-12.6,21.7c-12,16.1-29.3,29.5-45.2,41.4c-16.5,12.2-33.6,23.3-51.8,32.7
			c-15.5,7.9-30.6,19-48,21.8c0,0-0.1-0.1-0.2,0c-1,0.1-2,0.3-3.1,0.5c-0.5,0.1-1,0.1-1.4,0.1c-0.2,0-0.3,0.1-0.4,0.2
			c-24.9,3.3-51,4.2-75.5-1.6c-9.7-2.3-20.1-5.5-30.2-3.3c-10.5,2.3-18.3,9.3-27,15.1c-19.7,13.2-41,23.4-64.9,25.1
			c-22.2,1.5-44.2-6.3-61.7-19.7c0-0.2-0.2-0.3-0.4-0.4c-9.6-6.9-17.1-16.2-25-24.8c-7.8-8.4-16.5-16-24.1-24.6
			c-8.7-9.9-16.6-20.7-21.1-33.2c-4.6-12.9-6.7-26.8-9.2-40.2c-4.7-25.2-6.7-51.2-18.7-74.3c-6-11.6-14-22.2-19.3-34.2
			c-5.4-12.2-7.6-25.7-9-38.9c-1.9-17-4.2-36.2,7.9-50.3c13.5-15.8,27.5-31.2,41.5-46.6c24.2-26.5,50.8-51,83.5-66.9
			c16.7-8.2,33.7-12.4,51.8-16.2c18.5-3.8,36.7-11,55.7-11c17.9,0,36.6,1.9,51.9,11.8c7.2,4.6,13.8,10,20.4,15.4
			c6.1,4.9,12.4,9.3,17.2,15.4c4.9,6.9,8.1,16,11.8,23c6.2,11.8,15.7,22,25.6,30.7c11.6,10.3,25.6,18,39.2,25.3
			c14.5,7.9,29.4,15.1,44.3,22.4c16.8,8.2,31.9,18.3,45.2,31.5c12.6,12.5,24.4,26.1,35.4,40.1c10.4,13.3,19.5,27.7,24.6,44
			C751.1,447,756.2,464.3,751.1,479.1z"/>
		<path class="st0" d="M756.9,413.1c-7.2-13.2-16.2-25.2-26.9-35.7c-13.9-13.6-29.5-25.1-43.9-38.1c-6.7-6-12.6-13.1-19.6-18.7
			c-6.3-5-13.1-9.1-20.3-12.5c-15.2-7.5-31.6-12.5-46.4-20.8c-17.2-9.8-33.1-20.7-44.3-37.3c-6.3-9.4-11.7-19.4-16.7-29.6
			c0-0.2,0-0.4-0.1-0.6c-1.4-2.7-2.7-5.5-4-8.4c-1.3-3.1-2.5-6.1-4-8.9c-0.3-0.6-0.6-1.2-0.8-1.9c-0.1-0.3-0.2-0.4-0.4-0.6
			c-1.9-3.2-4.1-6.2-7.2-8.7c-6.6-5.4-13.4-10.7-20.4-15.5c-14.1-9.6-29.5-19.4-46.3-23.7c-15.1-3.8-30.9-4.8-46.4-2.8
			c-17.2,2.2-32.8,8.6-48.7,15.5c-17.9,7.8-36.5,15.8-52.7,26.7c-7.6,5.1-14.5,11.2-21.3,17.4s-14.3,11.3-21.3,17.1
			c-15.6,13.2-28.9,29.1-42.9,43.9c-12.8,13.5-26.3,26-36.4,41.6c-8.4,12.7-17.3,27.6-19.2,43c-1.8,14,0.7,28.1,4.9,41.4
			c10.6,32.9,30.6,61.5,42.7,93.7c12.2,32.6,7.6,69.7,28.1,99.5c10.6,15.3,24.2,25.6,38.5,37.1c10,7.9,19.1,17.3,30,24.1
			c0.1,0.1,0.1,0.2,0.3,0.3c10.7,6,21,12.5,32.9,16.1c10.4,3.1,21,4.8,31.7,5.1c22,0.5,44.6-4.5,64.1-15c10.3-5.5,19-13.4,29.1-18.8
			c9.8-5.3,20.4-8.4,31.4-8.6c12.3-0.2,23.8,2.9,35.9,4.7c8.9,1.3,17.3,0.3,25.8-1.4c0.1,0.1,0.2,0,0.2,0c10.5-2,20.9-3.5,31.1-6.8
			c9.9-3.2,19.2-7.3,28.7-11.6c20.9-9.7,42.2-19.1,62.2-30.7c19.2-11.1,37.3-23.9,51.7-41c13.6-16.4,24.5-35.1,32.1-54.9
			C778.3,462.9,769.2,435.5,756.9,413.1z M760.7,426.3c5.7,13.2,10.5,28.1,9.8,42.7c-0.8,16.6-9.9,33.2-18.2,47.1
			c-9.6,16.2-21.4,31.4-36.1,43.4c-15.4,12.6-32.8,22.8-50.6,31.7c-17.3,8.7-34.8,17.1-52.6,24.8c-14.6,6.4-29.1,10-44.3,13
			c-0.2-0.1-0.4-0.2-0.7-0.1c-12.1,2.7-22.9,4.2-35.2,2c-11.2-2.1-22.2-4.5-33.7-3.8c-9,0.6-18,2.4-26.1,6.4
			c-9.1,4.4-16.5,10.7-25.1,16.1c-19.8,12.6-44,20.2-67.6,19.9c-11.9-0.1-23.8-1.3-35.3-5c-10.8-3.5-20.1-8.9-29.9-14.4
			c-10.2-5.6-18.9-13.8-27.5-21.4c-13-11.3-27.3-20.2-38-33.8c-10.8-13.7-17.4-29.2-20.6-46.3c-2.9-15-4.1-30.3-7.8-45.1
			c-7.8-31-26.4-57.9-39-87c-10.7-24.3-19.4-52.2-7.9-77.9c8.2-18.2,19.2-34.9,33.1-49.3c14.1-14.7,28-29.7,42.2-44.3
			c13.6-14.1,29.2-25.7,44-38.6c15.3-13.4,32.7-22.7,51-31.3c17.2-8,35.2-17.1,53.8-21c17.3-3.7,35.7-4.3,52.9-0.3
			c18.1,4.2,34.4,13.8,49.5,24.3c7.8,5.4,16.7,11.1,23.1,18c1.6,1.7,2.9,3.7,4,5.6c0,0-0.1,0.1,0,0.2c7.2,17.2,15.2,34.5,25.9,49.8
			c11.6,16.6,27.2,27.9,44.7,37.7c16,9,33.7,14,49.9,22.6c17.5,9.2,29.9,24.3,44.9,36.9c15.2,12.9,31.5,25,44.3,40.5
			C747.1,400.6,754.8,412.9,760.7,426.3z"/>
		<path class="st0" d="M765.6,409.2c-18.7-30.4-45.2-57.1-72.7-79.6c-14.8-12.1-30.6-23.2-47.6-32c-16.3-8.5-33.3-15.5-48.9-25.2
			c-16-10.1-30.4-22.7-39.8-39.4c-3-5.3-5.4-11-7.8-16.7c0-0.2,0.1-0.5-0.2-0.8c-0.5-0.9-0.9-1.8-1.4-2.8c-1.8-4.5-3.8-9-6.2-13.3
			c-0.2-0.4-0.4-0.6-0.8-0.6c-0.5-0.9-0.9-1.7-1.5-2.4c-4.4-6.7-9-13.2-14.2-19.4c-12.5-15-27.8-25.6-45.2-34.2
			c-14.3-7-28.5-9-44.3-9.7c-15.6-0.6-31.1,0.6-46.3,4.6c-30.4,7.8-58.3,23-84.3,40.4C290,188,275.3,198,261.5,209
			c-15.3,12.2-27.2,27.8-42,40.6c-14.2,12.1-28.6,24.3-40.1,39.2c-9.3,12.1-17.6,25.6-23.9,39.6c-5.9,13.2-11.1,27.7-11,42.3
			c0.1,16,4.3,32.2,9.3,47.3c5.3,16,13,30.6,21.9,45c9.6,15.7,19.7,31.6,25.7,49c10.2,29.8,1.9,65,23.4,90.6
			c11.1,13.2,25.4,23.2,39.8,32.7c14.1,9.3,30.2,16.1,43.4,26.7c0.9,0.9,1.9,1.6,2.8,2.4c0.2,0.1,0.4,0.4,0.6,0.5
			c0.1,0.1,0.1,0.1,0.2,0.1c14.4,11.3,33.7,17.5,51.5,19.9c22.3,3,46.2,1.7,67.3-6.3c22.6-8.5,40.3-28.6,64.3-33.6
			c13.1-2.7,24.2,1.7,37.1,2.4c11.1,0.5,22.5-1.7,33.3-4l0.2,0c25.4-5.3,50.2-13.1,75-20.9c11.5-3.6,23.2-6.8,34.1-11.9
			c10.5-4.7,20.5-10.4,29.9-16.8c34.2-22.9,67.7-53.5,78.4-94.8C791,467.7,782.1,436.2,765.6,409.2z M783,461.8
			c4.6,31.6-9.7,64.5-30.6,87.9c-21.9,24.5-50.4,46.4-80.7,59.2c-17.3,7.4-35.9,12.3-53.8,17.8c-18.4,5.6-36.8,10.9-55.7,14.6
			c-0.2,0-0.2,0-0.2,0.1c-10.9,2.4-22.6,4.7-33.6,3c-10-1.5-19.6-4.4-29.7-2.7c-22.5,3.7-38.1,19.8-57.8,29.6
			c-21.4,10.7-46.1,14-69.7,11.9c-20.1-1.8-42.5-7.8-58.6-20.8c-0.8-0.6-1.5-1.3-2.3-1.9c-0.6-0.5-1.2-1-1.7-1.5
			c-0.2-0.3-0.5-0.3-0.7-0.3c-8-5.9-16.5-10.5-25.2-15.3c-10.5-5.9-20.7-12.6-30.4-19.7c-14.8-10.7-29.7-23.4-35.7-41.3
			c-5.3-15.4-4.8-31.6-6.9-47.5c-2.1-17.2-8.2-33-16.6-48.1c-8.6-15.7-19.2-30.3-27-46.4c-7.7-16.2-13.6-33.4-16.7-51.1
			c-2.9-16.6-1.9-31.8,3.9-47.9c5.4-14.8,13-28.7,21.7-41.7c11.2-16.8,25.9-30.4,41-43.5c7.7-6.6,15.6-13.1,22.5-20.5
			c6.3-6.9,12.4-14.1,19.5-20.1c13.7-11.6,29-21.8,43.9-32c27.5-18.7,57.2-36,89.7-43.6c16.6-3.9,32.9-4.8,49.8-3.8
			c8.9,0.5,17.9,1.3,26.2,4.2c8.5,2.9,16.7,7.3,24.3,11.9c14.3,8.5,25.7,19,35.8,32.2c4.4,5.7,8.6,11.6,12.2,17.9
			c2.6,4.7,4.4,9.7,6.8,14.5c0,0,0,0,0.1,0.1c4.3,10.1,8.5,19.9,15.4,28.9c13,16.5,30.6,28.2,49.5,38c20.9,10.8,42.2,20.2,61.6,33.9
			c19.9,14.3,38.3,30.8,55.1,48.6C753.7,393,777.5,424.3,783,461.8z"/>
		<path class="st0" d="M814.6,453.2c-4.1-16.4-15-28.4-25.1-41.3c-11.9-15.3-22.4-31.8-36.7-45c-14-12.9-29.3-23.8-45.4-34
			c-16.6-10.6-28.5-26.2-44.3-37.4c-14-9.9-30.1-15.4-45.2-23.2c-30.2-15.5-49.6-44.3-62.8-74.8c0-0.2,0-0.4,0-0.6
			c-2.9-7.4-7.4-14.8-11.6-21.6c-3.9-6.3-9.1-11.7-14.5-16.7c-9.9-8.8-21.6-16.4-32.9-23.4c-11.8-7.2-24.4-14.1-38-17.4
			c-12.8-3-26.4-3.7-39.5-2.7c-33.6,2.5-66.6,15.5-96.6,30.5c-33.7,17-63.7,41.2-92.1,65.8c-14.8,12.8-29.2,26.1-42.5,40.4
			c-11.5,12.4-24.6,25.5-32,40.9c-7.7,15.9-11.8,33-20,48.7c-5.9,11.1-10.6,22.7-11.9,34.9c-0.1,0.2-0.2,0.4-0.2,0.8
			c-0.1,7.7-0.7,15.7,1,23.3c1.6,7.3,5.8,14.1,9.8,20.3c9.4,14.8,20.7,28.2,30.5,42.7c10.8,16,18.1,32.4,22.1,51.3
			c3.5,16.9,8.2,33.6,9.3,50.9c1,15.1,2.9,30.8,9.8,44.3c7.4,14.5,19,23.5,33,31.4c7.6,4.2,15.4,7.9,23.5,11.4
			c9.1,4,17.1,9.7,25.8,14.4c6.8,3.6,14.1,5.6,21.2,8.5c4.5,1.9,8.6,4.6,12.7,7.2c0,0,0,0,0.1,0.1c8.6,5.8,19.4,8,29.4,9.6
			c11,1.8,22.3,3,33.5,3.7c19.5,1.3,41.4-0.9,58.5-11c9.4-5.5,17.9-13,27.8-17.7c10-4.8,20.8-7.5,31.8-7.3c9.4,0.2,18.6,1.1,28,0.1
			c4.6-0.5,9.3-1.5,13.7-2.6c0.2,0,0.2,0,0.3-0.1c8.7-2.3,16.6-5.6,25.7-6.5c8.3-0.8,16.6-0.9,24.9-1.5c17.6-1.3,35-5,51.8-10.6
			c28.5-9.4,54.6-23.6,79.4-40.5c38-25.9,82-61.2,89.5-109.5C818,477.2,817.6,465,814.6,453.2z M814.8,473.1
			c0.6,53-44.9,92.6-84.9,120.4c-25.8,17.9-53,33.6-83,43.2c-17.3,5.6-35.3,9.6-53.5,10.7c-8.4,0.4-16.9,0.6-25.3,1.7
			c-3.8,0.5-7.3,1.4-10.9,2.5c-0.2,0-0.5-0.1-0.8,0c-2.5,0.9-4.9,1.7-7.4,2.5c-0.2,0.1-0.5,0.1-0.7,0.2c-1,0.3-2.1,0.6-3.1,0.9
			c-0.2,0-0.3,0.1-0.5,0.2c-6.5,1.7-13.1,2.8-19.7,3.1c-9.3,0.4-18.7-0.9-28.1-0.3c-18.8,1.2-32.5,10.7-47.6,20.6
			c-18.5,12.1-40.4,16.8-62.3,15.3c-10.4-0.7-20.8-1.6-31.1-3.2c-9-1.3-18.9-3-27.3-7c-1.1-0.5-2.3-1.1-3.3-1.8
			c-0.3-0.2-0.6-0.4-0.9-0.6c-4.7-2.8-9.1-6.2-14.4-8.2c-7.7-2.9-15.5-5.3-22.6-9.5c-7.4-4.2-14.4-9.1-22.3-12.6
			c-8.5-3.7-17-7.5-25-12.1c-15.2-8.7-28-18.8-34.5-35.6c-5.9-15.4-5.9-30.9-7.9-47c-2.1-16.2-6.2-32.6-10-48.5
			c-3.9-16.2-10.7-30.4-19.8-44.2c-9.6-14.5-21.1-27.8-30.5-42.5c-4.1-6.5-9.4-13.8-10.7-21.5c-0.9-5.3-1.1-10.6-1.1-15.9
			c0-0.6,0-1.1,0-1.6c0-0.6,0-1.5,0.1-2.1c1.1-22.4,15.2-41.1,22.4-62c4.2-12,8.2-24.6,15.8-35.1c8.2-11,17.3-21.4,26.8-31.2
			c27-28.2,57.1-53.2,88.2-76.5c30.4-22.8,65.6-40.2,102.1-50.8c32.3-9.3,67.7-11.6,98.4,4c14.2,7.2,27.2,16.1,39.9,25.6
			c13.4,9.9,24.1,23.1,31,38.3c0,0.2,0,0.2,0.1,0.3c11.2,27.4,28.1,57.7,53.7,74.2c13.2,8.6,27.9,13.7,41.9,20.9
			c16.2,8.3,27.7,20.5,41,32.5c12.9,11.8,28.4,19.8,42.4,30.3c15.1,11.2,28.7,23.9,40.3,38.6c5.7,7.4,10.9,15.1,16.6,22.5
			c4.9,6.3,10.2,12.4,14.9,18.9C810,443.4,814.6,457.6,814.8,473.1z"/>
		<path class="st0" d="M839.3,477.4c1.9-29.7-11.3-58.1-27.2-82.5c-20.5-31.3-50.4-52.7-83.8-68.7c-8.8-4.2-17.8-7.9-26.1-13
			c-7.6-4.8-15-10-22.2-15.2c-14-9.9-28.8-18.4-42.9-28.2c-28.3-19.8-57.4-43.6-71.2-76.2c-0.2-0.4-0.4-0.6-0.8-0.6
			c-6.9-14.7-11.8-30.8-22.7-43c-7.5-8.4-16.3-17.1-25.4-23.7c-8.3-6-17.8-8.6-27.4-11.7c-38.8-12.6-79.6-13.7-119.3-3.7
			c-34.3,8.6-65.6,25-96.4,41.6c-8.4,4.6-17.5,7.9-25.8,12.6c-7.5,4.3-13.9,9.7-20.1,15.5c-14.3,13.3-30.2,24.6-44.6,37.8
			c-13.4,12.2-27,25.4-36.8,40.9c-9.5,15-16.3,31.7-22.3,48.4c-5.9,16.1-12.8,32.3-15.1,49.4c-1.3,9.2-1.8,18.4-1.6,27.7
			c0.1,3.5,0,7.3,0.5,11c0,0.2-0.1,0.3,0,0.6c0.2,0.8,0.3,1.4,0.5,2.1c0,0,0,0,0,0.2c3.3,13.5,10.9,25.9,19,37
			c9.7,13.4,23.5,25.9,29.6,41.5c3.2,8.1,5.3,16.8,8.3,25c3,8.4,5.3,17,6.7,25.8c2.7,16.9,2.8,34.1,3.4,51.1
			c0.6,14.9,4.1,27.7,13,39.9c8.7,11.7,19.6,22.7,31,31.9c13.7,11,29.6,18.5,45.8,24.8c15.8,6.2,33.8,9.8,47,20.9
			c6.4,5.3,14.6,8.6,22.3,11.5c9.5,3.6,19.1,6.2,29.3,7c21.9,1.6,45.1-1.4,64.7-12c11.5-6.3,21.9-14.2,34.6-18.1
			c10.3-3.2,20.9-4.5,31.7-4.3c17.6,0.3,34.5-2.5,51.1-8.2l0.2,0c0.2,0,0.2-0.1,0.4-0.2c1.7-0.6,3.5-1.3,5.2-1.9
			c12.1-4,25.3-4.9,37.8-5.9c16.9-1.3,33.2-3,49.5-7.7c16.9-4.8,33.2-11.3,49.2-18.5c25.6-11.7,50.9-23.7,73.4-40.9
			C799,568.7,836.3,526.3,839.3,477.4z M833.2,497.9c-13.8,48.8-55.3,89.2-98.3,114.1c-13.4,7.8-27.7,14.4-41.9,20.9
			c-17.1,7.8-34.4,15.3-52.5,20.4c-16.4,4.6-32.7,6.8-49.7,8.1c-12.5,0.9-25.5,1.8-37.7,5.4c-0.2,0-0.4,0-0.7,0.1
			c-0.6,0.3-1.2,0.4-1.8,0.7c-1.9,0.6-3.8,1.3-5.8,2.2c-7.6,2.6-15.4,4.7-23.2,6.2c-10.3,1.9-20.3,1.6-30.7,1.8
			c-20,0.5-36.9,6.5-53.8,17c-20.4,12.7-43.2,18.9-67.1,17.9c-10.6-0.5-21.4-2-31.3-5.9c-9.2-3.5-19.1-6.8-26.3-13.7
			c-0.1-0.1-0.3-0.2-0.4-0.2c-12.2-9.4-27.5-12.9-41.7-18.3c-16.7-6.5-33.6-13.6-47.7-24.8c-12.2-9.8-24.5-21.4-33.3-34.4
			c-4.6-6.9-8.8-14.6-10.2-22.9c-1.5-7.9-1.2-16.2-1.5-24.2c-0.5-15.8-0.9-31.7-4.2-47.1c-1.6-7.7-3.9-15-6.6-22.5
			c-2.6-7.6-4.4-15.6-7.5-23c-6.3-14.7-18.4-26.3-27.7-39c-8.3-11.2-16.5-23.6-20.2-37.3c0-0.2,0-0.2-0.1-0.3
			c-0.2-0.4-0.3-0.8-0.3-1.1c-0.2-0.8-0.4-1.5-0.5-2.2l0,0c-1.4-6.8-0.5-15-0.3-21.6c0.5-9.8,1.4-19.7,3.8-29.2
			c4.6-18.1,11.8-36.1,18.9-53.3c7.9-19.2,17.8-36.4,32-51.8c13.2-14.4,28.1-27.2,43.2-39.5c7.8-6.3,15.7-12.6,23-19.5
			c7.2-6.7,14.8-12.4,23.8-16.6c17.1-8.2,33.5-17.9,50.7-25.9c16.4-7.6,32.4-15.5,49.7-20.9c15.8-4.9,32.1-8.4,48.7-10
			c34-3.2,68.4,1.6,99.9,14.4c10,4.1,17.4,11.1,25.2,18.3c6.7,6.2,13.3,12.6,17.9,20.6c7.6,13.3,12.5,28,20,41.3l0.1,0.1
			c1.7,3.3,3.5,6.4,5.5,9.6c18.4,27.9,45.7,48.9,73.3,67c14.7,9.7,29.2,19.2,43.7,29.2c15.5,10.8,32.7,17.6,49.4,26.5
			c35.3,18.7,64.4,45.4,82.3,81.5c7,14,13.5,29,15.2,44.7C837.7,473.1,836.6,485.8,833.2,497.9z"/>
		<path class="st0" d="M857.1,427.4c-14.8-49.3-53.6-86.9-98.9-109.3c-16.7-8.2-32.9-17.7-49.8-25.4c-18.2-8.2-37.1-15.7-54.3-25.9
			c-17.6-10.5-32.3-23.5-46.4-38.2c-12.4-12.9-26.7-24.6-36.3-40c-0.1-0.2-0.2-0.3-0.4-0.4c-2.6-3.9-5.3-7.8-7.2-12
			c-3.1-7.1-4.9-14.7-8.7-21.5c-7-12.5-18.1-22.9-29.5-31.4c-20.7-15.4-44.1-31-70.1-35.4c-59.4-10.2-115.6,21.6-169.2,42.2
			c-18.4,7.1-35.4,17.4-52.3,27.5c-16.3,9.7-34,18-48.5,30.3c-15.4,13.2-28.9,28.2-42.1,43.5c-11.1,12.7-22.3,25.3-30.7,40
			c-15.8,27.6-22,59.5-18.6,91.1c1.8,16.5,5.2,33.5,12,48.7c7.6,17,14,34.4,21.3,51.6c0.1,0.2,0.2,0.4,0.3,0.5
			c0.5,1.4,1.1,2.7,1.6,4.3c3.3,9.1,4.9,18.6,6.6,28.1c1.6,8.8,3,17.9,5.8,26.4c2.3,7.3,5.4,14.4,7.2,21.7c3.7,15.2,1,31.2,2.5,46.7
			c1.3,13.7,5.9,25.8,14,36.9c8.2,11.2,18.3,21,29.4,29.2c7.2,5.3,14.7,10.1,22.1,15.1c5.9,4,11.8,9,18.3,11.9
			c13,5.6,27.5,4.8,41.1,8.2c12.6,3.1,27.3,6.7,37.7,15.1c0.6,0.5,1.2,1,1.7,1.5c0.2,0.3,0.5,0.5,0.9,0.7c0.2,0.1,0.4,0.2,0.5,0.3
			c13.4,10.5,30.3,16.3,47.2,18.5c9.2,1.2,18.9,2.1,28,0c8.1-1.8,15.7-5.1,23.1-8.9c8.3-4.3,16.6-9.2,25.5-12.3
			c10.8-3.8,21.5-4,32.7-3.5c17.1,0.9,33.6-1.3,49.6-7c0.2,0,0.4,0,0.6-0.1c0.3-0.1,0.6-0.3,0.9-0.3c2.1-0.7,4.2-1.7,6.3-2.5
			c10.9-4.1,22.3-7,33.6-10c13.4-3.5,26.2-6.1,40.1-7c17.9-1.2,34-5,50.9-10.9c17.7-6.2,36.3-10.5,53.5-18.1
			c16.5-7.2,32-16.7,47.9-25.4c15.5-8.5,29.5-17.7,40.7-31.4c22.6-27.8,45.8-56,57.9-90.2C863.8,476.7,864.2,451.2,857.1,427.4z
			 M859.1,473.8c-3.9,33.7-22.9,63.5-43.6,89.4c-12.3,15.4-22.9,32.6-39.3,44.1c-15.4,10.8-32.7,19.4-49.2,28.2
			c-8.1,4.4-16.3,8.6-24.9,11.7c-9,3.4-18.4,5.7-27.6,8.7c-17.7,5.9-35.4,14-54,16.2c-17,2.1-33.6,2.4-50.4,6.9
			c-13,3.5-26.2,6.7-38.8,11.3l-0.2,0c-0.3,0.1-0.6,0.3-0.9,0.3c-1.9,0.7-3.8,1.5-5.6,2.3c-8.4,3.2-17.1,5.5-26,6.8
			c-9.7,1.5-19,0.9-28.6,0.4c-8.8-0.4-17.6-0.3-26,2.6c-7.3,2.4-14.2,5.7-20.9,9.3c-8.2,4.3-16.4,9.1-25.3,11.7
			c-8.8,2.6-17.6,3-26.7,2.1c-18.7-1.8-38.1-7.3-52.8-19.3c-0.6-0.5-1.2-1-1.8-1.6c-0.4-0.4-0.9-0.7-1.2-1c-0.2-0.1-0.4-0.2-0.5-0.3
			c-8.8-6.5-20-9.9-30.3-12.7c-6.6-1.8-13.1-3.3-19.8-4.2c-7-0.9-14.3-1.3-21.2-3.3c-8.6-2.6-15.3-7.8-22.7-12.7
			c-7.1-4.8-14.2-9.6-21.3-14.5c-11.9-8.4-23.1-18.8-31.7-30.7c-9.8-14-13.7-28.6-14-45.7c-0.2-14.7,0.8-29.1-3.9-43.2
			c-3-8.6-6.1-17-8-26c-1.7-8.3-3.2-16.7-4.8-25.1c-1.6-8.3-4.2-16-7.1-23.6c0-0.2,0.1-0.5-0.1-0.7c-5.5-13-9.9-26.6-15.8-39.4
			c-5.7-12.6-10.7-24.8-13.7-38.3c-5.5-24.8-6.4-50.8,0-75.6c6.2-23.7,18.5-44.5,34.4-63c19.3-22.3,38.6-47.9,63.7-63.9
			c16.7-10.7,34.3-20.4,51.6-30.1c8.9-5,17.6-10.5,27-14.6c8.3-3.6,16.8-6.5,25.3-9.8c35.3-14,69.8-31.5,107.9-36.6
			c16.4-2.2,33.8-2.6,49.9,1.2c16,3.8,29.8,11.5,43.7,20.2c16.3,10.3,32.5,21.5,44.3,37c6.2,8.2,8.5,17.4,12.5,26.7
			c2.7,6,6.5,11.4,10.1,16.8c0.1,0.2,0.2,0.4,0.4,0.6c0.3,0.5,0.7,1,1,1.6c0.1,0.1,0.1,0.2,0.2,0.3c9.9,13.9,23.4,24.8,34.9,37.3
			c12.6,13.8,27.2,26.1,43.4,35.8c16.1,9.6,33.6,16.4,50.6,24.5c18.1,8.6,35.5,18.2,53.5,26.9c12,5.9,23.5,12.1,34.3,20
			C830.6,369.6,865.3,420.1,859.1,473.8z"/>
		<path class="st0" d="M839.8,359.3c-12.4-14.8-26-27.7-41.2-39.7c-29.1-22.8-57.4-46.8-92.6-59.9c-32.6-12.1-69.8-18.2-96.3-42.4
			c-12.4-11.3-22.4-24.4-32.1-38.1c-4.1-5.8-8.1-11.5-11.8-17.5c-1.1-1.8-2.3-3.8-3.5-5.9l0-0.2c-2-3.3-2.3-7.1-2.9-10.7
			c-0.7-3.6-1.8-7-2.7-10.6c-1.8-6.5-4-12.8-8.3-18.1c-9.6-11.9-21.9-20.5-33.9-29.6c-10.4-7.8-23.7-15.4-36.8-17.8
			c-15-2.7-30-6.5-45.5-6.6c-0.2,0-0.4,0-0.6,0.1c-5.3,0.2-10.6,1.3-15.9,2.2c-8.3,1.5-16.5,2.5-24.6,4.4
			c-17.6,4.2-35.4,6.5-53.1,10.2C320.2,83,304.3,90.1,288,97.8c-17.1,8.1-34,16.7-50.2,26.2c-16.3,9.7-32.1,20.1-46.9,32.1
			c-15.2,12.4-28.9,26.4-42.6,40.6c-13.1,13.5-25.7,27.4-37.2,42.4c-6,7.8-11.8,15.7-16.3,24.5c-4,7.9-7.5,16.2-11.6,24
			c-15.7,30.4-21,65.8-20.3,99.7c0.4,16.8,3.2,32.5,8.3,48.5c4.5,14.3,9.3,28.4,17.1,41.2c0,0.2,0.1,0.3,0.2,0.4
			c0.9,1.5,1.8,2.9,2.9,4.3l0,0l0,0c2.2,3.1,4.7,5.9,6.9,9c4.6,6.4,7.8,14,9.8,21.7c4.4,17,5.5,34.6,10.1,51.5
			c8.9,32.4,21.5,62.7,43,88.9c19.3,23.5,44.1,45.6,75.1,50.6c16.9,2.7,34.4,3.1,50.4,9.4c11,4.3,21.4,10.1,32.2,14.7
			c0,0,0,0,0.1,0.1c0.2,0.1,0.4,0.2,0.6,0.3c2.8,1.2,5.6,2.4,8.6,3.4c0.2,0.1,0.3,0.1,0.6,0.1c11.4,3.9,23.8,6.8,35.6,7.6
			c8.7,0.6,17.9,0.5,26.2-2.3c9.6-3.2,18.6-8,28.3-10.9c10.4-3.2,20.7-4.3,31.6-4.1c5.3,0.1,10.2,0.3,15.4,1.4
			c3.9,0.8,7.8,1.8,11.7,1.9c10.4,0,20.9-4.1,30.8-8.6c0.2,0,0.4,0,0.6-0.1c3.1-1.5,6.4-3.1,9.7-4.5c0.6-0.3,1.3-0.5,1.9-0.8
			c0,0,0.1-0.1,0.2,0c7.4-3.4,15-6.4,22.9-8.5c11.8-3.1,24.1-4.8,36.1-7c25.6-4.6,51.1-9,76.5-13.9c17.8-3.5,36-6.6,53.4-12.1
			c17.2-5.4,32.7-14.7,48.3-23.4c33.1-18.4,63.4-40.3,88.8-68.7c12.4-13.9,21.3-30.5,30.4-46.5c7.4-13,13.7-25.6,16.2-40.7
			c5.2-28.6-0.5-60-17.9-83.5C863.5,390.6,852.3,374.4,839.8,359.3z M838,361c12.4,15.1,23.9,31.1,35.2,47.1
			c18.8,26.5,24.6,63,14.7,94.1c-5.3,16.8-15.3,32.2-24.4,47.2c-10.3,17-22.6,31.7-37.2,45.1c-29,26.7-63,47.5-98.4,65
			c-16.2,8-33.6,11.4-51.1,15.3c-19.7,4.5-39.6,7.8-59.5,11.4c-19.8,3.6-39.9,7-59.7,10.7c-13.2,2.5-25.6,6.6-37.7,11.8
			c-0.2,0-0.4,0-0.6,0.1c-14.4,6.2-31.4,16.1-47.5,13.2c-17-3.2-34.6-4.2-51.5,0.9c-9.3,2.8-18.1,7-27,10.4
			c-9.2,3.6-19.1,4.3-28.9,3.5c-14.4-1.2-29.7-5.1-43.2-10.6c-11.4-4.8-22.1-11-33.7-15.3c-14.4-5.4-29.5-6.5-44.5-8.6
			c-16.6-2.3-31-7.3-44.7-17.3C184,674.5,171.2,662,160.3,648c-21.4-27.8-35.4-60.8-42.1-95.3c-3-15.5-4-32-9.6-46.9
			c-2.2-5.8-4.6-11.3-8.3-16.3c-2.2-2.9-4.7-5.9-6.8-8.9l0-0.2c-9.4-13.6-14.5-29.1-19.6-44.7c-4.4-13.7-7.5-27.2-8.1-41.7
			c-1.1-28,1.6-58.1,11-84.7c3.2-9.1,7.5-17.4,11.7-26.2c4-8.5,7.8-17.4,12.9-25.5c10.6-16.8,24-32.2,37.4-46.7
			c27.3-29.4,55.8-56.8,90.1-78.1c16.8-10.4,34.1-19.8,51.8-28.3c17.3-8.4,34.9-17.4,53.7-21.5c17.5-3.9,35.5-5.8,52.8-10.1
			c9-2.2,17.9-3.7,27.1-5.2c7.8-1.4,15.6-3.2,23.5-2.2c0.2,0,0.4,0,0.6-0.1c12.4,0.8,24.7,3.6,36.8,5.9
			c14.6,2.7,27.4,10.8,39.4,19.1c11.7,8.1,24.8,17.6,32.9,29.5c4.4,6.5,7.1,14.9,8.6,22.5c0.3,1.2,0.4,2.4,0.6,3.7
			c-0.1,0.2-0.1,0.3-0.1,0.6C557,158,567,169.4,573.2,178c10.3,14.7,21,29.5,34.5,41.5c25.5,22.5,58.5,29.5,89.7,40.4
			c17.9,6.2,34.9,14.4,50.7,25c15.8,10.6,30.5,22.7,45.4,34.5C809.9,331.7,824.8,345,838,361z"/>
		<path class="st0" d="M870.5,369.1c-11.5-13.5-21.9-28.8-35.5-40.4c-13.4-11.7-30-16.2-45-25c-16-9.3-29-22.4-44.2-32.7
			c-30-20.6-63.6-34.2-96.7-49.1c-17.4-7.8-33.1-19.1-44.2-34.7c-8.8-12.4-15-26.2-20.3-40.4c0-0.2,0-0.2-0.1-0.5
			c-0.8-2.6-1.8-5.2-2.8-7.7c-0.2-0.5-0.3-0.9-0.5-1.4c-0.1-0.2-0.2-0.4-0.3-0.5c-5.7-13.2-13.8-25.2-22.9-36.4
			c-5.8-7.2-11.7-14.8-18.5-21.1c-6.4-5.9-13.7-10.4-21.5-14.1c-15.9-7.7-32.8-16.5-50.3-19.5c-13.6-2.3-28.3-2.7-42.4-2
			c-8.7,0-17.5,1.5-26.1,2c-11.3,0.7-22.8,1-34,2.2c-22.6,2.5-44.5,9-65.5,17.7c-21.9,9-42.9,20.1-62.9,32.9
			c-19.7,12.6-38.1,27.1-57,41.1c-16.1,11.8-30.8,24.2-44.3,39.1c-13.3,14.9-27.3,29.4-40.7,44.4C82.4,236.8,71,252,61.5,267.9
			c-8.4,14.1-14.5,29.6-19.9,45c-5,14.3-9,29.3-8.4,44.5c0.7,16.7,5.4,33.5,10.8,49.2c3.2,9.2,6.6,18.3,10.8,27
			c4,8.5,8.5,16.6,11.4,25.6c2.5,8.1,5.2,16.4,7,24.7c1.4,6.2,2.4,12.5,4.1,18.8c0,0.2,0,0.2,0.1,0.2c3.6,13.5,10.8,25.8,14.9,39.3
			c5,16.5,9.2,33.2,15.2,49.5c12,32.6,26.2,66,51,91c11,11,23.9,23.4,38.2,30.1c13.3,6.3,28.5,6.6,42.7,9.3
			c7.9,1.5,15.9,1.4,23.9,2.3c8.8,1,17.2,4.4,25.5,7.7c8.5,3.2,17.8,6.3,25.6,10.7c4.3,2.4,8.4,5.1,12.7,7.2
			c0.1,0.1,0.1,0.1,0.2,0.1c0.4,0.2,0.7,0.3,1.1,0.4l0,0c10.5,4.7,22.8,5.2,34.1,4.3c14.2-1,28.4-3.8,41.7-8.7
			c9.6-3.6,19.2-6.4,29.2-3.1c7.2,2.4,13.8,3.9,21.5,4c11.2-0.1,23.4-1.1,34.5-3.9c0.1,0.1,0.2,0,0.2,0c0.5-0.1,0.8-0.3,1.2-0.4
			c1.1-0.3,2.4-0.6,3.6-1c0.2,0,0.4-0.2,0.4-0.2c13.3-4.6,25.1-12.4,38-17.9c15.4-6.7,31.4-12.1,47.6-15.9
			c32.9-7.6,66.7-10.8,100-16.7c18.2-3.2,35-7.7,51.9-15.2c16.7-7.5,34.2-13.4,50.6-21.6c16.6-8.2,30.6-20.1,44.5-32.2
			c14.5-12.7,27-26.6,39.3-41.4c10.6-12.8,24.2-23.8,32-38.7c7-13.4,10-28,13.8-42.4c3.8-14.2,7.6-28.4,6.6-43.3
			c-1.1-16.2-8.4-31.9-17-45.4C893.2,395.7,881.9,382.4,870.5,369.1z M867.3,369.1c22.5,26.4,52.1,58.2,49.8,95.5
			c-1,15.9-5.9,31.6-10,47c-3.9,14.8-8.8,29.2-18.7,41.2c-5.9,7.2-12.8,13.5-18.9,20.6c-6.5,7.6-12.6,15.4-19.3,22.9
			c-13.4,14.8-28.6,27.5-44,40.2c-15,12.2-32.4,18.9-50.2,26.1c-17.8,7.1-34.7,16.9-53.4,21.3c-36.6,8.7-74.2,11.1-110.9,18.8
			c-17.5,3.6-34.7,8.4-51.4,15.1c-16,6.5-30.9,16.6-47.3,21.7c-13,3.7-28.6,5.4-41.8,4.7c-7.8-0.5-14.5-3.6-22-5.1
			c-6.6-1.4-13.6,0.5-19.8,2.5c-13.1,4.1-25.7,8.4-39.4,10c-12.3,1.4-26,2.2-37.8-2.3c-0.2-0.1-0.2-0.3-0.5-0.3
			c-6.8-2.4-12.4-7.4-19-10c-7.5-3.1-15.1-6.4-22.7-9.3c-7.1-2.7-14.5-6-22-7.2c-7.8-1.3-15.8-0.9-23.6-2.1c-8.4-1.4-16.7-3-25.1-4
			c-6.9-0.9-13.8-2.2-20-5.1c-15-7-28.9-19.8-40.2-31.7c-24.1-25.5-38.1-58.3-49.9-90.9c-6.1-16.8-10.1-34.2-15.7-51.2
			c-4.3-13.4-12-25.8-14.6-39.9c-0.1-0.3-0.3-0.6-0.5-0.7c-3.6-14-6-28.3-11.1-42c-3.6-9.7-8.8-18.5-13-28.1s-7.7-19.2-10.6-29.2
			c-5.6-19-10-38.5-6.5-58.5c3.1-17.4,10-33.7,16.7-50.1c15.4-37.9,46-65.6,72.3-95.7c13-14.8,26-29.7,41.8-41.6
			c15.7-11.9,31.6-23.7,47.5-35.3c31.2-22.6,65.7-42.2,102.2-54.6c19.3-6.6,39-10.7,59.4-12c9.9-0.6,19.7-1,29.5-1.8
			c3.7-0.4,7.5-0.8,11.2-1.2l0.1,0.1c3.1-0.2,6.2-0.3,9.4-0.3c1.1,0,2.2,0,3.2,0.1c0.2,0,0.4,0,0.6-0.1c3.8,0,7.6,0.1,11.4,0.2
			c8.9,0,17.9,0.1,26.6,2.1c17.1,4,33.7,11.9,49.3,19.7c15.8,7.9,26.7,20.3,37.7,33.9c9.2,11.5,17.6,23.7,23.2,37.2
			c8.3,24.2,18.8,48.9,38.5,65.9c20.4,17.6,47,26,71.2,37.2c17.1,8,34.1,16.5,49.9,27c15.4,10.2,28.6,23.6,44.3,33.3
			c15,9.2,33.4,13.9,47,25.2C844.5,339.6,855.3,355.2,867.3,369.1z"/>
		<path class="st0" d="M868.5,330.8c-26.6-25.8-55.9-48.1-89.3-64.2c-15.6-7.5-31.7-13.9-47.8-20.4c-18-7.3-35-17-50.7-28.3
			c-15.3-11-31.3-22.7-42.1-38.4c-9-13-15-27.8-22.1-42c-0.2-0.4-0.3-0.7-0.5-1c-0.5-1-1-2-1.4-2.9c0-0.2-0.2-0.3-0.3-0.3
			c-20.4-37.6-53.4-67.6-88.9-90.7c-36-23.4-74.5-41.1-118.1-42.5c-62-1.9-120.1,22.9-174.4,50.5C164.8,85.3,93.3,123.9,47.1,186.7
			C13.2,232.7-4.5,290.3,1,347.3c1.4,14.5,4.1,29,8.3,42.8c4.4,14.7,11.3,28,16.8,42.2c6.6,17.1,10.7,35,14.2,52.9
			c1.8,9,3.1,18.3,5.7,27.1c0.7,2,1.4,4,2.2,5.9c0,0.2,0,0.4,0.2,0.8c0.4,0.6,0.7,1.1,1.1,1.8c1.9,3.6,4,7.2,6.1,10.6
			c0.1,0.2,0.3,0.3,0.4,0.4c3.2,5.3,6.3,10.6,9.1,16.1c8.9,17.2,18.6,34.5,26.1,52.4c7.3,17.1,13.1,35.1,22.8,51
			c9.9,16,23.4,27.6,36.8,40.5c6.5,6.3,12.7,12.9,20,18.4c7.1,5.4,14.9,9.2,22.8,13.3c14.6,7.8,28.8,16.8,45.9,16.8
			c8.1,0,16.4-1,24.5,0.2c8.2,1.1,16.4,2.2,24.7,3.6c8.8,1.7,18.1,3.7,26,8.4c2.1,1.3,4.1,2.5,6.1,3.7c1.1,0.7,2.3,1.4,3.4,2.1
			c1,0.7,2.2,1.3,3.2,2l0.1,0.1c8.8,5.4,17.9,10.3,28.4,11.6c13.5,1.6,25.4-2.4,37.7-7.5c8-3.2,16.3-6.6,24.9-7.7
			c9.5-1.2,16.8,1.6,25.9,3.6c6.6,1.5,13.6,2.2,20.5,1.7c7.3-0.6,13.9-3.1,21-4.5c0.3-0.1,0.5-0.2,0.6-0.4c17.8-5.1,35-12.5,52-19.5
			c20.9-8.6,41.5-16.3,64-19.4c21.6-3,43.7-3.5,65.2-7.6c23.8-4.4,47.7-11.7,70.8-19.2c65.8-20.8,125.3-63.7,160.8-124
			c27.6-47,41.8-103.6,24.3-156.5C913.2,379.6,891.8,353.4,868.5,330.8z M893.3,361.9c19.1,24.4,32.1,52.2,34.9,83.4
			c5.1,58.4-21.8,118.7-60.7,161.5c-25.5,28-58,52.7-92.6,68.3c-17.5,7.9-35.8,14-54.3,19.3c-17.8,5.1-35.6,10.8-53.7,14
			c-32.7,5.8-67,4-98.7,15c-30.3,10.5-59.1,26.1-90.4,33.6c-0.2,0-0.4,0.2-0.5,0.2c-4.9,1.3-9.8,2.6-15,2.7c-7.8,0.1-15.4-1-23-3.2
			c-13.7-4.1-26.3-2.3-39.6,2.8c-13.7,5.2-27.2,12.2-42.3,10.5c-14-1.6-25.1-9-36.8-16.3c-0.2-0.1-0.3-0.2-0.4-0.2
			c-10.6-6.1-21.3-10.1-33.8-12.1c-8.7-1.4-17.6-3.2-26.4-3.7c-7.5-0.3-15,0.5-22.5,0.2c-10.5-0.4-19.6-4-28.9-8.8
			c-8-4.2-16.2-8.2-24.1-12.6c-16.8-9.3-29.9-24-43.9-37c-14.6-13.5-25.6-28.5-33.7-46.7c-7.6-17-13.3-35.1-22.4-51.4
			c-7.6-13.7-13.9-28.1-21.8-41.8c-3.1-5.4-6.2-10.6-9.3-16c-3.5-6.8-6.2-13.7-7.7-21.7c-1.9-9.8-3.8-19.6-5.8-29.4
			c-4.1-19-9.9-37-17.8-54.6C8.1,387,1.2,353.2,2.4,319.5c2.5-65.5,33.2-124.5,80.7-169.2c29.3-27.5,62.8-49.8,97.8-69.4
			c32.2-18.1,65.2-35.6,99.2-50.1C336.6,6.9,400.3-8.1,460,11.9c32.4,10.9,63.5,30.2,90,51.5c26.1,20.9,49.5,45.9,64.4,76
			c0.2,0.4,0.4,0.6,0.4,1c0.9,1.8,1.8,3.7,2.6,5.6c0,0.2,0.1,0.2,0.1,0.2c6.6,13.8,12.9,28,22.5,39.9c13.4,16.5,32.1,29.9,49.9,41.3
			c36.4,23.4,79.1,33.6,115.8,56.5C838.8,304.3,869.4,331.5,893.3,361.9z"/>
	</g>
</g>
</svg>
