<?xml version="1.0" encoding="utf-8"?>
<!-- Generator: Adobe Illustrator 23.0.1, SVG Export Plug-In . SVG Version: 6.00 Build 0)  -->
<svg version="1.1" id="Layer_9" xmlns="http://www.w3.org/2000/svg" xmlns:xlink="http://www.w3.org/1999/xlink" x="0px" y="0px"
	 width="676px" height="827.2px" viewBox="0 0 676 827.2" style="enable-background:new 0 0 676 827.2;" xml:space="preserve">
<style type="text/css">
	.st0{fill:#E4E5E4;}
</style>
<g>
	<g>
		<path class="st0" d="M326.1,422.5c2.4-7.3-9.6-11.4-15.1-6.7c-3.4,3-2.8,8.2,1.4,10.2c3.7,1.8,8.7,1.8,11.8-0.9
			c0.3,0,0.6-0.2,0.9-0.5c0.3-0.4,0.5-0.9,0.7-1.3c0-0.1,0.1-0.1,0.1-0.2C326.1,422.9,326.1,422.7,326.1,422.5z M323.8,422.2
			c-2.2,3.3-7.5,3.7-10.7,1.6c-3-1.9-2.5-5.7,0.7-7.1C317.9,415,325.8,417.1,323.8,422.2z"/>
		<path class="st0" d="M326.6,432.5c4-2.5,6.8-7.3,6.3-12.1c-0.4-4.4-3.1-6.7-7-8.4c-3.2-1.4-5.9-2.2-8.6-4.6
			c-1.8-1.6-3.4-2.6-5.8-3.1c-7.8-1.7-11.5,12.3-9.2,17.6c2.9,6.9,9.7,11.7,17,12.1c0.1,0.1,0.3,0.1,0.4,0.1
			c1.9,0.2,3.7-0.1,5.4-0.8c0.3-0.1,0.6-0.2,0.9-0.3C326.3,432.9,326.5,432.7,326.6,432.5z M324.6,431.1c-7.2,2.1-16.5-1.4-19.6-8.7
			c-1.9-4.6-0.9-8.6,1.5-12.8c3.4-6,8.4-1.3,11.5,1.3c4,3.4,13.5,2.8,12.7,10.3C330.2,425.4,328.1,429.4,324.6,431.1z"/>
		<path class="st0" d="M330.6,435.3c7.5-7.8,11.1-19.5-0.2-25.6c-3-1.6-6.8-3.2-8.6-6.3c-1.6-2.8-3.2-5.4-5.7-7.6
			c-4.1-3.6-9.7-3.4-14.1-0.7c-12.2,7.4-5.2,26.8,1.2,35.5c3.9,5.3,9.1,9.5,16.1,9.4C323.1,440,328.1,438.6,330.6,435.3z
			 M329.6,433.2c-0.2,0.1-0.3,0.2-0.4,0.4c-0.1,0.1-0.2,0.2-0.2,0.3c-0.6,0.5-1.1,1.1-1.7,1.6c-0.1,0.1-0.1,0.2-0.2,0.3
			c-4.3,2.9-11.6,2.3-15.5,0c-4.5-2.7-7.7-7.3-9.9-12c-2.3-4.7-4.4-10.2-3.9-15.5c0.5-6.1,5-15.4,12.9-12.7c6.1,2.1,6.7,7,10.8,10.9
			c2,1.9,4.4,3.3,6.9,4.6c3.4,1.9,7.6,4.2,7.4,8.7C335.5,425.3,333.1,429.5,329.6,433.2z"/>
		<path class="st0" d="M332.6,440.2c5.3-6.4,11.9-15.2,10.7-23.8c-1-7.1-6.9-10.7-12.5-14.2c-2.1-1.3-4.7-2.6-6.2-4.6
			c-1.7-2.3-2.8-4.9-4.4-7.2c-2.1-3.2-4.8-5.7-8.2-7.5c-6.2-3.4-13.9-0.9-17.5,4.9c-8.6,13.8-5.3,34.7,3.7,47.5
			c4.1,5.9,14,12.7,21.5,12.4c4.5-0.2,8.6-2.8,11.8-6.1c0.1-0.1,0.3-0.2,0.4-0.3c0.2-0.3,0.4-0.5,0.6-0.8
			C332.5,440.4,332.5,440.3,332.6,440.2z M334,434.8c-0.2,0.1-0.4,0.2-0.5,0.4c-0.5,0.8-1,1.5-1.6,2.3c-0.4,0.5-0.7,0.9-1.1,1.4
			c-4,4.5-9.6,7.8-15.7,5.5c-7.9-3.1-14.7-7.8-18.3-15.8c-5.1-11.3-8.3-28.9-0.4-39.7c6.6-9.1,17.8-4.8,22.6,3.8
			c2.9,5.2,5.6,8.3,10.7,11.4s11.9,7,11.5,13.9C340.8,424.1,337.7,429.8,334,434.8z"/>
		<path class="st0" d="M344.8,431.6c2.3-3.8,5.3-8.7,4.7-13.4c-1.3-9.9-9.7-16-17.1-21.7c-8.4-6.4-10.1-18-20.1-22.6
			c-7-3.2-16.7-1.1-20.9,5.5c-5.7,9.1-7.5,22.5-6.9,33.1c0.5,9.1,5,19.1,10.5,26.3c4.9,6.5,13.7,14.6,22.3,15.5
			c6,0.6,11.2-2.1,15.3-6.1c0.3,0,0.6-0.2,0.8-0.5c0.5-0.7,1-1.4,1.5-2.1c0.6-0.7,1.1-1.5,1.7-2.3
			C339.4,439.6,342.2,435.7,344.8,431.6z M345.4,425.9c-2.7,5.4-6.3,10.4-9.9,15.3c-0.1,0.1-0.2,0.2-0.3,0.3
			c-0.3,0.4-0.5,0.8-0.8,1.2c-0.3,0.5-0.7,0.9-1,1.4c-5.8,7.5-14,10.4-23.1,5.1c-7.9-4.6-13.5-10.7-17.6-18.8
			c-3.9-7.8-6.1-14.5-5.7-23.2c0.4-8.1,1.1-21.6,7.4-27.8c9.1-9,21.4-3.6,26.7,6.4c3,5.7,6.2,9.9,11.6,13.6
			C340.9,405.3,351,415,345.4,425.9z"/>
		<path class="st0" d="M342.6,444c2.3-6.4,8.8-10.3,10.5-16.9c1.3-5,1.3-9.7-0.6-14.5c-4.3-11.3-16-18-22-28.3
			c-3-5-4.2-11.4-8.5-15.6c-3.6-3.6-8.4-6.5-13.4-7.8c-9.2-2.3-19.2,0.5-23.3,9.8c-5.3,11.9-9.2,26.6-7.3,39.8
			c1.1,7.4,4.3,13.7,7,20.5c2.5,6.3,4.9,12.5,9,17.9c5.7,7.5,16.4,15.9,26.5,14.4c10.7-1.6,18.3-9.3,21.9-19
			C342.5,444.2,342.6,444.1,342.6,444z M346.6,433.8c-2.1,2.6-4.2,5.2-5.6,8.3c-0.1,0.1-0.2,0.3-0.3,0.5
			c-3.6,10.9-15.1,22-27.6,17.7c-11.5-4-19.4-13.7-23.8-24.6c-4.3-10.8-9.8-21-9.3-32.9c0.3-6.4,1.3-12.7,3-18.8
			c1.6-5.6,3.2-12.7,7.5-16.9c7.9-7.7,21.6-5.4,29,2.1c3.8,3.9,5,8.5,7.4,13.1c2.3,4.3,5.1,8.1,8.4,11.7c6,6.5,14.8,13.8,16.3,22.9
			C352.6,423.4,350.6,428.9,346.6,433.8z"/>
		<path class="st0" d="M351.1,441.4c7.8-11.6,15-23,5.4-35.9c-4.9-6.6-10.7-12.5-15.1-19.5c-4.1-6.4-7-13.5-11.2-19.8
			c-6.8-10.3-16.9-17.6-29.8-16.9c-5.6,0.3-11.8,1.8-15.6,6.3c-4.2,4.9-7,11-9.4,16.9c-5.7,13.6-5.1,30.3-2.3,44.5
			c1.5,7.4,1.9,15.4,4.9,22.4c2.6,6,6.3,11.8,10.8,16.5c8.8,9.3,20.3,17.2,33.5,15.6c5.9-0.7,11.5-3.9,16-7.6
			c5-4.1,6.7-8.5,8.4-14.3C347.9,446.7,349.3,444,351.1,441.4z M345.4,447.4c-0.2,0.1-0.4,0.3-0.5,0.6c-0.1,0.4-0.2,0.8-0.4,1.3
			c-0.4,1-0.8,2-1,3c-0.1,0.3,0,0.5,0.1,0.7c-0.5,1.7-1.1,3.3-2.1,4.5c-2.5,3.2-5.5,5.5-9,7.6c-5.8,3.6-12.9,5.5-19.7,3.8
			c-12.3-3.1-23.4-13.5-29.6-24.3c-3.5-6-5.3-12.2-6.4-18.9c-1.1-6.7-3.2-13.7-3.3-20.5c-0.3-14.3,1.1-27,7.6-39.9
			c3.2-6.2,7.1-12,14.6-13.3c6.7-1.2,14.3-0.5,20.2,3c11.6,7,15.5,19.5,22.4,30.3c3.3,5.1,6.8,10.1,10.7,14.8c3.9,4.6,9,9.3,10,15.6
			C360.9,427.9,350.3,436.9,345.4,447.4z"/>
		<path class="st0" d="M350.4,456.8c2.7-12.8,16.6-19.4,21-31.4c1.8-5,1.7-10.5-1.2-15.1c-2.2-3.6-5.1-6.4-8-9.3
			c-3.6-3.6-6.6-7.8-9.4-12.1c-7.3-11.5-11.4-25.6-20.7-35.8c-7.4-8-19.4-14.9-30.6-14.8c-11.3,0-20.9,8.1-25.5,18
			c-5.5,11.9-8.7,25.9-10.2,38.9c-1.6,13.5-1,27.5,4.5,40.1c5.3,12,12.8,24.5,22.6,33.4c8.7,7.9,20.1,13.6,32.1,10.5
			c6.9-1.8,12.1-5.6,17.1-10.5c1.9-1.9,4.3-3.6,5.8-5.8c1.2-1.8,1.7-3.6,2.2-5.5C350.3,457.1,350.4,457,350.4,456.8z M365.6,431
			c-4.9,6.6-12.2,12.7-15.8,20.4c-0.1,0.1-0.2,0.2-0.3,0.4c-1.8,4.2-1.6,8.5-5.3,11.8c-3.4,3-6.4,6.6-10.2,9.2
			c-15,10.1-32,3.1-43.1-9.2c-9.7-10.8-18.7-24.9-21.9-39.2c-3.4-15.4-1.6-31.2,2.2-46.3c3.5-13.9,7.8-31.5,23.4-36.4
			c13.7-4.3,31,5.6,38.7,16.7c8.5,12.2,13.3,26.4,22.2,38.5c4.4,5.9,12.2,10.7,14.2,18.1C371.4,420.8,369.2,426.2,365.6,431z"/>
		<path class="st0" d="M372.1,442c4.8-6.1,8.9-13.3,8.5-21.3c-0.3-7.1-2.7-13.1-7.5-18.5c-6.4-7.3-12.2-15.3-17.8-23.2
			c-8.5-12.3-11.2-27.1-22.7-37.4c-10.6-9.6-23-13.9-37.3-11.4c-5.7,1-12.5,2.2-16.3,7.1c-3.7,4.7-5.9,10.5-7.6,16.1
			c-4.7,15.1-11.1,30.6-12.2,46.5c-0.5,8.1,1.3,16,2.2,24c0.7,6.5,1.2,13.4,3.5,19.6c4.6,12,15,24,25.2,31.7
			c11.8,9,26.7,14.8,41.7,10.5c5.9-1.7,11.8-4.5,15.9-9.1c2.5-2.8,3.8-6.1,5.4-9.3c0.2-0.1,0.5-0.2,0.6-0.5c0.6-1.2,1.3-2.5,2-3.7
			c0.1-0.2,0.2-0.3,0.4-0.5c0.1-0.2,0.2-0.4,0.2-0.6c1.9-3.4,3.9-6.8,6.5-9.8C365.8,448.7,369.3,445.6,372.1,442z M364,447.5
			c-4,4.4-7.2,9.2-10.1,14.3c-3.3,4.6-4.3,10.3-8.9,14.3c-14.4,12.9-35.8,10.2-50.6-0.6c-12.7-9.2-26.1-23.8-29.1-39.5
			c-3-16.1-5.4-33.1-1.4-49.2c2.1-8.6,4.6-16.9,7.4-25.3c2.4-7.4,4-16.9,9.4-22.7c5.7-6.2,16.5-7.4,24.5-7.2
			c9.2,0.3,17.7,4.1,24.5,10.2c6.4,5.8,11.2,12.5,14.7,20.4c2.9,6.9,5.6,13.2,10.1,19.3c4.7,6.4,9.2,13,14.3,19.1
			c5.5,6.5,10.4,13,9.5,22.1C377.3,433.2,370.8,440.1,364,447.5z"/>
		<path class="st0" d="M383.5,441c7.3-10.6,7.2-21.3,1.6-32.9c-6.2-12.8-17-22.4-24-34.7c-6.6-11.6-9.4-24.6-19.1-34.4
			c-8.9-8.9-22.9-16.1-35.6-17c-12.9-0.9-25.4,4.6-33.6,14.5c-4.8,5.8-6.5,13.1-8.5,20.1c-1.1,3.8-2.5,7.5-3.5,11.3
			c-1,3.9-1.1,7.7-1.9,11.6c-1.7,8.7-5.3,16.8-6.7,25.6c-1,6.5-0.2,13.5,0.9,19.9c2.5,14.2,6.8,28.2,15.8,39.8
			c8.8,11.3,21.6,21.7,34.8,27.5c18.3,8.1,45.4,1.8,54.3-17.1c0.1-0.1,0.2-0.3,0.3-0.5c0-0.1,0.1-0.3,0.1-0.4
			c0.5-1.2,0.9-2.4,1.3-3.7C364.5,459.1,376.4,451.3,383.5,441z M379.4,442.6c-7,8.5-16.6,16-21.4,26c-0.2,0.1-0.3,0.3-0.4,0.6
			c-0.1,0.3-0.2,0.5-0.2,0.8c-0.4,1-0.8,2.1-1.1,3.2c-4.9,11.3-17.2,18.3-29.1,20.2c-15.7,2.5-28.1-5.1-40.3-14.1
			c-13.6-10-23.5-23.3-28.2-39.6c-2.5-8.6-4.5-17.5-4.7-26.4c-0.2-9,2.5-16.7,5-25.2c2.4-8.3,2.9-16.9,5.6-25.2
			c2.6-7.9,3.8-16.9,8.9-23.7c10.5-14.1,28.7-18.2,44.8-12c16.4,6.3,28.4,17,34.6,33.7c5.2,13.9,14,24.7,23,36.3
			c4.8,6.2,9,13.6,10.5,21.3C388.3,427.9,385.4,435.4,379.4,442.6z"/>
		<path class="st0" d="M396.1,433.7c5.1-15.8-3.5-31.8-13.7-43.5c-3.1-3.6-6.7-6.6-9.7-10.3c-3.2-3.9-4.9-8.3-7-12.8
			c-4.1-8.9-8.8-17.4-13.6-26c-8.1-14.7-18.7-25.2-36.1-27.5c-14.4-1.8-26.5,0.4-38.3,9.1c-11.2,8.2-18,17.3-20.5,31.2
			c-1.4,7.9-2.2,15.9-3.9,23.8c-1.8,8.4-4.1,16.7-5.6,25.2c-1.3,7.5-2.8,15.5-1.9,23.2c0.7,6.4,3.9,13.4,6.1,19.5
			c4.5,12.7,11.5,24.6,20.9,34.4c4.8,4.9,10,9.4,15.7,13.4c6.4,4.4,12.6,6.7,20,8.9c6.2,1.9,12.5,5.5,19.2,4.6
			c6.2-0.8,12.1-3.8,17.3-7.1c5.5-3.6,11-7.7,14.9-13c1.6-2.3,3.2-4.6,4.2-7.3c0.4-1.2,0.7-2.4,1.1-3.6c0-0.1,0.1-0.2,0.1-0.3
			C369.9,457.9,390.6,450.7,396.1,433.7z M387.9,443.2c-7.2,8.4-17.3,15.7-22.4,25.7l-0.1,0.1c-2.3,3.8-2.3,8.5-4.6,12.4
			c-2.8,4.9-6.7,9-11.2,12.5c-9.4,7.1-20.9,13.8-32.8,8.9c-5.7-2.4-11.8-3.4-17.4-5.8c-5.9-2.5-11.4-6.5-16.3-10.6
			c-8.1-6.8-15.3-14.7-20.7-23.8c-4.3-7.3-7.4-14.9-10-22.9c-2.5-7.6-5.1-14.6-4.2-22.8c2-17.5,7.4-34.3,9.8-51.8
			c1.1-8,1.8-16.7,5.5-24c3.4-6.8,9.3-12.2,15.5-16.5c13.7-9.6,29.8-12.4,45.9-6.7c17.2,6.1,24.9,22.4,32.7,37.5
			c3.8,7.4,6.5,16.4,11.4,23.1c3.9,5.3,9,9.5,13.1,14.6C393.7,407.6,401.6,427.3,387.9,443.2z"/>
		<path class="st0" d="M408.3,431.3c1.7-9.1-2.5-20.1-6.7-28c-4.6-8.6-10.6-16.5-17.8-23.2c-4.9-4.5-10-9.5-13.1-15.5
			c-2.7-5.3-3.9-11-6.1-16.5c-3.5-9.1-10.3-18.4-16.7-25.7c-6.4-7.3-14.8-14.8-24.3-17.7c-9.9-3-20.5-2.2-30.3,0.5
			c-12,3.4-22.7,8.6-29.8,19.2c-3.8,5.7-6.7,11.8-9,18.2c-2.6,7.1-5.7,14.5-6.1,22c-1,16.7-7.2,33-6.9,49.9
			c0.2,8.5-1.3,17.2-0.3,25.6c0.7,5.4,4.1,10.3,7,14.8c14.8,23.1,32.4,47.9,60.7,55.2c12.5,3.2,25.8,3.3,37.2-3.2
			c5.2-3,11.2-6.8,14.8-11.7c2.2-3.1,4-6.4,5.5-9.8c0,0,0,0,0-0.1c0.1-0.1,0.1-0.2,0.2-0.4c1.3-2.9,2.6-5.8,3.9-8.6
			c0-0.1,0-0.1,0-0.2c1.3-2.4,2.8-4.7,4.9-6.7c4.5-4.4,9.4-8.1,14.2-12.1C398.3,450.5,406.1,442.3,408.3,431.3z M394,450.9
			c-6.4,5.9-13.8,10.7-19.9,17c-2.2,2.2-3.8,4.6-5.1,7.1c-0.1,0.1-0.1,0.1-0.2,0.2c-0.1,0.2-0.2,0.4-0.3,0.6
			c-1.4,2.6-2.5,5.4-3.8,8.4c-0.1,0.2-0.1,0.4-0.1,0.6c-1.9,4.4-4.2,8.6-7.6,11.6c-6,5.4-13.2,10.4-21.1,12.4
			c-15.5,3.9-33.2-0.8-46.2-9.7c-13.2-9.1-24.6-21.3-33.2-34.8c-3.8-6-8.4-12.2-11.3-18.7c-3.5-7.9-1.6-16.6-1.5-24.9
			c0.1-9.6,0.7-18.7,2.6-28.1c1.5-7.3,3.6-14.7,3.9-22.1c0.7-15.5,6.5-33.4,16-46c9.6-12.7,26.7-19,42.4-19.4
			c17.7-0.4,31.7,10.4,41.7,24.1c4.7,6.4,10,13.6,12.6,21.2c2.2,6.3,3.6,13,7.5,18.5c8.6,12.2,21,20.7,28.2,34.1
			c3.8,7,7.8,16.2,7.5,24.3C406,436.7,400.7,444.6,394,450.9z"/>
		<path class="st0" d="M376.2,358.7c-13.1-20-20.3-48.1-44.2-58.7c-20.2-9-47.6-5.6-63.5,10.2c-18.9,18.7-26.1,45.5-28.8,71.2
			c-1,9.3-1.5,18.7-3.1,27.9c-1.2,7-2.7,14.1-2.7,21.1s1.2,13.2,4.8,19.4c3.5,6.1,6.4,12.5,9.8,18.7c13.1,24.3,40.9,47.6,69,51.7
			c13.7,2,25.1-2.4,36.1-10.6c6-4.5,10.4-9.6,14.1-16.1c2.6-4.7,5.8-8.8,8.8-13.2c0,0,0,0,0.1-0.1c13.5-20.6,45.5-32.5,36.4-62
			C405.8,395.4,389.1,378.2,376.2,358.7z M379.9,367.9c8,10.9,16.7,21.5,23.2,33.4c8,14.6,13.8,30.9,2.5,45.5
			c-8.2,10.7-20,17.9-28.3,28.4c-0.2,0.1-0.4,0.2-0.6,0.5c-2.6,4.1-6,7.6-8.4,11.8c-2.7,4.7-5.2,10-9,14
			c-6.8,7.1-17.5,14.7-27.5,16.5c-20.3,3.5-42.1-8.7-56.9-21.4c-8.2-7-16.2-14.8-21.8-24.2c-2.6-4.3-4.5-8.9-6.7-13.4
			c-2-4-4.6-7.8-6.6-11.8c-5.4-10.6-3.6-22.3-1.7-33.6c1.7-10,2.5-20.1,3.6-30.2c2.9-27.1,10.5-60.5,34.8-77
			c12.5-8.5,30.6-11.1,45.3-7.6c17.4,4.2,29.1,18.1,37.5,33.1C366,344.2,371.6,356.5,379.9,367.9z"/>
		<path class="st0" d="M379.3,347.2c-6.8-13-12.5-27.1-22.3-38.2s-22.8-19.5-37.2-23.3c-14.1-3.8-27.5-3.8-41.2,1.5
			c-11.2,4.3-22.2,12.1-27.7,23c-6.3,12.8-7.6,26.9-11.1,40.5c-2.2,8.6-3.9,16.3-3.8,25.2c0.1,9.2-0.3,17.9-2.8,26.8
			c-3.6,13.3-10.3,29.3-5.4,43.1c2,5.6,4.9,11.1,8.7,15.7c4.9,6,8.9,11.9,12.8,18.6c7,12,15.5,24.3,27.1,32.4
			c6.5,4.5,13.7,7.6,21.1,10.3c7.1,2.6,14.2,5.9,21.7,7.2c11.7,2.1,26.1-2.6,35.9-8.8c5.2-3.3,10-7.3,13.7-12.1
			c4.6-6,6.7-12.4,9.7-19.2c0.1-0.1,0.1-0.3,0.1-0.4c3.5-7.4,8.6-13.9,14.7-19.4c5.3-4.8,11.2-8.9,16.3-14
			c8.6-8.7,17-20.5,14.7-33.4c-2.4-13.4-10.6-25.3-19.8-35.1C393.3,375.6,386.7,361.5,379.3,347.2z M394.4,379.1
			c9.1,12.4,21.4,22.3,26.2,37.5c5.4,17.3-4.7,31.7-17.6,42.5c-11.5,9.5-22.2,18.7-27.8,32.9c-0.1,0.2-0.1,0.3-0.1,0.5
			c-1.7,4.4-3.3,8.8-6.1,12.7c-3.7,5.1-8.2,9.7-13.5,13.1c-9.2,5.8-21.6,10.6-32.7,9.8c-6.7-0.5-12.5-3.2-18.7-5.4
			c-6.4-2.3-12.8-4.5-18.8-7.6c-11.2-5.8-20.1-15-27.1-25.3c-6.2-9-10.7-18.8-17.7-27.1c-7.4-8.7-12.6-18.8-11.6-30.5
			c1.2-13.7,7.2-26.2,8.9-39.7c0.9-6.9,0.5-13.8,0.5-20.7c0-7.2,2.1-13.6,3.7-20.6c3.4-14.2,4.5-30.4,12.5-42.9
			c8.5-13.3,25.8-22,41.4-23.2c16.2-1.2,33.8,4.4,46.9,14c13.8,10.2,22,24.2,29.5,39.2C379.1,351.9,385.3,366.9,394.4,379.1z"/>
		<path class="st0" d="M388.4,353.8c-1.9-6.8-3.3-13.8-6.2-20.2c-6.2-13.6-15.1-26.1-25.6-36.7c-9.8-9.9-21.7-20-35.1-24.4
			c-13.6-4.5-28.4-4.2-42,0.1c-11.4,3.6-21.5,8.5-27.6,19.2c-7.9,13.8-14.5,28.4-17.4,44c-3.1,16.7-3.5,33.4-3.5,50.3
			c-0.1,16.9-10,31.2-11.2,48c-0.9,13.7,2.9,25.3,12.8,35c5.7,5.6,11,10.8,14.8,17.9c3.3,6.1,6.5,12.2,10.7,17.8
			c9.1,12.5,20.6,21.7,35,27.7c7.2,3,14.6,4.9,22.2,6.3c6,1.2,12.5,2.4,18.6,1.8c12.3-1.4,21.9-8,30.5-16.6
			c4.9-4.9,9.9-9.9,13.3-15.9c3.3-5.8,5.7-12,8.5-18c12.5-24.8,48.1-34.1,52.8-63.2c3.8-23.4-17.1-40.2-34.3-52.1
			C396.8,369.3,391.1,363.1,388.4,353.8z M385.2,350.7c1.8,6.7,4,13.1,8.9,18.2c4.2,4.3,9.1,7.4,13.9,10.8
			c10.4,7.3,21,16.8,26.2,28.6c5.6,12.6,2,26.1-6.7,36.3c-12.6,14.7-31.5,24.2-41.7,40.8c-0.2,0.1-0.4,0.2-0.6,0.5
			c-0.5,1-1,2.1-1.4,3.1c-0.1,0.2-0.1,0.3-0.2,0.5c-4.4,9.7-8.2,19.3-15.7,27.3c-9.5,10.2-20.9,21.3-35.8,21.5
			c-16.1,0.3-34-4.8-47.8-12.8c-14.6-8.4-24.8-20.6-32.7-35.3c-3.3-6.1-6.6-12.4-11.7-17.2c-4.9-4.6-10.3-9.2-13.6-15.2
			c-8.9-16.2-3.2-33.7,2.5-49.8c2.9-8,4.4-15.6,4.1-24.2c-0.2-8.3,0-16.5,0.6-24.8c1.5-19.1,5.1-36.7,13.6-54
			c3.1-6.3,6-13.5,10.9-18.7c4.9-5.3,11.5-8.3,18.3-10.7c15.7-5.4,33.9-6.8,49.3,0.7c14.3,7,26.8,18.1,36.9,30.4
			C373.6,320.2,380.8,334.1,385.2,350.7z"/>
		<path class="st0" d="M390.5,340.4c-4-28.8-25.8-53-49.7-68.3c-20.3-13-46-19.4-69.3-10.5c-11.6,4.4-17.5,11.6-23.2,22.3
			c-8,14.7-14,30-17.9,46.3c-1.9,7.7-3.6,15.8-3.5,23.8c0.1,7.7,1.9,15.4,1.4,23.1c-1.1,17.9-6.8,35.4-12.5,52.3
			c-3.9,11.6-3.7,25.6,4.8,35.3c4.6,5.2,10.6,9.1,14.8,14.7c4.6,6,7,13.1,10.4,19.8c6.4,12.6,17.4,25.8,29.1,33.8
			c11.7,8,26.2,10.9,40.1,12.2c13.5,1.3,26.6,1.3,39.2-4.4c13-5.9,24-15.6,30.3-28.5c0.1-0.1,0.1-0.3,0.1-0.4
			c5.7-10.5,10.9-21.7,19.1-30.3c8.2-8.6,18.6-14.7,27.2-22.8c9-8.5,13.8-17.8,16-29.9c1.7-9.7,4.6-19.9-0.5-29
			c-6.5-11.6-17.2-18.4-28.8-24.3c-6.8-3.5-14-7.2-18.9-13.2C393.4,355.7,391.6,348.6,390.5,340.4z M385.3,327.3
			c2.2,6.7,2.6,13.5,4,20.3c2.9,13.5,12.3,22,24.2,28.1c12.4,6.5,28.1,14.1,32.5,28.7c2.4,7.8,0.2,15.9-1.3,23.7
			c-1.6,8.3-3.9,16.3-9.6,22.9c-9.3,10.8-22.1,17.5-31.9,27.7c-10.8,11.3-16.8,26.1-24.8,39.3c-12,17.7-33.3,26.8-54.7,25.5
			c-15.4-0.9-33.2-2.7-46.3-11.6c-13.7-9.3-25.2-23.8-32-38.8c-2.8-6.3-5.7-12.8-10.6-17.9c-4.6-4.9-11-8.8-14.5-14.5
			c-10-16.3-1.5-32.4,3.2-48.8c4.6-15.9,7.8-31.7,6.1-48.3c-1.7-17.1,2.1-34.3,7.7-50.5c3.2-9.1,7.1-17.9,11.7-26.4
			c3.2-5.9,6.3-12.7,11.7-17c10-7.8,23.9-10.3,36.4-9.9c29.8,0.8,56.9,21,74.7,43.7C377.6,310.7,382.5,318.7,385.3,327.3z"/>
		<path class="st0" d="M394.3,319.6c-2.9-12.4-12.7-21-21.4-29.8c-11-11.2-22.9-20.8-36.8-28c-23.2-12.1-54.3-19.2-78-4.2
			c-17.7,11.2-25.6,31.4-30.2,50.9c-2.6,11-4.4,22.1-6.3,33.3c-1.2,6.7-2.1,13-1.2,19.8c1,7.4,2.2,14.5,1.6,22
			c-1.4,17.1-7.2,33.1-11.1,49.6c-2.5,10.7-7.8,27.2,0.4,36.7c4.4,5.2,10.9,8,15.7,12.8c5.5,5.3,9.2,11.7,12.9,18.3
			c6.7,11.9,13.3,24.5,23.5,33.9c10.5,9.7,24.2,17,38.4,19.5c14,2.5,27.7,0.7,41.2-3.4c12.1-3.6,24.8-8.4,34.3-16.9
			c5.2-4.7,9.4-10.3,12.5-16.5c1.3-2.6,2.8-5.3,3.5-8.2c0.4-1.4,0.7-2.9,1.1-4.4l0.1-0.1c0.7-2.4,1.7-4.5,2.9-6.5
			c0.1-0.1,0.1-0.2,0.2-0.2c0.1-0.1,0.2-0.3,0.2-0.5c8.9-14.9,27.8-21.4,39.9-33.4c12-12,23-28.9,21.6-46.5
			c-0.8-9.8-3.6-19.8-9.2-28c-5.9-8.6-13.9-13.1-22.8-18c-9.2-5-20.4-11.4-26.1-20.4C394.6,341.4,396.9,330.5,394.3,319.6z
			 M392.7,325.5c0.6,7,0.7,14.1,3.1,20.8c4.1,11.6,16.8,19.9,27,25.6c7.1,4,15.3,7.3,20.9,13.5s9.6,13.8,11.5,21.9
			c3.7,15.2,0.6,28.8-8.1,41.7c-4.1,6.1-8.9,12-14.6,16.8c-4.9,4.2-10.6,7.3-15.8,11c-7.8,5.4-15.9,11.7-20.9,19.8
			c-4.1,5.2-4.3,12.3-7.2,18.2c-3.3,6.6-7.3,13-13,17.7c-11.1,9.4-25.4,14.5-39.4,18c-32.8,8.2-65.6-4.2-84-32.7
			c-7.4-11.5-12.6-25.8-22.6-35.5c-4.9-4.8-11.7-7.8-16.1-13c-5.8-6.8-4.5-15.4-3.1-23.5c2.8-16.4,8.8-32.1,11.8-48.5
			c1.4-7.5,2.8-15.7,1.9-23.4c-0.8-7-2.6-14.1-2.1-21.2c0.8-11.8,3.7-24.1,6.1-35.7c2.3-11.1,5.1-22.4,10-32.8
			c4.7-9.8,11.4-19.1,20.9-24.8c12.1-7.2,26.9-9.2,40.8-7.5c32.8,4,61.5,26.5,82.4,50.8C388.2,309.6,392,316.5,392.7,325.5z"/>
		<path class="st0" d="M347.7,260.3c-13.3-8.5-27.6-16.7-43.1-20.2c-7-1.6-13.9-2.6-21-1c-3.5,0.8-7,1.8-10.5,2.5
			c-3.9,0.7-7.7,0.5-11.5,0.9c-10,1.1-16.5,5.8-21.5,14.4c-8.4,14.5-15.2,29.9-18.6,46.5c-1.6,8.1-2.3,16.2-3.1,24.5
			c-0.8,8.7-3.1,17.1-4.3,25.8c-1,7.7-1.4,15.2-0.2,23c1.3,8.6,3.2,17.7,1.1,26.3c-2,8.2-6.8,15.3-9,23.4c-1.9,7.1-3,14.3-4.6,21.4
			c-1.3,6.1-2.7,12.6-0.4,18.6c2.2,5.8,5.5,11.1,9.6,15.6c5.3,5.8,11.4,10.9,16.6,16.9c5.2,5.9,9.5,12.5,13.8,19
			c7.8,11.9,15.6,24.3,26.2,33.9c10.8,9.8,24.4,16.9,38.7,20.2c14.5,3.4,28.1-1.9,41.8-6.3c13.8-4.5,23.7-11.2,31.4-23.7
			c4.5-7.3,9.2-14.4,14.5-21.2c3.4-4.4,6.6-8.8,9.2-13.6c0.1-0.1,0.1-0.2,0.2-0.3c0.1-0.1,0.1-0.3,0.2-0.4c0.6-1.1,1.1-2.3,1.6-3.5
			c5.1-9.6,13.9-16.2,23.2-21.7c8.3-4.9,15.1-10.8,20.6-18.7c10.4-14.8,20.5-35.2,18.3-53.8c-1.1-8.8-4.3-18.3-10.4-25.1
			c-6.3-7-14.5-11.2-22.8-15.4c-10.2-5.1-21-10.9-27.3-20.7c-6.7-10.3-4.5-22.2-6.9-33.8C394,287.6,368.8,273.7,347.7,260.3z
			 M395,306.3c4.9,13.6,0.7,30.3,9.4,42.5c7.9,11.1,19.2,17,31.1,23c14,7.1,25.2,16.5,28.4,32.7c2.9,14.7-2.1,29.6-8.7,42.6
			c-6.8,13.4-15.4,24.5-28.4,32.3c-9.4,5.6-18,12.1-23.4,21.4c-0.2,0.1-0.3,0.3-0.4,0.5c-0.2,0.4-0.3,0.7-0.5,1.1
			c-0.5,1-1,2-1.4,3.1c-3.6,6.9-8.7,12.9-13.4,19.1c-5.1,6.7-8.8,14.3-13.8,21.1c-10.3,14-26.4,18.2-42.4,22.7
			c-9.2,2.6-17.7,3.7-27,1c-8.1-2.3-15.9-5.4-23.1-9.7c-13.8-8.3-23.7-20.7-32.6-33.9c-8.2-12.3-15.8-24.6-26.4-35.1
			c-5.9-5.9-12.3-11.3-16.4-18.7c-4.5-8.1-4.5-14.8-2.5-23.6c1.8-7.7,2.6-15.8,5.1-23.3c2.4-7.3,6.9-13.9,8.4-21.5
			c1.5-7.4,0.9-14.6-0.2-22c-1.4-9.2-2.1-18-0.7-27.3c1.2-8.2,3.4-16.2,4.2-24.4c0.8-8.7,1.3-17.3,3.2-25.8
			c3.7-16.9,10.1-34.1,19.9-48.4c3.6-5.2,8-9.1,14.3-10.3c6.5-1.2,12.9-0.7,19.3-2.3c9.3-2.3,17.4-3.1,26.8-0.7
			c8.3,2.1,16.2,5.2,23.8,9.1c13.4,6.9,26.1,15.4,38.5,23.9C377.8,283.1,390.1,292.6,395,306.3z"/>
		<path class="st0" d="M370.7,266.2h-0.1c-5.9-3.9-11.2-8.7-17.2-12.4c-7.1-4.4-14.5-8.5-22-12.2c-13.4-6.5-28-13.7-42.8-16.3
			c-12.9-2.3-25.9-1.1-37.2,5.9c-10.8,6.7-20,15.5-25.9,26.9c-6.8,13.3-11,28.5-14.4,43c-3.7,15.9-3.6,31.6-4.8,47.8
			c-0.6,8.3-1.3,16.8-0.6,25.1c0.6,7.3,3,14.3,3.6,21.6c1.4,17-10.2,30.9-15.1,46.5c-4.1,13.1-4.2,27.1,4.2,38.7
			c4.3,6,9.6,11,14.5,16.4c5.4,6,9.6,12.8,14,19.5c0.1,0.2,0.3,0.3,0.5,0.4c4.1,6.3,7,13.5,11.9,19.4c7.1,8.6,14.2,17.6,22.9,24.8
			c15.6,12.9,34.3,22.9,54.8,24.3c17.1,1.1,33-2.6,46.8-12.9c14.2-10.6,26.7-26.1,34.8-41.9c0.1-0.1,0.1-0.1,0.2-0.2
			c3.8-6.6,4.9-14.3,9-20.9c4.4-7,10.2-13.6,16.7-18.7c6-4.7,12.6-7.9,19.1-11.6c11-6.3,18.3-15.1,23.1-26.8
			c4.9-12.2,7.6-25.3,8.9-38.4c1.1-11.7-1.2-23.5-8.1-33.2c-6.8-9.6-16.5-17.1-27.4-21.7c-6.5-2.7-13.9-4.2-19.7-8.2
			c-7.7-5.3-9-13.2-9.6-21.8c-0.4-6.5-1.4-12.7-4.3-18.6c-3.1-6.5-7.3-12.3-10.8-18.5c-3.2-5.7-6.5-11.8-11.2-16.4
			C380.4,271.6,375.6,269.2,370.7,266.2z M353.7,256.8c5.9,4.3,11.6,8.9,17.8,12.7c0.2,0.1,0.4,0.2,0.5,0.2
			c5.6,3.3,10.8,6.5,14.7,12c4,5.6,7.1,11.7,10.8,17.5c4.3,6.9,8.9,14,10.3,22.1c1.1,6.3,0.4,13.1,2.4,19.3
			c4.4,13.6,17.2,15.3,28.8,20.5c12.1,5.4,23.5,13.8,29.6,25.8c6.6,13.1,5.5,26.9,2.9,40.8c-2.6,13.6-6.5,29.1-16.1,39.7
			c-9.7,10.7-24.4,14.5-35.1,24.2c-5.4,4.9-10.7,10.5-14.4,16.9c-3.3,5.7-4.8,12.2-7.5,18.1c-0.1,0.1-0.2,0.2-0.2,0.3
			c-8,16.8-21.3,33.8-36.6,44.7c-13.6,9.7-29.9,13.4-46.5,11.5c-21.5-2.5-41.8-13.5-57-28.8c-7.1-7.2-14.9-15.1-20.3-23.7
			c-3.8-6.1-6.8-12.9-11.3-18.6c-4-6.1-8.1-12.1-13.1-17.6c-6-6.5-13.1-12.8-16.6-21.1c-6.9-16.5-0.2-33.9,7.3-48.9
			c3.4-6.7,7.2-13.7,7.7-21.3c0.5-6.9-1.1-13.3-2.4-20.1c-3.2-16.5-0.1-32.9,0.2-49.5c0.3-17.8,4-34.4,9.3-51.4
			c4.4-14.2,9.4-28.4,20.5-38.9c11.5-10.9,26-18.2,42.2-16.6c17,1.6,33.6,9.4,48.7,16.9C338.2,247.5,346.5,251.6,353.7,256.8z"/>
		<path class="st0" d="M381.9,264.7c-0.1-0.1-0.2-0.1-0.3-0.2c-8.3-7.5-17.1-13.3-26.6-19.4c-10.6-6.8-20.7-14.1-31.9-19.9
			c-18.6-9.7-39.8-17.9-61.1-14.2c-26.8,4.6-47.3,24.1-54.5,50c-4.2,15.1-4.4,30.2-5.8,45.6c-0.8,8.7-2.7,17.4-3.1,26.2
			c-0.3,8-0.7,15.9-1.5,23.9c-1.3,12.3-2.6,27.2,4.2,38.4c2.7,4.4,4.4,8.4,1.3,13.1c-1.7,2.6-3.6,5-5.2,7.6
			c-3.6,6.2-6.8,12.8-9,19.7c-4.5,14.5-4.7,29.1-0.1,43.6c4.3,13.3,10.9,25.5,18.9,36.8c0,0.2,0.1,0.3,0.2,0.5
			c2.3,3.8,5.5,6.6,9.1,9.2c4.7,3.3,8.4,6.8,12.3,11c8.1,8.7,17.1,16.7,25.8,24.9c16.4,15.5,34.8,28.9,57.6,32.7
			c10.9,1.8,22.1,1.8,32.9-0.6c8.6-1.9,18-3.6,24.9-9.3c8.4-6.9,13-17.3,19.5-25.8c6.3-8.2,11.3-17.4,18.2-25.1
			c0.1-0.1,0.2-0.3,0.3-0.4c4-5.3,7-11.2,10.4-17c4.5-7.6,9.8-14.2,17.6-18.7c5.8-3.3,12-5.8,17.8-9c11.3-6.4,20.7-17.2,26.9-28.4
			c6.6-12,9.1-25.7,8.7-39.3c-0.4-13.3-2.5-28.3-8.5-40.4c-5.6-11.2-15.3-18.3-26.4-23.7c-11-5.3-27.8-9.4-34.2-20.7
			c-5.9-10.4-6.9-22.8-12.8-33.4c-6.8-12.1-13.7-25.9-23.7-35.8l0,0c-0.1-0.1-0.2-0.2-0.3-0.3C383,265.8,382.4,265.2,381.9,264.7z
			 M382.2,268.1L382.2,268.1c0.5,0.5,1,1,1.5,1.5c5.9,6.6,10,14.2,14.6,21.7c4.1,6.7,8.8,13.6,11.5,21c3.5,9.5,4.4,21.5,11.9,29.1
			c8.7,8.8,22.3,12.2,33.1,17.8c13.8,7.1,23.1,16.4,27.5,31.5c4.4,15.2,6.6,31.9,3.6,47.6c-2.9,15.3-10.7,28.6-21.8,39.4
			c-10.2,9.9-24.2,12.7-35,21.7c-11,9.1-15,23-23.9,33.7c-0.1,0.2-0.3,0.3-0.4,0.5c-0.5,0.6-1,1.2-1.6,1.8c-0.2,0.2-0.2,0.3-0.3,0.5
			c-4.4,5.7-8.2,11.9-12.4,17.7c-2.8,3.9-5.8,7.5-8.4,11.5c-3,4.8-5.9,10.1-9.8,14.2c-7.5,7.7-17.6,10.2-27.8,12.2
			c-11.7,2.3-23.9,2.6-35.6-0.2c-23-5.5-40.3-19.2-56.9-35.3c-7.7-7.4-15.9-14.4-22.9-22.4c-5-5.6-12.3-9.3-17.2-14.9
			c0-0.1-0.1-0.3-0.2-0.4c-10.4-14-19.5-29.8-23.2-47c-3.9-18.6,0.6-38.3,10.7-54.3c2.5-3.9,7.6-8.8,7.3-13.9
			c-0.3-6-5-10.4-6.6-16.1c-4.2-15.2,0.3-30.7,0.6-46c0.2-9.4,1.2-18.5,2.5-27.9c1-7.1,0.9-14.3,1.5-21.5c1.3-16.5,3.9-34.3,13-48.6
			c16.6-26.3,48-36,77.3-27.1c16.3,4.9,31.6,13,45.8,22.3C355,247.7,369.7,256.3,382.2,268.1z"/>
		<path class="st0" d="M392.7,268.6C375.6,245,350,230,324.4,217c-13.6-6.9-27.7-13.6-43.2-14.3c-7.6-0.3-15.2-0.3-22.8-0.8
			c-6.8-0.5-14.1-1.1-20.7,0.8c-12.5,3.6-22.6,14.9-29.5,25.4c-8.3,12.6-12.3,27-13.3,42c-0.6,8.8,0.3,17.3,0.6,26.1
			c0.3,9.2-2,17.7-3.6,26.6c-2.8,15.4-3.8,31.8-3,47.5c0.4,7.5,1,15.1,3,22.4c2.1,8,4.8,15.8,0.4,23.5c-3.6,6.3-8.5,11.9-11.3,18.6
			c-2.5,6.3-4,13.2-4.8,19.9c-1.7,14.4,0.6,28.8,5.6,42.5c3.5,9.6,7.5,18.4,13.3,26.3c0,0.2,0.1,0.5,0.3,0.7c1,1.2,2.1,2.5,3.2,3.6
			c1.4,1.7,2.9,3.3,4.6,4.9c0.1,0.1,0.2,0.1,0.2,0.2c6.4,6.4,13.4,12.2,20.6,17.8c9.4,7.4,18.8,15.1,28.5,22
			c20.3,14.5,42,25.5,66.5,30.4c20,4,39.9,2.8,55.1-12.1c8.2-8,14.3-17.5,21.1-26.7c6-8.2,12-16.5,17.6-25c0.2-0.1,0.3-0.2,0.4-0.4
			c3.1-5.3,6.8-10,10.5-14.9c4.4-6,8.9-12.9,15.3-17c11.5-7.5,24.2-12.9,35-21.5c10.5-8.3,18.5-18.7,23.1-31.3
			c9.2-25.8,11-57.5-5-81.1c-3.8-5.6-8.2-11-14.3-14.3c-6.4-3.4-13.3-5.4-19.9-8.5c-7.6-3.6-15.2-7.7-22.2-12.3
			c-7.5-4.9-10.3-10.6-13-18.9c-4-12.2-9.3-24.1-17-34.3C401.2,279.5,397,274,392.7,268.6L392.7,268.6z M388.5,266.8
			c0,0.1,0,0.1,0.1,0.2c2,2.5,4,5.1,5.9,7.6c7,9,14.1,17.5,18.8,27.9c3.5,7.6,5.8,15.5,8.8,23.2c1.9,4.7,4.4,9.1,8.7,12
			c7.2,4.9,14.8,9.1,22.5,13c6.4,3.3,13.3,5.2,19.7,8.4c14.9,7.3,23.9,24,26.8,39.8c5.4,29.3-2.5,64.8-26.6,84
			c-11.6,9.2-25.4,14.5-37.2,23.2c-5.5,4-9.5,9.9-13.5,15.3c-3,4.1-6.1,8-8.9,12.2c-0.1,0.1-0.1,0.1-0.2,0.2
			c-6,9.5-12.7,18.7-19.4,27.8c-6.9,9.4-13.2,19.8-21.9,27.8c-16.9,15.7-38,15.5-59.3,10c-23.2-5.9-43.8-16.8-62.9-31.1
			c-17.9-13.3-37.1-27-51.8-44.1c-5.3-6.6-9-13.9-12.3-22.1c-4.1-10.3-7.5-21.2-8.1-32.3c-0.6-10.7,0.5-22.6,4.5-32.6
			c3.8-9.3,12.1-16.7,14.3-26.6c1.3-6.1-1.3-12.5-2.7-18.4c-1.9-7.8-2.8-15.8-3-23.8c-0.4-17.1,0.8-34.5,4.3-51.3
			c1.8-8.4,2.8-16.3,2.1-24.9c-0.6-8.1-1-16-0.2-24.1c1.7-18.2,7.8-34.1,20-47.8c5.3-5.9,11.2-12.6,19.1-14.9
			c7.9-2.3,15.8-1.7,23.9-1.2c8.2,0.6,16.6,0,24.8,1c9.4,1,18.4,4.2,26.9,8.1C339.9,226.3,369.3,242.2,388.5,266.8z"/>
		<path class="st0" d="M331.7,203.6c-32.1-12.4-70.4-22.1-104-9.1c-23.9,9.2-32.7,34.2-38.5,57.2c-4.1,16.4-6.1,33.3-6.5,50.2
			c-0.4,17.7-0.8,35.6-0.7,53.3c0.1,9.2,0.5,18.3,1.5,27.5c0.8,7.3,1.9,14.9,1.1,22.2c-1.1,10.2-6.2,17.3-10.9,26
			c-3.6,6.6-6.4,13.6-7.7,21c-4,23,0,50.1,12.9,70.1c5.2,9,13,16.9,20.3,24.1c10,10,21.4,19.2,33.5,26.6c14.3,8.9,29.5,17.1,44.4,25
			c11.8,6.3,24.1,12.1,37.2,15.5c23.1,6,47.6,5.4,64.8-13c8.6-9.2,14.9-20,21.6-30.5c6.2-9.8,12.7-19.5,19.4-29
			c6-9,13.6-16.6,22-23.3c18.7-15.1,41.2-26.9,55.6-46.6c8.6-11.8,12.8-25,14.7-39.4c1-7.5,2.1-15,2.9-22.5c0.6-6,1-12.5-1.1-18.3
			c-4.5-12.8-14-26.7-23.9-36c-11.5-10.7-27.1-12.6-40.8-19.3c-7-3.4-16.1-7.4-19.5-15c-2.9-6.6-4.8-13.7-7.6-20.4
			c-3.5-8.5-8.5-17.8-14.4-25.4c0-0.2-0.1-0.3-0.2-0.4c-6.7-7.2-10.5-16.3-15.4-24.7c-4.4-7.5-9.8-14.2-16.3-20
			C363,217.8,347.9,209.8,331.7,203.6z M342.2,210.3c14.3,6.6,28.1,15.3,38.7,27.2c9.1,10.2,13.7,23.2,21.7,33.9
			c0,0.2,0.1,0.3,0.3,0.5c3.5,3.8,6.1,8.5,8.8,12.8c4.3,6.8,7.7,13.8,10.8,21.3c2.2,5.4,3.2,11.9,6.3,16.8c3.4,5.5,9,9.1,14.7,12
			c6.1,3.1,12.2,6.1,18.8,8.2c8.9,2.8,18.1,5.4,25.1,11.9c6,5.6,11.1,12.1,15.4,19.1c4.4,7,9.8,14.8,10.5,23.3
			c0.5,6.7-0.4,13.3-1.3,19.9c-2.1,16.5-3.7,33.2-12.9,47.6c-6.9,10.7-16.2,19.4-26.2,27.1c-18.1,13.9-38.5,25.7-52.3,44.3
			c-0.1,0-0.1,0.1-0.2,0.2c-7.2,10.1-14.2,20.5-20.9,31c-6.5,10.3-12.6,21.2-20.9,30.2c-9.1,9.8-20.2,16.2-33.7,17
			c-11.7,0.7-23.4-1.1-34.5-4.6c-13.9-4.4-26.9-11-39.6-18.1c-12.8-7.2-26.3-13.9-38.6-22c-11.6-7.6-22.6-16.3-32.3-26.2
			c-6.4-6.5-13.2-13.4-18.1-21.3l0,0c-0.3-0.4-0.6-0.9-0.8-1.3c-0.7-1.2-1.3-2.4-1.9-3.6c-0.1-0.3-0.3-0.4-0.5-0.5
			c-3.9-6.9-7.1-15-8.7-22.3c-3.4-15.6-4.7-34.4,0.4-49.8c4.8-14.6,16.3-25.7,16.9-41.7c0.6-16-2.7-31.9-2.7-47.9
			c0-17.8,0.2-35.6,0.7-53.3c0.6-17.9,2.6-35.7,7.4-53c3.5-12.7,7.6-26,15.5-36.8c8.8-11.9,21.8-17.2,36.1-19.5
			C277.6,187.3,311.5,196.2,342.2,210.3z"/>
		<path class="st0" d="M281.4,182.2c-14.7-2.4-31-3.2-45.7-0.9c-13,2-28.1,9.1-37.1,18.9c-4.8,5.2-7.8,11.3-10.5,17.7
			c-3,7.2-6.4,14.2-9.4,21.4c-6.6,15.8-11.4,32.4-11.9,49.6c-0.5,17.8,1.1,35.6,1.1,53.4c0.1,16.7,0.2,32.9,2.7,49.4
			c1.6,10.3,1.7,18.7-2.9,28.3c-3.5,7.3-7.7,14.3-10.9,21.8c-3,7.1-5.3,15.1-6.2,22.7c-0.4,3.5-0.3,7,0,10.5
			c-0.1,0.2-0.2,0.4-0.2,0.6c1.3,13.9,1.8,27.6,7.7,40.6c12,26.8,36.2,47.4,60.3,63.1c14.2,9.2,29.2,17,43.8,25.4
			c13.8,8,27.7,14.8,43.2,18.9c12.2,3.2,25.1,6.1,37.8,5.3c12.8-0.8,23.2-5.3,33.3-13c11-8.4,20.1-18.8,26.8-30.9
			c4.1-7.4,7.4-15.1,11.8-22.3c3.4-5.5,6.9-11,10.2-16.6c0,0,0.1,0,0.1-0.1c3.2-5.2,5.3-10.2,10-14.3c5.9-5.1,12.7-9,18.4-14.2
			c5.5-5.1,11-10,17-14.4c11.2-8.3,23.2-16.2,32.4-26.8c9.9-11.4,16.1-25.3,19.7-39.8c3.5-14.2,6.5-30.5,4.6-45.2
			c-3.1-23.9-24.5-46.7-46.3-55.9c-14.3-6.1-31.9-6.8-41.5-20.6c-4.7-6.8-7.2-14.2-9.5-22c-1.4-4.8-3.3-9.4-5.2-14
			c0-0.1,0-0.3-0.1-0.5c-0.4-1-0.9-2-1.3-3c-0.2-0.4-0.3-0.7-0.4-1.1c-0.1-0.2-0.2-0.4-0.4-0.5c-2.6-4.5-6.2-8.5-8.9-13.1
			c-3.8-6.4-7.3-13-11.8-19c-8.4-11.1-18.9-20.8-30.4-28.7c-12.6-8.6-26.4-14.7-41.1-18.8c-8.2-2.3-16.5-4.2-24.8-6.2
			C297.7,186.1,289.7,183.6,281.4,182.2z M256,182.6c18.6-0.2,35.6,4.4,53.5,8.6c17.1,4.1,34.6,8.2,50,16.9
			c14.1,7.9,27,18.3,37.4,30.7c5.6,6.7,9.7,14,14.1,21.4c3.2,5.4,7.6,10.2,10.4,15.7c0.6,1.5,1.3,3,1.9,4.5
			c5.1,12.3,6.9,26.7,15.7,37.3c9.5,11.3,23.1,13.5,36.3,18c25.9,8.8,52.2,36.5,50.4,65.3c-1.1,17-3.4,34.4-9.9,50.3
			c-6.4,15.4-16.4,27.3-29.5,37.5c-11.6,9-23.1,17.6-34.1,27.2c-5.9,5.1-12.7,9-18.4,14.2c-3.5,3.2-5.6,6.7-7.8,10.4
			c-0.1,0.1-0.1,0.1-0.2,0.2c-1.6,2.9-3.3,5.7-5.1,8.6c-16.2,26.1-27.5,58.2-57.2,72.4c-13.1,6.3-28.2,5.9-42.3,3.2
			c-15.1-2.8-30-7.2-43.7-14.3c-15-7.8-29.8-16.4-44.4-24.9c-15-8.7-29.5-18.6-42.3-30.4c-10.9-10-21.3-21.2-28.1-34.4
			c-5.5-10.6-7.6-21.4-9-32.6l0,0c-0.1-3.1-0.6-6.2-0.9-9.3c-0.1-1.2-0.2-2.3-0.3-3.5c0-0.1-0.1-0.2-0.1-0.3
			c-0.2-2.3-0.3-4.5-0.1-6.7c0.5-6.9,2.2-13.6,4.3-20.2c4-12.3,12.6-22.7,16.1-35.1c3.1-11.1-0.3-22.5-1.6-33.7
			c-1.4-12.5-1-24.8-1.1-37.4c-0.2-17.8-1.8-35.6-1.1-53.4c0.8-19.1,6.4-37.3,14.3-54.6c7-15.2,11.4-30.9,26.6-40.1
			c6.9-4.2,14.7-8.5,22.8-10.1C240.4,182.7,248.2,182.7,256,182.6z"/>
		<path class="st0" d="M259.7,168c-20.7-0.6-43.7,0.7-61.9,11.6c-8.4,5-15.8,12-20.5,20.7c-7.8,14.4-13.8,30.4-16.8,46.5
			c-3.2,16.8-3.1,34.1-4.2,51c-1.1,17.3-1.6,34.5,0.7,51.6c2.2,16.2,5.9,32.7,4.1,49.1c-1.8,15.5-8.5,29.8-14.8,43.9
			c-0.1,0.1-0.2,0.2-0.2,0.3c-0.2,0.5-0.4,0.9-0.6,1.4c-0.9,2-1.8,4-2.6,6c-0.1,0.2-0.1,0.3-0.1,0.5c-0.4,0.9-0.7,1.9-0.9,2.9
			c-0.6,2.7-0.7,5.7-0.9,8.5c-0.7,6.9-1.3,13.7-1.5,20.6c-0.3,12.8,0.3,25.9,4.3,38.2c6.8,21.1,20.9,39,38.3,52.5
			c10.5,8.2,22.2,14.5,33.8,20.9c12.3,6.8,23.8,14.8,36.1,21.4c22.7,12.4,48.3,20.7,74,23.9c14.9,1.8,30.8,2,45.5-1.5
			c11.4-2.7,20.9-9.6,28.2-18.5c7.8-9.5,13.8-20.2,19.9-30.8c3.8-6.5,7-13.1,10.3-19.8c3.7-7.5,8-13.6,13.8-19.6
			c6.4-6.6,12.3-13.8,18.9-20.2c6-5.9,12.9-10.5,19.7-15.5c11.3-8.4,23.9-12.6,31.8-24.9c8.6-13.3,13-28.5,17.4-43.6
			c2.4-8.3,5.9-16.3,7.2-24.9c0.8-5.6,0.3-11.4,0.3-17c0-0.1,0.1-0.3,0.1-0.5s0-0.5-0.1-0.7c0-0.8,0.1-1.6,0.1-2.4
			c0-0.4-0.1-0.6-0.3-0.8c-0.5-8-0.8-15.6-4.2-23.1c-4.1-8.8-9.4-17.3-15.8-24.7c-6.5-7.5-14.1-14.2-22.7-19.3
			c-9.8-5.8-20.6-8.9-31-13.5c-5.7-2.6-11.2-5.4-14.8-10.8c-2.7-4-4.6-8.3-6.5-12.7c-4.7-10.6-10.9-20.3-16.3-30.5
			c-5.6-10.6-9.9-22.2-16.9-32.1c-5.1-7.1-11.7-12.7-17.4-19.2c0-0.1-0.1-0.1-0.1-0.2c-0.2-0.2-0.3-0.3-0.5-0.5
			c-0.5-0.6-1-1.1-1.5-1.7c-0.2-0.2-0.3-0.3-0.5-0.3c-7-6.6-16.8-10.5-25-15c-12.9-7.2-26.5-13.6-40.6-18
			C304.1,170.6,281.3,168.6,259.7,168z M240.6,170.5c11.3-0.7,22.6-0.3,33.9,0.6c11.4,0.9,23.1,1.8,34.3,4.1
			c17,3.5,33.2,10,48.5,18.1c6.2,3.2,12.2,6.7,18.3,10c5.3,2.8,10.8,5.8,14.9,10.3c6.7,7.7,14.7,14.1,20.1,23
			c5.9,9.8,10.1,20.5,15.6,30.5s11.4,19.8,16,30.2c3.2,7.3,7,15.2,14.3,19.2c10.2,5.6,21.5,8.3,31.8,13.6
			c9.3,4.8,17.9,10.9,25.1,18.6c7,7.5,13.1,16.1,17.6,25.2c4.6,9.3,4.7,18.3,5.5,28.4c-0.1,4.6,0.2,9.3,0,13.9
			c-0.4,6.6-2.3,12.6-4.4,18.8c-3.6,10.5-6.1,21.4-10,31.8c-4.3,11.5-10.1,25-20.6,32.2c-8.3,5.7-17.1,10.2-25.2,16.1
			c-9.5,6.9-17.5,14.5-25.5,23.2c-7.3,7.9-15.4,14.9-20.5,24.5c-8.8,16.7-16.7,34-27.9,49.3c-7.8,10.8-18.1,21-31.7,23.7
			c-16.5,3.3-33.6,3.5-50.2,0.6c-16.4-2.8-32.7-7.1-48.1-13.5c-16.1-6.7-30.2-16.3-45.2-24.9c-27.6-15.8-56.2-30.2-72.8-58.6
			c-8-13.7-12.2-28.7-12.8-44.6c-0.3-9,0-17.9,0.9-26.8c0.4-4.1,0.8-8.2,1.3-12.3c0.5-4,2.3-7.4,3.8-11c4.5-9.9,9.1-19.7,12.2-30.1
			c3.5-11.8,4.5-23.5,3.3-35.8c-1.2-13.1-4.1-26.1-5.1-39.2c-1-13.3-0.5-26.6,0.3-39.9c1.1-18.1,0.8-36.9,4.7-54.6
			c3.5-16,9-33.6,18.2-47.3C194.4,178.4,218.1,171.8,240.6,170.5z"/>
		<path class="st0" d="M188.3,171.4c-9.4,10.1-17.3,21.5-22.8,34.2c-5.9,14-10,28.7-13.9,43.4c-3.9,14.5-7.1,29.3-7.3,44.4
			c-0.2,16.6,3.1,33.1,5,49.6c2,16.7,4.1,34,3.3,50.8c-0.7,14.9-4.1,30.9-11.5,43.9c-2.5,4.4-5.9,9.2-8.5,14.2
			c-0.2,0.1-0.4,0.2-0.6,0.5c-1.4,2.7-2.3,5.6-3.1,8.6v0.1c-2.1,8.5-2.1,17.7-2.8,26.2c-1,12.1-0.8,23.9,3.6,35.4
			c4.1,10.7,10.3,21.5,17.4,30.4c8.8,11,20.4,19.4,30.4,29.3c9.1,9.1,18,18.1,28.6,25.5c10.9,7.5,22.5,13.7,34.6,18.8
			c24.6,10.4,50.6,15.1,76.9,19.2c9.3,1.4,18.6,2.9,27.9,4.2c7.5,1,15.5,2.9,23.1,2.8c13.1-0.2,23.6-6.8,33.5-14.8
			c12.4-10,25.6-20.7,33.2-35c7.9-14.8,13.7-30.5,24.5-43.6c10.9-13.3,24.8-24.3,37.2-36.2c11.6-11.2,24.2-22.4,31.3-37.1
			c6.7-13.9,9.6-28.8,12.6-43.8c2.4-12.2,6.8-24.2,7.8-36.7c0-0.1,0.1-0.2,0.1-0.3c2-19.4-2-41.4-13.8-57.3
			c-12-16.2-27.5-28-45.8-36.3c-4.5-2-9-4-13.6-5.7c-5.9-2.2-12.6-4.3-17.2-8.8c-8-7.8-10.3-18-14.5-27.9
			c-8.7-20.5-21.4-38.8-36-55.5c-10.8-13.8-28.2-20.1-43.1-28.4c-15.6-8.8-31.8-16-48.6-22.1c-9.5-3.4-19.2-6.6-29-9.1
			c-8.2-2.1-16.7-4.5-25.2-5c-8.2-0.5-16.3,0.6-24.4,1.2c-6.7,0.5-13.6,0.3-20.2,1.7C205.2,154.8,196.6,162.5,188.3,171.4z
			 M215.2,154.9c7.4-1.9,14.8-1.6,22.4-2.3c7.5-0.7,15-1.8,22.5-1.3c18,1,36.6,7.3,53.4,13.4c17.3,6.3,34.1,13.6,50.1,22.6
			c13.6,7.7,29.4,13.5,40.1,25.2c0,0,0,0.1,0.1,0.2c0.6,0.7,1.2,1.4,1.9,2.1c0.3,0.3,0.6,0.7,0.8,1c0.1,0.1,0.2,0.2,0.3,0.2
			c14.8,17,28.4,36.1,36.2,57.3c3.1,8.4,5.8,17.8,12.5,24.2c6.9,6.7,16,9.1,24.7,12.7c19.6,8.2,37.8,19.1,50.9,36.2
			c12.1,15.9,17.2,36.2,15.8,56c-0.1,0.1-0.1,0.3-0.1,0.5c-0.4,10.6-3.7,20.8-6.2,31c-2.4,10-3.8,20.3-6.5,30.2
			c-3.1,11.4-7.3,22.7-14.4,32.2c-7.4,9.8-16.8,18.3-25.6,26.8c-16.6,16-35,30.4-46.4,50.8c-5.7,10.2-9.7,21.5-16,31.4
			c-6.5,10.1-15.5,18.4-24.7,26c-11.8,9.8-25,21.1-41.6,19c-18.5-2.3-37-5.1-55.4-8c-31.8-5-63.4-12.8-91.4-29.4
			c-14.4-8.5-26-19.1-37.8-30.8c-12-12-26.4-22-35.8-36.3c-8.9-13.4-16.7-28.4-16.9-44.7c-0.1-7.7,0.7-15.3,1.4-22.9
			c0.7-7,0.8-13.9,3-20.5c2.7-7.1,8-14,11.4-20.2c5.8-10.5,8.7-22.6,10.3-34.4c2-13.8,0.8-28.1-0.5-41.9
			c-1.3-14.8-3.3-29.5-5.2-44.3c-2.2-16.6-2.1-32.9,1.2-49.4c3.1-15.6,7.5-31.2,12.5-46.4c4.8-14.4,11.1-28.3,20.8-40.2
			C191.2,170.8,201.6,158.4,215.2,154.9z"/>
		<path class="st0" d="M162.9,183.2c-6.3,11.9-10.9,24.6-13.4,37.8c-3.3,17.1-4.2,34.5-6.8,51.8c-1.2,8-3.6,15.9-4.3,23.9
			c-0.6,7.2-0.3,14.3,0.7,21.4c1.9,15.1,6.3,29.8,7.4,45c1.2,17.7,0.9,35-6,51.6c-3.9,9.4-8.7,18.4-13.9,27.2
			c-0.2,0.1-0.3,0.2-0.4,0.4c-1.3,2.4-2.8,4.8-4.3,7.1c-1.7,2.5-3.3,4.9-4.7,7.4c-0.3,0.5-0.6,1-1,1.5c-0.2,0.2-0.2,0.4-0.2,0.6
			c-1.5,3-2.6,6.1-3,9.7c-0.8,7.6-1.4,15.3-1.5,22.9c-0.2,15.3,0.1,31.7,5.2,46.4c4.6,13.2,11.7,25.5,20.9,36.1
			c10.2,11.8,22.7,20.3,35.7,28.8c14.7,9.6,29.9,19.5,46.1,26.3c7.6,3.2,15.6,5.3,23.6,7.3s15.5,5.1,23.4,7.5
			c17.6,5.2,36.1,7.2,54.1,10.4c16.4,2.9,32.5,6.8,49.2,6.7c13.7,0,29.3-0.7,41.7-6.9c11.4-5.6,20.7-14.4,28.6-24.2
			c19.4-24.2,30.9-53.4,49-78.4c18.4-25.3,48.5-40.2,60.6-70.3c6.2-15.5,7.2-30.8,8.7-47.2c1-11.4,3.5-22.9,3.2-34.4
			c0-0.1,0.1-0.2,0.1-0.4c-0.8-11-1-21.9-4.2-32.6c-2.8-9.3-6.8-18.1-11.9-26.3c-10.5-16.7-25.5-31.2-43-40.6
			c-9.2-5-19.4-7.6-28.5-12.5c-8.8-4.7-16.4-11.1-22-19.3c-6.2-9.1-9.6-19.3-14.3-29.2c-3.4-7.3-8.3-13.1-13.8-18.6
			c0-0.1-0.1-0.1-0.1-0.2c-6.7-6.9-13-13.9-20.5-19.9c-7.3-5.8-15-10.8-22.9-15.7c-17.6-10.9-35.2-22.2-53.8-31.4
			c-17.8-8.9-36.4-16.1-56.3-18.4c-19-2.1-38.4-1-57,3.1C189.6,142.6,173.6,162.9,162.9,183.2z M170.9,173.9
			c7.1-10.8,15.8-21.8,27.1-28.5c12.8-7.6,29.8-9,44.3-9.7c16.9-0.8,34.1,0.5,50.4,5.5c17.1,5.3,33.3,13.3,48.8,22.2
			c15.1,8.6,30,17.6,44.6,27.1c12,7.8,21.9,16.8,31.7,26.7c0,0.2,0.1,0.4,0.3,0.6c8,7.7,14.5,15.1,18.9,25.4
			c4,9.4,7.6,18.9,13.8,27.1c4.9,6.5,10.7,12.3,17.7,16.4c7.8,4.6,16.2,7.1,24.5,10.8c19.2,8.6,36.9,23,48.4,40.8
			c5.8,9,10.8,18.5,13.7,28.9c2.7,9.8,3.3,19.5,4,29.5c0.8,10.4-1,21-2.4,31.2c-2,15.3-1.6,30.4-6.5,45.2
			c-4.9,14.9-13.3,27.5-24.5,38.4c-9.8,9.6-20.7,18.1-29.9,28.2c-19.4,21.2-30.3,48.4-45.8,72.3c-12.9,20-29.5,40.4-54.4,44.5
			c-17.7,2.9-35.7,2.9-53.3-0.4c-18-3.3-36.1-6.3-54.1-9.7c-17.3-3.2-33.7-9.2-50.7-13.8c-17.6-4.8-33.2-13.2-48.7-22.7
			c-14.5-8.9-30.2-17.9-42.4-29.9c-11.3-11.1-20.9-24.6-26.4-39.5c-5.8-15.6-6.7-32.6-6.3-49.1c0.2-8.5,0-18,2.1-26.2
			c0.5-2,1.3-4,2.2-5.8c0,0,0.1,0,0.1-0.1c9.3-13.9,18.3-28.5,24.5-44.1c6.7-16.9,7.4-34.2,6.1-52.2c-1.2-16.4-6.2-32.2-7.8-48.6
			c-1.8-17.7,3.4-34.4,5.4-51.9c2.1-17.8,3.1-36,8.4-53.2C158.4,196.8,163.8,184.9,170.9,173.9z"/>
		<path class="st0" d="M155.7,178.6c-13.5,29.1-20.4,62.1-23.6,93.9c-1.7,17.1-2.2,34.4-0.4,51.5c1.7,16.4,4.9,32.6,5.3,49.1
			c0.4,17-2,34-9.8,49.3c-2.5,4.9-5.6,9.5-8.7,14.1c-0.2,0.1-0.4,0.2-0.5,0.5c-0.4,0.8-0.9,1.6-1.4,2.4c-2.5,3.6-4.9,7.3-6.9,11.2
			c-0.2,0.3-0.2,0.6-0.1,0.9c-0.4,0.8-0.8,1.5-1.1,2.3c-2.9,6.6-5.4,13.3-7.5,20.2c-5,16.8-5.4,33.5-3.2,50.8
			c1.8,14.2,7.4,25.8,14.7,38c7.3,12,15.9,23,26.4,32.4c20.9,18.9,46.1,32.3,72,43.1c14.6,6.1,29.4,12.2,44.5,17.1
			c16.7,5.4,34.3,6.6,51.2,11.4c16.1,4.6,32.4,9.4,49.2,10.6c13.7,1,27.9,0.5,41.5-1.7c12.8-2.1,26.2-5.4,37.1-12.7
			c11.9-8,22-19.2,30.8-30.4c9.4-11.9,16.5-24.9,22.9-38.7c7-15,13.9-30.4,24-43.5c17.3-22.4,47.7-33.6,56.3-62.4
			c4.4-14.9,4.8-30.5,4.8-46c0-15.2-2.9-30.6-1.5-45.7c0.2-1.1,0.3-2.2,0.4-3.3c0-0.2,0.1-0.5,0.1-0.7c0-0.1,0-0.1,0-0.2
			c1.3-16.4-3.6-33.9-10.6-48.4c-8.8-18.2-21.6-35.4-38.1-47.3c-17.6-12.7-41.4-16-57-31.5c-8.5-8.5-10.7-19-16.6-29
			c-5.1-8.6-12.4-16-19.5-22.9l-0.1-0.1c-16.6-16.4-34.7-31.1-52.8-45.8c-8.4-6.8-16.6-14-25.8-19.7c-8.7-5.5-17.9-10.2-27.4-14.1
			c-34.1-14.3-73.6-24.2-109.8-11.8C186.9,130.7,167.7,152.9,155.7,178.6z M186.5,139.6c21.4-19.1,53.1-24.7,81-20.6
			c29.2,4.3,59.7,14.8,84.3,31.1c14.1,9.3,27,20.8,40,31.5c13.3,11,26.4,22.2,38.5,34.5c0.1,0.1,0.1,0.1,0.2,0.1
			c7.2,7,14.7,14.6,18.9,23.7c3.8,8.2,6.4,16.9,12.7,23.6c13.9,15,33.7,18.7,50.8,28.6c18.6,10.7,33.3,27.6,43.4,46.3
			c8.6,16,15.2,35.7,13.4,54.2c-0.1,0.9-0.2,1.8-0.3,2.7c-0.1,0.7-0.2,1.4-0.3,2c-0.1,0.3,0,0.5,0.1,0.7c-0.5,8.9,0.3,17.6,1,26.5
			c0.8,10.8,0.8,21.7,0.3,32.5c-0.7,16.4-2.8,33.8-13.2,47.2c-8.9,11.6-21.3,19.3-32.2,28.7c-11.8,10.1-20.6,22.5-27.8,36.2
			c-7.5,14.2-13.2,29.4-21.4,43.2c-8.3,13.8-18.3,26.7-30,37.8c-11,10.4-22.9,17.2-37.8,20.8c-13.8,3.3-27.9,4.5-42,4.4
			c-18.1-0.1-35.6-4.3-52.9-9.2c-8.8-2.5-17.5-5.2-26.5-6.7c-8.3-1.3-16.7-2.3-24.7-4.7c-15.5-4.5-30.7-10.9-45.7-17
			c-27.6-11.3-55.3-25-77.1-45.6c-11.1-10.5-19.9-22.3-27.5-35.4c-4-6.9-7.9-14-9.8-21.7c-2-7.8-2.8-16.1-3.1-24.1
			c-0.7-14.9,1.5-28.7,6.4-42.8c2.1-6.1,4.4-12.2,7.4-18c2.2-4.3,5.1-8.1,7.5-12.3c0,0,0,0,0-0.1c5.4-8.2,10.7-16.2,14-25.8
			c5.9-17.9,6-36.9,3.9-55.9c-2.3-21-5.8-41.6-5.1-62.9c0.8-22,4.1-43.9,9.1-65.3C149.5,195.6,161.1,162.3,186.5,139.6z"/>
		<path class="st0" d="M164.4,120.2c-10.2,11.2-13.8,25.3-18.5,39.3c-5.6,16.5-12.7,32.5-15.5,49.8c-2.7,16.9-3.3,33.7-3,50.8
			c0.3,17.7-5.5,34.3-6.1,51.7c-0.5,15.4,3.4,30.2,5,45.4c3.4,30.3-8.6,59.1-24.9,84.1c-0.1,0.1-0.3,0.2-0.4,0.3
			c-4.1,5.8-7.4,12.9-10.4,19.4c-2.8,6.1-4.3,12.6-5.3,19.1c-1.7,11.8-1.6,24.3-1.2,36.2c0.4,12.4,1.5,25.3,5.8,37.1
			c4.1,11.1,10.3,21.6,17.5,30.9c18.5,23.9,44.6,42.2,70.7,57.2c29.4,16.8,62.4,27.3,94.9,36.4c16.9,4.8,34,8.9,51.3,11.8
			c15,2.5,31.3,5.8,46.5,3.7c15.7-2.1,30.6-7.5,46.4-9.1c11.2-1.1,22.2-3.3,32-8.4c0.2,0,0.4,0,0.7-0.2c5.8-3.7,12.1-7.3,16.9-12.3
			c4.7-4.8,7.7-11.3,10.4-17.4c6.4-14.4,10.9-29.5,16.9-44c6.6-16,15.3-29.6,27.5-42c10.9-11,21.1-22.8,33.5-32.2
			c10.8-8.2,21.6-17.4,28.3-29.3c7.2-12.7,8.2-25.9,7.2-40.3c-0.6-7.8-1.7-15.5-3.1-23.2c-1.5-8.8-1.2-17.6-2-26.4
			c-0.7-6.9-2.8-13.3-4.1-20.1c-0.8-4.3-0.8-8.7-0.9-13.1c0,0,0,0,0-0.1c0.1-9.3-3.6-18.5-7.4-26.8c-4.1-9.1-8.8-18.2-13.8-26.9
			c-8.7-15.2-21.2-30.6-37.2-38.4c-8.8-4.3-18.6-7-27-12.1c-8.5-5.1-15.9-11.9-21.2-20.2c-4.5-7.1-8.4-14.5-13.8-21
			c-2.7-3.2-5.7-6.2-8.7-9c-0.1-0.1-0.1-0.1-0.2-0.2c-6-5.4-12.4-9.7-17.6-16c-4.7-5.8-8.9-12-13.5-17.9
			c-9.7-12.5-21.1-23.7-33.6-33.5c-21.2-16.7-44.7-29.2-69.6-39.4c-38.2-15.6-86.4-31.1-126.3-12.8
			C180.7,105.7,171.7,112.1,164.4,120.2z M179.2,110.2c39.4-26.7,91.6-12.2,132.2,4c26.2,10.5,51.4,23.1,73.5,40.8
			c12.8,10.2,24.7,21.7,34.5,34.8c4.5,6.1,8.8,12.4,13.8,18.1c2.3,2.6,4.7,4.8,7.3,6.9c0.1,0.2,0.2,0.4,0.4,0.6
			c1.9,1.4,3.7,2.8,5.5,4.3c0.2,0.1,0.3,0.3,0.5,0.4c0.7,0.6,1.5,1.3,2.2,1.9c0.1,0.1,0.2,0.2,0.4,0.3c4.5,4,8.6,8.4,12.1,13.2
			c4.9,6.8,8.6,14.4,13.7,21.2c10.2,13.5,24.1,19,39,25.5c18.2,7.9,32.6,21.9,42.3,39.1c4.6,8.1,9.1,16.4,13,24.9
			c3.5,7.4,7.1,15.6,8.3,23.9c0.2,1.1,0.3,2.3,0.3,3.4c0,0.3,0,0.6,0,1c0.2,4.9-0.1,9.9,1,14.8c1.6,7.2,3.7,14.2,4.1,21.6
			c0.5,7.6,0.3,15.3,1.6,22.9c1.4,8.2,2.8,16.4,3.3,24.7c1,15.7-0.2,30.3-9.6,43.5c-8.6,12-20.2,19.7-31.3,29.2
			c-11.1,9.6-21.3,20.8-31.4,31.5c-10.2,10.9-17.5,23.1-23.3,36.7c-6.1,14.4-10.4,29.6-16.7,43.9c-2.8,6.3-5.7,13.9-10.8,18.7
			c-3.5,3.3-7.4,6.1-11.4,8.7c-0.4,0.3-0.8,0.5-1.2,0.8c-0.5,0.3-1.1,0.7-1.6,1c-17.3,10.3-38.3,9-57.5,13.9
			c-11.1,2.8-22.5,6.1-34.1,5.5c-12.3-0.7-24.6-2.4-36.6-4.6c-34.5-6.2-68.1-16.4-101-28.2c-32.1-11.5-62.6-29.2-88.6-51.3
			c-23-19.6-42.2-45-45.7-75.7c-1.6-14.2-1.4-28.4-0.6-42.6c0.8-14.9,5.4-29.5,13.3-42.2c0.1-0.1,0.2-0.1,0.2-0.2
			c15-22,29.3-49.6,29-77c-0.1-14.1-3.6-27.7-5.1-41.7c-1.8-16.2,1.6-30.9,4-46.8c2.4-15.5,0.8-31.1,1.7-46.8
			c0.9-16.8,3.7-33.3,9-49.3c2.7-7.9,5.9-15.6,8.6-23.6c2.3-6.8,4.2-13.8,6.8-20.5C159.3,128.5,167.7,118,179.2,110.2z"/>
		<path class="st0" d="M170.3,89.7c-23.2,13.3-37.9,37.2-48.3,61.2c-13.3,30.9-14.5,63.8-10,96.8c1.2,8.7,2.9,17.2,3.2,26
			c0.2,8.1-0.1,16.2-0.4,24.2c-0.5,15.4,0.5,30.7,0.1,46.1c-0.8,31-4.2,64.6-21.8,91.1c-0.2,0.3-0.2,0.6-0.1,0.9
			c-7.6,12.4-17.2,24.1-21,38.3c-2.6,9.8-4.7,20.7-5.2,30.8c-0.4,9.2,2.4,17.6,4.8,26.3c9.8,35.3,29.2,66.4,56.3,91.2
			c23.4,21.4,51.2,36.8,78.9,51.6c7.6,4,14.6,9.2,22.2,13.1c6.9,3.5,14.1,5.6,21.6,7.4c17,4.1,33.4,10.4,50.4,14.7
			c15.8,4,32.4,7.6,48.8,7.3c16-0.3,31.8-3.5,47.3-7.3c15-3.6,30.5-6.4,44.5-13.2c7.5-3.6,14.7-7.8,21.5-12.5c2.6-1.8,5.5-3.6,8-5.8
			c0.1-0.1,0.3-0.1,0.4-0.3c0.5-0.5,0.9-0.9,1.3-1.4c0,0,0,0,0.1-0.1c8.5-9.2,14-21,18.3-32.6c5.2-13.9,7.8-30.4,16.4-42.7
			c4.5-6.4,9.9-12.3,14.6-18.6c4.8-6.4,10.1-12.4,16-17.8c11.3-10.4,24.1-19,36.6-27.9c10.9-7.8,18.7-16.8,23.4-29.5
			c4.5-12.3,7.3-25.9,8.5-39c1.5-15.7-0.8-31.3-4.1-46.6c-3.2-14.9-9.4-30.2-7.6-45.6c0.8-7.4-0.8-15.2-2.4-22.4
			c-2-8.9-4.8-17.4-9.3-25.4c-9.6-17.2-23.4-33.1-41-42.5c-10.4-5.5-21.5-9.4-30.7-16.9c-7.5-6.1-13.7-13.4-18.9-21.6
			c-8.5-13.3-19-24.6-31.4-34.2l-0.1-0.1c-0.1-0.1-0.2-0.1-0.3-0.2c-1.3-1-2.7-2-4-2.9c-9-7.1-16.2-16.5-23.1-25.4
			c-9.3-12-18.7-23.4-30.3-33.3c-12-10.3-24.9-19.3-38.2-27.7c-21.4-13.4-43-26.4-67-34.7C258.6,74.7,208.4,67.7,170.3,89.7z
			 M188.7,84.1c43.4-13.8,94.2-2.8,134.1,17.1c12.5,6.2,24.5,13.6,36.4,21c14.3,8.9,28.5,18.2,41.3,29.2
			c11.6,10,21.3,21.1,30.7,33.2c6.9,8.9,14,18.2,22.7,25.6c0.1,0.2,0.2,0.3,0.4,0.5c0.5,0.3,0.9,0.7,1.4,1c1.4,1.1,2.9,2.2,4.5,3.3
			c5.7,4.4,11.1,9.2,16.1,14.3c6.5,6.8,11.2,14.4,16.6,22.1c10.3,14.7,23.1,24.4,39.4,31.9c19.6,9,35.5,23,46.6,41.4
			c4.9,8.2,9.1,17,11.1,26.4c1.9,8.6,4.4,17.7,2.8,26.5c0,0.1,0,0.3,0,0.4c-1,13.8,4,27,7,40.3c3.4,15.7,6.5,31.9,5,48
			c-1.3,14-3.9,28.9-9.3,42c-2.9,6.9-6.6,13.8-12.1,19c-5.2,5-11.5,8.9-17.4,13.1c-11.6,8.2-23.3,16.4-33.2,26.5
			c-5,5-9.3,10.4-13.6,16.1c-4.4,5.7-9.5,11-13.5,17c-7.9,12-10.6,26.8-15.5,40.1c-4.3,11.8-9.5,24-17.9,33.6
			c-0.1,0.1-0.2,0.1-0.2,0.2c-0.2,0.3-0.5,0.6-0.7,0.8c-0.5,0.5-0.9,1-1.4,1.5l0,0c-4.4,4.4-11,7.8-16,10.9
			c-7.6,4.5-15.4,8.7-23.8,11.6c-15.8,5.5-32.9,9-49.3,12.2c-18.3,3.6-36.1,4.7-54.6,1.7c-17.3-2.8-34.3-7.6-51-12.8
			c-8.6-2.7-17.2-5.5-26-7.6c-8.6-2.1-16.6-5-24.2-9.6c-14.6-8.8-30-16.2-44.5-25.2c-13.8-8.5-27.7-16.6-40.3-26.9
			c-11.5-9.4-22.2-19.9-31.6-31.5C89.5,575.1,76,547,70,517c-1.9-9.5-0.3-18.5,1.2-27.9c1.3-8.1,2.8-16.2,6.6-23.6
			c6.2-12.3,14.8-23.2,21-35.4V430c1.6-2.9,3.1-5.8,4.5-8.9c11.8-27.6,14-58.5,13.9-88.1c0-15.8-0.1-31.4,0.2-47.2
			c0.4-17-3-33.2-4.6-50.1c-3.5-35.7,2.1-70.7,20.3-102c7-12.2,15-24.5,26-33.5C167.8,93,177.9,87.5,188.7,84.1z"/>
		<path class="st0" d="M124,101.1c-29.6,35.5-38.5,83.2-32.9,128.2c2.1,16.6,3,33.4,5.6,49.9c2.9,17.7,6.6,35.6,7.5,53.5
			c0.9,18.4-1.6,35.8-5.6,53.7c-3.5,15.7-5.2,32.2-12,47c-0.1,0.2-0.1,0.3-0.1,0.5c-1.6,3.9-3.2,7.8-5.4,11.3
			c-3.8,5.8-8.6,11-11.8,17.2c-5.9,11.4-8.2,24.9-8.9,37.6c-1.3,23.1-1.4,48.4,8.2,70C90.4,619.5,142,645.9,184,675.8
			c14.4,10.3,30.6,17.9,46.5,25.6c15.3,7.4,30.3,16.6,46.7,21.3c17.5,5,35.4,7.7,53.4,10c15,2,30,4.2,45.2,3.2
			c28.5-1.8,55.5-13,77.4-31.2c11.5-9.5,22.5-20.5,30.5-33.1c9-14.1,18.8-27.5,28.1-41.5c0.1-0.2,0.2-0.3,0.2-0.5
			c0.8-1.1,1.5-2.2,2.4-3.3c5.2-7,11.5-12.9,17.8-18.9c5.8-5.6,11.9-11.1,16.9-17.4c4.3-5.3,8.1-11.2,12.7-16.2
			c9.6-10.3,22.9-16.2,33.7-25c9.6-7.8,16.4-17.2,20.7-28.8c4.3-11.7,6.7-24.1,7.3-36.5c0.4-8,0.3-16,0.4-24
			c0.1-6.4,0.9-13.3-0.2-19.6c-2.2-12.5-10-23-14.2-34.8c-3.9-11-8.5-23.8-7.4-35.7c0.1-0.7,0.2-1.4,0.3-2c0.1-0.3,0.1-0.6,0.1-1
			c0-0.2,0-0.4,0-0.5c1.2-15.2-2.8-30.8-9.5-44.5c-3.7-7.5-7.8-15.2-13.9-21c-5.4-5.2-11.6-9.2-18.1-12.9c-7.3-4.1-15.1-7.9-21.8-13
			c-8.2-6.2-13.6-14.1-18.8-22.8c-7.8-13.3-17.6-24.5-29.8-33.7c-0.1-0.1-0.2-0.3-0.4-0.4c-0.2-0.2-0.5-0.3-0.7-0.5
			c-1.6-1.2-3.3-2.3-5-3.5c-8.5-6.1-16.3-13.2-24.1-20.2c-9.3-8.3-17.5-16.6-25.1-26.6c-9.8-12.8-20.6-23-33.4-32.7
			c-13.4-10.2-25.9-22-40-31.1c-13.6-8.8-28.4-15.7-42.7-23.3c-14-7.4-27.9-13.3-43.7-14.9c-32-3.2-64.6-6.6-96.2,1.3
			C157.6,71.7,138.3,84,124,101.1z M157.8,76.6C185,62.8,216.7,62.3,246.4,65c17.6,1.6,35.8,1,52.5,7.6
			c15.7,6.2,30.7,14.9,45.5,22.9c7.3,3.9,14.5,8,21.1,12.8c7,5.1,13.4,11,20.2,16.4c13.2,10.3,28,19.6,38.9,32.4
			c10,11.7,18.4,24,30.1,34.3c9.1,8,18,16.3,27.7,23.5l0.1,0.1c0.2,0.2,0.5,0.3,0.7,0.5c1.5,1.1,3,2.1,4.5,3.1
			c6.5,4.7,12.6,10.1,18,16.1c5.9,6.5,10.1,13.8,14.5,21.2c4.1,6.8,8.5,13.3,14.8,18.2c5.4,4.3,11.3,7.8,17.3,11.1
			c7.3,4,14.9,7.8,21.3,13.2c6.3,5.3,11,11.7,14.8,19c7.9,14.9,13.4,32.1,11.7,49.1c-0.1,0.7-0.2,1.4-0.3,2.1
			c-0.1,0.5-0.1,1-0.2,1.4c0,0.2,0,0.4,0,0.5c-0.5,9.8,2.5,19.9,5.5,29c1.9,5.8,4,11.5,6.7,16.9c2.8,5.7,6.1,11.4,8,17.5
			c2.3,7.7,1.7,15.3,1.7,23.3c-0.1,7.7-0.1,15.4-0.3,23.1c-0.4,13.1-2.6,26.6-7.3,38.9c-5.6,14.3-14.6,24.4-27.3,33.1
			c-10.9,7.4-22.2,13.8-30.4,24.3c-5,6.5-9.7,13-15.5,18.9c-5.4,5.4-10.9,10.7-16.4,16c-5.4,5.3-9.9,11.1-14.2,17
			c-0.2,0.1-0.4,0.2-0.5,0.4c-7,10.6-15,20.6-21.7,31.4c-6.6,10.5-13.3,20.3-21.9,29.2c-15.8,16.4-34.9,30-56.6,37.4
			c-20.8,7.1-42.5,8.2-64.2,5.4c-26.2-3.4-55-5.2-79.4-16.1c-16.3-7.2-32.3-15.6-48.1-23.7c-8.2-4.2-16.6-8-24.3-13
			c-6.8-4.4-13.2-9.4-19.9-14.1c-28-19.5-58.2-36.7-80.9-62.7c-9.8-11.2-18.7-24-23.8-38c-5.1-13.9-6.1-28-6.5-42.7
			c-0.4-17.3,0-35,5.8-51.5c3.1-8.7,8.8-15,13.8-22.6c3.2-5,5.3-10.5,7.6-15.9c0.1-0.2,0.2-0.4,0.3-0.6c0.2-0.5,0.4-1,0.7-1.5
			c0-0.1,0.1-0.2,0.1-0.3c5.5-14.3,7-29.8,10.7-44.6c4.1-16.3,6.1-33.3,5.3-50.2c-0.8-16.8-4.4-33.3-6.7-50
			c-2.5-17.8-4-35.6-6.3-53.4c-1.5-11.9-2.6-23.6-2-35.6C93.8,149.6,114.5,98.6,157.8,76.6z"/>
		<path class="st0" d="M81.6,147.8c-5,16.6-7.9,33.2-9.3,50.5c-2.7,33.1-6.6,66.2,1,99c7.1,30.4,20.9,61.3,15.9,93.1
			c-2.3,14.9-7.2,28.9-12.6,42.9c-2.3,5.9-4.6,11.8-7.3,17.5c-0.8,1.7-1.7,3.6-2.7,5.5l-0.1,0.1c-1.5,3.1-4.2,5.2-6.6,7.5
			c-2.4,2.3-4.4,4.8-6.6,7.3c-4,4.6-7.6,9.3-9.4,15.2c-4.2,13.1-4.5,26.5-5.4,40.1c-0.7,11.7,0.2,25.4,4.9,36.4
			c5.4,12.6,10,25.7,17.6,37.3c0.1,0.2,0.2,0.3,0.4,0.4c2.8,3.9,6.2,7.3,9.5,10.8c5.2,5.5,10,11.1,15.5,16.2
			c11.9,11.1,22.4,23.3,33.9,34.7c11.6,11.5,24.8,19.9,38.7,28.3c14.5,8.8,29.3,17.2,44.5,24.6c15.3,7.4,31,14.1,47.3,19.2
			c16.8,5.3,34.1,8.6,51.5,11.8c16.6,3.1,33.3,5.7,50.2,6.9c8.8,0.6,17.6,1.1,26.4,0.1c7.9-0.9,15.8-2.4,23.7-3.2
			c30.5-3.3,59.7-16.9,84.7-34.2c12.4-8.6,22.8-18.5,32.2-30.2c8.5-10.5,16.7-21,22.4-33.2c0.1-0.1,0.2-0.2,0.2-0.3
			c0.7-1.4,1.3-2.8,1.8-4.3l0,0l0,0c1.2-3.2,2.1-6.5,3.3-9.6c2.5-6.6,6.6-12.8,11.4-18.1c10.6-11.7,23.2-21.3,33.6-33.1
			c19.9-22.7,36.3-47.1,45.3-76.2c8-26.1,12.3-55.6,0.7-81.3c-6.3-14-14.7-27.3-17.9-42.4c-2.2-10.4-3-21-4.9-31.4c0,0,0,0,0-0.1
			c0-0.2-0.1-0.4-0.1-0.6c-0.5-2.7-1-5.4-1.7-8.1c0-0.2-0.1-0.3-0.2-0.5c-2.7-10.5-6.7-21.2-11.9-30.4c-3.8-6.8-8.5-13.6-14.7-18.5
			c-7.2-5.6-15.2-10-22.2-15.8c-7.5-6.2-13.5-13.4-18.7-21.6c-2.5-4-4.8-7.8-6.6-12.2c-1.3-3.3-2.5-6.7-4.4-9.7
			c-5.2-7.8-13.4-13.6-21.7-18.8c-0.1-0.2-0.2-0.3-0.4-0.4c-2.7-1.6-5.5-3.3-8.2-5c-0.5-0.3-1-0.7-1.5-1c0,0-0.1,0-0.1-0.1
			c-6.2-3.9-12.2-8.1-17.7-12.9c-8.2-7.3-15.5-15.7-23.1-23.6c-16.1-16.9-32-33.8-48.3-50.4c-11.4-11.6-22.8-23.7-35.5-34
			c-12.6-10.2-27.2-17.2-41.5-24.6c-30.2-15.7-61.6-27.5-95.4-32.5c-16.5-2.4-33.4-0.8-49.9,0.3c-13.4,0.9-26,2.4-38.5,8
			c-24,10.3-44.7,30.1-53.7,54.8C93.3,114.5,86.7,130.9,81.6,147.8z M83.7,148.3c5.2-16.8,11.5-33.3,17.8-49.7
			C112,71.4,136.5,49,164.7,41c15.2-4.3,31.7-4.5,47.4-5.1c17.8-0.7,34.9,1.2,52.2,5.5c34.4,8.5,66.8,23.7,97.4,41.5
			c14,8.2,25.2,19.5,36.8,30.7c13.1,12.5,25.5,25.8,38,38.9c12.5,13.1,25,26.4,37.6,39.4c8.4,8.7,17.6,15.9,27.5,22.4
			c0.1,0.1,0.2,0.3,0.4,0.4c11.8,7.7,27.6,15.5,33.4,29.1c6,14.3,14,28,26.2,38.1c6.7,5.6,14.2,10.1,21.2,15.1
			c7.2,5.1,12.7,12.2,16.9,19.9c6.2,11.4,10.9,24.8,13.5,37.6c2,10.9,2.7,22,5.2,32.8c3.1,13.5,9.7,25.3,15.6,37.6
			c6.5,13.6,9.9,26.8,9.2,42c-0.8,16-3.8,31.8-8.9,46.9c-10.2,29.8-28,56.6-50.5,78.7c-10.1,9.9-22,18.8-30.4,30.4
			c-3.3,4.5-6.2,9.1-8.1,14.3c-1.1,3.1-2.1,6.4-3.3,9.5l-0.1,0.1c-5.5,13.8-14.6,25.3-23.8,36.8c-8.1,10.1-16.7,19.1-27.2,26.7
			C470.5,725,446.6,737.9,422,744c-8.4,2.1-16.8,3-25.4,4.2c-8.4,1.2-16.9,2.8-25.5,3c-17.8,0.4-36-2-53.5-4.9
			c-35.6-5.9-70.2-13.7-103.1-28.8c-16.1-7.4-31.7-15.7-46.9-24.8c-14.9-8.8-30.3-17.5-42.7-29.6c-11.6-11.2-21.9-23.7-33.7-34.6
			c-6.1-5.7-11.6-11.6-17.3-17.7c-4.9-5.2-10.1-10.1-13.3-16.5c-0.1-0.2-0.2-0.3-0.4-0.4c-5.5-9.7-9.5-20.3-13.8-30.5
			c-5.2-12.3-5.5-25.9-5.2-39c0.3-12.8,0.9-27.3,5.8-39.2c2.7-6.5,7.6-12.7,12.6-17.6c0.8-0.8,1.6-1.5,2.5-2.3
			c0.2,0,0.3-0.1,0.5-0.2c8.2-5.8,11.8-18.9,15.2-27.8c5.9-15,11.7-30.3,14-46.4c4.2-30.2-6.9-58.4-14.2-87.2
			c-4.2-16.5-6.5-33.3-6.4-50.3c0.1-17.1,1.9-34.1,3.3-51.1C75.7,183.9,78.3,166.1,83.7,148.3z"/>
		<path class="st0" d="M73.7,119.9C69.3,135.2,63,150.6,61,166.5c-2.1,15.8,2.7,30.5,3.6,46.1c1,16.6-2.4,32.8-2.6,49.3
			c-0.6,32.7,5.9,64.6,11.1,96.7c2.8,16.9,2.1,34.2-4.1,50.3c-4.9,12.7-12.2,24.2-20.2,35.2c-0.1,0.1-0.2,0.1-0.3,0.3
			c-1.5,1.9-3,3.9-4.4,5.9c-0.3,0.4-0.5,0.7-0.8,1.1c-0.1,0.2-0.2,0.3-0.2,0.5c-7.1,10.8-12,22.8-15.9,35.2
			c-2.5,7.9-5.3,16.1-6.6,24.3c-1.3,7.7-1,15.4,0.1,23.1c2.1,15.7,3.9,32.7,10.3,47.3c5,11.3,12,22.5,19.5,32.7
			c4.3,6.5,9.8,12.4,14.4,18.6c6.1,8.1,12,16.6,18.5,24.4c13.1,15.7,28.8,28.9,45.7,40.3c17.6,11.9,36.3,22.2,55.8,30.8
			c19.2,8.5,39.2,15.1,59,22.4c16.8,6.2,33.4,11.1,51.2,13.8c17.8,2.6,35.5,5.9,53.4,8.5c16.4,2.4,33.4,3.5,50,2.7
			c14.7-0.7,29.4-3.8,43.6-7.4c13.2-3.3,26.4-7.8,37.5-15.8c12.2-8.8,22.4-20.6,31.5-32.4c5.3-6.9,10.4-14,14.9-21.5
			c4.4-7.2,8.2-14.6,13.5-21.2c4.8-5.9,9.7-12,15-17.5c4-4.1,8.2-8,12-12.4c0.1-0.1,0.1-0.1,0.1-0.2c8.3-9.4,14-20.9,22.1-30.6
			c9.9-11.9,20.3-23.3,29.5-35.9c18.5-25.1,36.5-52.3,42.9-83.3c2.8-13.7,5.7-29.5,3.6-43.5c-1.9-13.1-9.2-24.6-14.2-36.6
			c-2.8-6.7-6.8-12.6-10.1-19.1c-3.6-7.1-5.2-15.1-6.9-22.9c-1.8-8-4.1-16.4-4.7-24.5c-0.3-4.4-0.3-8.8-0.9-13.1c0-0.1,0-0.1,0-0.2
			c0-0.4-0.1-0.7-0.2-1l0,0c-1.7-10.2-7.4-19.6-13.7-27.7c-7.8-10.1-16.9-19.4-27.2-26.9c-7.4-5.4-14.3-11.2-16.8-20.3
			c-1.8-6.6-3.9-12.3-7.7-18.1c-5.6-8.3-12.4-17-20-23.9c0-0.1-0.1-0.1-0.1-0.2c-0.3-0.3-0.6-0.5-0.9-0.7c-0.8-0.7-1.6-1.5-2.5-2.2
			c-0.1-0.1-0.3-0.2-0.4-0.2c-10-7.7-21.7-12.7-32.2-19.6c-12.6-8.2-24.6-17.5-35.5-27.8c-22-20.9-41.1-44.6-62-66.6
			c-11.4-12-23.1-22.4-37.1-31.3c-13.9-8.8-27-19-41.2-27.2c-14.4-8.4-30.2-13-46.2-17.4c-16.7-4.6-33.3-7-50.5-8.9
			c-14.8-1.6-29.8-6.3-44.8-4.8c-13.5,1.4-25.9,6.4-38.6,10.7c-12.5,4.2-25,8.4-35.7,16.5C103,49.1,94.9,62.4,89,75.5
			C82.4,89.8,78,104.8,73.7,119.9z M75.3,122.3c8.6-29.9,17.8-67.8,46.9-84.6c12.4-7.1,26.6-11.2,40.1-15.8
			c13-4.4,26.2-7.9,40.1-6.4c8.3,0.9,16.5,2.9,24.8,4c8.9,1.1,17.8,1.8,26.7,3.1c17.7,2.7,34.8,7.8,51.9,13.1
			c16.6,5.2,30.2,14.9,44.4,24.7c14.1,9.8,29.8,17.6,42.4,29.5c24.6,23.1,45.1,50.1,69,73.8c11.4,11.3,23.5,21.8,36.8,31
			c12.8,8.8,27.7,14.9,39.7,24.7c9.2,7.9,18.2,18.7,24.2,29c3.5,6.1,4.5,12.6,7.1,19c2.2,5.6,7.1,9.9,11.7,13.6
			c9.6,7.8,19,15.1,27,24.6c7.1,8.5,14.5,18.4,17,29.5c0,0.2-0.1,0.3,0,0.5c1.6,6.3,0.6,12.9,1.9,19.2c1.4,7.2,2.7,14.5,4.3,21.6
			c1.5,6.6,2.7,13.8,5.5,20c2.9,6.5,7.2,12.3,10.1,18.7c3.1,7,6,14,9.4,20.8c2.7,5.6,5.2,11.4,6.1,17.5c2.2,14.7-0.5,31.4-3.8,45.8
			c-7.2,30.7-24.8,57.4-43.4,82.4c-9.6,12.9-20.6,24.5-30.6,37.1c-7.9,9.9-13.4,21.8-22.7,30.7c-0.2,0.2-0.3,0.5-0.3,0.7
			c-8.7,9.6-18.2,18.5-26,29.1c-5.5,7.5-9.5,15.8-14.6,23.6s-10.6,15.3-16.6,22.4c-11.5,13.6-23.9,26.6-40.6,33.8
			c-14.6,6.3-30.2,9.2-45.8,12.3c-36,7.2-71.9-2-107.5-6.8c-17.5-2.4-35.1-4.8-51.8-10.7s-33.4-11.9-50-18.1
			c-32.4-12.2-64.1-28.3-91.5-49.5c-14.5-11.2-27.3-23.9-38.4-38.6c-5.3-7.1-10.5-14.3-16-21.2c-2.1-2.6-4.3-5.2-6.4-7.8v-0.1
			c-1.7-2.2-3.3-4.5-4.9-6.9c-0.5-0.8-1.1-1.6-1.5-2.5c-0.1-0.2-0.2-0.3-0.4-0.4c-1.9-2.8-3.7-5.7-5.5-8.6
			c-4.4-6.7-8.8-13.5-11.6-21c-5.5-14.8-7.8-31.1-9.7-46.7c-1.9-15.7,2-30.1,6.7-45c4-12.6,9-24.9,16.4-35.8
			c14-18.2,27.3-38.3,30.3-61.5c3.1-24-3.8-48.1-7.4-71.8c-2.5-16.8-4.5-33.7-4.5-50.7c0-16.6,3.5-33.1,3-49.7
			c-0.5-15.8-6.1-31.9-4.4-47.7C64.5,154,70.8,138.2,75.3,122.3z"/>
		<path class="st0" d="M46,140.4c-6.2,32.7-8.3,65.7-3.9,98.7c2.1,15.4,5.3,30.6,8.4,45.9c3.5,17.1,4.6,34.6,3.9,52
			c-0.7,16.9-1.5,34.7-7.9,50.5c-5.3,13.2-13.4,25-20.5,37.3c-0.2,0.3-0.4,0.6-0.5,0.9c-0.5,0.9-1,1.7-1.5,2.5
			c-0.1,0.1-0.1,0.3-0.1,0.4C5.8,462.5-0.3,502.1,0,540.1c0.3,38.5,6.1,76.2,26.7,109.5C56,697,103.3,728.2,150.9,755.2
			c59.7,33.9,124,68.3,194,71.8c51.2,2.6,103.1-12.7,143.1-45c10.2-8.2,19.7-17.4,28-27.4c8.8-10.6,15.4-22.3,23.3-33.5
			c9.5-13.4,20.9-25.3,32.6-36.8c5.9-5.8,12.2-11.4,17.5-17.7c1.2-1.5,2.3-3,3.3-4.6c0.2-0.1,0.3-0.2,0.5-0.5
			c0.3-0.6,0.5-1.1,0.8-1.7c1.8-3.2,3.4-6.5,4.9-9.8c0.1-0.2,0.1-0.4,0.1-0.5c2.4-5,4.8-10,7.5-14.8c8.5-15.2,16.6-31,26.3-45.5
			c9.2-13.9,19.8-27.2,26.9-42.3c7.1-15.3,9.1-31.2,12.1-47.6c1.5-8,3.4-15.9,3.9-24.1c0.5-8-0.5-15.7-1.3-23.7
			c-1.4-14.8-1.7-29.9-10.2-42.7c-4-6.1-8.9-11.8-12-18.4c-3.2-6.7-6.5-13.4-9.5-20.3c-3.1-7.4-6.2-15.4-6.6-23.6
			c-0.1-2.2-0.2-4.3-0.2-6.4c0-1.2-0.1-2.4-0.1-3.6c0-1.1-0.1-2.3-0.1-3.4V333c-0.3-9.3-1.1-18.5-5.4-27
			c-5.5-10.9-14.4-17.8-24.3-24.5c-6.4-4.4-13-8.9-18.1-14.8c-5.6-6.5-7.1-13.4-10.1-21.2c-2.2-5.7-5.1-11.3-8.9-16.2
			c-4.1-5.2-9.2-8.9-13.8-13.5c-0.2-0.2-0.4-0.3-0.6-0.3c-12.6-10.8-26.7-20-40.4-29.3c-16.8-11.4-32.7-23-46.2-38.3
			c-13-14.7-24.3-31-38-45.1c-15.1-15.6-32.4-29.9-49.4-43.5C332.3,20.3,270.7-3,208,0.3c-48.9,2.6-98.3,20-129.3,59.3
			C60.4,82.8,51.4,111.8,46,140.4z M57,106.4C65.8,80,80.2,56.5,102.2,39c41.2-32.7,99.7-42.5,151-34.5c33.6,5.2,68.2,17.3,97,35.5
			c14.6,9.2,28.2,19.9,41.3,31.1c12.6,10.8,25.7,21.3,37.1,33.3c20.5,21.6,36.2,48.2,60.1,66.5c22.9,17.5,48.8,31.3,69.9,51.1
			c0.1,0.1,0.3,0.2,0.4,0.3c3.4,3,6.8,6,9.4,9.9c3.9,5.8,6.9,12,9,18.8c3.7,12.3,11.3,20.8,21.7,28.3c10.7,7.7,22.6,14.3,28.8,26.5
			c5.7,11.3,5.7,23.2,6,35.6c0,0.2,0,0.3,0.1,0.4c0.7,11,3,20.9,7.7,31.3c3.2,7.2,6.3,14.8,10.3,21.6c3.5,5.8,7.8,11,11.3,16.8
			c4.9,8.1,6.7,16.7,7.7,26c0.8,8.1,1.9,16.2,2.5,24.3c1.4,17.2-3.2,34.3-6,51.2c-2.9,17.6-8.7,33.3-18.3,48.4
			c-9,14.1-19.7,27.3-27.4,42.2c-6.5,12.5-14.2,24.3-20.5,37c-2.5,5-4.9,9.9-7.4,14.9c-3.3,6-7.2,11.4-12.4,16.5
			c-6.4,6.3-12.8,12.5-19.1,18.9c-12.2,12.5-22.8,25.7-32.1,40.4c-16.1,25.7-38,47.6-63.9,63.4c-50.3,30.6-109.7,36.8-166.7,23.4
			c-35.1-8.3-68.4-22.4-100.4-38.9c-29.5-15.2-59-31.2-86.7-49.5C66.8,699.2,24,658.9,9.4,604.3c-7.9-29.7-8.8-62.5-6-92.9
			c2.7-29.9,9.9-59.8,25-85.9c0.2-0.3,0.3-0.6,0.5-0.8c0.9-1.6,1.9-3.2,2.9-4.7c0.1-0.1,0.1-0.2,0.1-0.2
			c7.1-11.8,14.6-23.5,18.7-36.6c5.7-18.2,6.5-38.8,6.2-57.8c-0.5-38.8-14-75.9-15-114.7C40.9,175.8,46.1,139.4,57,106.4z"/>
	</g>
</g>
</svg>
