<?xml version="1.0" encoding="utf-8"?>
<!-- Generator: Adobe Illustrator 23.0.1, SVG Export Plug-In . SVG Version: 6.00 Build 0)  -->
<svg version="1.1" id="Layer_9" xmlns="http://www.w3.org/2000/svg" xmlns:xlink="http://www.w3.org/1999/xlink" x="0px" y="0px"
	 width="135.8px" height="7.2px" viewBox="0 0 135.8 7.2" style="enable-background:new 0 0 135.8 7.2;" xml:space="preserve">
<style type="text/css">
	.st0{fill:#FCB526;}
	.st1{fill:#001F1F;}
	.st2{fill:#FFFFFF;}
	.st3{fill:url(#Path_16_1_);}
	.st4{fill:#182D26;}
	.st5{fill-rule:evenodd;clip-rule:evenodd;fill:#153329;}
	.st6{fill:#1B312A;}
</style>
<path class="st0" d="M125,0c-3.3,0-5.1,1.3-6.6,2.4c-1.4,1-2.5,1.8-4.8,1.8s-3.5-0.8-4.8-1.8c-1.5-1.1-3.3-2.4-6.6-2.4
	c-3.3,0-5.1,1.3-6.6,2.4c-1.4,1-2.5,1.8-4.8,1.8c-2.4,0-3.5-0.8-4.8-1.8C84.4,1.3,82.7,0,79.3,0c-3.3,0-5.1,1.3-6.6,2.4
	c-1.4,1-2.5,1.8-4.8,1.8c-2.4,0-3.5-0.8-4.8-1.8C61.5,1.3,59.8,0,56.5,0c-3.3,0-5.1,1.3-6.6,2.4c-1.4,1-2.5,1.8-4.8,1.8
	c-2.4,0-3.5-0.8-4.8-1.8C38.7,1.3,37,0,33.6,0c-3.3,0-5.1,1.3-6.6,2.4c-1.4,1-2.5,1.8-4.8,1.8c-2.4,0-3.5-0.8-4.8-1.8
	C15.9,1.3,14.1,0,10.8,0C7.4,0,5.7,1.3,4.2,2.4C2.9,3.3,1.9,4.1,0,4.2v3C2.9,7,4.5,5.9,6,4.8C7.3,3.8,8.4,3,10.8,3s3.4,0.8,4.8,1.8
	c1.5,1.1,3.3,2.4,6.6,2.4c3.3,0,5.1-1.3,6.6-2.4c1.4-1,2.5-1.8,4.8-1.8s3.5,0.8,4.8,1.8c1.5,1.1,3.3,2.4,6.6,2.4
	c3.3,0,5.1-1.3,6.6-2.4C53,3.8,54.1,3,56.5,3c2.4,0,3.5,0.8,4.8,1.8c1.5,1.1,3.2,2.4,6.6,2.4c3.3,0,5.1-1.3,6.6-2.4
	C75.9,3.8,77,3,79.3,3c2.4,0,3.5,0.8,4.8,1.8c1.5,1.1,3.3,2.4,6.6,2.4c3.3,0,5.1-1.3,6.6-2.4c1.4-1,2.5-1.8,4.8-1.8
	c2.4,0,3.5,0.8,4.8,1.8c1.5,1.1,3.3,2.4,6.6,2.4c3.3,0,5.1-1.3,6.6-2.4c1.4-1,2.5-1.8,4.8-1.8c2.4,0,3.5,0.8,4.8,1.8
	c1.4,1.1,3,2.2,6,2.4v-3c-1.9-0.1-2.9-0.9-4.2-1.8C130.1,1.3,128.4,0,125,0z"/>
</svg>
