<svg version="1.1" id="topog" xmlns="http://www.w3.org/2000/svg" xmlns:xlink="http://www.w3.org/1999/xlink" x="0px" y="0px"
	 width="799.1px" height="915.2px" viewBox="0 0 799.1 915.2" style="enable-background:new 0 0 799.1 915.2;" xml:space="preserve"
	>
<style type="text/css">
	.topog-st0{fill:#1B312A;}
	.topog-st1{fill-rule:evenodd;clip-rule:evenodd;fill:#143329;}
	.topog-st2{fill:#FCB526;}
	.topog-st3{fill:#FFFFFF;}
	.topog-st4{fill:url(#Path_16_1_);}
	.topog-st5{fill:#182D26;}
</style>
<g>
	<g>
		<path class="topog-st5" d="M438.7,494.6c8.1-3.5,2.6-17.1-5.7-18.3c-5.2-0.7-9.3,3.9-7.8,9c1.3,4.6,5.1,8.9,9.9,9.6
			c0.3,0.3,0.6,0.4,1.1,0.4c0.6-0.1,1.2-0.2,1.7-0.4c0.1,0,0.2,0,0.3,0C438.4,494.8,438.6,494.7,438.7,494.6z M437.3,492.3
			c-4.5,0.6-9-3.8-9.6-8.1c-0.6-4.1,3.1-6.6,6.7-4.8C439,481.7,443.2,490.2,437.3,492.3z"/>
		<path class="topog-st5" d="M430.4,502.7c5.3,1.6,11.6,0.3,15.4-3.8c3.5-3.7,3.5-7.9,2-12.6c-1.3-3.9-2.6-6.8-2.6-11c0-2.8-0.4-5-1.7-7.4
			c-4.5-8.1-19.5-0.6-22.4,5.4c-3.8,7.9-2.8,17.4,2.5,24.1c0,0.2,0.1,0.3,0.2,0.5c1.2,1.8,2.9,3.1,4.8,4.1c0.3,0.2,0.6,0.4,0.9,0.6
			C429.7,502.7,430.1,502.8,430.4,502.7z M430,499.8c-7.3-4.7-11.4-15.5-7.5-23.8c2.5-5.2,6.8-7.4,12.3-8.5c7.9-1.6,7.6,6.3,7.7,11
			c0.1,6.1,7.9,13.9,0.8,19C439.4,500.4,434.2,501.6,430,499.8z"/>
		<path class="topog-st5" d="M431,508.4c12.5,0.6,25.6-5.2,22.2-19.9c-0.9-3.9-2.4-8.4-1.1-12.4c1.2-3.6,2.2-7,2.2-10.8
			c0-6.3-4.5-11.1-10.2-12.9c-15.8-5-27.4,16-30.1,28.3c-1.6,7.5-1.4,15.2,4.1,21.3C421.1,505.3,426.2,508.7,431,508.4z
			 M432.1,505.8c-0.2-0.1-0.4-0.1-0.7-0.1c-0.2,0-0.3,0-0.5,0c-0.9-0.1-1.8-0.2-2.7-0.3c-0.1,0-0.2,0-0.4,0
			c-5.8-1.5-10.8-8.4-11.8-13.5c-1.1-6,0.5-12.3,2.8-17.9c2.3-5.6,5.5-11.6,10.6-15.3c5.7-4.2,17.3-7.5,21,1.6
			c2.9,6.9-1,11.2-1.3,17.8c-0.1,3.3,0.5,6.3,1.2,9.5c1,4.4,2.2,9.8-1.9,13.2C443.5,504.9,438,506.1,432.1,505.8z"/>
		<path class="topog-st5" d="M428.2,513.8c9.7-0.3,22.4-1.2,29.1-8.9c5.5-6.3,4.1-14.2,2.8-21.9c-0.5-2.9-1.3-6.1-0.8-9
			c0.7-3.3,2.1-6.2,2.9-9.4c1.2-4.3,1.2-8.6,0.2-12.9c-1.8-8-9.8-12.8-17.7-11.5c-18.7,3.1-34.3,22-38.6,39.6
			c-2,8.1-0.4,21.9,5.7,28.3c3.6,3.8,9,5.4,14.3,5.6c0.2,0.1,0.3,0.1,0.5,0.1c0.4,0,0.8,0,1.2,0C428,513.8,428.1,513.8,428.2,513.8z
			 M434,510.9c-0.2-0.1-0.5-0.2-0.8-0.1c-1,0.2-2.1,0.3-3.2,0.4c-0.7,0-1.4,0.1-2,0.1c-7,0-14.2-2.4-16.8-9.5
			c-3.4-9.3-4.4-18.8-0.3-28.1c5.9-13.1,18.8-29.4,34.4-30.8c13-1.2,17.9,11.8,14,22.6c-2.3,6.5-2.9,11.3-1.7,18.1
			c1.2,6.9,3,15.7-3.3,20.7C448.6,508.7,441.3,510.3,434,510.9z"/>
		<path class="topog-st5" d="M445.1,517.9c5.1-0.9,11.7-2.1,15.3-6.2c7.6-8.8,6.6-20.8,5.8-31.5c-0.9-12.2,7.9-22.6,4.3-34.9
			c-2.5-8.5-11.8-15.5-20.8-14c-12.3,2-25.4,10.7-34.2,19.4c-7.6,7.4-12.8,19.1-14.9,29.4c-1.9,9.3-2.2,23.2,3.5,31.4
			c4.1,5.8,10.4,8.2,17.1,8.7c0.3,0.2,0.6,0.3,1,0.3c1-0.1,2-0.2,3-0.3c1.1-0.1,2.2-0.2,3.3-0.3C434,519.3,439.6,518.8,445.1,517.9z
			 M450.5,514.1c-6.8,1.7-13.9,2.4-21,3.1c-0.2,0-0.3-0.1-0.5,0c-0.6,0.1-1.1,0.2-1.6,0.2c-0.7,0.1-1.3,0.1-2,0.2
			c-11,0.6-19.8-4.3-22.1-16.2c-2-10.4-1.1-20,2.9-29.8c3.8-9.4,7.9-16.5,15.9-22.8c7.4-5.9,19.8-15.6,30-14.9
			c14.9,1.1,19.5,15.9,14.8,28.2c-2.7,7.1-3.9,13-3,20.6C465.1,494.3,464.4,510.6,450.5,514.1z"/>
		<path class="topog-st5" d="M432.6,525.5c7.3-2.9,15.7-0.2,22.8-3.7c5.4-2.7,9.4-6.3,12.3-11.7c6.6-12.4,3.5-27.8,7.8-40.9
			c2.1-6.5,6.7-12.4,7.2-19.4c0.4-5.9-0.7-12.3-3.5-17.7c-5.1-9.8-15.1-16.4-26.4-12.9c-14.5,4.5-30.3,12.4-40.4,24.1
			c-5.6,6.6-8.7,14.2-12.6,21.8c-3.6,7-7.2,13.8-8.7,21.6c-2.2,10.7-1.4,26.5,7.7,34.2c9.6,8.1,22.1,8.9,33.4,4.6
			C432.3,525.6,432.5,525.5,432.6,525.5z M444.5,521.2c-3.9,0.1-7.8,0.3-11.5,1.5c-0.2,0-0.4,0-0.7,0.1
			c-12.3,5.2-30.8,3.7-36.7-10.6c-5.4-13.1-2.9-27.4,3.3-39.7c6.1-12,10.8-24.6,21.6-33.3c5.8-4.7,12-8.6,18.8-11.7
			c6.1-2.9,13.5-7,20.5-6.4c12.8,1,21.2,14.7,20.4,27c-0.4,6.3-3.6,10.8-5.8,16.5c-2,5.3-3.2,10.7-3.8,16.3
			c-1.1,10.2-0.7,23.4-7.5,31.8C458.3,518.5,452,520.9,444.5,521.2z"/>
		<path class="topog-st5" d="M441.4,530.9c16.1-2.1,31.6-4.6,35.5-22.8c2-9.4,2.8-18.9,5.5-28.2c2.5-8.5,6.4-16.5,8.7-25
			c3.7-13.8,2.4-28.3-8-39c-4.6-4.7-10.6-9-17.5-8.8c-7.5,0.1-14.9,2.3-22,4.7c-16.3,5.4-30.4,18.8-40.6,32.1
			c-5.4,7-12,13.4-15.8,21.4c-3.3,6.9-5.5,14.5-6.2,22.1c-1.4,14.8,0.5,30.9,12.1,41.2c5.1,4.6,12.2,7.1,18.9,8.2
			c7.4,1.2,12.5-0.7,19-3.6C434.3,532.1,437.8,531.4,441.4,530.9z M431.8,530.5c-0.3-0.1-0.6-0.1-0.9,0.1c-0.5,0.2-0.9,0.4-1.4,0.7
			c-1.2,0.4-2.3,0.9-3.5,1.4c-0.3,0.1-0.4,0.4-0.6,0.6c-1.8,0.8-3.7,1.5-5.6,1.6c-4.7,0.3-9.1-0.6-13.6-2c-7.6-2.3-14.7-7-18.4-14.3
			c-6.7-13.1-6.1-30.8-1.5-44.4c2.6-7.6,6.6-13.9,11.7-20.1c5-6.1,9.5-13.3,15.3-18.6c12.3-11.2,24.4-19.8,40.7-23.9
			c7.9-2,15.9-3,22.8,2.5c6.1,4.9,11.4,12.1,12.8,20c2.7,15.5-5.2,28.5-9.3,42.8c-2,6.8-3.6,13.7-4.7,20.7c-1,6.9-1.2,15-6,20.7
			C460.6,529.1,444.8,526.8,431.8,530.5z"/>
		<path class="topog-st5" d="M427.4,542.1c13.2-7.5,29.7-0.4,43.5-5.7c5.8-2.3,10.5-6.5,12.3-12.6c1.4-4.7,1.7-9.3,2-14.2
			c0.4-5.9,1.7-11.8,3.3-17.4c4.5-15.2,13.6-29.6,15.4-45.5c1.4-12.6-1.9-28.4-10.5-38.1c-8.7-9.9-23.1-12-35.3-8.5
			c-14.6,4.3-29.2,12.2-41.7,20.9c-13,9-24.8,20.2-31.6,34.7c-6.5,13.8-11.6,30-11.8,45.4c-0.2,13.7,3.6,28,15.5,36.1
			c6.8,4.7,14.2,6.3,22.3,6.9c3.1,0.2,6.5,1,9.6,0.6c2.5-0.3,4.5-1.3,6.5-2.3C427,542.2,427.2,542.2,427.4,542.1z M461.7,535.6
			c-9.6,0.8-20.4-1-29.9,1.8c-0.2,0-0.4,0-0.6,0c-5,1.6-8.6,5.1-14.3,4.4c-5.3-0.6-10.7-0.5-15.9-1.9c-20.3-5.4-27.3-25.5-25-44.7
			c2-16.7,7.5-35.5,17.5-49.1c10.8-14.8,26-25.3,42.2-33.6c14.9-7.6,33.4-17.3,49.7-7.5c14.3,8.7,18.8,31.4,15,46.6
			c-4.2,16.8-12.9,31.9-16.5,48.9c-1.8,8.4,0.1,18.9-4.9,26.3C474.9,532.9,468.5,535.1,461.7,535.6z"/>
		<path class="topog-st5" d="M457,549.7c9-0.5,18.4-2.4,25.2-8.9c5.9-5.7,9.4-12.5,10.4-20.7c1.4-11.2,4-22.4,6.7-33.3
			c4.2-16.8,15.1-30.5,15.3-48.5c0.2-16.6-5.5-30.7-18.7-41.3c-5.2-4.2-11.5-9.2-18.6-8.8c-7,0.4-13.6,2.9-20,5.7
			c-16.8,7.5-35.2,13.7-50,25c-7.5,5.7-12.9,13.4-19.3,20.3c-5.2,5.6-10.8,11.3-14.4,18.1c-7,13.2-9.4,31.5-8.4,46.3
			c1.2,17.3,7.5,34.7,22.8,44.5c6,3.8,12.9,6.8,20.1,6.9c4.3,0,8.2-1.4,12.2-2.4c0.2,0.2,0.6,0.3,1,0.2c1.6-0.4,3.2-0.8,4.7-1.1
			c0.2,0,0.5-0.1,0.7-0.1c0.3,0,0.5-0.1,0.7-0.2c4.4-1,9-1.8,13.5-1.8C446.3,549.4,451.7,550,457,549.7z M445.9,546.9
			c-6.9-0.1-13.6,0.7-20.2,2.2c-6.6,0.6-12.3,4.1-19.3,3.2c-22.3-2.7-36.3-23.5-38.3-44.7c-1.7-18.1,0.7-41.1,12.3-55.7
			c11.8-15,24.8-30.1,41.9-39c9.1-4.7,18.3-8.9,27.8-12.9c8.3-3.5,17.8-9.5,27.1-9.2c9.8,0.3,19.1,8.7,25,15.9
			c6.8,8.2,10,18.6,9.9,29.2c-0.1,10-2.3,19.4-6.6,28.4c-3.7,7.8-7.2,15.1-9.1,23.6c-2,9-4.3,18-5.7,27.2c-1.5,9.8-3.4,19-12,25.2
			C468.7,547.5,457.6,547.1,445.9,546.9z"/>
		<path class="topog-st5" d="M466.6,558.9c14.9-1.8,24.1-10.1,29.9-23.8c6.4-15.2,6.5-32,11.9-47.6c5-14.6,14.3-27.1,15.4-43.1
			c1-14.6-3.6-32.4-12.5-44.1c-9.1-11.9-23.5-18.7-38.4-18.3c-8.7,0.2-16.4,4.4-24.1,8c-4.1,1.9-8.4,3.5-12.5,5.6
			c-4.2,2.1-7.6,4.9-11.6,7.3c-8.9,5.2-18.8,8.3-27.5,13.7c-6.5,4.1-12,10.1-16.7,16c-10.5,13.1-19.4,27.6-22.6,44.4
			c-3.1,16.4-2.4,35.5,2.6,51.5c7,22.2,33.3,41.1,56.6,34.3c0.2,0,0.4,0,0.6-0.1c0.1-0.1,0.3-0.1,0.5-0.2c1.4-0.5,2.8-1,4.2-1.7
			C436.2,556.2,452.1,560.6,466.6,558.9z M462,556.6c-12.8,0.3-26.7-2.3-39.2,1.3c-0.2,0-0.5,0-0.8,0.1c-0.3,0.2-0.6,0.3-0.9,0.4
			c-1.2,0.4-2.4,0.9-3.6,1.4c-13.6,4.4-29.2-1-40-10c-14.2-11.8-17.1-28.5-18.6-46c-1.7-19.6,2.4-38.4,13-55
			c5.6-8.7,11.8-17.3,19.5-24.3c7.7-7,16.6-10.6,25.9-14.9c9.1-4.3,17-10.4,26.3-14.4c8.8-3.8,17.8-9.6,27.5-10.4
			c20.4-1.6,37.9,11.1,44.8,30c7,19.1,6.9,37.9-2.9,56.1c-8.2,15.2-10.8,31.2-14.1,47.9c-1.8,8.9-5,18.2-10.5,25.5
			C481.7,553,472.9,556.3,462,556.6z"/>
		<path class="topog-st5" d="M482.6,564.3c17.7-7.6,25.1-27.4,27.5-45.3c0.7-5.4,0.6-11,1.5-16.3c1-5.8,3.5-10.7,5.8-16
			c4.6-10.4,8.4-21.1,12.3-31.8c6.6-18.4,7.7-35.7-3.7-52.6c-9.4-14-20.7-22.8-37.3-26.5c-15.8-3.5-29-2.5-42.9,6
			c-8,4.9-15.6,10.3-23.7,14.8c-8.8,4.8-17.8,9.2-26.3,14.4c-7.6,4.6-15.7,9.5-21.7,16.1c-5.1,5.6-8.7,13.7-12.4,20.3
			c-7.6,13.7-12.7,28.9-14,44.6c-0.6,8-0.6,16,0.3,24c1,9,3.9,16.1,7.6,24.3c3.1,6.9,4.7,15.2,10.7,20.3c5.5,4.8,12.6,7.7,19.5,9.7
			c7.3,2.1,15.1,3.7,22.8,3c3.2-0.3,6.5-0.7,9.6-1.9c1.4-0.5,2.7-1.2,4-1.9c0.1,0,0.2,0,0.3-0.1C441.4,560,463.6,572.5,482.6,564.3z
			 M468.1,564.4c-12.9,0.1-27-3.1-39.6,0.1c-0.1,0-0.1,0-0.2,0c-5.1,0.9-9.2,4.5-14.4,5.5c-6.4,1.2-13,1.1-19.5-0.2
			c-13.4-2.7-28.1-7.7-32.9-21.9c-2.3-6.8-6.1-12.9-8.3-19.6c-2.4-7.1-3-14.9-3.2-22.4c-0.3-12.3,1.1-24.6,4.9-36.3
			c3-9.3,7.3-17.9,12.3-26.3c4.8-8,8.8-15.7,16.6-21.1c16.9-11.7,35.6-19.9,52.7-31.2c7.8-5.2,16-11.2,25.2-13.5
			c8.6-2.2,17.8-1.2,26.3,0.9c18.8,4.6,33.7,16.5,41.1,34.9c7.9,19.7-0.5,38.9-7.7,57.4c-3.5,9-9.4,18.2-11.5,27.7
			c-1.7,7.5-1.4,15.2-2.7,22.7C503.6,542.2,492.4,564.2,468.1,564.4z"/>
		<path class="topog-st5" d="M494,573.1c9.3-5.4,15.6-17.6,19.3-27.3c4-10.6,6.3-22,6.6-33.3c0.2-7.7,0.6-16.1,3.5-23.3
			c2.6-6.4,6.6-11.9,9.8-18c5.3-10.1,8.2-23.1,9.7-34.3c1.5-11.2,1.6-24.2-3.2-34.8c-4.9-11-13.7-19.6-23.7-26.1
			c-12.1-7.9-24.9-13.3-39.6-11.3c-7.8,1-15.5,3.3-22.8,6.1c-8.2,3.1-17,6.1-24,11.6c-15.4,12-34.4,19.1-48.8,32.2
			c-7.3,6.6-16.1,12-22.6,19.4c-4.2,4.8-5.8,11.5-7.5,17.5c-8.8,30.7-17.1,65-1.7,95.4c6.8,13.4,16.8,25,31.3,30
			c6.6,2.3,14.5,4.6,21.6,4c4.4-0.4,8.7-1.5,12.8-2.7c0,0,0.1,0,0.1,0c0.1,0,0.3-0.1,0.4-0.1c3.5-1,7-2.2,10.5-3.2
			c0.1,0,0.1-0.1,0.2-0.1c3.1-0.7,6.3-1.1,9.6-0.9c7.2,0.6,14.3,2,21.4,3.2C469.6,579.2,482.8,579.7,494,573.1z M466,575.6
			c-10.1-1-20-3.9-30.1-4.3c-3.6-0.2-6.9,0.3-10.1,1c-0.1,0-0.2,0-0.4,0c-0.2,0.1-0.5,0.2-0.7,0.2c-3.4,0.8-6.7,1.9-10.2,3.1
			c-0.2,0.1-0.4,0.2-0.6,0.4c-5.3,1.6-10.7,2.9-16,2.3c-9.2-1.1-19.2-3.6-27-8.9c-15.3-10.6-24.7-29.6-26.9-47.8
			c-2.2-18.5-0.3-37.9,5-55.7c2.3-7.9,4.2-16.7,7.7-24.2c4.2-9.1,13.3-14.1,20.7-20.4c8.4-7.3,16.9-13.7,26.6-19.3
			c7.5-4.3,15.5-8.1,22.3-13.6c14.1-11.3,34.2-20,52.5-21.3c18.4-1.3,37.1,8.7,49.4,22.2c13.9,15.2,15.3,35.6,10.9,55
			c-2,9-4.2,19.2-8.8,27.3c-3.8,6.7-8.5,13.1-10.4,20.8c-4.1,16.9-2,34.2-8.2,50.8c-3.3,8.7-8.2,19.2-15.5,25.2
			C487.6,575.3,476.7,576.7,466,575.6z"/>
		<path class="topog-st5" d="M532.9,489.5c7.4-26.8,26.4-54.6,17.4-83.6c-7.6-24.6-31.7-45.9-57.6-47.7c-30.8-2.1-59.8,12-84.3,29.4
			c-8.9,6.3-17.5,13-26.8,18.7c-7,4.3-14.3,8.5-20.5,13.9c-6.1,5.4-10.6,11.2-13.3,19c-2.7,7.8-6,15.2-8.8,22.8
			c-11.2,30.1-10.3,72.3,7.7,99.9c8.8,13.5,21.4,20.1,36.9,23.4c8.5,1.8,16.4,1.7,24.9-0.1c6.1-1.3,12.2-1.7,18.3-2.4
			c0,0,0.1,0,0.1,0c28.3-4,63.3,14.8,82.1-15.8C523.5,543.4,525.7,515.7,532.9,489.5z M527.7,499.7c-3.4,15.3-6,31.1-11.4,45.9
			c-6.6,18.1-16.5,35.7-37.8,37.1c-15.6,1-30.9-3.7-46.5-3c-0.2-0.1-0.5-0.2-0.9-0.2c-5.5,0.9-11.2,0.6-16.7,1.7
			c-6.2,1.3-12.7,3.1-19.2,2.9c-11.4-0.4-26.3-4-35.5-11.4c-18.7-15-24.7-43.4-24.9-66.2c-0.1-12.6,0.5-25.5,4.4-37.5
			c1.8-5.6,4.3-10.7,6.5-16.1c2-4.9,3.3-10,5.2-14.8c5.1-12.8,16.7-20.3,28-27.2c10.1-6.2,19.5-13.2,29.1-20
			c25.9-18.3,60.9-37.2,94-28.6c17,4.4,33.2,18.2,41.4,33.7c9.7,18.4,6.6,39.3-0.2,58.1C537.7,469.4,531.3,483.7,527.7,499.7z"/>
		<path class="topog-st5" d="M545.3,483.3c6.2-15.9,14.1-31.7,16.3-48.8c2.2-17.1-0.5-34.8-8.1-50.4c-7.5-15.2-17.8-26.9-32.8-34.8
			c-12.3-6.5-27.6-10.2-41.3-6.5c-16,4.3-29.3,14-43.9,21.4c-9.2,4.7-17.2,9.1-24.9,16.1c-7.9,7.2-15.9,13.4-25.6,18.2
			c-14.4,7-33.5,13.5-41.8,28.3c-3.4,6-5.9,12.8-7.1,19.6c-1.5,8.9-3.6,16.9-6.4,25.5c-5.1,15.4-9.3,32.1-7.5,48.5
			c1,9.2,3.9,17.8,7.2,26.4c3.2,8.2,5.7,16.9,10.3,24.5c7.2,11.8,22.2,20.8,35.2,24.6c6.9,2,14,3.2,21.1,2.7
			c8.8-0.6,15.9-3.7,24.2-6.3c0.2-0.1,0.3-0.1,0.4-0.2c9.1-2.6,18.7-3.1,28.2-2.1c8.3,0.9,16.4,3,24.7,3.5
			c14.2,0.8,31-0.9,40.5-12.8c9.8-12.4,14-28.7,15.4-44.2C531.2,517.4,538.5,500.8,545.3,483.3z M529,521
			c-3.8,17.5-3,35.8-12.7,51.6c-11,18-31.3,20.2-50.6,17.2c-17.1-2.7-33.4-5.1-50.1,1c-0.2,0.1-0.4,0.2-0.5,0.3
			c-5.2,1.9-10.2,3.8-15.8,4.4c-7.3,0.7-14.8,0.3-21.9-1.8c-12.1-3.5-25.8-10.7-33.6-21c-4.7-6.2-6.8-13.4-9.6-20.5
			c-2.9-7.3-5.9-14.6-7.8-22.2c-3.6-14.2-2.3-29.1,1.3-43.1c3.1-12.3,8.2-23.7,10.1-36.3c2-13.1,6.8-25.4,17.7-33.5
			c12.9-9.4,28.4-13.8,41.6-22.6c6.7-4.5,12.4-10.1,18.5-15.4c6.3-5.5,13.5-8.6,20.8-12.5c15-7.9,30-19.4,47.1-22
			c18.2-2.8,39,5.6,52,18.4c13.5,13.2,22.1,32.9,23.7,51.7c1.7,19.9-4.3,37.8-11.7,55.8C541,486.8,532.8,503.7,529,521z"/>
		<path class="topog-st5" d="M546.6,496.3c4.4-6.9,9.5-13.4,12.9-21c7.1-15.8,11.2-33.2,12.4-50.5c1.1-16.1,0.8-34.2-5.6-49.4
			c-6.5-15.4-18.1-28-32.4-36.6c-11.9-7.2-23.9-12.3-37.9-9.4c-18,3.7-35.9,9-51.8,18.5c-16.9,10.1-31.8,22.6-46.6,35.5
			c-14.8,12.9-35,15.2-50.5,27.1c-12.7,9.7-19.9,21.9-20.8,38c-0.5,9.3-1,17.8-4.3,26.7c-2.8,7.6-5.6,15.1-7.4,23
			c-3.9,17.5-3.1,34.6,2.6,51.8c2.9,8.6,6.9,16.5,11.5,24.3c3.6,6.1,7.4,12.8,12.7,17.6c10.6,9.7,23.8,13,37.9,14
			c8,0.5,16.2,1,24.1-0.6c7.6-1.6,14.9-4.2,22.2-6.4c31.2-8.1,66.7,15.9,95.7-2.3c23.4-14.6,22-45.7,19.3-69.9
			C539.5,515.6,540.5,505.8,546.6,496.3z M546.8,491.2c-4.5,6.7-8.4,13.5-9.1,21.8c-0.6,7,0.5,13.6,1.3,20.5
			c1.6,14.6,1.4,31.3-4.9,44.8c-6.7,14.5-21.2,21.8-36.9,22c-22.5,0.3-45.3-9-67.6-5.1c-0.2-0.1-0.5-0.2-0.9-0.1
			c-1.3,0.4-2.6,0.8-3.9,1.1c-0.2,0.1-0.4,0.1-0.6,0.2c-11.8,3.6-23.2,7.7-35.9,7.2c-16.1-0.5-34.6-2-46.2-14.7
			c-12.6-13.9-21.9-33.3-25.5-51.6c-3.8-19.2-1.1-37.4,5.8-55.6c2.8-7.5,5.8-15.2,6.1-23.4c0.3-7.8,0.1-16.1,2.8-23.6
			c7.3-20.1,27-28.7,45.4-36c9.2-3.6,17-8.2,24.3-14.9c7.1-6.5,14.4-12.6,22.1-18.4c17.8-13.3,36-23.7,57.5-29.5
			c7.9-2.1,16.4-5.1,24.7-4.9c8.4,0.3,16.1,3.7,23.3,7.8c16.8,9.6,31.9,24.3,37.2,43.6c4.9,17.9,4.8,37.3,1.8,55.5
			C564.5,457.6,557.9,474.6,546.8,491.2z"/>
		<path class="topog-st5" d="M559.8,487.9c22.1-25.5,26.5-63.2,21.6-95.8c-4.2-27.7-18.3-55-43.9-68.6c-12.7-6.8-23.5-6.4-37.3-3.2
			c-19,4.3-37,10.8-54.2,19.9c-8.2,4.3-16.5,9-23.5,15.2c-6.7,6-12,13.4-19.1,18.9c-16.5,12.7-36.2,21.2-55.3,29.2
			c-13.1,5.5-25.2,16.4-27.1,31.3c-1,8,0.1,16.2-1.5,24.2c-1.7,8.6-6.1,16.2-9.3,24.3c-6.1,15.3-9.3,35-7.2,51.4
			c2,16.4,10.5,31.3,20.1,44.4c9.3,12.8,19.2,24.3,33.9,30.9c15.1,6.8,32,9,48.1,4.6c0.2,0,0.3-0.1,0.4-0.2
			c13.6-3.1,27.3-7.2,41.1-6.5c13.8,0.6,27.1,5,40.8,6.3c14.3,1.4,26.1-1.5,38.5-8.9c9.8-5.9,20.9-11.2,25-22.7
			c5.2-14.6,2.9-29.1-0.8-43.8c-2.2-8.6-4.5-17.8-3-26.7C548.8,502.2,553.6,495.1,559.8,487.9z M567.3,473.4
			c-4.1,7-9.8,12.6-14.6,19.1c-9.5,12.9-9.7,27.6-6,42.7c3.9,15.8,9.2,35.3-0.1,50.4c-5,8.1-13.7,12.4-21.7,17.1
			c-8.5,5-17.3,9.1-27.3,9.1c-16.5,0.1-32.2-5.9-48.6-6.7c-18.2-0.8-35.7,5.3-53.3,8.5c-24.6,3.1-48.9-8.6-64.3-28.2
			c-11.1-14.2-23.1-31-25.4-49.4c-2.4-19.1,1.5-40.3,9.4-57.7c3.3-7.3,6.8-14.8,7.5-22.9c0.7-7.8-0.8-16.3,1.6-23.8
			c6.6-21.3,27.1-26.1,45.1-34.6c17.4-8.2,33.6-17.5,46.9-31.6c13.7-14.6,31.5-24.5,50-31.9c10.4-4.2,21.1-7.5,32.1-10
			c7.7-1.8,15.9-4.3,23.8-2.8c14.5,2.8,27.3,13,36.6,24.2c22.1,26.6,25.2,65.8,19.1,98.8C575.9,453.8,572.6,464.3,567.3,473.4z"/>
		<path class="topog-st5" d="M580.9,475.3c8.6-12.1,8.6-27.3,9.6-41.5c1.3-18.2,0.6-35.9-3.7-53.7c-7.2-29.5-24.8-62.2-56.1-71.3
			c-23.4-6.8-47.1,1.7-67.7,12.7c-11.6,6.2-22.7,13.2-33.9,20c-6.7,4.1-12.9,8.1-18.2,14.1c-5.7,6.5-11,13.1-18,18.3
			c-16,11.8-34.4,19.1-51.9,28.3c-11.3,6-29.7,14.1-31.8,28.5c-1.1,7.9,1.3,15.6,0.9,23.6c-0.5,8.9-3.1,17-6.1,25.3
			c-5.3,15-11.2,30.4-11.6,46.5c-0.5,16.6,3.7,34.2,12.4,48.5c8.6,14.2,20.7,24.7,34.6,33.4c12.4,7.8,26.3,15.2,41,17
			c8,0.9,16.2,0.3,24-1.8c3.3-0.9,6.7-1.6,9.8-3.2c1.6-0.8,3.1-1.6,4.7-2.4c0.1,0,0.1,0,0.2,0c2.6-1.2,5.3-2,7.9-2.5
			c0.1,0,0.2,0,0.3,0c0.2,0,0.4-0.1,0.6-0.2c19.8-3.7,40,7.9,59.8,9.2c19.7,1.3,42.9-2,57.2-16.8c7.9-8.2,14.6-18.3,17.4-29.5
			c3-11.7,0.8-22.2-1.8-33.7c-2.7-11.8-5.7-26.5-2.3-38.5C562.1,492.2,573.4,485.9,580.9,475.3z M574.6,478.4
			c-5.7,5.8-11.8,11.4-15.8,18.6c-7,12.4-4.5,29.9-1.6,43.3c2,9.2,5.4,19,4.2,28.6c-1.1,9.6-4.8,19-10.3,26.9
			c-10.5,14.8-24.7,22.6-42.6,24.9c-8.5,1.1-17.3,1.4-25.8,0.1c-7.4-1.1-14.5-3.6-21.8-5.4c-10.7-2.6-22.4-4.9-33.4-3
			c-7.7,0.4-14.1,5.7-21.4,7.6c-8.3,2.1-16.9,3.5-25.5,2.3c-16.8-2.5-32.1-11.1-45.9-20.6c-32.3-22.3-46.6-60.5-35.8-98.4
			c4.4-15.3,12.9-30.8,13.7-46.9c0.4-7.9-2.2-16.2-1-24c1.5-10.2,10-15.7,18.2-20.8c16.5-10.2,34.8-16.9,51.4-26.9
			c7.7-4.6,15.8-9.6,21.9-16.2c5.5-6,10.4-13.1,16.9-18.1c10.9-8.4,23.9-15.2,35.9-22c11.5-6.5,23.5-12.8,36.3-16.4
			c12.2-3.4,25.4-4.7,37.7-0.8c15.6,5,28.7,16.4,37.9,29.9c21.6,31.7,24,74,18.8,110.9C585,462.3,581.9,470.9,574.6,478.4z"/>
		<path class="topog-st5" d="M597,389.1c-2.8-18.1-6.6-36.9-15.4-53.2c-4-7.3-8.4-14.1-15.2-19.1c-3.4-2.5-7-4.7-10.2-7.3
			c-3.6-2.9-6.3-6.3-9.6-9.4c-8.6-7.9-17.7-10-29.1-7.7c-19.1,3.8-37.8,9.7-54.8,19.4c-8.4,4.8-15.9,10.5-23.7,16.1
			c-8.3,6-17.4,10.4-25.8,16c-7.5,5-14.4,10.5-20.2,17.4c-6.5,7.7-13,16.3-22.2,21.1c-8.7,4.5-18.5,5.8-27.4,10.1
			c-7.6,3.8-14.8,8.3-22.2,12.4c-6.4,3.5-13.1,7.3-16.6,13.9c-3.4,6.3-5.5,13.2-6.3,20.4c-1.1,9.1-0.8,18.3-2.1,27.4
			c-1.2,9.1-3.6,17.8-6.1,26.6c-4.4,15.9-9.3,32.2-9.6,48.9c-0.3,16.9,4,34.3,12,49.3c8.1,15.2,23.2,23.1,37.5,31.7
			c14.5,8.6,28,12.1,44.8,9.3c9.9-1.7,19.6-3,29.6-3.6c6.4-0.4,12.8-0.9,19-2.4c0.1,0,0.3,0,0.4-0.1c0.2-0.1,0.3-0.1,0.5-0.2
			c1.5-0.4,2.9-0.8,4.3-1.3c12.3-2.9,24.8-0.3,36.8,3.7c10.6,3.5,20.9,4.9,32.1,3.7c20.9-2.2,46.5-9.1,61-25.3
			c6.9-7.7,12.7-17.8,14-28.3c1.3-10.8-1.3-21.3-4-31.7c-3.4-12.8-6.6-26.7-2.9-39.8c3.9-13.8,16-21,24.2-31.9
			C608.7,450.5,601.4,417.8,597,389.1z M593.1,465.7c-8.2,14.7-26,23.9-30,40.8c-3.6,15.4-0.1,29.8,3.7,44.8
			c4.5,17.7,4.9,34.7-6.8,49.9c-10.6,13.8-27.4,20.9-43.9,25.1c-16.9,4.4-33.2,5.4-50-0.1c-12.1-3.9-24.4-6.4-36.6-4
			c-0.2,0-0.5-0.1-0.8,0c-0.4,0.2-0.9,0.3-1.4,0.4c-1.3,0.3-2.5,0.7-3.8,1.1c-8.8,2.2-17.9,2.3-27,3c-9.8,0.7-19.3,3.2-29,4.1
			c-20.1,1.7-36.1-9.1-52.3-19.7c-9.3-6-16.8-12.6-21.6-22.8c-4.2-8.8-7.5-18.1-9.2-27.7c-3.4-18.4-0.1-36.6,4.7-54.5
			c4.4-16.6,9.3-32.7,10.5-50c0.6-9.6,0.4-19.4,3.8-28.6c3.7-10.1,9.5-15.3,18.7-20.3c8.1-4.4,15.8-9.8,24.3-13.4
			c8.3-3.5,17.5-4.6,25.3-9.1c7.5-4.4,13.5-10.4,19-17c7-8.3,14.1-15.6,23.4-21.5c8.1-5.2,16.7-9.4,24.6-15.1
			c8.2-5.9,16.1-12.1,25-17c17.6-9.7,37.5-17.3,57.6-19.7c7.2-0.9,14.1-0.1,20,4.6c6,4.8,10.5,10.8,16.8,15.2
			c9.2,6.4,16,12.8,21.2,22.9c4.5,8.8,7.9,18.1,10.3,27.7c4.3,17,6.5,34.5,8.7,51.9C600.1,432.9,601.3,450.9,593.1,465.7z"/>
		<path class="topog-st5" d="M609.4,413.7c0,0,0-0.1-0.1-0.1c-1.1-8.1-1-16.4-2.4-24.5c-1.6-9.6-3.6-19.2-6.2-28.6
			c-4.6-16.7-9.5-34.9-18.6-49.9c-7.9-13-19-23.5-33.7-27.9c-14.2-4.3-28.9-5.6-43.3-2c-16.9,4.2-33.3,12.2-48.6,20.4
			c-16.7,8.9-30.4,21.1-45.4,32.5c-7.7,5.9-15.7,11.7-22.4,18.7c-5.9,6.1-10.2,13.6-16.1,19.7c-13.7,14.3-34.8,14.7-52.2,22.5
			c-14.5,6.5-26.9,17.1-30.6,33.3c-1.9,8.3-2.2,16.8-3.3,25.3c-1.1,9.3-3.8,18.1-6.3,27.1c-0.1,0.3,0,0.5,0,0.8
			c-2.4,8.5-6.4,16.5-7.8,25.2c-2,12.8-4.5,25.9-4.1,39c0.7,23.5,6.3,47.5,20.8,66.5c12.1,15.8,27.6,26.8,47.1,31
			c20.1,4.3,43.3,3.4,63.3-1.7c0.1,0,0.2,0,0.3,0c8.7-1.7,16.3-6.7,25.2-8.2c9.5-1.6,19.6-1.5,29.2,0.3c8.7,1.6,16.5,5,24.8,7.8
			c13.9,4.7,27.2,4.4,41.1-0.4c14.5-5,28-12.7,40.4-21.7c11-8,19.6-19.1,22.8-32.5c3.2-13.4,2.3-27.5-2.1-40.5
			c-2.6-7.7-7-15.4-7.9-23.5c-1.3-10.7,4.6-17.9,11.7-25.1c5.3-5.3,10-11,12.9-18c3.2-7.7,5.1-15.8,7.9-23.6
			c2.5-7.1,5.3-14.7,5.7-22.3C612.2,426.4,610.7,420.3,609.4,413.7z M604.6,391.7c0.8,8.4,1.1,16.9,2.6,25.3c0,0.2,0.1,0.4,0.3,0.6
			c1.4,7.4,2.6,14.4,0.8,22.1c-1.8,7.8-4.7,15.2-7,22.8c-2.7,9-5.4,18.5-11.4,25.9c-4.7,5.8-11.2,10.5-15,16.9
			c-8.5,14.2-0.2,26.8,4.2,40.9c4.6,14.7,6,31.1,0.1,45.6c-6.4,15.8-19.2,25.4-33.4,33.8c-13.9,8.2-30.4,16.7-47,16.4
			c-16.8-0.3-31.4-10.2-48-12.1c-8.5-1-17.4-1.3-25.8,0.4c-7.5,1.5-14.3,5.2-21.6,7.3c-0.2,0-0.3,0-0.5,0
			c-20.8,5.8-45.9,7.3-67.1,2.3C316.8,635.3,301,624,290,608c-14.3-20.7-20.3-46.9-18.5-71.9c0.8-11.7,1.8-24.6,5.2-35.9
			c2.4-8,6.1-15.8,7.6-24.1c2.3-8.2,4.4-16.4,5.3-24.9c1.1-10.2,1.1-21.3,5.7-30.7c9.1-18.7,29.4-26.2,48.3-31.1
			c8.4-2.2,17.4-4.2,24.5-9.6c6.4-4.9,10.8-11.2,15.7-17.5c12-15.4,28.7-25.3,43.4-37.7c15.8-13.4,33.1-22.9,52-31.3
			c15.8-7,32-13.5,49.7-11.9c18.3,1.7,35.8,8.7,46.9,24.1c11.6,16.1,17.5,36.6,22.5,55.5C600.9,371,603.7,381.4,604.6,391.7z"/>
		<path class="topog-st5" d="M619.3,422.3c0-0.1,0-0.2-0.1-0.4c0.2-13-1.4-25.2-3.4-38.1c-2.2-14.4-3.5-28.9-7-43.1
			c-5.8-23.6-15-48.5-34.4-64.3c-24.6-19.9-57.3-22.8-85.5-9.3c-16.4,7.9-29.7,19.3-44.3,29.9c-8.2,6-17.3,10.9-25.2,17.4
			c-7.3,5.9-14.4,11.6-22.1,17c-11.8,8.3-25.8,18.6-30.3,33.1c-1.8,5.8-3.9,10.3-10.5,11.2c-3.5,0.5-7.1,0.6-10.6,1.3
			c-8.2,1.6-16.4,3.8-24.1,7.3c-16.1,7.2-29,18.2-38.2,33.4c-8.3,13.9-13.9,29.1-17.6,44.8c-0.1,0.1-0.2,0.3-0.3,0.5
			c-1.6,4.9-1.6,9.9-1.1,15c0.7,6.6,0.5,12.6-0.2,19.2c-1.4,13.8-1.5,27.8-2,41.6c-1,26.2,1.5,52.6,15.7,75.4
			c6.8,10.9,15.3,20.7,25.7,28.3c8.2,6.1,16.9,12.9,27.2,14.7c12.5,2.1,25.1-1.9,37.5-2.7c12-0.7,23.9-3.5,35.9-3.4
			c0.2,0,0.4,0,0.6-0.1c7.7-0.6,15.2-2.5,22.8-3.9c10.1-1.9,19.9-2.4,29.8,1c7.3,2.5,14.2,6,21.5,8.6c14.2,5,30.8,4.9,45.5,1.7
			c15.5-3.4,29.5-11.8,41-22.6c11.3-10.6,22.8-23.9,28.8-38.4c5.5-13.4,4.3-27.5,0.5-41.2c-3.8-13.7-13.1-31.5-8.2-45.8
			c4.5-13.2,14.6-23.5,19.3-36.8c5.4-15.2,12.1-31.8,13.2-48.2c0,0,0,0,0-0.1c0-0.2,0-0.3,0-0.5
			C619.3,424.1,619.3,423.2,619.3,422.3z M616.6,425.3L616.6,425.3c-0.1,0.8-0.1,1.6-0.2,2.5c-1.3,10.2-4.7,19.6-7.7,29.4
			c-2.7,8.8-5.1,18.1-9.5,26.2c-5.6,10.4-15.4,20.3-16.3,32.7c-1,14.4,6.4,28.8,9.9,42.5c4.4,17.5,3.4,32.8-6.4,48.2
			c-9.9,15.5-22.9,30.2-38.9,39.7c-15.5,9.2-33.2,12.6-51.2,11.1c-16.4-1.4-29.7-11.4-45.7-13.9c-16.4-2.6-31.6,4.5-47.7,5
			c-0.2,0-0.5,0-0.7,0c-0.9,0-1.9,0-2.8,0c-0.3,0-0.5,0.1-0.7,0.2c-8.4,0.5-16.7,2-25,2.8c-5.5,0.5-11,0.7-16.5,1.5
			c-6.5,1-13.3,2.6-19.9,2.3c-12.4-0.7-22.4-7.5-32-14.9c-11-8.5-20.6-18.9-27.1-31.3c-12.8-24.3-14.1-49.9-12.8-76.8
			c0.6-12.4,0.4-24.9,2-37.2c1.1-8.6-1.3-17.8-0.1-26.4c0.1-0.1,0.2-0.3,0.2-0.5c4.2-19.8,11.1-39.9,23.3-56.3
			c13.2-17.7,33.9-28.9,55.7-32.3c5.4-0.8,13.5-0.1,17.8-4.3c5-4.9,5.3-12.4,9.1-18.1c10.1-15.3,27-23.3,40.6-34.8
			c8.4-7.1,17.1-13.2,26.3-19.2c7-4.6,13.2-10.1,19.9-15.1c15.4-11.6,33-22.9,52.4-25.9c35.6-5.7,68.2,14.4,82.9,46.8
			c8.2,18,12.9,37.5,15.6,57.1C613.6,385.8,617.3,405.3,616.6,425.3z"/>
		<path class="topog-st5" d="M624.2,434.8c7.5-33,0.9-66.9-7.3-99.2c-4.3-17.2-9.3-34.6-20.6-48.6c-5.5-6.9-11.4-13.5-16.8-20.6
			c-4.8-6.3-9.8-13.1-16.6-17.5c-12.7-8.1-30.3-8.3-44.9-6.3c-17.4,2.4-33,10-46.8,20.6c-8.1,6.3-14.9,13.6-22.3,20.6
			c-7.8,7.3-17,11.9-26,17.3c-15.6,9.3-30.7,21.1-43.8,33.8c-6.3,6.1-12.4,12.5-17.3,19.8c-5.3,8-10.1,16.3-20.3,18.4
			c-8.2,1.7-16.9,1.6-24.9,4.4c-7.4,2.6-14.6,6.6-21.1,11c-13.9,9.6-24.8,22.6-32.8,37.4c-5.7,10.4-10.3,20.6-12.8,31.7
			c-0.2,0.2-0.3,0.4-0.4,0.7c-0.3,1.9-0.6,3.7-0.8,5.6c-0.4,2.5-0.6,5.1-0.8,7.7c0,0.1,0,0.2,0.1,0.3c-0.7,10.5-0.4,21.1,0.2,31.6
			c0.8,13.9,1.2,27.9,2.6,41.8c2.9,28.8,9.9,56.2,24.4,81.4c11.8,20.5,28.1,37,52.8,38.9c13.2,1,26.3-0.9,39.5-2
			c11.8-1,23.6-2.1,35.3-3.7c0.2,0.1,0.4,0.1,0.7,0.1c7-1.4,14-1.7,21-2.3c8.7-0.7,18.1-2.1,26.6,0.3c15.3,4.3,29.8,11.3,45.6,14.1
			c15.3,2.7,30.5,1.8,45.1-3.9c29.6-11.7,58.7-34.4,67-66.6c2-7.6,3.3-15.6,1.5-23.4c-1.9-8.2-5.5-15.8-7.8-23.8
			c-2.7-9.4-5-19.2-6.3-28.8c-1.4-10.4,1.3-17.1,6.5-25.8c7.6-12.8,13.9-26.5,16.9-41.2C621.2,450.5,622.8,442.7,624.2,434.8
			C624.2,434.8,624.2,434.8,624.2,434.8z M622.6,429.8c0,0.1-0.1,0.1-0.1,0.2c-0.7,3.7-1.4,7.3-2.1,11c-2.5,13-4.6,25.7-10,37.9
			c-4,8.9-9.1,16.9-13.5,25.5c-2.7,5.2-4.5,10.8-3.8,16.8c1.2,10,3.4,19.9,5.9,29.7c2.1,8.1,5.7,15.6,7.8,23.7
			c5,18.6-2.6,39.3-14.2,54c-21.5,27.2-58.5,47.5-93.7,41.2c-16.9-3-32.2-11.1-48.8-14.8c-7.7-1.7-15.9-0.8-23.7-0.1
			c-5.9,0.5-11.7,0.8-17.5,1.6c-0.1,0-0.2,0-0.3,0c-12.9,2-26.1,3.3-39.1,4.4c-13.6,1.2-27.4,3.6-41,2.2
			c-26.7-2.8-42.6-21.3-54.2-44.1C261.4,594,255.3,567.7,253,540c-2.1-25.9-4.9-53.2-1.2-79c1.7-9.7,5.2-18.5,9.9-27.7
			c5.9-11.5,12.8-22.8,22-31.9c8.9-8.7,20.1-16.9,32-21c11.1-3.8,23.9-2.2,34.2-7.9c6.4-3.5,10-10.7,14-16.5
			c5.3-7.7,11.7-14.6,18.5-20.9c14.6-13.5,30.8-25.8,48.1-35.5c8.7-4.9,16.4-10.1,23.4-17.2c6.6-6.7,13.2-13.1,20.8-18.6
			c17.2-12.4,35.7-19.4,57.1-19.2c9.2,0.1,19.6,0.1,27.7,5.3c8.1,5.1,13.6,12.5,19.3,20c5.8,7.6,12.7,14.5,18.1,22.4
			c6.3,9,10.4,19.2,13.5,29.7C620.7,356.2,629.4,394.1,622.6,429.8z"/>
		<path class="topog-st5" d="M634.3,331.6c-13.8-37.6-34.6-78.4-71.8-97.8c-26.4-13.8-54.9-2.4-79.5,10.2c-17.5,9-33.8,20.2-48.9,32.8
			c-15.8,13.2-31.7,26.6-47.2,40.2c-8,7.1-15.6,14.5-22.8,22.3c-5.8,6.3-11.5,13-18.5,18c-9.8,6.9-19.8,7.9-31.1,10.4
			c-8.5,1.9-16.8,4.8-24.3,9.4c-23.2,14.1-43.7,38.4-51.4,65c-3.9,11.5-4.7,24.3-5.5,36.2c-1.1,16.4-0.3,33.4,2.4,49.7
			c3.2,19.3,7.6,38.8,12.2,57.9c3.6,15.1,7.9,30.4,15,44.3c12.5,24.8,31.7,45.7,61.1,46.6c14.6,0.4,28.8-2.3,43.2-4.5
			c13.4-2.1,26.8-3.8,40.3-5.3c12.4-1.6,24.9-0.8,37.2,1.3c27.5,4.8,55.1,15.4,83.4,12.8c16.9-1.5,31.6-8,45.7-17.4
			c7.3-4.8,14.7-9.6,21.8-14.8c5.7-4.1,11.7-8.7,15.2-15c7.7-13.7,12.7-32.7,13.1-48.5c0.5-18.2-9.8-33.3-14.5-50.4
			c-2.4-8.8-5.9-19.7-1.8-28.5c3.6-7.6,8.3-14.7,12-22.2c4.7-9.6,9-21,11.2-32c0.1-0.2,0.2-0.3,0.2-0.6c1.2-11.4,6.2-21.7,9.7-32.4
			c3.2-9.6,4.8-19.5,4.9-29.6C645.8,369.9,641.2,350.6,634.3,331.6z M636.5,345.9c5.2,17.5,8.1,36.3,5.9,54.6
			c-1.9,15.7-9.8,29.7-12.9,45c-0.1,0.2-0.2,0.4-0.2,0.6c-0.6,5.9-2.7,11.8-4.4,17.5c-2.7,9-6.1,17.3-10.3,25.7
			c-3.1,6-7.9,11.9-9.9,18.4c-2.2,7.2-1,14.9,0.8,22.1c2,7.8,4,15.4,7.2,22.7c4.3,9.9,9.2,19.9,8.9,31c-0.3,9.6-2.1,19-4.8,28.1
			c-2.8,9.3-5.4,20-12.3,27c-5.5,5.6-11.9,9.8-18.4,14.1c-16,10.8-31.9,22.3-51.5,25.2c-14.6,2.2-29.4,0.7-43.8-2.1
			c-26.1-5.2-52-13.9-78.7-11.7c-0.1,0-0.2,0-0.3,0c-14.4,1.5-28.8,3.3-43.1,5.5c-14,2.2-28.2,5.3-42.4,4.9
			c-15.5-0.5-29.6-5.2-40.8-16.4c-9.6-9.6-17-21.3-22.4-33.7c-6.8-15.5-11.1-31.9-14.6-48.4c-3.6-16.7-8-33.6-10.4-50.6
			c-2.3-15.9-3.1-32.2-1.9-48.3c0.8-10.6,1.6-21.8,4.7-32.2c0,0,0,0,0,0c0.1-0.6,0.3-1.2,0.5-1.7c0.5-1.5,1.1-3,1.7-4.5
			c0.1-0.3,0.1-0.6,0-0.8c3.1-8.7,7.7-17.8,12.8-24.7c11-15,26.5-30.5,43.8-37.8c16.4-7,35-5.5,49.3-17.2
			c14.4-11.7,25.8-26.9,39.8-39.1c15.5-13.6,31.2-27.1,47.2-40.3c16.1-13.3,33.2-25.1,52-34.2c13.8-6.7,28.6-13.3,44-14.6
			c17.1-1.4,31.7,5.8,44.6,16.6C607.1,271.9,625.3,308.4,636.5,345.9z"/>
		<path class="topog-st5" d="M614.3,271.3c-9.1-14.7-21-29.5-34.3-40.6c-11.7-9.8-29.5-17.6-44.9-17.9c-8.1-0.2-15.9,1.8-23.5,4.4
			c-8.6,2.9-17.3,5.3-25.9,8.2c-18.9,6.3-37,14.8-52.5,27.6c-16,13.2-30.3,28.2-45.8,41.9c-14.5,12.9-28.5,25.4-41.1,40.3
			c-7.8,9.3-15,15.8-27,19.2c-9.1,2.5-18.4,4.2-27.4,7.1c-8.5,2.8-17.2,6.9-24.6,12c-3.4,2.4-6.4,5.1-9.2,8c-0.2,0-0.5,0.1-0.7,0.3
			c-11.2,11.8-22.7,22.8-29.6,37.8c-14.2,31-13.7,68-8.9,101.1c2.8,19.4,7.5,38.5,11.3,57.7c3.6,18.2,8.4,35.6,16.6,52.3
			c6.5,13.2,13.9,26.6,24.4,37.1c10.5,10.6,22.4,16.3,36.9,19.1c15.8,3.1,31.8,3.1,47.6-0.3c9.6-2.1,18.8-5.1,28.5-6.8
			c7.4-1.3,14.9-2.4,22.3-3.8c0.1,0,0.1,0,0.1,0c6.9-1.2,13-3.2,20.2-2.2c8.9,1.3,17.6,4.3,26.6,5.2c8.6,0.9,17.1,2,25.7,3.8
			c15.8,3.4,31.9,7.9,48.2,7.8c17.5-0.1,34.5-5.3,49.9-13.4c15.1-7.9,31.6-17.7,43-30.6c18.5-21.1,22-57.2,13.3-83.3
			c-5.7-17.2-18.5-33-13.8-52.1c2.3-9.3,6.8-17.2,12-25.2c3.2-4.9,5.7-10.1,8.3-15.3c0.1-0.1,0.3-0.2,0.4-0.4
			c0.6-1.1,1.1-2.3,1.5-3.4c0.2-0.4,0.4-0.8,0.6-1.2c0.1-0.3,0.1-0.5,0.1-0.7c1.9-5.8,2.7-11.9,4.6-17.8c2.7-8.3,5.8-16.4,7.5-24.9
			c3.2-15.8,3.7-32.5,1.8-48.5c-2.1-17.6-7.4-34.3-15.1-50.3c-4.3-8.9-8.9-17.7-13.6-26.4C623.5,288.6,619.5,279.6,614.3,271.3z
			 M594.5,249.4c14.4,16,23.5,34.5,33.5,53.3c9.6,18.1,19.4,36.5,23.6,56.7c3.9,18.4,4.7,37.7,1.8,56.2c-1.6,10-4.8,19.2-7.9,28.8
			c-2.2,6.9-3.1,14.4-5.7,21.2c-0.8,1.7-1.7,3.4-2.5,5.1c-6.9,13.9-18.1,26.5-20.5,42.3c-2.6,16.9,5.9,30.5,12.1,45.6
			c12.2,29.4,8.1,73.6-18.4,94.1c-15.7,12.1-32.7,23.4-51.5,29.9c-18.3,6.3-36.4,6.6-55.4,3c-16.7-3.2-33-6.7-49.9-9
			c-8.9-1.2-17.6-4.2-26.6-5.2c-5.5-0.6-10.1,0.2-15.1,1.2c-0.1,0-0.2,0-0.3,0c-3.8,0.8-7.6,1.5-11.4,2.1
			c-35.2,5.8-71.9,20.6-107.1,5.5c-15.6-6.7-26.8-20.2-35.3-34.5c-9.1-15.4-16.7-31.7-21-49.1c-4.7-19.1-8.5-38.6-12.3-57.8
			c-3.9-19.8-6.4-40-5.9-60.2c0.4-17.2,2.3-34.9,8.5-51c5.1-13,12.8-23.1,21.6-32.8l0,0c2.6-2.5,5-5.2,7.4-7.9c0.9-1,1.9-2,2.8-3
			c0.1-0.1,0.1-0.2,0.2-0.3c1.8-1.9,3.7-3.7,5.8-5.3c6.5-4.8,13.5-8.5,20.9-11.7c13.8-6,29.5-6.4,43-12.9
			c12-5.8,19.4-17.6,28.2-27.2c9.9-10.8,20.9-19.9,31.8-29.6c15.4-13.8,29.7-28.9,45.8-41.9c17.3-14,37.5-23.1,58.7-29.3
			c18.7-5.5,35.7-13.7,55.5-7.6c9,2.8,18.8,6.3,26.3,12.2C582.5,235.9,588.5,242.6,594.5,249.4z"/>
		<path class="topog-st5" d="M610.2,241.4c-15.4-18.6-34.1-37.7-57.6-45.2c-10.9-3.5-22.6-4.6-33.8-2c-18.5,4.2-37.2,11.3-53.5,20.9
			c-17.1,10.1-32.2,23.4-47.8,35.4c-15.9,12.3-31.3,25-44.6,40.2c-12.5,14.3-24,30.3-39.7,41.2c-14.9,10.4-32.5,15.4-49.7,20.7
			c-0.2,0-0.3,0-0.5,0.1c-0.5,0.2-1.1,0.4-1.6,0.6c-2.4,0.8-4.8,1.5-7.2,2.3c-0.2,0.1-0.4,0.2-0.5,0.3c-1.1,0.4-2.2,0.9-3.2,1.4
			c-2.8,1.5-5.5,3.8-8.1,5.7c-6.5,4.6-13,9.4-19.2,14.5c-11.4,9.5-22.4,20.1-30.1,33c-13.2,22.1-18,48.2-16.5,73.7
			c0.9,15.4,4.4,30.5,7.7,45.5c3.5,15.9,5.4,32.1,9,48c6.6,29.3,19,58.1,35.9,83c9.8,14.5,21.8,28.4,36.2,38.6
			c11.1,7.9,24.4,10.9,37.8,10.5c14.3-0.4,28.2-3.5,42.2-6.2c8.5-1.7,16.8-4,25.2-6.2c9.4-2.5,18-3.4,27.7-2.9
			c10.7,0.5,21.5,0.2,32.1,1c9.7,0.8,19.1,3.3,28.6,5.3c16,3.5,29.3,11.2,46.2,8.7c18.2-2.7,34.9-10.5,51.4-18.2
			c9.1-4.3,18.8-7.4,27.3-12.9c5.5-3.6,10.1-8.5,15.1-12.8c0.2-0.1,0.3-0.2,0.5-0.3c0.2-0.2,0.4-0.4,0.5-0.6
			c0.7-0.6,1.4-1.2,2.2-1.8c0.3-0.3,0.5-0.6,0.5-0.9c6.6-6.5,13-12.6,17-21.4c4.6-10.3,7.9-21.5,9.4-32.7
			c1.6-11.5,1.6-23.2-0.5-34.6c-2.4-13.1-8.1-24.8-11.9-37.4c-2.1-6.9-3.9-14-1.9-21.2c1.4-5.4,3.8-10.4,6.1-15.5
			c5.6-12.2,9.3-25.1,14.2-37.6c5-13,11.8-25.7,15-39.4c2.3-9.9,2.2-20,3.4-29.9c0-0.1,0.1-0.1,0.1-0.2c0-0.3,0-0.6,0.1-0.8
			c0.1-0.9,0.2-1.7,0.3-2.6c0-0.3,0-0.5-0.1-0.7c0.4-11.1-3.7-22.7-6.1-33.4c-3.7-16.8-8.4-33.6-15.4-49.3
			C641.9,282.2,626.2,260.8,610.2,241.4z M593.4,226.7c9.2,9.3,17.6,19.5,25.4,30c7.9,10.7,16.2,21.6,22.7,33.1
			c9.9,17.5,16.7,36.7,21.4,56.3c1.9,7.9,3.5,15.8,5.4,23.7c1.6,6.8,3.2,13.9,2.5,20.9c-1.6,11.8-1.1,23.7-4.7,35.2
			c-4,12.7-10.1,24.6-14.6,37c-4.5,12.5-8.5,25.1-14.1,37.1c-3.9,8.4-7.9,17.8-5.8,27.3c2.9,13.2,9.3,25.1,12.5,38.2
			c2.9,11.8,4.2,24,2.9,36.2c-1.2,11.8-4,23.7-8.6,34.7c-4.6,11.2-12.3,18.2-20.6,26.6c-4.1,3.5-7.9,7.3-12.2,10.6
			c-6.1,4.7-12.8,7.7-19.8,10.6c-12,4.9-23.4,11.1-35.5,15.6c-13.3,5-29.6,10.3-44,6.6c-11.3-2.9-22-7.1-33.4-9.7
			c-13.3-3.1-26.1-4.1-39.7-4.5c-12.4-0.3-24.9-2-37.1,0.9c-21.3,5.1-42.5,11.5-64.5,13.5c-15.4,1.4-32.2,0.3-45-9.5
			c-15.6-11.9-28.8-26.7-39-43.4c-10.1-16.4-18.9-34-25.1-52.3c-6.5-19.2-8.9-38.9-12.9-58.6c-7.4-36.2-16.7-72.2-4.6-108.5
			c5.8-17.5,15.7-32.7,29.1-45.3c7.6-7.2,15.7-13.7,24.1-19.8c3.9-2.8,7.8-5.6,11.7-8.3c3.8-2.7,8.2-3.6,12.5-5.1
			c12-3.7,24.2-7.1,35.7-12.4c13-6,24-14.1,33.8-24.5c10.5-11.1,19.6-23.6,30.3-34.5c10.8-11.1,22.8-20.8,35-30.3
			c16.7-12.9,32.8-27.6,51.3-37.8c16.6-9.2,36.3-17.9,55.3-20.3C551,192.4,575,208.1,593.4,226.7z"/>
		<path class="topog-st5" d="M552.5,181.7c-16.1-0.5-32,1.3-47.4,6.3c-16.7,5.5-32.7,13.3-48.5,21.1c-15.6,7.7-31,16.3-44.3,27.7
			c-14.7,12.6-26.6,28.1-39.5,42.4c-13.1,14.5-26.5,29.6-41.9,41.8c-13.6,10.8-30.1,20.1-47.2,23.6c-5.8,1.2-12.5,2-18.9,3.5
			c-0.2-0.1-0.5-0.2-0.9-0.1c-3.4,0.9-6.7,2.3-9.9,3.9c0,0-0.1,0-0.1,0c-9,4.7-17.1,11.7-25.1,17.6c-11.4,8.4-21.5,17.6-28.2,30.3
			c-6.2,11.8-10.9,25.4-13.2,38.5c-2.9,16.2-1.3,32.7-2.3,49c-0.9,15-2,29.6-0.3,44.6c1.8,15.2,5.3,30.1,10.2,44.7
			c9.8,29.5,25.6,55.8,42.2,81.9c5.9,9.2,11.8,18.4,17.7,27.5c4.8,7.4,9.4,15.7,15.3,22.3c10.2,11.2,24.1,15.4,38.6,17.9
			c18.3,3.1,37.7,6.5,56,2.2c18.9-4.4,37.2-11.4,56.9-12.1c20-0.7,40.2,3.1,60.2,4.7c18.7,1.5,38.1,3.9,56.4-1.1
			c17.3-4.8,32.5-13.7,48-22.6c12.5-7.2,26.4-12.6,38-21.3c0.1,0,0.2-0.1,0.3-0.1c18.5-13.1,34.7-33.5,39.6-56
			c5-22.9,3.3-45.5-3.4-67.9c-1.7-5.5-3.4-10.9-5.5-16.3c-2.6-6.8-5.9-14.3-5.5-21.8c0.7-12.9,7.8-22.8,13.2-34
			c11.2-23.3,17.4-48.5,20.8-74c3.8-20-4.1-40.1-8.2-59.4c-4.3-20.3-10.4-40.1-18-59.4c-4.3-11-9-21.8-14.3-32.3
			c-4.4-8.7-8.8-18.1-14.9-25.8c-5.9-7.5-13-13.8-19.8-20.4c-5.6-5.5-10.7-11.7-17-16.3C579.9,183.7,566.5,182.1,552.5,181.7z
			 M587.5,192.5c7.3,5,12.8,11.7,19.2,17.8c6.3,6,13.1,11.8,18.4,18.6c12.9,16.5,21.7,37.6,29.3,56.9c7.8,19.9,14.3,40.2,18.7,61.1
			c3.7,17.7,10.7,36.1,8.8,54.4c0,0.1,0,0.1-0.1,0.2c-0.1,1.1-0.3,2.1-0.4,3.2c-0.1,0.5-0.2,1-0.2,1.5c0,0.2,0,0.3,0,0.4
			c-3.5,25.9-9.8,52.5-22.3,75.5c-5,9.2-11.1,18.7-11.6,29.5c-0.6,11.2,4.3,21,7.8,31.3c7.9,23.4,12.3,47.7,7.4,72.2
			c-4.5,22.8-18.5,42.8-36.8,56.7c-0.2,0-0.3,0.1-0.5,0.3c-9.5,7.8-21,12.7-31.9,18.4c-10.6,5.6-20.6,12.2-31.4,17.5
			c-12.3,6-25.4,11-39.2,12c-14.2,1.1-28.9-0.6-43.1-1.8c-26.7-2.3-53.4-7.3-80-1.6c-13.3,2.9-26.2,8-39.7,10.1
			c-13.8,2.1-28,0.6-41.7-1.6c-17.6-2.8-37.6-5.7-48.5-21.7c-12.2-17.9-23.9-36.2-35.5-54.5c-20-31.6-37.5-65.2-44.4-102.3
			c-3.6-19.1-3.3-37.4-2.1-56.6c1.2-19.7-1-39.9,4.2-59.1c4.9-18,12-36.3,26.1-49c6.6-6,13.9-11.1,21.1-16.3
			c6.6-4.8,12.8-9.9,20.2-13.1c8.3-3.1,18.4-3.7,26.4-5.5c13.6-3,26.4-9.8,38-17.3c13.6-8.8,25.2-20.9,36.3-32.6
			c11.9-12.5,23.3-25.5,34.7-38.5c12.8-14.7,27.1-27.1,44-36.8c16.1-9.2,33.1-17.4,50.1-24.6c16.3-6.9,33.3-12,51-12.7
			C555.2,183.8,574,183.4,587.5,192.5z"/>
		<path class="topog-st5" d="M522.7,168.5c-15.2,3.6-29.8,9.3-43.3,17.2c-17.5,10.2-33.4,22.9-50.4,33.7c-7.9,5-16.6,9-24.2,14.6
			c-6.8,4.9-12.7,10.7-18.2,17c-11.7,13.3-21.2,28.4-33.7,40.9c-14.5,14.6-29.9,27.6-49.7,34.3c-11.2,3.8-22.8,6.6-34.4,8.7
			c-0.2-0.1-0.4-0.1-0.7,0c-3.1,0.7-6.3,1.3-9.5,1.7c-3.5,0.5-6.8,0.9-10.1,1.5c-0.7,0.1-1.3,0.2-2,0.3c-0.3,0-0.5,0.2-0.7,0.3
			c-3.8,1-7.4,2.4-10.8,4.8c-7.3,5.1-14.4,10.5-21.2,16.3c-13.5,11.6-27.6,24.4-36.5,40.1c-8,14.1-13.3,29.8-15.5,45.9
			c-2.5,17.9-0.4,35.4,2.2,53.3c2.9,20.2,5.9,41,12.4,60.5c3,9.1,7.3,17.7,11.7,26.2c4.4,8.5,7.4,17.5,11.4,26.1
			c8.9,19.4,21.4,37,32.5,55.2c10,16.6,19,33.6,31.9,48.2c10.5,11.9,23,25,38,31.2c13.6,5.6,28.5,7,43.1,6.4
			c36-1.7,70.3-14,106.1-17.3c36.2-3.4,72.3,11.6,107.9-1c18.3-6.4,32.5-17.3,47.8-28.6c10.8-7.9,22.7-14.5,32.5-23.6
			c0.1-0.1,0.3-0.1,0.4-0.2c9.1-9.1,18.4-17.7,25.3-28.7c6-9.5,10.6-19.8,13.8-30.6c6.6-22,7.7-46.2,2.5-68.7
			c-2.7-11.8-8.2-22.7-10.9-34.5c-2.6-11.3-2.9-22.8,0-34.1c3.2-12.4,9.5-23.2,14.6-34.9c3.8-8.6,5-17.3,5.6-26.3
			c0-0.1,0.1-0.2,0.1-0.3c0.9-11.1,2.2-22,1.7-33.2c-0.5-10.8-2.1-21.4-3.9-32.1c-4-23.8-7.6-47.7-13.8-71.1
			c-6-22.4-13.8-44.1-27.1-63.3c-12.7-18.2-28.6-34.3-46.5-47.4C578.6,160.7,548.6,162.3,522.7,168.5z M536.9,168.5
			c14.9-2.1,31.2-2.9,45.7,1.9c16.4,5.4,30.7,19.1,42.5,31.3c13.7,14.2,25.8,30.2,33.9,48.2c8.5,19,13.9,39.4,18,59.6
			c4,19.7,7.6,39.7,10.5,59.7c2.4,16.4,2.1,32,1,48.2c-0.1,0.2-0.2,0.4-0.2,0.7c-0.5,12.9-2.1,24.3-7.7,36
			c-5.2,10.6-10.7,21.1-13.1,32.8c-1.9,9.3-2.5,18.7-0.7,28.1c1.9,10.4,6.2,19.7,9.3,29.7c7.2,23.4,8.2,49.9,1.5,73.5
			c-3.4,11.9-7.9,23.6-14.7,34c-6.5,9.8-14.5,17.9-22.7,26.1c-8.5,8.7-19.1,15.2-29.1,21.9c-14.9,10-27.8,21.9-44.5,29
			c-16.8,7.1-34.2,9.5-52.3,8.1c-15.9-1.2-31.6-4.2-47.6-4.5c-33.4-0.7-65.6,10.6-98.3,15.4c-27.4,4-57.9,5.2-80.6-13.4
			c-16.1-13.2-29.8-29-40.5-46.9c-10.9-18.3-22.2-36.4-33-54.7c-10.5-17.6-17.8-36.5-26.9-54.9c-9.4-19.1-13.9-39.1-17.5-59.9
			c-3.4-19.5-7.5-40.1-6.4-59.9c1-18.4,5.5-37.1,14.3-53.4c9.2-17,23.4-30.8,38-43.2c7.5-6.3,15.7-13.8,24.5-18.3
			c2.2-1.1,4.5-1.9,6.8-2.5c0.1,0,0.1,0,0.1,0c19.3-2.6,38.9-5.9,57.3-12.4c19.9-7.1,35.6-19.8,50.2-34.7
			c13.4-13.7,23.4-30.1,36.4-44.1c14.1-15.1,32.7-23.4,49.5-35c17.1-11.8,33.9-24.9,52.9-33.5C507.3,175.1,521.9,170.6,536.9,168.5z
			"/>
		<path class="topog-st5" d="M521.1,158.8c-35.7,10.5-69.9,29.8-100.1,51.4c-16.3,11.6-31.7,24.5-45.3,39.2c-13,14.1-24.7,29.3-38.8,42.2
			c-14.5,13.3-31.3,24.3-50.6,29.2c-6.2,1.6-12.6,2.4-18.9,3.2c-0.2-0.1-0.5-0.2-0.8-0.1c-1.1,0.2-2.1,0.4-3.2,0.6
			c-5.1,0.6-10.1,1.4-15.1,2.5c-0.4,0.1-0.7,0.3-0.8,0.6c-1,0.3-1.9,0.5-2.9,0.8c-8,2.5-15.8,5.5-23.4,9
			c-18.5,8.5-33.4,20.9-46.9,36.2c-11,12.4-16.9,26.3-21.9,42c-4.9,15.6-7.9,31.5-8.1,47.9c-0.5,32.8,7.2,65,17.6,96
			c5.9,17.4,11.9,35.1,19.1,52c8.1,18.7,20.6,35,29.3,53.5c8.3,17.6,16.7,35.5,28.4,51.1c9.6,12.8,21,24.7,33.3,34.9
			c11.6,9.6,24.9,18.7,39.6,22.7c16.1,4.3,33.6,4.5,50.2,3.5c17.6-1,34.5-4.7,51.3-9.6c18.4-5.4,37.2-11.2,56.5-12.4
			c32.8-2.1,65.9,15.9,97.7,1.3c16.4-7.5,30.3-19.2,43.8-31.1c13.2-11.6,24.5-26,38.8-36.3c1.1-0.7,2.2-1.4,3.2-2.2
			c0.2-0.2,0.5-0.3,0.7-0.5c0.1,0,0.1-0.1,0.2-0.2c15.3-11.5,26.9-29.2,34.2-46.4c9.1-21.6,14.4-46,12.1-69.6
			c-2.4-25.1-17.8-48.4-16.2-73.9c0.9-14,8.4-23.9,12.6-36.7c3.7-11.1,4.5-23.1,5.1-34.7c0-0.1,0-0.1,0-0.2
			c1.7-27.1,0.6-54.2-0.5-81.2c-0.5-12.5-0.5-25.2-2.5-37.6c-1.9-11.8-4.8-23.4-8.6-34.7c-13.6-40.7-35.3-82.9-73.9-105
			C587,149.3,552.8,149.5,521.1,158.8z M578.8,155.8c33.1,4.1,62.2,27.4,80.1,54.9c18.7,28.8,32.8,63.5,37.5,97.5
			c2.7,19.4,2.5,39.5,3.1,59.1c0.6,20,0.8,40.1-0.6,60.1c0,0.1,0,0.2,0,0.2c-0.6,11.6-1.5,24-6.2,34.7c-4.3,9.6-9.8,18.5-10.9,29.2
			c-2.4,23.7,9.5,43.8,14,66.3c4.9,24.5,1.5,50.3-7.2,73.4c-7.4,19.8-19.6,40.7-37.1,53.3c-0.9,0.6-1.8,1.2-2.6,1.8
			c-0.7,0.4-1.3,0.9-2,1.3c-0.3,0.2-0.4,0.4-0.5,0.6c-8.1,6.3-15.1,13.8-22.4,21.2c-8.8,9-18.4,17.3-28.2,25.2
			c-14.9,11.9-31.7,23.4-51.3,24.7c-17,1.1-33.2-3.8-49.8-6.1c-17.8-2.5-35.5-0.7-52.9,3.5c-18.1,4.3-35.8,11-54.1,14.4
			c-18.4,3.4-37.4,4.5-56,2.8c-17.6-1.7-32.6-6.8-47.1-17.1c-13.4-9.5-25.3-20.9-36.1-33.4c-13.8-15.9-23.5-34.4-32.5-53.3
			c-4.6-9.6-8.9-19.2-14.5-28.3c-5.2-8.2-10.7-16.3-14.9-25.2c-8-17-14.1-35.2-20.2-52.9c-11.3-32.7-20.5-67.5-19.2-102.4
			c0.7-17.7,4.3-34.5,9.9-51.2c2.9-8.7,6.2-17.6,11.4-25.2c5.3-7.7,11.9-14.7,18.6-21.2c12.5-12,26.2-20.8,42.3-27.3
			c7-2.8,14.1-5.5,21.4-7.4c5.4-1.4,11-1.7,16.5-2.9c0,0,0.1,0,0.1,0c11.2-1.6,22.4-3,33.2-7.6c20.6-8.7,37.3-23.2,52.3-39.5
			c16.6-18.1,31.9-37,51.1-52.6c19.8-16.2,41.4-30.1,64-42.1C501.6,166.4,539.5,150.9,578.8,155.8z"/>
		<path class="topog-st5" d="M578.8,121.5c-17.6-0.3-32.7,7.3-48.5,13.9c-18.7,7.8-38.1,13.9-55.4,24.7c-16.8,10.5-32,22.9-46.7,36.3
			c-15.2,13.8-34.2,21.5-49.9,34.3c-13.9,11.3-23.8,26.1-35.8,39.2c-23.9,26.2-58.2,37.7-92.6,42.7c-0.2-0.1-0.4-0.1-0.6-0.1
			c-8.2,0.9-17,3.4-24.9,5.8c-7.4,2.2-14.3,5.9-20.8,10c-11.6,7.5-22.5,17.2-32.5,26.6c-10.5,9.9-21,20.7-27.9,33.5
			c-6.5,12.1-11,25.5-13.6,39c-6.7,34.5-2.7,71.3,4.3,105.6c7.8,38.6,24,75.4,40.9,110.8c8.8,18.4,18.3,36.5,29,53.9
			c9.3,15.1,19,31.8,32.4,43.5c13.9,12.1,30,21,43.5,33.6c9.6,8.9,19.9,16.9,31.9,21.5c0.1,0.2,0.3,0.4,0.6,0.5
			c7.7,2.2,15.7,4.9,23.7,5.3c7.8,0.4,15.7-1.9,23.1-4.2c17.5-5.4,34.1-13.1,51.4-19c19-6.5,37.6-9.4,57.7-8.1
			c18,1.1,36.1,1,53.8,4.6c15.4,3.1,31.7,5.5,47.3,2.3c16.6-3.5,29-12.7,40.7-24.6c6.4-6.5,12.2-13.4,17.9-20.5
			c6.5-8,14.5-14.5,21.5-22c5.5-5.9,9.5-12.6,14.5-19c3.2-4.1,7-7.3,10.7-10.8c0,0,0.1,0,0.1,0c8.2-7,13.4-17.3,17.8-27
			c4.8-10.6,9.1-21.6,12.9-32.6c6.6-19.2,10.4-42,5-62c-3-11-8.1-21.6-10.2-32.9c-2.1-11.3-1.8-23,1.4-34c2.7-9.4,6.3-18.4,7.7-28.1
			c0.7-4.9,1.1-9.7,1.2-14.6c0-0.1,0.1-0.2,0.1-0.3c0.1-9.3-1-18.3,0.5-27.6c1.4-8.6,3.7-17,5.3-25.5c3.5-18.1,4.5-36.6,3.6-55
			c-1.7-31.3-8.8-61.4-19-91c-15.6-45.3-39.1-99.3-85.6-120.2C604,124.7,591.5,121.7,578.8,121.5z M598.9,126.8
			c53.5,13.9,80.9,70.7,97.9,118.6c11,30.9,19.3,62.6,20.7,95.5c0.8,19,0,38.2-3.9,56.8c-1.8,8.6-4.1,17.2-5.3,26
			c-0.5,3.9-0.6,7.8-0.5,11.7c-0.1,0.2-0.2,0.5-0.2,0.8c0.2,2.7,0.4,5.4,0.5,8.1c0,0.2,0,0.5,0,0.7c0,1.1,0,2.2,0,3.3
			c0,0.2,0,0.4,0,0.6c-0.1,6.9-0.7,13.9-2.3,20.7c-2.2,9.5-6,18.6-8,28.2c-4,19.2,1.8,35.6,7.6,53.7c7,21.9,5.8,45.3-1.7,67
			c-3.5,10.2-7.4,20.5-11.7,30.5c-3.8,8.7-8.1,18.2-14.5,25.6c-0.9,1-1.8,2-2.7,2.9c-0.3,0.3-0.5,0.5-0.8,0.8
			c-4.2,4-8.7,7.5-12.2,12.2c-5.1,7-9.6,14-15.7,20.2c-6.3,6.3-13.2,12.1-18.8,19c-6.1,7.5-12.2,15-19,21.8
			c-12.9,12.9-26.6,23-45.4,24.9c-17.1,1.7-32.7-2.6-49.5-4.9c-16.9-2.3-34.5-2.7-51.5-3.2c-17.3-0.5-33.6,2.4-49.9,7.8
			c-17.3,5.7-33.8,13.6-51.2,19c-7.6,2.4-16.5,5.6-24.6,4.8c-5.5-0.5-11-1.8-16.3-3.3c-0.5-0.1-1.1-0.3-1.6-0.4
			c-0.7-0.2-1.4-0.4-2.1-0.6c-22.2-7.2-37.3-26.5-56.2-39.6c-10.9-7.5-22.6-15-30.9-25.5c-8.8-11.2-16.7-23.3-24.1-35.5
			c-21.1-34.8-37.9-72-52.8-109.9c-14.5-36.9-22.6-77.1-23.2-116.8c-0.6-35.1,7-71.4,31.1-98c11.1-12.3,23.8-23,36.7-33.2
			c13.6-10.7,29.9-17.9,47-20.8c0.1,0,0.2,0,0.4,0c30.8-3.8,65.8-12.5,89.5-33.7c12.2-10.9,21.5-24.4,32.5-36.4
			c12.7-13.9,28.2-22.3,43.9-32.4c15.4-9.9,27.8-23.1,42.1-34.4c15.4-12.1,31.9-22.3,50-29.9c9-3.8,18.2-6.8,27.1-10.6
			c7.7-3.2,15.3-6.9,23.1-9.8C567.6,123.5,583.3,122.8,598.9,126.8z"/>
		<path class="topog-st5" d="M610,103.3c-29.4-10-61.6-4.6-90.5,4.8c-37.2,12.1-66.9,36.3-92.2,65.5c-6.7,7.7-12.8,15.8-20.3,22.7
			c-6.9,6.4-14.2,12.3-21.5,18.2c-13.8,11.4-26.5,24-40.2,35.4c-27.7,23.1-59.7,45.9-96.3,50.9c-0.4,0.1-0.7,0.3-0.9,0.5
			c-16.7,2.9-34.3,3.4-49.5,11c-10.5,5.2-21.7,11.7-30.9,19.1c-8.3,6.7-13.5,15.6-19.3,24.4c-23.4,35.6-35.6,76.4-36.5,119.2
			c-0.8,36.8,7.1,72.9,15.5,108.5c2.3,9.7,3.1,19.8,5.6,29.5c2.3,8.7,5.9,16.6,10.1,24.6c9.4,18,16.5,37.2,25.7,55.3
			c8.6,16.9,18.2,34.1,31,48.2c12.5,13.8,27.4,25,42.6,35.7c14.7,10.3,29,21.7,45.7,28.7c8.9,3.7,18.1,6.8,27.4,9.2
			c3.6,0.9,7.4,2.1,11.2,2.5c0.2,0.1,0.3,0.2,0.6,0.2c0.7,0,1.5,0,2.2,0c0,0,0.1,0,0.1,0c14.6,0.4,29-3.9,42.5-9
			c16.1-6.1,32.5-16.6,49.9-18.4c9.1-1,18.3-0.8,27.4-1.5c9.3-0.8,18.6-0.7,27.9,0.3c17.8,2,35,6.5,52.4,10.6
			c15.2,3.6,29,3.4,43.7-2.2c14.2-5.5,28.2-13.4,40.6-22.4c14.8-10.8,26.8-24.7,37.6-39.3c10.5-14.2,19.2-31.4,34-41.6
			c7.1-5,12.7-12.3,17.7-19.3c6.2-8.6,11.5-17.6,15.1-27.6c7.7-21.5,11-45.8,5.7-68.4c-3.1-13.3-8.3-26-8.8-39.8
			c-0.4-11.2,1.2-22.3,4.3-33.1c5.1-17.6,6.9-35.4,5.8-53.6c0-0.1,0-0.1,0-0.2c0-0.1,0-0.2,0-0.4c-0.1-1.9-0.3-3.8-0.5-5.8
			c-0.7-13.3,2-26.7,4.5-39.7c3.3-17.3,6.1-34.3,5.9-52c-0.2-18.3-2.2-36.6-5.1-54.6c-4.7-29-9.9-57.9-21-85.2
			C690.8,169,658.4,119.8,610,103.3z M629,115.1c45.3,27.3,74.6,80.2,87.9,130.2c4.2,15.7,6.9,31.9,9.6,47.9
			c3.3,19.3,5.9,38.9,6.1,58.5c0.2,17.8-2.1,34.8-5.5,52.2c-2.5,12.9-5.2,26.2-4.9,39.5c-0.1,0.2-0.2,0.4-0.1,0.7
			c0.1,0.7,0.1,1.3,0.2,2c0.1,2.1,0.3,4.3,0.6,6.4c0.6,8.3,0.5,16.7-0.2,25c-1,10.9-4,20.8-6.6,31.4c-5,20.3-3.6,38.9,2.3,58.8
			c7.2,24,7.1,48.6-0.5,72.5c-3.4,10.6-7.9,21-14.6,30c-6.1,8.2-12.1,17.4-20.9,22.8c-0.1,0.1-0.2,0.2-0.3,0.3
			c-12.8,9.6-20.5,24.3-29.9,37c-11,15-22.9,30.2-38.1,41.2c-13.2,9.6-28.3,18.8-43.8,24.1c-8.2,2.8-17.1,4.8-25.9,4
			c-8.4-0.7-16.6-3.2-24.7-5.2c-16-3.8-32.2-7.7-48.6-8.7c-8.2-0.5-16.3-0.1-24.4,0.5c-8.4,0.6-16.9,0.1-25.2,1.3
			c-16.5,2.3-31.5,11.3-46.9,17.2c-13.7,5.3-28.3,10.1-43.1,10.1c-0.1,0-0.2-0.1-0.4,0c-0.4,0-0.8,0-1.3,0c-0.8,0-1.6,0-2.4,0
			c0,0,0,0,0,0c-7.2-0.5-15.3-3.6-21.8-5.7c-9.7-3.1-19.5-6.8-28.4-11.8c-16.9-9.6-33.1-21.9-48.4-33.7
			c-17.2-13.2-31.8-28-43.4-46.4c-10.8-17.3-19.6-35.8-27.9-54.4c-4.3-9.6-8.4-19.2-13.3-28.5c-4.7-9.1-8.3-18.3-10.1-28.5
			c-3.5-19.5-8.9-38.6-12.1-58.2c-3.1-18.6-6.7-37-7.4-55.8c-0.6-17.3,0.3-34.7,3.3-51.7c6.1-35,20.2-68.3,41.8-96.6
			c6.8-8.9,16-14.5,25.3-20.4c8.1-5.1,16.3-9.9,25.6-12.3c15.5-4,31.6-4.8,47-8.8c0.1,0,0.1,0,0.1-0.1c3.8-0.8,7.5-1.7,11.2-2.9
			c33.1-10.8,61.8-32.6,87.7-55.4c13.7-12.1,27.3-24.2,41.4-36c15.2-12.8,26.7-28.1,40.2-42.4c28.6-30.4,63.4-52.3,104.7-60.5
			c16-3.2,32.9-5.7,49.2-3C605.2,103.6,617.7,108.3,629,115.1z"/>
		<path class="topog-st5" d="M564.5,71.6c-53.8,1.4-102.2,30.1-137.2,69.6c-12.9,14.6-26.9,28.2-39.3,43.2c-13.2,16-26,33.1-41,47.6
			c-15.4,14.9-32.5,26.1-51.2,36.2c-16.5,9-32.1,20.1-50.3,25.5c-0.2,0.1-0.4,0.2-0.5,0.3c-4.6,1.6-9.3,3.3-14.1,4
			c-7.9,1.1-16.2,0.9-24,2.8c-14.5,3.6-28,12-39.6,21.1c-21.2,16.6-43.3,35.9-54.9,60.8c-26.5,57-10,122.4-3.9,182
			c2.1,20.5,7.8,40.5,13.3,60.3c5.3,19,8.8,39.2,17.2,57.1c9,19.1,20.4,36.8,32.2,54.3c9.8,14.6,19.4,29.4,31.8,42
			c23.4,23.6,53.9,38.5,86.6,43.7c17.1,2.7,35.2,3.9,52.3,1.3c19.2-2.9,38.5-4.7,57.8-7.3c0.2,0,0.4-0.1,0.6-0.2
			c1.6-0.2,3.1-0.4,4.7-0.5c10.1-0.8,20.1,0.2,30.2,1.1c9.3,0.8,18.8,1.9,28.1,1.5c8-0.4,15.9-1.5,23.9-1.3
			c16.3,0.4,31.7,7.6,47.7,10.3c14.2,2.4,27.6,1.2,41-4c13.5-5.2,26.2-12.6,37.5-21.6c7.3-5.8,14.2-12,21.3-18
			c5.7-4.9,12.3-9.4,17-15.2c9.2-11.5,12.4-26.3,19.5-39c6.6-11.8,14.2-25.7,25.5-33.9c0.7-0.4,1.3-0.9,2-1.3c0.3-0.2,0.6-0.4,1-0.6
			c0.2-0.1,0.3-0.3,0.4-0.4c14.3-10.6,24.7-26.1,31.5-42.4c3.7-8.9,7.2-18.5,7.6-28.2c0.4-8.7-0.8-17.2-2.6-25.7
			c-2-9.6-4.7-19.2-5.4-29c-0.9-11.9,1.8-22.7,5.6-33.9c5.6-17,7.9-34.2,6.6-51.8c0-0.2,0.1-0.4,0-0.6c0-0.3-0.1-0.7-0.1-1
			c-0.2-2.3-0.5-4.7-0.8-7c-1.1-12.1-0.9-24.3-0.8-36.5c0.1-14.5,1.1-28.1,3.9-42.3c3.7-18.3,4.3-35.6,2.9-54.3
			c-1.4-19.5-0.6-39.5-3.5-58.9c-2.8-18.7-8-36.9-12.4-55.2c-4.2-17.9-9.7-34.6-20.5-49.7c-21.7-30.4-43.8-61.5-74.9-83
			C616,78.4,590.5,71,564.5,71.6z M611.9,82.4c32.9,13.1,57.7,40.5,78.1,68.5c12.1,16.6,26.6,32,33.6,51.7
			c6.6,18.4,10.5,38.3,14.9,57.3c2.1,9.3,4.1,18.8,5,28.3c0.9,10.1,0.6,20.1,1.2,30.2c1.1,19.5,4.3,39.4,1.6,58.9
			c-2.5,17.7-6.9,34.5-6.9,52.6c0,14-0.5,28.2,0.7,42.2c0,0.1,0,0.1,0,0.2c0,0.3,0.1,0.7,0.1,1c0.2,2.1,0.4,4.2,0.7,6.3
			c0.9,9.3,0.8,18.8-0.3,28.1c-1.2,10.1-4.3,19.3-7.4,29c-2.8,8.8-5,17.6-4.6,26.9c0.4,8,1.8,15.8,3.5,23.6c2.1,9.4,4.6,19,4.7,28.7
			c0.2,9.6-1.8,18.6-5.2,27.5c-7,18.4-17.8,36.3-33.9,47.9c-0.7,0.4-1.4,0.9-2,1.4c-0.5,0.3-0.9,0.6-1.4,0.9
			c-0.2,0.1-0.3,0.3-0.4,0.5c-8.9,7.1-15.5,17.5-21.1,27.1c-3.6,6.1-6.9,12.3-9.6,18.9c-2.8,6.8-5.2,14.1-9.2,20.4
			c-4.9,8-12,13.3-19,19.3c-6.8,5.8-13.5,11.8-20.4,17.4c-11.8,9.7-25.2,18.1-39.6,23.4c-16.8,6.1-32.6,6-49.8,1.6
			c-14.8-3.8-29-8.8-44.5-7.9c-9.5,0.6-18.8,1.5-28.4,0.9c-8.9-0.5-17.7-1.4-26.6-2.1c-8.8-0.7-17.3-0.2-25.7,0.7
			c-0.2-0.1-0.4-0.2-0.7-0.1c-14.6,2-29.5,2.7-44.1,5c-14.2,2.3-27.9,4-42.3,3.3c-26.4-1.3-52.9-7.5-76-20.8
			c-22.1-12.7-39.8-30.8-54-51.9c-17.1-25.5-37.6-52.1-46.8-81.7c-6.2-19.7-11.1-40.2-16.2-60.2c-2.6-10.3-5.8-20.7-7.3-31.2
			c-1.3-9.4-1.9-18.8-3-28.2c-4.4-39.4-12.6-79-7.3-118.7c2.3-17.1,6.6-34.7,14.9-49.9c8.2-15.1,19.8-26.9,32.3-38.4
			c14.8-13.7,30.5-26.9,49.4-34.5c10-4,19.9-3.8,30.3-5.3c6.8-1,13.3-3.4,19.8-5.5c0.2-0.1,0.5-0.2,0.7-0.3c0.6-0.2,1.2-0.4,1.8-0.6
			c0.1,0,0.2-0.1,0.3-0.2c16.7-6.2,31.4-16.7,47.2-24.8c17.4-8.9,33.8-20.2,47.9-33.9c14.1-13.7,25.7-29.4,38.5-44.2
			c13.6-15.8,28-30.8,41.9-46.4c9.2-10.4,18.6-20.4,29.5-29.1C499,82.5,559.4,61.4,611.9,82.4z"/>
		<path class="topog-st5" d="M491.3,70.3c-18.4,8.4-35,18.5-51.2,30.6c-31,23.1-62.9,45-85.7,76.8c-21.2,29.5-37.5,65.3-69.1,85.3
			c-14.8,9.4-30.8,15.9-47.1,21.9c-6.9,2.5-13.8,5.1-20.9,7c-2.1,0.6-4.5,1.3-6.9,1.9c-0.1,0-0.1,0-0.2,0c-3.8,1-7.7,0.3-11.6-0.1
			c-3.9-0.4-7.6-0.2-11.4-0.2c-7.1,0-13.9,0.5-20.5,3.4c-14.6,6.4-26.6,16.4-39.1,26c-10.8,8.4-22,19.6-28,32.1
			c-6.9,14.4-14.8,28.5-19.1,44c-0.1,0.2-0.1,0.4,0,0.6c-1.3,5.4-1.6,11-2.2,16.6c-0.8,8.7-2,17.2-2.2,26
			c-0.5,18.9-3.2,37.4-4.3,56.2c-1.1,18.9,1.7,36.9,5,55.5c3.5,19.4,7.4,38.7,12.7,57.7c5.3,19.1,11.5,37.9,19.5,56
			c8.3,18.7,18.6,36.4,29.1,54c10,16.8,20.5,33.5,32.5,49.1c6.2,8.1,12.5,16.2,20.1,23.1c6.9,6.2,14.2,12,21,18.2
			c26.2,24.1,60.5,39.1,94.7,47.8c17,4.3,33.6,5.7,51.1,5c15.7-0.7,31.2-1.5,46.2-5.9c0.1,0,0.3,0,0.4,0c1.8-0.5,3.4-1.1,5.1-1.7
			c0,0,0,0,0.1,0c0,0,0,0,0,0c3.7-1.4,7.3-3.1,11-4.5c7.8-2.9,16.2-4,24.5-3.9c18.3,0.3,36.4,4,54.7,4c35.1,0,69-4.4,101.3-18.9
			c28.9-13,58-31.9,71.5-61.7c7.4-16.2,12.6-33.7,23.4-48.1c7.4-9.9,16-18.7,23.7-28.4c0,0,0,0,0.1-0.1c0.1-0.2,0.3-0.4,0.4-0.6
			c2-2.5,3.9-5,5.7-7.7c0.1-0.2,0.2-0.4,0.2-0.5c7.1-10.5,13.4-22.2,17.4-33.7c3-8.6,5.4-17.9,4.9-27c-0.6-10.5-2.9-20.9-3.3-31.5
			c-0.3-11.3,1.4-22.1,4.6-32.9c1.5-5.3,3.1-10.2,5.6-15.1c1.9-3.6,4-7.3,5.1-11.3c2.9-10.5,1.6-22.2-0.2-33.4
			c0.1-0.2,0.1-0.4,0.1-0.7c-0.7-3.7-1.3-7.3-1.9-11c-0.1-0.7-0.2-1.4-0.3-2.1c0-0.1,0-0.1,0-0.2c-1.3-8.4-2.3-16.9-2.3-25.3
			c0-12.8,1.8-25.6,2.9-38.3c2.4-27,5-53.9,7-80.9c1.4-18.9,3.2-38.1,2.5-57.1c-0.7-18.8-5.8-37-10.3-55.2
			c-9.4-38.4-23.3-74.9-44.8-108.3C702,106.8,687.6,93.4,674,79.8c-11.1-11-22.1-20.9-36.4-27.5c-27.6-12.7-60.7-15.6-89.2-4.5
			C529.3,55.1,509.9,61.9,491.3,70.3z M492.4,72.7c18.7-8.3,37.9-15.5,57.1-22.6c31.8-11.7,70.1-7.5,98.8,11
			c15.4,9.9,28.2,24.3,40.7,37.5c14.2,15,25.7,31.5,35.2,49.8c19,36.6,30.6,76.6,38.4,116.9c3.6,18.5,2.2,37,1.4,55.6
			c-0.9,21-2.9,42.1-4.8,63c-1.9,21-3.9,42-5.6,63c-1.2,14.1-0.4,27.5,1.5,41.2c-0.1,0.2-0.1,0.4,0,0.6c2.3,16.2,7.7,36,0.2,51.4
			c-7.8,16.2-13.8,33.7-13.2,52c0.3,10.1,2.1,20.1,3.1,30.2c1,10.2-0.9,20.5-4.5,30c-5.3,14.1-13.3,28.5-22.5,40.6
			c-8,10.1-17.2,19.2-24.7,29.7c-9.4,13-14.7,27.8-20.9,42.5c-6.9,16.1-15.9,29.2-29.6,40.2c-14.5,11.6-30.6,21.1-47.8,28.2
			c-33.8,13.9-70.9,19-107.4,16.3c-16.4-1.2-33.3-4.8-49.8-3.3c-6.4,0.6-12.7,1.6-18.8,3.9c-3.6,1.4-7.2,3.1-10.8,4.5
			c0,0-0.1,0-0.1,0c-16.3,5.8-33.3,6.7-50.5,7.4c-15,0.6-29.5,0.1-44.1-3.3c-28.5-6.6-58.1-17.6-82.2-34.4
			c-8.2-5.7-15.5-12.4-23.1-18.9c-7.5-6.4-15.4-12.6-22.2-20c-14-15.2-25.8-33-36.7-50.5c-22.1-35.6-41.9-71.8-53.9-112.2
			c-5.9-19.7-10.5-39.7-14.3-59.9c-3.7-19.8-7.9-39.8-6.9-60c0.9-18.7,3.9-37.3,4.4-56c0.3-9.7,1.3-19.1,2.2-28.7
			c0.8-8.2,1.1-16.6,4.2-24.3c0.1-0.2,0.1-0.4,0.1-0.6c4.2-12.3,10.4-23.8,16-35.5c6.8-14,18.4-24.6,30.1-34.5
			c11.4-9.5,24.5-20.1,38.7-25c7.7-2.6,16.9-3.1,25-2.5c1.3,0.1,2.6,0.2,3.9,0.4c0.1,0.1,0.3,0.2,0.5,0.3c11.3,2.7,25.5-4.2,35.9-8
			c17.6-6.4,35.4-13,51.2-23.3c29.6-19.5,45.7-50.8,65.3-79.3c11.2-16.3,24.1-31.2,39.1-44.1c15-13,31.3-24.5,47.2-36.3
			C455.2,92.9,472.7,81.5,492.4,72.7z"/>
		<path class="topog-st5" d="M509.6,42.1c-16.8,7.9-35,14.2-50.5,24.6c-15.4,10.3-24.6,25.7-37.5,38.5c-13.7,13.6-30.4,23.1-45.1,35.5
			c-29,24.5-52,54.7-76,83.8c-12.7,15.4-28.3,28-47.1,35c-14.9,5.5-30.5,8-46.2,9.3c-0.1,0-0.3-0.1-0.5-0.1
			c-2.9,0.1-5.7,0.4-8.5,0.8c-0.5,0-1,0.1-1.6,0.1c-0.2,0-0.4,0.1-0.6,0.2c-14.8,2.1-29.2,7-42.9,13.1c-8.8,3.9-18.1,7.8-26.4,12.9
			c-7.8,4.8-14.2,10.9-20.1,17.8c-12.1,13.9-25.6,28.4-33.4,45.3c-6.1,13-10.4,27.8-13.6,42.1c-2.4,8.8-3.4,18-5.2,26.9
			c-2.4,11.6-5.3,23.2-7.1,34.9c-3.6,23.5-3.1,47.3-0.1,70.8c3.1,24.5,8.4,48.8,15.8,72.4c7.3,23.3,16.8,45.9,25.6,68.7
			c7.5,19.5,15.9,37.7,27.2,55.3c11.4,17.6,22.1,35.6,33.5,53.1c10.5,16.2,22.6,31.9,36,45.8c11.9,12.3,25.8,22.7,39.9,32.4
			c13,8.9,27.1,17.1,42.6,20.6c17,3.9,35.2,3.7,52.5,2.7c10.1-0.6,20.2-1.7,30.2-3.5c9.7-1.7,19.1-4.1,28.9-4.5
			c8.9-0.4,18-0.7,26.8-0.3c6.6,0.3,13.3,1.1,20,1c0.1,0,0.2,0,0.2,0c14.6,0.1,29-3.8,43.6-4.1c18-0.5,35.9-0.2,53.9-1.7
			c36.1-3.1,73.6-8.2,105.6-26.4c14.1-8,30.1-17.7,40.8-30.2c9.9-11.7,14.4-26.9,21.1-40.5c3.7-7.6,5.8-15.6,8.9-23.4
			c3.5-8.6,9.3-16.1,14.7-23.6c5.6-7.7,11.1-16.1,17.8-22.9c3.6-3.6,7.5-7,10.8-10.9c0,0,0.1-0.1,0.1-0.1c0.3-0.3,0.5-0.7,0.8-1
			c0,0,0,0,0,0c7.7-9.3,11.4-21.5,13.7-33.2c2.8-14.5,4-29.6,2.7-44.4c-1-10.6-1.2-21.1,4.9-30.3c4.4-6.6,7.8-12.8,9.9-20.6
			c3-11.3,5.3-23.9,5.6-35.8c0-0.1,0.1-0.2,0.1-0.2c0-0.5,0-0.9,0-1.4c0-1.3,0-2.6,0-3.8c0-0.2,0-0.4-0.1-0.6
			c-0.9-14.6-5.6-28.7-7.6-43.2c-2.5-17.3-3.6-34.9-2.9-52.4c1.4-35.3,7.4-70.1,10.6-105.2c1.7-19.1,1.8-37.4-1.2-56.4
			c-3-18.9-4.1-38.1-7.8-56.9c-3.7-19-11.8-36.3-20.2-53.6c-8.8-18.1-19.5-34.4-30.9-50.9c-9.9-14.2-17.3-30.9-30.2-42.8
			C679.3,50,665.4,43,651.9,35.2c-13.3-7.7-26.6-15.4-41.8-18.6c-16.6-3.4-34.4-0.3-50.3,4.6C542.5,26.6,526,34.3,509.6,42.1z
			 M508.7,45.4C541.5,30,581.5,8.9,618.6,21.5c15.7,5.3,30.1,14.7,44.5,22.9c13.9,8,27,16.9,36.3,30.1c5.6,7.9,10.1,16.6,15.5,24.7
			c5.9,8.6,12.1,16.9,17.8,25.7c11.2,17.5,19.9,36.4,28.3,55.4c8.2,18.5,10.2,37.8,12.4,57.7c2.2,19.8,7.5,39.6,6.8,59.6
			c-1.4,39.2-9.2,77.8-11.6,116.9c-1.2,18.6-1,37.3,1.2,55.9c2.1,17.9,8.3,35.6,8.9,53.6c0.2,14.1-2.3,30.2-6.8,43.3
			c-2.6,7.7-7.5,13.6-11.2,20.8c-3.2,6.2-3.1,13.8-2.9,20.6c0.5,14.4,1.3,28.2-0.8,42.5c-1.9,12.7-5,26.8-12.7,37.4
			c-0.2,0.1-0.3,0.2-0.5,0.4c-4.3,6.2-10.8,10.4-15.4,16.4c-5.2,6.8-10.6,13.4-15.6,20.4c-4.6,6.4-10,12.9-13.2,20.1
			c-3.4,7.5-5.2,15.6-8.6,23.1c-3.7,8.1-7.6,16-11,24.2c-2.8,6.6-6,13.2-10.6,18.8c-11.2,13.2-27.8,23.7-42.9,31.8
			C594,861,557.1,866.1,521,869c-18.6,1.5-37.2,0.8-55.9,1.7c-14.8,0.7-29.3,5-44.2,3.7c-0.4,0-0.7,0.1-0.9,0.3
			c-15.1-0.2-30.1-1.7-45.3-0.4c-10.7,0.9-21.1,3.8-31.8,5.3c-10.7,1.5-21.5,2.5-32.3,2.7c-20.8,0.4-41.5-0.4-60.7-9.5
			c-16.7-7.9-31.3-19.3-45.9-30.5c-33.9-25.9-53.4-64.4-76.5-99.1c-11.4-17.1-22.7-34.3-30.4-53.5c-7.6-19.1-15.2-38.3-22.5-57.6
			c-14.2-37.6-24.4-77.6-26.9-117.9c-1.3-21.3-0.1-42.2,4.3-63.1c2.1-10.1,4.5-20.1,6.3-30.2c0.7-3.9,1.3-7.7,2-11.6
			c0,0,0-0.1,0-0.1c0.6-3.2,1.4-6.4,2.3-9.6c0.3-1.1,0.6-2.2,1-3.3c0.1-0.2,0.1-0.5,0.1-0.7c1.1-3.8,2.2-7.6,3.2-11.4
			c2.5-8.9,5-18.1,9.4-26.2c8.7-16.2,21.2-30.6,33.4-44.3c12.3-13.7,27.8-21.3,44.4-28.6c14.1-6.1,28.6-11.2,43.8-13.1
			c26.6-1.7,54.3-5.5,77-20.7c23.4-15.7,39.1-40.2,57.1-61.5c12.7-15.1,26-29.8,40.8-42.8c14.5-12.7,31.6-22.3,45.6-35.5
			c13.4-12.6,23.2-29.7,38.3-40.4C472.7,60.2,491.3,53.6,508.7,45.4z"/>
		<path class="topog-st5" d="M470.4,33.7c-33.3,19.7-63.8,43.1-89.3,72.3c-11.9,13.6-22.7,28.1-33.6,42.5c-12.3,16.2-26.7,30.6-42.5,43.3
			c-15.3,12.3-31.4,25.3-50.1,31.8c-15.7,5.5-32.1,7.5-48.3,10.8c-0.4,0.1-0.8,0.2-1.2,0.2c-1.1,0.2-2.2,0.4-3.3,0.7
			c-0.2,0-0.3,0.1-0.5,0.2c-43.3,10-82.6,35.1-115.5,64.4c-33.4,29.7-61.9,63.7-75.2,107.2c-18.9,61.9-9.9,127.2,3,189.5
			C30,674.7,49.2,757.2,99.9,821.1c37.1,46.7,90.1,80.4,149,90.6c15,2.6,30.2,3.9,45.5,3.4c16-0.5,31.3-3.6,47.2-5.3
			c19-2,38.1-1.2,57.1,0.2c9.6,0.7,19.3,1.9,28.9,1.7c2.2-0.1,4.4-0.3,6.6-0.6c0.2,0.1,0.4,0.1,0.8,0.1c0.7-0.2,1.4-0.4,2.1-0.6
			c4.2-0.8,8.3-2,12.4-3.2c0.2-0.1,0.4-0.2,0.5-0.3c6.2-1.7,12.4-3.4,18.7-4.8c19.8-4.2,39.8-9.3,59.9-11.9
			c19.2-2.6,38.9-3.5,57.6-9c18.8-5.5,34.2-16,50.8-25.9c8.1-4.8,16.5-9.3,24-15c7.4-5.7,13.3-12.5,19.7-19.2
			c11.8-12.6,24.8-24.4,29.5-41.7c2.2-8.2,3.5-16.8,6.9-24.7c3.4-8,6.7-16,10.5-23.8c4.1-8.5,8.7-17.3,15.6-23.8
			c1.8-1.7,3.6-3.4,5.5-5.1c1-1,2.1-1.9,3.1-2.9c1-0.9,2-1.8,2.9-2.7c0,0,0-0.1,0.1-0.1c7.9-7.4,15.3-15.2,19.4-25.4
			c5.3-13.1,4.5-26.2,2.8-40c-1.1-8.9-2.2-18.2-0.9-27.1c1.4-9.9,6.3-16.5,10.7-25.1c3.3-6.3,6-13.2,7.4-20.2
			c1.5-7.5,0.7-14.8,1.2-22.4c0-0.3-0.1-0.5-0.2-0.7c-0.2-19.3-3-38.6-5.4-57.8c-2.9-23.4-5-46.1-2-69.7c2.9-22.7,8.5-45,10.3-67.8
			c2.1-25.2,1.3-51.3,0.2-76.5C794.8,191.6,768,119.9,717,67.7C677.2,27,624.1-2.8,566,0.2C531.8,2,499.5,16.4,470.4,33.7z
			 M508.6,17.2C538.3,4.6,570-0.9,602.1,5c60.1,10.9,113.5,54.6,146,105.4c21.3,33.3,37.1,72.8,43.4,111.9
			c3.2,19.8,4.3,39.8,4.5,59.9c0.2,19.2,1.1,38.8-0.7,57.9c-3.1,34.5-14.4,68.6-12,103.5c2.3,33.4,10.1,66.7,9,100.3
			c0,0.2,0,0.4,0.1,0.6c0,5.3,0,10.5-1.4,15.8c-2.1,7.9-5.2,15.3-9.5,22.2c-7.9,12.7-9.5,25.8-8.1,40.6c1.5,15.2,4.8,30.7-1.1,45.4
			c-5.5,13.7-15.9,22.8-26.5,32.5c-0.1,0.1-0.2,0.3-0.3,0.4c-9.1,9-15.9,18.7-21.4,30.7c-3.8,8.3-8.1,16.9-11,25.6
			c-2.4,7.5-3.6,15.3-6,22.7c-3.3,10.6-9.4,18.7-16.8,26.7c-6.4,6.9-12.7,14-19.3,20.8c-14,14.4-32.5,23.5-49.4,34
			c-17.6,10.9-35.8,18-56.3,21.1c-19.2,2.9-38.9,3.7-57.9,8.4c-15.9,3.9-32.2,6.2-48,10.4c-6.2,1.7-12.4,3.3-18.7,5
			c-7.8,1.7-15.5,2.4-23.9,1.8c-10.4-0.7-20.7-1.6-31.1-2.2c-20.3-1.1-39.9-0.2-59.9,3c-34.8,5.6-70.7,3.4-104.4-7.2
			C156,881.9,105,834.7,73.1,774.7c-19.7-37-32.9-76.9-43-117.5c-9.3-37.4-18-75.5-23.2-113.7c-8.6-63.3-6.2-131.6,30.3-186.2
			c19.9-29.7,47.8-55.6,76.6-76.5c28.2-20.5,59.8-37.2,94.2-44.1c0.4-0.1,0.7-0.1,1.1-0.2c2.1-0.4,4.2-0.8,6.4-1.1
			c0.1,0,0.2-0.1,0.3-0.1c15.8-2.8,31.7-5.2,46.4-11.7c20.3-9,38.8-24.1,55.2-38.8c33.5-30.1,55.6-70.4,88.7-101
			C435.6,56.3,471.4,32.9,508.6,17.2z"/>
	</g>
</g>
</svg>
